<svg width="25" height="24" viewBox="0 0 25 24" fill="none" xmlns="http://www.w3.org/2000/svg">
<path d="M4.5 7V17M17.5 4H7.5M20.5 7V17M17.5 20H7.5M9.5 15L10.3571 13M10.3571 13L12.0404 9.07234C12.2136 8.66828 12.7864 8.66828 12.9596 9.07234L14.6429 13M10.3571 13H14.6429M14.6429 13L15.5 15M3.1 7H5.9C6.46005 7 6.74008 7 6.95399 6.89101C7.14215 6.79513 7.29513 6.64215 7.39101 6.45399C7.5 6.24008 7.5 5.96005 7.5 5.4V2.6C7.5 2.03995 7.5 1.75992 7.39101 1.54601C7.29513 1.35785 7.14215 1.20487 6.95399 1.10899C6.74008 1 6.46005 1 5.9 1H3.1C2.53995 1 2.25992 1 2.04601 1.10899C1.85785 1.20487 1.70487 1.35785 1.60899 1.54601C1.5 1.75992 1.5 2.03995 1.5 2.6V5.4C1.5 5.96005 1.5 6.24008 1.60899 6.45399C1.70487 6.64215 1.85785 6.79513 2.04601 6.89101C2.25992 7 2.53995 7 3.1 7ZM3.1 23H5.9C6.46005 23 6.74008 23 6.95399 22.891C7.14215 22.7951 7.29513 22.6422 7.39101 22.454C7.5 22.2401 7.5 21.9601 7.5 21.4V18.6C7.5 18.0399 7.5 17.7599 7.39101 17.546C7.29513 17.3578 7.14215 17.2049 6.95399 17.109C6.74008 17 6.46005 17 5.9 17H3.1C2.53995 17 2.25992 17 2.04601 17.109C1.85785 17.2049 1.70487 17.3578 1.60899 17.546C1.5 17.7599 1.5 18.0399 1.5 18.6V21.4C1.5 21.9601 1.5 22.2401 1.60899 22.454C1.70487 22.6422 1.85785 22.7951 2.04601 22.891C2.25992 23 2.53995 23 3.1 23ZM19.1 7H21.9C22.4601 7 22.7401 7 22.954 6.89101C23.1422 6.79513 23.2951 6.64215 23.391 6.45399C23.5 6.24008 23.5 5.96005 23.5 5.4V2.6C23.5 2.03995 23.5 1.75992 23.391 1.54601C23.2951 1.35785 23.1422 1.20487 22.954 1.10899C22.7401 1 22.4601 1 21.9 1H19.1C18.5399 1 18.2599 1 18.046 1.10899C17.8578 1.20487 17.7049 1.35785 17.609 1.54601C17.5 1.75992 17.5 2.03995 17.5 2.6V5.4C17.5 5.96005 17.5 6.24008 17.609 6.45399C17.7049 6.64215 17.8578 6.79513 18.046 6.89101C18.2599 7 18.5399 7 19.1 7ZM19.1 23H21.9C22.4601 23 22.7401 23 22.954 22.891C23.1422 22.7951 23.2951 22.6422 23.391 22.454C23.5 22.2401 23.5 21.9601 23.5 21.4V18.6C23.5 18.0399 23.5 17.7599 23.391 17.546C23.2951 17.3578 23.1422 17.2049 22.954 17.109C22.7401 17 22.4601 17 21.9 17H19.1C18.5399 17 18.2599 17 18.046 17.109C17.8578 17.2049 17.7049 17.3578 17.609 17.546C17.5 17.7599 17.5 18.0399 17.5 18.6V21.4C17.5 21.9601 17.5 22.2401 17.609 22.454C17.7049 22.6422 17.8578 22.7951 18.046 22.891C18.2599 23 18.5399 23 19.1 23Z" stroke="white" stroke-width="2" stroke-linecap="round"/>
</svg>
