<svg width="25" height="24" viewBox="0 0 25 24" fill="none" xmlns="http://www.w3.org/2000/svg">
<path d="M15.5 10L11.6402 13.8893C11.4937 14.0369 11.2563 14.0369 11.1098 13.8893L9.5 12.2672M20.9176 9.21633C20.624 8.82449 20.4608 8.4 20.3956 7.9102L20.1346 6.11429C20.0041 5.16735 19.2537 4.41633 18.2749 4.25306L16.4804 3.99184C16.0237 3.92653 15.5669 3.73061 15.1754 3.46939L13.7724 2.42449C13.3809 2.13061 12.9241 2 12.4674 2C12.0106 2 11.5538 2.13061 11.1623 2.42449L9.72675 3.50204C9.33524 3.79592 8.91109 3.95918 8.4217 4.02449L6.65987 4.28571C5.7137 4.41633 4.9633 5.16735 4.80016 6.14694L4.53915 7.94286C4.4739 8.4 4.27814 8.85714 4.01713 9.24898L2.94046 10.6857C2.35318 11.4694 2.35318 12.5469 2.94046 13.298L4.01713 14.7347C4.31077 15.1265 4.4739 15.551 4.53915 16.0408L4.80016 17.8367C4.93067 18.7837 5.68108 19.5347 6.65987 19.698L8.45432 19.9592C8.91109 20.0245 9.36786 20.2204 9.75938 20.4816L11.1949 21.5592C11.978 22.1469 13.0546 22.1469 13.8051 21.5592L15.2406 20.4816C15.6321 20.1878 16.0563 20.0245 16.5457 19.9592L18.3401 19.698C19.2863 19.5673 20.0367 18.8163 20.1998 17.8367L20.4608 16.0408C20.5261 15.5837 20.7219 15.1265 20.9829 14.7347L22.0595 13.298C22.6468 12.5143 22.6468 11.4367 22.0595 10.6857L20.9176 9.21633Z" stroke="white" stroke-width="2" stroke-linecap="round"/>
</svg>
