<svg width="25" height="24" viewBox="0 0 25 24" fill="none" xmlns="http://www.w3.org/2000/svg">
<path d="M12.8124 4.31247C12.2601 4.31247 11.8124 4.76018 11.8124 5.31247C11.8124 5.86475 12.2601 6.31247 12.8124 6.31247V4.31247ZM13.1874 6.31247C13.7397 6.31247 14.1874 5.86475 14.1874 5.31247C14.1874 4.76018 13.7397 4.31247 13.1874 4.31247V6.31247ZM12.8124 4.68747C12.2601 4.68747 11.8124 5.13518 11.8124 5.68747C11.8124 6.23975 12.2601 6.68747 12.8124 6.68747V4.68747ZM13.1874 6.68747C13.7397 6.68747 14.1874 6.23975 14.1874 5.68747C14.1874 5.13518 13.7397 4.68747 13.1874 4.68747V6.68747ZM5.81238 11.3125C5.26009 11.3125 4.81238 11.7602 4.81238 12.3125C4.81238 12.8648 5.26009 13.3125 5.81238 13.3125V11.3125ZM6.18738 13.3125C6.73966 13.3125 7.18738 12.8648 7.18738 12.3125C7.18738 11.7602 6.73966 11.3125 6.18738 11.3125V13.3125ZM5.81238 11.6875C5.26009 11.6875 4.81238 12.1352 4.81238 12.6875C4.81238 13.2398 5.26009 13.6875 5.81238 13.6875V11.6875ZM6.18738 13.6875C6.73966 13.6875 7.18738 13.2398 7.18738 12.6875C7.18738 12.1352 6.73966 11.6875 6.18738 11.6875V13.6875ZM8.81238 15.3125C8.26009 15.3125 7.81238 15.7602 7.81238 16.3125C7.81238 16.8648 8.26009 17.3125 8.81238 17.3125V15.3125ZM9.18738 17.3125C9.73966 17.3125 10.1874 16.8648 10.1874 16.3125C10.1874 15.7602 9.73966 15.3125 9.18738 15.3125V17.3125ZM8.81238 15.6875C8.26009 15.6875 7.81238 16.1352 7.81238 16.6875C7.81238 17.2398 8.26009 17.6875 8.81238 17.6875V15.6875ZM9.18738 17.6875C9.73966 17.6875 10.1874 17.2398 10.1874 16.6875C10.1874 16.1352 9.73966 15.6875 9.18738 15.6875V17.6875ZM16.8124 7.31247C16.2601 7.31247 15.8124 7.76018 15.8124 8.31247C15.8124 8.86475 16.2601 9.31247 16.8124 9.31247V7.31247ZM17.1874 9.31247C17.7397 9.31247 18.1874 8.86475 18.1874 8.31247C18.1874 7.76018 17.7397 7.31247 17.1874 7.31247V9.31247ZM16.8124 7.68747C16.2601 7.68747 15.8124 8.13518 15.8124 8.68747C15.8124 9.23975 16.2601 9.68747 16.8124 9.68747V7.68747ZM17.1874 9.68747C17.7397 9.68747 18.1874 9.23975 18.1874 8.68747C18.1874 8.13518 17.7397 7.68747 17.1874 7.68747V9.68747ZM7.81238 6.31247C7.26009 6.31247 6.81238 6.76018 6.81238 7.31247C6.81238 7.86475 7.26009 8.31247 7.81238 8.31247V6.31247ZM8.18738 8.31247C8.73966 8.31247 9.18738 7.86475 9.18738 7.31247C9.18738 6.76018 8.73966 6.31247 8.18738 6.31247V8.31247ZM7.81238 6.68747C7.26009 6.68747 6.81238 7.13518 6.81238 7.68747C6.81238 8.23975 7.26009 8.68747 7.81238 8.68747V6.68747ZM8.18738 8.68747C8.73966 8.68747 9.18738 8.23975 9.18738 7.68747C9.18738 7.13518 8.73966 6.68747 8.18738 6.68747V8.68747ZM20.3376 14.2021L20.6344 13.2472H20.6344L20.3376 14.2021ZM23.4524 13.0301L24.4481 13.1226V13.1226L23.4524 13.0301ZM13.5301 22.9524L13.6226 23.9481H13.6226L13.5301 22.9524ZM14.7021 19.8376L13.7472 20.1344L14.7021 19.8376ZM14.8754 22.6877L14.2891 21.8776L14.8754 22.6877ZM15.2622 22.108L16.2353 22.3384L16.2353 22.3384L15.2622 22.108ZM22.608 14.7622L22.3776 13.7891L22.608 14.7622ZM23.1877 14.3754L22.3776 13.7891V13.7891L23.1877 14.3754ZM12.5 5.5C12.5 5.22386 12.7239 5 13 5V7C13.8284 7 14.5 6.32843 14.5 5.5H12.5ZM13 5C13.2761 5 13.5 5.22386 13.5 5.5H11.5C11.5 6.32843 12.1716 7 13 7V5ZM13.5 5.5C13.5 5.77614 13.2761 6 13 6V4C12.1716 4 11.5 4.67157 11.5 5.5H13.5ZM13 6C12.7239 6 12.5 5.77614 12.5 5.5H14.5C14.5 4.67157 13.8284 4 13 4V6ZM12.8124 6.31247H13.1874V4.31247H12.8124V6.31247ZM12.8124 6.68747H13.1874V4.68747H12.8124V6.68747ZM5.5 12.5C5.5 12.2239 5.72386 12 6 12V14C6.82843 14 7.5 13.3284 7.5 12.5H5.5ZM6 12C6.27614 12 6.5 12.2239 6.5 12.5H4.5C4.5 13.3284 5.17157 14 6 14V12ZM6.5 12.5C6.5 12.7761 6.27614 13 6 13V11C5.17157 11 4.5 11.6716 4.5 12.5H6.5ZM6 13C5.72386 13 5.5 12.7761 5.5 12.5H7.5C7.5 11.6716 6.82843 11 6 11V13ZM5.81238 13.3125H6.18738V11.3125H5.81238V13.3125ZM5.81238 13.6875H6.18738V11.6875H5.81238V13.6875ZM8.5 16.5C8.5 16.2239 8.72386 16 9 16V18C9.82843 18 10.5 17.3284 10.5 16.5H8.5ZM9 16C9.27614 16 9.5 16.2239 9.5 16.5H7.5C7.5 17.3284 8.17157 18 9 18V16ZM9.5 16.5C9.5 16.7761 9.27614 17 9 17V15C8.17157 15 7.5 15.6716 7.5 16.5H9.5ZM9 17C8.72386 17 8.5 16.7761 8.5 16.5H10.5C10.5 15.6716 9.82843 15 9 15V17ZM8.81238 17.3125H9.18738V15.3125H8.81238V17.3125ZM8.81238 17.6875H9.18738V15.6875H8.81238V17.6875ZM16.5 8.5C16.5 8.22386 16.7239 8 17 8V10C17.8284 10 18.5 9.32843 18.5 8.5H16.5ZM17 8C17.2761 8 17.5 8.22386 17.5 8.5H15.5C15.5 9.32843 16.1716 10 17 10V8ZM17.5 8.5C17.5 8.77614 17.2761 9 17 9V7C16.1716 7 15.5 7.67157 15.5 8.5H17.5ZM17 9C16.7239 9 16.5 8.77614 16.5 8.5H18.5C18.5 7.67157 17.8284 7 17 7V9ZM16.8124 9.31247H17.1874V7.31247H16.8124V9.31247ZM16.8124 9.68747H17.1874V7.68747H16.8124V9.68747ZM7.5 7.5C7.5 7.22386 7.72386 7 8 7V9C8.82843 9 9.5 8.32843 9.5 7.5H7.5ZM8 7C8.27614 7 8.5 7.22386 8.5 7.5H6.5C6.5 8.32843 7.17157 9 8 9V7ZM8.5 7.5C8.5 7.77614 8.27614 8 8 8V6C7.17157 6 6.5 6.67157 6.5 7.5H8.5ZM8 8C7.72386 8 7.5 7.77614 7.5 7.5H9.5C9.5 6.67157 8.82843 6 8 6V8ZM7.81238 8.31247H8.18738V6.31247H7.81238V8.31247ZM7.81238 8.68747H8.18738V6.68747H7.81238V8.68747ZM12.5 22C6.97715 22 2.5 17.5228 2.5 12H0.5C0.5 18.6274 5.87258 24 12.5 24V22ZM2.5 12C2.5 6.47715 6.97715 2 12.5 2V0C5.87258 0 0.5 5.37258 0.5 12H2.5ZM12.5 2C18.0228 2 22.5 6.47715 22.5 12H24.5C24.5 5.37258 19.1274 0 12.5 0V2ZM15.5 18.5C15.5 16.567 17.067 15 19 15V13C15.9624 13 13.5 15.4624 13.5 18.5H15.5ZM19 15C19.364 15 19.7132 15.0552 20.0407 15.157L20.6344 13.2472C20.1169 13.0863 19.5676 13 19 13V15ZM22.5 12C22.5 12.3164 22.4853 12.6292 22.4567 12.9376L24.4481 13.1226C24.4825 12.7527 24.5 12.3783 24.5 12H22.5ZM13.4376 21.9567C13.1292 21.9853 12.8164 22 12.5 22V24C12.8783 24 13.2527 23.9825 13.6226 23.9481L13.4376 21.9567ZM15.657 19.5407C15.5552 19.2132 15.5 18.864 15.5 18.5H13.5C13.5 19.0676 13.5863 19.6169 13.7472 20.1344L15.657 19.5407ZM13.6226 23.9481C13.9803 23.9149 14.3085 23.8852 14.5722 23.8393C14.833 23.7938 15.1641 23.7132 15.4617 23.4978L14.2891 21.8776C14.3652 21.8225 14.3982 21.8395 14.2291 21.8689C14.0628 21.8979 13.8291 21.9203 13.4376 21.9567L13.6226 23.9481ZM13.7472 20.1344C13.9581 20.8128 14.1053 21.2872 14.1941 21.6269C14.2383 21.7961 14.2603 21.9037 14.2696 21.9689C14.2814 22.0526 14.2613 21.9953 14.2891 21.8776L16.2353 22.3384C16.2947 22.0876 16.2722 21.847 16.2498 21.6888C16.2249 21.5122 16.1809 21.3194 16.1291 21.1213C16.0259 20.7263 15.8616 20.1986 15.657 19.5407L13.7472 20.1344ZM15.4617 23.4978C15.6218 23.3819 15.8108 23.2266 15.9649 22.9957C16.1189 22.7648 16.1898 22.5307 16.2353 22.3384L14.2891 21.8776C14.2838 21.9002 14.2796 21.9157 14.2765 21.9261C14.2735 21.9363 14.2721 21.9398 14.2727 21.9384C14.2733 21.9368 14.2759 21.9302 14.2809 21.9203C14.2861 21.9101 14.2928 21.8982 14.3012 21.8857C14.3096 21.8731 14.3179 21.8623 14.3254 21.8537C14.3326 21.8452 14.3377 21.8402 14.339 21.8391C14.34 21.838 14.3373 21.8407 14.329 21.8474C14.3207 21.8542 14.3079 21.864 14.2891 21.8776L15.4617 23.4978ZM20.0407 15.157C20.6986 15.3616 21.2263 15.5259 21.6213 15.6291C21.8194 15.6809 22.0122 15.7249 22.1889 15.7499C22.347 15.7722 22.5876 15.7947 22.8384 15.7353L22.3776 13.7891C22.4953 13.7613 22.5526 13.7814 22.4689 13.7696C22.4037 13.7603 22.296 13.7383 22.1269 13.6941C21.7872 13.6053 21.3128 13.4581 20.6344 13.2472L20.0407 15.157ZM22.4567 12.9376C22.4203 13.3291 22.3979 13.5628 22.3689 13.7291C22.3395 13.8982 22.3225 13.8652 22.3776 13.7891L23.9978 14.9617C24.2132 14.6641 24.2938 14.333 24.3393 14.0722C24.3852 13.8085 24.4149 13.4803 24.4481 13.1226L22.4567 12.9376ZM22.8384 15.7353C23.0307 15.6898 23.2648 15.6189 23.4957 15.4649C23.7266 15.3108 23.8819 15.1218 23.9978 14.9617L22.3776 13.7891C22.364 13.8079 22.3542 13.8207 22.3474 13.829C22.3407 13.8373 22.338 13.84 22.3391 13.839C22.3402 13.8377 22.3452 13.8326 22.3537 13.8254C22.3623 13.8179 22.3731 13.8096 22.3857 13.8012C22.3982 13.7928 22.4101 13.7861 22.4203 13.7809C22.4302 13.7759 22.4368 13.7733 22.4384 13.7727C22.4398 13.7721 22.4363 13.7735 22.4261 13.7765C22.4157 13.7796 22.4002 13.7838 22.3776 13.7891L22.8384 15.7353Z" fill="white"/>
</svg>
