<svg width="25" height="24" viewBox="0 0 25 24" fill="none" xmlns="http://www.w3.org/2000/svg">
<path d="M8.5 15C8.83333 15.6667 10.1 17 12.5 17C14.9 17 16.1667 15.6667 16.5 15M8.81238 9.31247H9.18738M8.81238 9.68747H9.18738M15.8124 9.31247H16.1874M15.8124 9.68747H16.1874M22.5 12C22.5 17.5228 18.0228 22 12.5 22C6.97715 22 2.5 17.5228 2.5 12C2.5 6.47715 6.97715 2 12.5 2C18.0228 2 22.5 6.47715 22.5 12ZM9.5 9.5C9.5 9.77614 9.27614 10 9 10C8.72386 10 8.5 9.77614 8.5 9.5C8.5 9.22386 8.72386 9 9 9C9.27614 9 9.5 9.22386 9.5 9.5ZM16.5 9.5C16.5 9.77614 16.2761 10 16 10C15.7239 10 15.5 9.77614 15.5 9.5C15.5 9.22386 15.7239 9 16 9C16.2761 9 16.5 9.22386 16.5 9.5Z" stroke="white" stroke-width="2" stroke-linecap="round"/>
</svg>
