<svg width="110" height="52" viewBox="0 0 110 52" fill="none" xmlns="http://www.w3.org/2000/svg">
<g clip-path="url(#clip0_735_498)">
<path d="M58.1209 12.3568C58.2155 14.0746 57.7135 15.4893 57.4136 16.0043C56.2988 17.9177 54.8385 19.4139 51.9765 20.5515C48.7462 21.8358 44.6032 20.7471 43.3091 20.395C42.015 20.043 40.7992 19.8051 39.8572 19.8051C38.9151 19.8051 32.8555 20.0202 31.7374 20.0789C30.6193 20.1375 29.6577 20.2158 29.7751 20.0397C29.8924 19.8637 30.5835 18.4751 31.5842 17.8884C32.5849 17.3016 44.6456 14.5342 47.7031 13.6508C41.9368 14.6516 31.4636 17.2397 31.1115 17.5331C30.6943 17.8819 28.7711 20.206 28.8363 20.6167C28.882 20.9036 36.2194 20.5482 37.9242 20.4896C39.629 20.4309 40.9948 20.532 42.1128 20.8873C43.2309 21.2393 46.5199 22.3932 48.9907 22.2759C51.4615 22.1585 54.268 20.9231 55.7381 19.6877C57.2082 18.4523 59.2814 15.6555 58.1177 12.3568H58.1209ZM59.0239 47.9684C58.75 47.7337 57.2408 47.6294 55.9468 47.6294L52.296 47.4794L39.29 46.9611C38.6283 46.8699 34.632 43.5124 34.632 43.5124C34.632 43.5124 27.4119 44.5001 26.5089 44.5425C25.2181 44.6044 18.9466 43.9297 12.7174 42.8996C9.6794 42.3976 3.51868 40.7287 3.09819 40.5201C2.50167 40.2234 2.50167 39.9105 2.5799 39.5976C2.58968 39.3466 1.9019 39.9953 1.39013 40.5494C0.806658 41.1785 0.0732389 42.026 0.24926 42.202C0.386164 42.3422 0.96964 41.6381 1.43577 41.3643C1.61179 42.026 7.38461 43.6265 11.2114 44.3599C15.3186 45.1455 19.5561 45.8528 24.0577 46.3092C24.9802 47.0002 27.1772 48.8713 27.5292 48.9495C27.8812 49.0277 42.9832 49.6569 45.3757 49.6177C47.7683 49.5786 57.7689 48.7148 58.4762 48.6366C59.1836 48.5584 59.3009 48.2063 59.0239 47.9716V47.9684ZM34.4429 40.4875C34.746 40.5103 48.0682 40.5983 49.6948 40.5853C51.3246 40.5722 52.2471 40.4516 52.2242 40.1224C52.1982 39.741 51.6668 39.5128 50.9758 39.4965C50.1316 39.4802 40.4961 39.4835 40.4961 39.4835C39.3519 39.5422 35.5544 39.9855 34.984 40.0148C34.4103 40.0442 34.143 40.4647 34.4462 40.4875H34.4429ZM4.12823 37.6092C3.06233 36.8856 3.15034 35.184 2.97106 33.0881C2.89935 32.2373 2.29631 30.6075 1.65742 30.5228C1.5466 32.7491 1.58245 37.3647 2.41366 38.4111C3.33288 39.565 9.61421 40.9275 12.2187 41.3545C16.1074 41.9902 20.433 42.4237 21.5412 42.4009C22.8288 42.3781 23.5003 41.1622 23.9664 40.3995C22.304 41.3578 19.015 40.9112 14.4352 40.2169C9.51642 39.4705 5.19088 38.3329 4.12497 37.6092H4.12823ZM78.0178 10.7335C76.8345 9.75232 73.1414 7.77371 68.5322 7.73134C63.9231 7.68896 59.9561 8.55603 54.1311 11.3887C55.2981 11.3235 57.0648 11.5451 57.8471 11.7603C61.2372 9.83055 65.8137 8.38653 69.5003 8.38653C73.187 8.38653 75.9544 9.49806 78.0178 10.7367V10.7335ZM3.48608 22.8496C4.48679 23.433 6.8207 23.7525 8.71455 23.8568C11.7916 24.0198 15.0871 24.1371 26.5448 23.8666C31.9721 23.7362 37.1451 23.2114 39.3519 22.7648C30.1989 23.0777 10.8464 22.9408 6.90545 21.4968C6.11661 21.2067 5.82651 20.6526 6.85329 19.8996C8.6135 18.6088 10.9083 17.6667 13.6105 16.7377C16.7561 15.6555 24.9443 13.3966 32.9793 12.1775C35.3947 11.7831 36.5389 11.6396 37.9177 11.4636C36.8061 11.4115 34.8601 11.5777 32.6631 11.8613C26.9359 12.6012 20.2961 13.7943 13.0271 16.138C10.1781 17.0572 6.91849 18.2698 4.40856 19.9941C3.46653 20.6395 2.23764 22.1259 3.48282 22.8496H3.48608ZM52.4492 32.9479C52.4492 32.3579 51.9961 31.794 50.9399 31.794C49.7045 31.794 37.7123 32.0091 35.5903 32.12C34.0289 32.2047 32.4513 32.3221 31.5157 33.8313C30.5802 35.3405 28.292 39.3466 26.6263 43.6102C27.7704 42.2575 27.8747 42.1532 28.1876 41.5306C28.5006 40.908 31.5679 34.7668 33.6508 34.0399C35.7305 33.313 38.9575 33.7791 40.985 33.6227C41.5587 33.2054 42.2334 32.7132 43.3254 32.6611C44.4174 32.6089 50.3402 32.5014 51.1192 32.5046C52.1688 32.5046 52.4296 34.0888 52.4296 34.0888C52.4296 33.4304 52.4524 33.1794 52.4524 32.9414L52.4492 32.9479ZM47.1848 17.1973C47.1294 18.7424 48.091 19.8507 49.3884 20.0723C49.4503 20.0821 49.5155 20.0723 49.5774 20.0691C48.3714 19.9126 47.4619 18.6772 47.5141 17.2071C47.5662 15.7403 48.5571 14.5701 49.7697 14.4951C49.7078 14.4886 49.6459 14.4755 49.5807 14.4788C48.2964 14.5635 47.237 15.649 47.1816 17.1941L47.1848 17.1973ZM51.4452 15.8152C51.1844 15.4437 50.8259 15.209 50.4249 15.1927C49.5807 15.1633 48.8603 16.1151 48.8179 17.3212C48.7755 18.5273 49.4275 19.5247 50.2717 19.5541C50.7118 19.5704 51.116 19.3194 51.4093 18.9054C50.8259 18.8141 50.3891 18.1296 50.4151 17.3179C50.4412 16.5389 50.8878 15.9098 51.4452 15.812V15.8152ZM37.7221 17.9601C37.6569 18.6805 37.9046 19.2933 38.273 19.3259C38.6413 19.3585 38.9934 18.8011 39.0553 18.0807C39.1205 17.3603 38.8728 16.7475 38.5044 16.7149C38.1361 16.6823 37.7873 17.2397 37.7221 17.9601ZM38.8956 17.9927C38.8597 18.3969 38.687 18.7098 38.5109 18.6935C38.3349 18.6772 38.2208 18.3382 38.2567 17.934C38.2925 17.5298 38.4653 17.2169 38.6413 17.2332C38.8173 17.2495 38.9314 17.5885 38.8956 17.9927ZM82.7899 35.6078C83.1908 28.7723 79.3151 23.0549 73.1446 22.6931C72.7046 22.667 72.2613 22.6703 71.8245 22.6996C71.9614 22.6996 72.0983 22.7061 72.2319 22.7159C78.1938 23.0647 81.9294 28.7756 81.5284 35.6111C81.1568 41.9608 76.2804 46.9579 71.0389 47.2415C76.9323 47.5413 82.3987 42.3064 82.7932 35.6111L82.7899 35.6078ZM75.7067 18.3741C73.7379 18.0253 71.1986 18.0416 70.4391 20.4146C69.8785 22.1683 72.4177 21.6207 74.1649 21.7087C74.2627 21.7087 74.3637 21.7152 74.4615 21.7217C80.6353 22.0835 84.4817 28.2703 84.0481 35.6893C83.6146 43.1082 78.0243 48.7148 71.8538 48.353C68.9984 48.1868 66.5178 46.7688 64.7185 44.5588C64.65 45.9604 64.6141 47.6457 64.663 50.2599C66.4461 51.2117 68.4279 51.7789 70.5304 51.8669C78.8718 52.2157 85.9518 44.875 86.3462 35.4741C86.6917 27.1621 82.4574 20.131 75.7067 18.3741ZM80.0192 12.5556C78.0765 11.4604 76.6259 11.1931 78.2981 12.2101C79.7976 13.1228 82.9203 15.5023 83.8232 19.5801C83.9797 19.6584 84.1361 19.6193 84.1753 19.2672C84.2144 18.9152 84.1035 17.3505 84.0807 16.7279C84.0514 15.9522 84.6838 15.6914 85.6258 15.662C86.457 15.636 98.5601 15.975 101.031 16.0923C103.498 16.2097 103.678 15.6132 103.717 14.9808C103.792 13.778 102.843 12.1123 101.816 10.9193C102.247 11.6234 102.622 12.4969 102.719 13.4292C102.775 13.9507 102.602 15.1144 101.504 15.0753C100.405 15.0362 83.8232 14.1496 82.8486 13.8986C81.6393 13.5889 80.8798 13.0413 80.0225 12.5589L80.0192 12.5556ZM48.1008 10.7432C52.2927 8.21051 60.4646 4.49777 68.0009 2.97552C73.601 1.84443 78.3014 1.55758 85.0097 1.73686C85.3911 1.47283 85.7594 1.05885 86.3918 0.941505C85.4139 0.827418 75.0254 0.710071 68.4703 2.18995C58.1796 4.51407 51.2659 7.91388 46.5199 10.6846C46.973 10.6618 48.0975 10.7432 48.0975 10.7432H48.1008ZM97.3279 7.06963C98.697 8.71901 99.6097 12.1286 99.74 13.3249C99.8248 13.5596 100.597 13.5596 100.878 13.4064C100.066 9.68386 98.4949 8.0573 97.3279 7.06963ZM91.5649 11.2061C92.5558 11.1246 93.4229 11.1083 93.8205 10.6455C94.0748 10.3488 94.0063 9.5111 93.1816 9.5111C92.357 9.5111 90.1045 9.55348 89.57 9.55348C89.1169 9.18188 88.3117 8.06708 88.3117 8.06708L87.5881 10.6813C87.5881 10.9486 88.227 11.066 88.6638 11.1214C89.1918 11.1866 90.5772 11.2909 91.5681 11.2094L91.5649 11.2061ZM86.871 4.04142C86.532 5.28335 84.8891 8.37349 84.3448 9.27315C81.3361 9.07431 77.079 8.86569 76.0522 8.86569C76.9812 9.17536 77.9722 9.73276 78.5915 10.1044C80.5114 10.1337 85.9322 10.5379 86.7373 10.6618C86.9492 10.15 88.641 4.65424 88.9343 3.70568C89.1658 2.95596 89.2831 2.71801 89.7329 2.4768C90.2577 2.19321 91.2063 2.20625 93.224 3.31126C95.5481 4.58578 97.4941 6.00047 99.7824 8.31807C98.2569 6.0461 95.0201 3.5753 93.0773 2.51591C90.4305 1.07515 88.7583 1.01974 88.0933 1.01974C87.4284 1.01974 86.7797 1.35222 86.457 1.76619C87.1937 1.85421 87.2328 2.74735 86.8775 4.04142H86.871ZM22.2486 20.7145C23.1841 20.7503 27.0109 20.6428 28.0573 20.6428C29.0482 18.9934 30.2934 17.6798 30.7758 17.3505C31.2289 17.0409 42.0313 14.5472 42.0313 14.5472L42.1813 14.3223C40.1375 14.707 26.962 17.7384 24.6444 18.7359C23.5687 19.1988 22.4018 19.7073 22.2518 20.7178L22.2486 20.7145ZM87.9597 32.3807C88.7876 29.1602 89.6677 23.6384 90.0948 20.9427C90.6 17.7613 92.2331 19.0097 93.6087 18.5533C94.5735 18.2339 91.767 17.4581 90.3979 17.3766C89.5928 17.3277 89.6417 17.7776 89.4298 21.1676C89.1755 25.2161 87.7022 32.8338 87.487 33.7726L87.9597 32.3807ZM108.081 12.0895L108.072 13.2467C108.072 13.2467 108.101 13.4422 108.365 13.4422C108.629 13.4422 109.183 13.3444 109.431 12.598C109.578 12.1482 109.825 11.3821 109.353 11.0594C108.88 10.7367 108.059 10.6096 108.088 11.0203V11.5093L102.964 11.8874C103.088 12.0601 103.208 12.2394 103.362 12.4676L108.081 12.0895ZM71.8799 34.9885C71.7071 35.7577 72.0363 36.4814 72.61 36.6118C73.187 36.7421 73.7933 36.2239 73.9628 35.4546C74.1356 34.6853 73.8063 33.9584 73.2326 33.8313C72.6557 33.7042 72.0494 34.2192 71.8766 34.9885H71.8799ZM74.367 34.5582C74.4615 34.8255 74.8788 34.9233 75.2992 34.7733C75.7197 34.6234 75.987 34.2876 75.8925 34.0203C75.798 33.7531 75.3807 33.6553 74.957 33.8052C74.5365 33.9552 74.2725 34.2909 74.367 34.5582ZM73.5456 32.6774C73.6499 32.2438 73.513 31.8364 73.2359 31.7712C72.9588 31.706 72.6524 32.0026 72.5449 32.4362C72.4405 32.8697 72.5775 33.2771 72.8545 33.3423C73.1316 33.4075 73.438 33.1109 73.5423 32.6774H73.5456ZM71.1497 37.3191C71.0389 37.7331 71.1497 38.1177 71.3975 38.1829C71.6452 38.2481 71.932 37.9678 72.0429 37.5571C72.1537 37.1463 72.0429 36.7584 71.7951 36.69C71.5474 36.6248 71.2606 36.9051 71.1497 37.3191ZM73.8096 36.5238C73.5782 36.6281 73.5293 37.029 73.7053 37.4169C73.8813 37.8048 74.2105 38.0362 74.4452 37.9319C74.6767 37.8276 74.7256 37.4267 74.5495 37.0388C74.3735 36.6509 74.0443 36.4194 73.8096 36.5238ZM70.3185 33.9258C70.149 34.1149 70.2338 34.4702 70.5076 34.7147C70.7814 34.9591 71.1432 35.0048 71.3127 34.8157C71.4822 34.6234 71.3975 34.2713 71.1236 34.0269C70.8498 33.7824 70.488 33.7368 70.3185 33.9258ZM73.9009 40.0311L74.2138 45.6475C74.9472 45.3346 75.6285 44.9206 76.2511 44.4186L75.0157 39.477C74.6669 39.7215 74.292 39.9105 73.9009 40.0311ZM72.02 30.9824C72.3232 30.8487 72.6394 30.7542 72.9621 30.7086L73.8291 24.0719C73.539 23.9904 73.2457 23.922 72.9425 23.8698C72.4731 23.7916 72.0135 23.7623 71.5637 23.7818L72.02 30.9824ZM76.9519 25.7963L74.9309 31.028C75.2145 31.1714 75.4753 31.3507 75.7132 31.5658L78.4709 27.5141C78.0276 26.872 77.5191 26.295 76.9519 25.7963ZM76.4727 37.8081L79.3314 40.2984C79.6704 39.5324 79.941 38.7175 80.1398 37.8667L76.9714 36.5303C76.8541 36.9899 76.6846 37.4169 76.4727 37.8081ZM80.0909 31.103L76.7302 33.0001C76.8574 33.2869 76.9551 33.5933 77.0269 33.9128L80.4756 33.3586C80.4104 32.5796 80.28 31.8266 80.0909 31.103ZM66.3483 44.5523C66.9546 45.1129 67.6293 45.5562 68.353 45.8594L71.6517 39.9399C71.2703 39.7867 70.9216 39.5617 70.6151 39.2847L66.3483 44.549V44.5523ZM69.1776 35.7284L64.4414 35.7545C64.8325 33.1076 65.3019 30.9758 65.7289 29.3265L69.9208 32.9381C70.0871 32.648 70.2761 32.3807 70.4848 32.1395L66.6645 26.0896C67.6391 23.1364 70.2729 17.1256 75.1526 16.239C80.1137 15.3361 82.6432 21.0242 83.7515 24.3979C83.8004 24.5446 83.8819 24.5967 84.009 24.6652C84.1981 24.763 84.6479 24.7532 84.5957 24.3588C82.3596 12.9468 75.5633 13.2988 73.7998 13.7975C72.2124 14.2474 67.939 16.3075 65.064 24.7467C62.4954 32.283 61.8956 40.0474 61.7685 48.2422C62.2476 48.2096 63.1832 48.0727 63.6004 47.8217C63.6069 44.3176 63.796 41.2535 64.0796 38.6034L69.3015 36.9182C69.2168 36.5368 69.1744 36.1359 69.1776 35.7251V35.7284ZM5.05723 29.8741C10.0901 30.5032 21.9846 31.8983 28.5397 31.9733C29.1818 31.0215 30.0782 29.5579 30.3716 28.8245C30.665 28.0911 30.8117 27.726 30.2966 26.9208C29.7849 26.1157 29.1981 24.7564 28.0149 24.7923C26.535 24.8379 24.9671 24.8608 23.3666 24.8705C23.0374 25.5909 22.4931 26.5199 21.8802 27.2175C21.1077 28.0943 19.4257 28.0356 16.2019 28.0389C11.7362 28.0454 3.93265 27.2142 2.64184 26.5167C2.01273 26.1744 2.0551 25.5094 2.15289 24.9585C2.13659 24.9651 2.12355 24.9748 2.11051 24.9814C1.7161 25.291 1.38687 25.7865 1.34776 26.9632C1.28909 28.818 3.09167 29.6296 5.05397 29.8741H5.05723ZM107.935 12.3665L103.476 12.6893L103.56 12.8099L107.928 12.6012L107.935 12.3665ZM87.1155 11.7537C88.7388 12.021 96.3924 13.1423 97.1323 13.2434C97.9277 13.3542 98.886 13.5172 99.1859 13.2727C98.6644 13.2173 95.2417 12.5882 93.1588 12.2296C91.0629 11.8711 88.0836 11.418 87.2784 11.2387L87.1155 11.7537ZM49.7958 37.5929C51.3441 37.5799 52.221 37.4593 52.1982 37.13C52.1721 36.7487 51.6701 36.5172 51.0117 36.5042C50.2098 36.4846 41.06 36.4846 41.06 36.4846C39.9713 36.5433 36.3661 36.9866 35.8217 37.016C35.2774 37.0453 35.0231 37.4658 35.31 37.4886C35.5968 37.5114 48.2507 37.606 49.7991 37.5929H49.7958Z" fill="black"/>
</g>
<defs>
<clipPath id="clip0_735_498">
<rect width="110" height="52" fill="white" transform="translate(0.000488281 0.000244141)"/>
</clipPath>
</defs>
</svg>
