<svg width="123" height="82" viewBox="0 0 123 82" fill="none" xmlns="http://www.w3.org/2000/svg">
<mask id="mask0_735_709" style="mask-type:luminance" maskUnits="userSpaceOnUse" x="8" y="5" width="69" height="73">
<path d="M35.5079 5.78901C30.4063 6.34673 25.8334 7.99586 21.9601 10.4908L26.5718 15.0743C29.5971 12.712 33.1945 10.947 37.2396 9.95207L35.5079 5.78901ZM20.6935 11.3552C16.5435 14.3485 13.2894 18.3599 11.1715 23.047L18.3198 25.9691C19.8927 22.1354 22.3072 18.7529 25.4058 16.0385L20.6935 11.3556V11.3552ZM10.5855 24.4345C8.80075 28.9704 8.04337 34.0741 8.51431 39.4596L16.3366 39.4111C15.9765 35.1457 16.503 31.0753 17.7861 27.3781L10.5855 24.4345ZM8.67564 40.9642C8.83529 42.2014 9.05855 43.4516 9.34962 44.7119C10.1799 48.3076 11.5004 51.7356 13.2195 54.9311L19.9782 52.0701C18.7023 49.5406 17.7145 46.8573 17.0683 44.0603C16.8244 43.0038 16.6361 41.955 16.4988 40.9158L8.67522 40.9642H8.67564ZM13.9596 56.2533C16.3358 60.3199 19.3662 63.9767 22.8574 67.0753L27.5217 62.3233C24.835 59.6953 22.5153 56.6918 20.6867 53.4054L13.9596 56.2529V56.2533ZM24.0027 68.0584C27.5208 70.9772 31.4615 73.3441 35.6418 75.0227L37.8036 69.6398C34.4796 67.9868 31.3764 65.8634 28.6173 63.3579L24.0031 68.0589L24.0027 68.0584ZM37.0492 75.559C41.2918 77.0859 45.7544 77.9056 50.2532 77.8757L50.1972 73.3647C46.3909 72.9241 42.6689 71.8647 39.1663 70.2864L37.0492 75.559ZM51.7587 77.8311C52.1715 77.8109 52.5847 77.786 52.9975 77.7511C57.2562 77.3913 61.1611 76.278 64.616 74.5505L63.6076 72.2089C61.5313 72.8504 59.3245 73.2818 57.0047 73.4781C55.233 73.6276 53.4622 73.6322 51.7048 73.5054L51.7583 77.8311H51.7587ZM65.9501 73.8403C70.1089 71.489 73.5496 68.2114 76.0846 64.2766C73.1713 67.5475 69.4257 70.12 65.0398 71.7261L65.9501 73.8399V73.8403ZM38.7345 9.62477C39.8432 9.40994 40.9818 9.2503 42.1495 9.15173C44.7089 8.93563 47.2662 9.0182 49.7827 9.36993V7.08052C45.663 5.89558 41.3765 5.37957 37.082 5.65337L38.7341 9.62477H38.7345ZM51.289 9.6134C56.014 10.4799 60.5629 12.2882 64.6678 14.8405C60.6425 11.632 56.0957 9.13404 51.289 7.54556V9.6134Z" fill="white"/>
</mask>
<g mask="url(#mask0_735_709)">
<mask id="mask1_735_709" style="mask-type:luminance" maskUnits="userSpaceOnUse" x="8" y="5" width="69" height="73">
<path d="M76.0846 5.37964H8.04346V77.9061H76.0846V5.37964Z" fill="white"/>
</mask>
<g mask="url(#mask1_735_709)">
<rect width="68.1794" height="72.6074" transform="matrix(1 0 0 -1 8.00098 77.9397)" fill="black"/>
</g>
</g>
<path fill-rule="evenodd" clip-rule="evenodd" d="M1.02667 45.4153C-4.04542 23.4517 10.1691 4.09852 32.776 2.18949C33.5232 2.1263 34.2697 2.08334 35.0161 2.05933C13.7041 5.0046 0.575528 23.8014 5.47996 45.0392C10.3844 66.277 31.5266 82.1798 53.3575 81.4814C52.6292 81.5821 51.8912 81.6642 51.1443 81.7274C28.5375 83.6369 6.09918 67.3793 1.02667 45.4153Z" fill="black"/>
<mask id="mask2_735_709" style="mask-type:luminance" maskUnits="userSpaceOnUse" x="0" y="3" width="45" height="79">
<path d="M44.6886 81.346C42.9106 81.055 41.1485 80.6598 39.4122 80.1666C22.9462 75.4862 8.94516 61.9975 5.05169 45.1384C2.72605 35.0675 4.25977 24.6083 10.2927 16.0997C14.5417 10.1073 20.4651 5.87596 27.2015 3.49683C23.8295 4.26769 20.5704 5.48547 17.5278 7.18347C13.1866 9.60599 9.43505 12.9266 6.5576 16.9848C0.670004 25.2873 -0.813584 35.4909 1.45561 45.3162C2.42445 49.5112 4.04283 53.5273 6.19997 57.251C10.2661 64.2709 16.1946 70.1774 23.1125 74.3923C29.6434 78.3713 37.0769 80.8473 44.6886 81.3456V81.346Z" fill="white"/>
</mask>
<g mask="url(#mask2_735_709)">
<mask id="mask3_735_709" style="mask-type:luminance" maskUnits="userSpaceOnUse" x="-1" y="3" width="46" height="79">
<path d="M44.6883 3.49634H-0.813477V81.3456H44.6883V3.49634Z" fill="white"/>
</mask>
<g mask="url(#mask3_735_709)">
<rect width="45.6147" height="77.925" transform="matrix(1 0 0 -1 -0.867188 81.3774)" fill="black"/>
</g>
</g>
<path fill-rule="evenodd" clip-rule="evenodd" d="M9.04053 0.879639L26.0593 16.2657L37.6651 26.7578C37.6651 26.7578 33.5484 27.2995 31.2232 31.0063L22.6435 19.3546L9.04053 0.879639Z" fill="black"/>
<mask id="mask4_735_709" style="mask-type:luminance" maskUnits="userSpaceOnUse" x="11" y="4" width="26" height="27">
<path d="M11.9814 4.13135L31.2087 30.2437C32.2121 28.8625 33.5592 27.8043 35.1228 27.0933C35.6418 26.8574 36.1843 26.6594 36.7353 26.5099L11.9814 4.13135Z" fill="white"/>
</mask>
<g mask="url(#mask4_735_709)">
<mask id="mask5_735_709" style="mask-type:luminance" maskUnits="userSpaceOnUse" x="11" y="4" width="26" height="27">
<path d="M36.7353 4.13135H11.9814V30.2437H36.7353V4.13135Z" fill="white"/>
</mask>
<g mask="url(#mask5_735_709)">
<rect width="24.9101" height="26.2042" transform="matrix(1 0 0 -1 11.9365 30.2842)" fill="black"/>
</g>
</g>
<path fill-rule="evenodd" clip-rule="evenodd" d="M68.6473 45.3567H65.8983H56.5612L53.9997 52.318H44.8926L46.8231 47.0724H37.716L35.7859 52.318H44.8926L42.9625 57.5632H33.8554L31.9253 62.8084H41.0324L42.9625 57.5632H52.0696L53.9997 52.318H66.0857L67.3663 48.8374L122.878 45.3567H68.6473Z" fill="black"/>
<mask id="mask6_735_709" style="mask-type:luminance" maskUnits="userSpaceOnUse" x="32" y="45" width="81" height="18">
<path d="M53.5196 52.6527H45.1261L43.4424 57.2282H51.8359L53.5196 52.6527ZM44.6589 51.983L46.3426 47.4075H37.9491L36.2654 51.983H44.6589ZM42.482 57.8979H34.0885L32.4048 62.4734H40.7983L42.482 57.8979ZM54.4796 51.983H65.8521L67.1276 48.5166L112.186 45.6914H56.7951L54.48 51.9825L54.4796 51.983Z" fill="white"/>
</mask>
<g mask="url(#mask6_735_709)">
<mask id="mask7_735_709" style="mask-type:luminance" maskUnits="userSpaceOnUse" x="32" y="45" width="81" height="18">
<path d="M112.185 45.6914H32.4053V62.4734H112.185V45.6914Z" fill="white"/>
</mask>
<g mask="url(#mask7_735_709)">
<rect width="79.9065" height="16.8629" transform="matrix(1 0 0 -1 32.355 62.511)" fill="black"/>
</g>
</g>
</svg>
