<svg width="91" height="52" viewBox="0 0 91 52" fill="none" xmlns="http://www.w3.org/2000/svg">
<g clip-path="url(#clip0_735_521)">
<path d="M46.5612 11.6056C51.54 12.8011 56.8949 15.4968 59.6292 17.308C59.6292 17.308 60.3773 17.2784 60.6791 17.3016C57.581 15.3169 53.0549 12.8582 46.2636 11.0618C41.9379 9.91709 35.0309 9.77956 34.3778 9.83669C34.7974 9.92767 35.0309 10.2176 35.281 10.4059C39.7431 10.4249 42.8618 10.7169 46.5612 11.6056ZM32.5074 20.4501C31.5898 20.4798 29.6595 20.9728 30.2754 21.2203C31.1517 21.5716 32.34 20.721 32.4144 22.9914C32.4764 24.9147 32.6087 28.8567 32.8939 31.1609L33.0944 32.1596C33.0303 31.4889 32.6769 26.0446 32.8402 23.1649C32.9786 20.7527 33.0468 20.4332 32.5074 20.4501ZM71.0107 22.1661C71.3227 22.401 72.1246 23.3214 72.7488 24.464C73.4453 24.4852 75.9853 24.6418 76.6074 24.6354C76.5288 23.9456 75.7621 23.5753 75.0573 23.2368C73.5362 22.511 64.8415 20.1708 63.4919 19.8661L63.587 20.0227C63.587 20.0227 70.7151 21.9461 71.0107 22.1661ZM82.4294 22.109C84.2047 22.7967 85.7113 23.4865 86.8563 24.4006C87.5239 24.9338 87.3192 25.3062 86.7881 25.486C84.1406 26.3853 71.2731 26.0742 65.1969 25.6701C66.6561 26.0192 70.0848 26.4847 73.6871 26.6879C81.2968 27.1132 83.4875 27.1026 85.5377 27.0539C86.7984 27.0243 88.3568 26.8529 89.0346 26.4784C89.8779 26.0129 89.0904 24.974 88.4787 24.5148C86.846 23.2876 84.7048 22.3947 82.8282 21.7091C78.0458 19.9635 73.654 19.0113 69.8636 18.3892C68.4086 18.1501 67.119 17.9978 66.3791 18.0084C67.2926 18.1565 68.049 18.2792 69.6466 18.5966C74.9643 19.5932 80.3606 21.3028 82.4273 22.1048L82.4294 22.109ZM21.9836 21.3981C22.0332 23.5351 22.4528 25.3146 22.5954 25.668C22.1097 21.6541 22.8909 20.2428 23.1637 19.9592C22.18 19.8894 21.9692 20.7379 21.9836 21.3959V21.3981ZM23.9222 16.3008C23.2133 17.0922 22.552 18.2051 22.5747 19.0261C22.5871 19.4557 22.6925 19.8661 24.3376 19.8386C25.9807 19.8111 34.0327 19.8323 34.5845 19.8683C35.2086 19.9063 35.6241 20.0968 35.5889 20.6258C35.5621 21.0511 35.4546 22.1111 35.4753 22.3523C35.4939 22.5936 35.5972 22.6232 35.7026 22.5724C36.3867 19.8175 38.5113 18.2623 39.5261 17.674C40.6586 17.0181 39.6873 17.1705 38.3749 17.8729C37.7962 18.184 37.2795 18.5395 36.4694 18.7257C35.8142 18.8759 24.7758 19.1319 24.0442 19.1361C23.3146 19.1404 23.2237 18.3448 23.2691 17.9914C23.3539 17.3588 23.6184 16.7748 23.9202 16.3029L23.9222 16.3008ZM32.6604 16.7155C32.9538 16.688 33.3796 16.6224 33.3858 16.4384L32.958 14.6441C32.958 14.6441 32.4 15.3846 32.09 15.628C31.7324 15.6174 30.2382 15.5412 29.6905 15.5243C29.1428 15.5073 29.0808 16.0765 29.242 16.2839C29.4962 16.6076 30.0728 16.6372 30.728 16.7134C31.3852 16.7896 32.307 16.7473 32.6583 16.7134L32.6604 16.7155ZM25.2532 17.9851C25.3627 17.1726 26.0406 14.8705 26.9831 13.7786C26.1874 14.4261 25.1106 15.501 24.4947 18.0168C24.6766 18.1269 25.1912 18.1438 25.2532 17.9851ZM32.1272 10.8121C32.4206 10.9877 32.495 11.1507 32.6314 11.6648C32.805 12.3144 33.8177 16.0913 33.9479 16.4447C34.4853 16.377 38.0959 16.2162 39.3731 16.2352C39.7927 15.9961 40.4623 15.6364 41.0864 15.446C40.4023 15.4248 37.5709 15.4777 35.5662 15.5497C35.221 14.9255 34.1939 12.7884 33.9934 11.9357C33.7847 11.047 33.8301 10.4418 34.32 10.3974C34.1133 10.1096 33.6896 9.87054 33.2473 9.85573C32.805 9.84092 31.6931 9.84303 29.9033 10.7698C28.591 11.449 26.3899 13.0635 25.3297 14.5763C26.8963 13.0465 28.219 12.124 29.7897 11.3072C31.1517 10.5984 31.7841 10.609 32.1272 10.8142V10.8121ZM26.9872 17.983C27.4791 17.9301 32.5901 17.327 33.6751 17.1789L33.578 16.8256C33.0406 16.9292 31.0483 17.1768 29.6491 17.3757C28.2582 17.5746 25.9683 17.9322 25.6211 17.9576C25.8174 18.1311 26.456 18.0401 26.9872 17.9809V17.983ZM56.2873 37.2124C56.2645 37.4367 56.8763 37.5383 57.9592 37.5806C59.0401 37.625 67.8982 37.8409 68.0986 37.8324C68.2991 37.8239 68.1296 37.5319 67.7494 37.5002C67.3691 37.4685 64.8559 37.0876 64.0954 37.022C64.0954 37.022 57.6926 36.8168 57.1305 36.8125C56.6696 36.8083 56.3121 36.9522 56.2873 37.2124ZM67.584 35.7757C67.7742 35.7673 67.615 35.4753 67.2533 35.4435C66.8917 35.4118 64.5046 35.0352 63.7833 34.9717C63.7833 34.9717 57.7009 34.7813 57.1677 34.777C56.7295 34.7728 56.3906 34.9188 56.3658 35.179C56.3451 35.4033 56.9238 35.5049 57.953 35.5451C58.9802 35.5853 67.3939 35.7863 67.584 35.7778V35.7757ZM89.1669 33.4588C89.0057 34.8807 89.0284 36.0402 88.3051 36.5121C87.5817 36.9818 84.6842 37.6631 81.4001 38.0694C78.3414 38.4481 76.1465 38.6809 75.0615 37.9932C75.357 38.5222 75.7786 39.3622 76.6342 39.4067C77.37 39.4447 80.2531 39.2395 82.853 38.8883C84.5932 38.6534 88.7949 37.8578 89.4294 37.0918C90.0039 36.3978 90.1197 33.2578 90.0928 31.7386C89.6671 31.783 89.233 32.8812 89.169 33.4567L89.1669 33.4588ZM65.9844 23.3532C66.2303 23.3384 66.406 22.9279 66.3791 22.437C66.3502 21.9461 66.129 21.5589 65.8852 21.5737C65.6392 21.5885 65.4635 21.999 65.4904 22.4899C65.5173 22.9829 65.7405 23.368 65.9844 23.3532ZM65.7818 21.9228C65.8996 21.9165 66.0071 22.1344 66.0236 22.4074C66.0402 22.6824 65.9575 22.9109 65.8397 22.9173C65.7219 22.9236 65.6144 22.7078 65.5979 22.4328C65.5834 22.1577 65.6661 21.9292 65.7818 21.9228ZM80.4763 29.7433C78.3352 29.6734 77.215 29.6777 76.719 29.0662C76.3242 28.5795 75.9812 27.9363 75.7786 27.439C74.7142 27.3988 73.6726 27.3501 72.6888 27.2888C71.9056 27.2401 71.486 28.1521 71.1305 28.6895C70.773 29.227 70.8619 29.4788 71.0437 29.9845C71.2235 30.4881 71.7898 31.5037 72.197 32.166C76.5536 32.2527 84.4899 31.5502 87.8463 31.2286C89.1566 31.1017 90.3697 30.5854 90.3697 29.3243C90.3697 28.5224 90.1589 28.1775 89.9027 27.9595C89.8965 27.9532 89.8861 27.949 89.8758 27.9426C89.9295 28.3192 89.944 28.7742 89.5183 28.9921C88.6482 29.4407 83.4441 29.8427 80.4742 29.7454L80.4763 29.7433ZM72.2362 38.6788C72.4305 39.1104 72.4987 39.1824 73.2303 40.1282C72.2114 37.1913 70.7709 34.4173 70.1798 33.372C69.5887 32.3247 68.543 32.2104 67.5055 32.1215C66.096 32.0009 58.1308 31.6031 57.3103 31.5778C56.6076 31.5566 56.2955 31.929 56.2831 32.331C56.279 32.4918 56.2873 32.6632 56.2749 33.1118C56.2749 33.1118 56.4795 32.0411 57.178 32.0602C57.6968 32.075 61.6298 32.2718 62.3572 32.3289C63.0827 32.3881 63.5208 32.7373 63.8928 33.0314C65.2383 33.1795 67.3918 32.9298 68.76 33.4694C70.1282 34.0089 72.044 38.2492 72.2383 38.6809L72.2362 38.6788ZM58.4553 23.624C58.4966 23.6282 58.54 23.6367 58.5813 23.6304C59.4494 23.5076 60.1086 22.7713 60.1045 21.7197C60.1004 20.6681 59.4184 19.9063 58.5669 19.8217C58.5255 19.8175 58.4821 19.8238 58.4408 19.8281C59.2447 19.9021 59.8813 20.7189 59.8854 21.7197C59.8896 22.7205 59.2592 23.5415 58.4553 23.624ZM54.3652 23.2347C55.318 24.1064 57.1553 25.0057 58.7963 25.1369C60.4352 25.2681 62.6445 24.5529 63.3947 24.3371C64.145 24.1213 65.0543 24.0789 66.1869 24.1551C67.3195 24.2313 72.1887 24.6227 72.2259 24.4302C72.2776 24.153 71.0479 22.5301 70.7771 22.2846C70.5477 22.0773 63.6407 20.0968 59.8296 19.2948C61.8447 19.9592 69.8058 22.0942 70.4588 22.5153C71.1119 22.9363 71.5439 23.8948 71.6183 24.0176C71.6927 24.1403 71.0561 24.0662 70.3142 24.0028C69.5722 23.9393 65.5483 23.6663 64.9221 23.6452C64.2979 23.6261 63.4836 23.7594 62.6156 23.9731C61.7476 24.1868 58.9719 24.8385 56.8515 23.8991C54.9728 23.0654 54.0325 22.0159 53.3298 20.6913C53.1417 20.3359 52.8379 19.3604 52.935 18.1946C52.0939 20.4142 53.4145 22.3608 54.3673 23.2326L54.3652 23.2347ZM57.2607 22.7946C57.4488 23.0823 57.7112 23.2622 58.0026 23.2601C58.5648 23.258 59.0195 22.5914 59.0153 21.7705C59.0133 20.9495 58.5545 20.2872 57.9923 20.2893C57.7236 20.2893 57.4818 20.4438 57.302 20.6913C57.6699 20.7675 57.953 21.2055 57.9551 21.7366C57.9572 22.291 57.6534 22.7459 57.2628 22.7967L57.2607 22.7946ZM55.6073 17.619C51.7942 15.5708 49.1756 14.898 46.1107 14.8303C43.0457 14.7625 40.5512 16.0321 39.7431 16.6753C41.1402 15.8755 43.0023 15.1773 45.4534 15.2556C47.9046 15.3317 50.9158 16.4108 53.1293 17.7947C53.6542 17.6656 54.8323 17.5513 55.6073 17.619ZM42.808 34.3983C43.1924 34.3221 43.426 33.8354 43.3268 33.3086C43.2276 32.7838 42.8349 32.4178 42.4505 32.4939C42.0661 32.5701 41.8325 33.0568 41.9317 33.5836C42.0309 34.1084 42.4236 34.4744 42.808 34.3983ZM36.0643 33.5032C36.1883 38.0673 39.7162 41.7426 43.6389 41.6622C40.1605 41.3596 37.0212 37.8599 36.9034 33.5286C36.7773 28.8694 39.3752 25.0607 43.3454 24.9486C43.4363 24.9465 43.5273 24.9465 43.6161 24.9486C43.3247 24.9211 43.0333 24.9084 42.7398 24.9168C38.6291 25.0332 35.9382 28.844 36.0643 33.5032ZM42.8494 25.7209C42.6468 25.7484 42.4484 25.7886 42.2541 25.8394L42.6964 30.3738C42.9093 30.4119 43.118 30.4817 43.3185 30.579L43.7691 25.6891C43.4694 25.668 43.1635 25.6765 42.8494 25.7209ZM43.581 35.4943C43.7463 35.4541 43.829 35.1939 43.7649 34.9103C43.7009 34.6268 43.5148 34.43 43.3495 34.4702C43.1842 34.5104 43.1015 34.7707 43.1656 35.0542C43.2296 35.3356 43.4156 35.5345 43.5831 35.4943H43.581ZM42.713 32.1681C42.8969 32.1279 42.9982 31.8549 42.9362 31.5566C42.8762 31.2582 42.6758 31.0488 42.4918 31.089C42.3079 31.1292 42.2066 31.4021 42.2686 31.7005C42.3306 31.9967 42.529 32.2062 42.713 32.1681ZM42.064 34.923C42.188 34.6628 42.1653 34.3898 42.0123 34.3115C41.8594 34.2353 41.6341 34.3856 41.5101 34.6458C41.3861 34.9061 41.4088 35.1812 41.5618 35.2573C41.7147 35.3335 41.94 35.1833 42.064 34.923ZM22.7793 17.473L19.8239 17.162V17.3207L22.7235 17.5534L22.7814 17.473H22.7793ZM42.4835 18.8484C41.32 18.4717 36.8104 18.0888 35.0929 25.8098C35.0495 26.0785 35.3492 26.0954 35.4773 26.0319C35.5641 25.9896 35.6179 25.9558 35.653 25.8563C36.459 23.5817 38.2571 19.7667 41.5349 20.484C44.7611 21.1907 46.3876 25.3337 46.9746 27.365L44.3126 31.4021C44.4469 31.5714 44.5668 31.7576 44.6722 31.9586L47.5326 29.5867C47.7806 30.7187 48.0513 32.1787 48.2559 33.9878L45.1104 33.8714C45.1042 34.1528 45.067 34.4237 45.0029 34.6818L48.4378 35.9365C48.5721 37.7457 48.6341 39.8341 48.568 42.2187C48.8408 42.3964 49.4588 42.5107 49.777 42.5446C49.8597 36.9649 49.62 31.6687 48.0658 26.4868C46.3277 20.6829 43.5314 19.1912 42.4835 18.8526V18.8484ZM90.0659 38.5666C89.7373 38.1794 89.2909 37.7245 89.293 37.8938C89.3385 38.1096 89.3322 38.3212 88.9292 38.5116C88.6461 38.6449 84.5168 39.6521 82.4893 39.9293C78.329 40.5006 74.1459 40.8285 73.2903 40.7587C72.6909 40.7101 67.9106 39.887 67.9106 39.887C67.9106 39.887 65.1866 42.0875 64.7443 42.1362L56.0889 42.2166L53.6604 42.2441C52.8007 42.2166 51.7962 42.2568 51.6082 42.4113C51.4201 42.5657 51.4924 42.809 51.9595 42.8768C52.4266 42.9445 59.0567 43.7422 60.6481 43.8183C62.2374 43.8945 72.2879 43.7845 72.5235 43.7379C72.7591 43.6935 74.2575 42.4663 74.8858 42.0135C77.8867 41.7955 80.7181 41.4041 83.4648 40.9555C86.0213 40.5366 89.8923 39.5675 90.0225 39.121C90.3284 39.3178 90.7004 39.8087 90.7934 39.7177C90.9133 39.6013 90.4421 39.0089 90.0701 38.5687L90.0659 38.5666ZM41.8821 36.6983C41.6238 36.6073 41.3799 36.474 41.1526 36.2984L40.2308 39.6352C40.6338 39.9885 41.0782 40.2848 41.5597 40.5133L41.8821 36.6983ZM46.8092 39.9335L44.0811 36.2603C43.8724 36.4423 43.6347 36.5882 43.3784 36.6835L45.4493 40.7799C45.9371 40.5895 46.3938 40.2996 46.8092 39.9314V39.9335ZM43.8497 32.6717C43.6616 32.8325 43.5996 33.0716 43.7091 33.2049C43.8187 33.3382 44.0584 33.3149 44.2465 33.152C44.4345 32.9912 44.4965 32.7521 44.387 32.6188C44.2775 32.4855 44.0357 32.5088 43.8497 32.6696V32.6717ZM18.9745 28.7361C18.8525 28.7403 18.7657 29.0323 18.7761 29.3878C18.7864 29.7432 18.8939 30.0289 19.0137 30.0247C19.1336 30.0204 19.2225 29.7284 19.2121 29.373C19.2018 29.0175 19.0943 28.7318 18.9745 28.734V28.7361ZM18.8236 24.2313C18.1147 24.2673 17.6518 26.6773 17.7944 29.6142C17.9349 32.5511 18.6252 34.904 19.3361 34.868C20.045 34.832 20.508 32.422 20.3654 29.4851C20.2248 26.5482 19.5345 24.1953 18.8236 24.2313ZM19.1047 33.8376C18.5074 33.8566 17.9618 31.8761 17.8874 29.4153C17.813 26.9545 18.2387 24.9443 18.836 24.9253C19.4333 24.9063 19.9768 26.8868 20.0512 29.3476C20.1256 31.8084 19.6999 33.8185 19.1047 33.8376ZM19.2865 22.7163C19.5532 23.2051 19.9665 24.3455 20.3158 26.015C20.6609 27.6654 20.7126 28.9815 20.9565 29.2227C21.3905 29.6544 22.9777 30.9663 26.1088 32.1575C28.6116 33.1097 30.1224 33.5434 32.5736 34.1528C32.4558 33.3784 31.6187 33.1626 29.9654 32.5934C27.3509 31.692 22.7194 29.5867 22.3494 28.4779C22.0105 27.4538 21.7584 25.8542 21.5103 24.1318C21.2417 22.2825 21.0908 20.3084 20.632 19.9571C20.1732 19.6059 18.7079 19.9762 18.0713 22.4835C18.6045 21.9715 19.0199 22.2254 19.2865 22.7142V22.7163ZM19.5159 17.8856C19.6916 17.892 19.7144 17.7587 19.7144 17.7587L19.733 16.9716L22.862 17.327C22.9674 17.1747 23.0521 17.0562 23.1369 16.9419L19.7412 16.578L19.7495 16.2458C19.7784 15.9665 19.2287 16.0363 18.9083 16.2458C18.588 16.4553 18.7368 16.9821 18.8257 17.2911C18.9745 17.8031 19.3403 17.8835 19.5159 17.8878V17.8856ZM40.6814 32.5659C40.6132 32.7457 40.7826 32.9806 41.0596 33.0906C41.3365 33.2007 41.6155 33.1435 41.6837 32.9637C41.7519 32.7838 41.5825 32.549 41.3055 32.4389C41.0286 32.3289 40.7496 32.386 40.6814 32.5659ZM22.4693 32.7923C22.0932 32.6632 21.8472 32.5786 21.4669 32.2908C21.2003 32.0877 20.9503 31.5037 20.8614 31.6306C20.7973 31.7238 21.0185 33.353 21.0825 33.3847C21.4194 33.5625 33.051 37.5171 34.2786 37.9086C34.0595 37.6166 33.9417 37.1617 33.8115 36.5904C33.1647 36.419 22.8393 32.9192 22.4672 32.7923H22.4693ZM43.0726 42.4049C38.9618 42.5213 35.3637 38.5899 35.2252 33.5329C35.0888 28.4758 37.7714 24.3455 41.8821 24.2292C41.9483 24.2292 42.0144 24.227 42.0805 24.2292C43.242 24.2038 44.9202 24.6291 44.5833 23.4251C44.1266 21.7959 42.4422 21.7303 41.1236 21.927C36.5996 22.9829 33.6421 27.6781 33.702 33.3403C33.7702 39.7452 38.3273 44.8869 43.8786 44.8255C45.2778 44.8107 46.6067 44.4658 47.8095 43.8543C47.8963 42.0748 47.9046 40.928 47.8901 39.9737C46.6501 41.4379 44.9719 42.352 43.0705 42.4049H43.0726ZM41.3799 30.5515L40.144 26.9481C39.7575 27.2761 39.4062 27.657 39.0982 28.0865L40.8488 30.9007C41.01 30.7589 41.1877 30.6425 41.3799 30.5515ZM40.144 31.8549L37.9491 30.4944C37.8086 30.9811 37.7053 31.491 37.6474 32.02L39.9291 32.4707C39.9828 32.2548 40.0551 32.0496 40.1461 31.8549H40.144ZM40.2163 35.1325C40.0841 34.8617 39.9787 34.5675 39.9105 34.2523L37.7776 35.0965C37.8913 35.6784 38.0566 36.2391 38.2653 36.766L40.2163 35.1304V35.1325Z" fill="black"/>
<path d="M69.7109 45.9193C60.0096 51.1371 44.2797 50.8303 30.4533 44.3916C13.1547 36.3341 5.38587 21.728 13.1051 11.7704C19.4831 3.54375 34.4359 1.06177 49.1985 4.99103C36.5191 2.6741 24.2097 5.42903 18.5696 12.7036C11.0818 22.3627 18.1913 36.332 34.4483 43.9049C46.58 49.5544 60.3754 50.0453 69.7088 45.9171L69.7109 45.9193Z" fill="black"/>
<path d="M71.8727 45.3713C61.7849 53.1981 42.4631 54.2031 25.1935 47.0852C5.25362 38.8691 -4.39596 22.9362 3.64157 11.4997C8.9014 4.01354 20.4379 0.310686 33.3715 0.951809C22.7795 1.4152 13.5949 5.10959 9.02127 11.6182C1.08502 22.9108 10.0257 38.4036 28.99 46.2177C44.3955 52.5654 61.6754 51.8968 71.8747 45.3713H71.8727Z" fill="black"/>
</g>
<defs>
<clipPath id="clip0_735_521">
<rect width="91" height="52" fill="white" transform="translate(0.000488281 0.000244141)"/>
</clipPath>
</defs>
</svg>
