<svg width="57" height="66" viewBox="0 0 57 66" fill="none" xmlns="http://www.w3.org/2000/svg">
<g clip-path="url(#clip0_735_580)">
<path fill-rule="evenodd" clip-rule="evenodd" d="M30.9241 12.8477L31.6198 11.6087L32.3156 10.3706H30.9241H29.5317L30.2275 11.6087L30.9241 12.8477Z" fill="url(#paint0_linear_735_580)"/>
<path fill-rule="evenodd" clip-rule="evenodd" d="M30.9241 55.627L31.6198 56.866L32.3156 58.1041H30.9241H29.5317L30.2275 56.866L30.9241 55.627Z" fill="url(#paint1_linear_735_580)"/>
<path fill-rule="evenodd" clip-rule="evenodd" d="M9.68165 34.2371L8.45211 33.5365L7.22168 32.8359V34.2371V35.6392L8.45211 34.9386L9.68165 34.2371Z" fill="url(#paint2_linear_735_580)"/>
<path fill-rule="evenodd" clip-rule="evenodd" d="M15.9035 19.1126L15.5263 17.741L15.1482 16.3694L14.1642 17.3611L13.1802 18.352L14.5414 18.7318L15.9035 19.1126Z" fill="url(#paint3_linear_735_580)"/>
<path fill-rule="evenodd" clip-rule="evenodd" d="M15.9035 49.3621L14.5414 49.7419L13.1802 50.1227L14.1642 51.1135L15.1482 52.1053L15.5263 50.7337L15.9035 49.3621Z" fill="url(#paint4_linear_735_580)"/>
<path fill-rule="evenodd" clip-rule="evenodd" d="M45.9434 19.1126L46.3215 17.741L46.6987 16.3694L47.6827 17.3611L48.6676 18.352L47.3055 18.7318L45.9434 19.1126Z" fill="url(#paint5_linear_735_580)"/>
<path fill-rule="evenodd" clip-rule="evenodd" d="M24.1525 60.479C18.2095 58.9282 13.2237 55.4737 9.69609 50.9173L12.0128 47.2468L5.25391 51.5578C9.35178 57.7188 15.6312 62.424 23.2815 64.3851L24.1525 60.4781V60.479Z" fill="url(#paint6_linear_735_580)"/>
<path fill-rule="evenodd" clip-rule="evenodd" d="M45.0566 57.313C40.1909 60.3357 34.3724 61.8103 28.3866 61.2325L27.4515 57.0254L26.5672 60.9924L25.6953 64.9056C33.3857 66.2413 40.9649 64.5705 47.1829 60.6949L45.0557 57.3139L45.0566 57.313Z" fill="url(#paint7_linear_735_580)"/>
<path fill-rule="evenodd" clip-rule="evenodd" d="M38.3383 8.172C43.72 9.71919 48.2823 12.8404 51.6399 16.9194L49.5946 20.3336L56.0919 16.1893C52.1115 10.5568 46.2663 6.23331 39.2093 4.26147L38.3374 8.1729L38.3383 8.172Z" fill="url(#paint8_linear_735_580)"/>
<path fill-rule="evenodd" clip-rule="evenodd" d="M18.3731 10.2513C23.0858 7.74734 28.552 6.63376 34.1374 7.31642L35.0671 11.5011L36.8073 3.69168C29.5324 2.26633 22.3233 3.54744 16.2388 6.86042L18.3722 10.2522L18.3731 10.2513Z" fill="url(#paint9_linear_735_580)"/>
<path fill-rule="evenodd" clip-rule="evenodd" d="M5.21635 26.1702C6.937 20.5888 10.3302 15.9186 14.7022 12.5985L18.3436 14.848L16.316 11.6246L16.2422 11.5118H16.244L14.1167 8.12891C8.14341 12.0278 3.49482 17.9935 1.32666 25.2913L5.21635 26.1702Z" fill="url(#paint10_linear_735_580)"/>
<path fill-rule="evenodd" clip-rule="evenodd" d="M0.712935 27.7C-0.932088 35.4001 0.411333 43.0581 3.96384 49.4403L7.32684 47.2947C4.59729 42.2984 3.4149 36.4223 4.26277 30.436L8.54748 29.4702L4.59284 28.577L0.712046 27.7H0.712935Z" fill="url(#paint11_linear_735_580)"/>
<path opacity="0.27" d="M52.0742 16.5575L52.3296 16.8675L51.3109 18.5679L53.9586 16.8791L53.8527 16.7385C50.2264 11.9276 45.1881 8.35211 39.4532 6.56124L39.2868 6.50928L39.0039 7.77874L39.1454 7.82354C44.2121 9.41731 48.6863 12.4427 52.0742 16.5584V16.5575Z" fill="url(#paint12_linear_735_580)"/>
<path opacity="0.27" d="M4.88401 25.3649C6.65092 20.0891 9.94897 15.4977 14.3636 12.1462L14.6696 11.9132L16.5682 13.0868L15.8431 11.9338L15.4579 11.3417L15.4668 11.3363L14.7862 10.2532L14.6483 10.3481C9.50057 13.9111 5.61532 19.0776 3.63311 25.0487L3.57617 25.2189L4.83685 25.5038L4.88312 25.3658L4.88401 25.3649Z" fill="url(#paint13_linear_735_580)"/>
<path opacity="0.27" d="M18.7034 9.44443C23.505 7.03988 28.8805 6.10278 34.2061 6.75409L34.6012 6.80247L35.0691 8.90779L35.788 5.68172L35.6198 5.65395C34.0682 5.39773 32.4971 5.26782 30.9241 5.26782C26.4428 5.26782 22.0468 6.30615 18.0406 8.32995L17.8813 8.41058L18.5735 9.51072L18.7034 9.44532V9.44443Z" fill="url(#paint14_linear_735_580)"/>
<path opacity="0.27" d="M3.87494 39.1984C3.34736 36.2841 3.29131 33.2882 3.7059 30.356L3.76106 29.9681L5.97282 29.47L2.67565 28.7246L2.6454 28.8895C2.31889 30.6525 2.1543 32.4434 2.1543 34.237C2.1543 38.9126 3.26106 43.4923 5.41231 47.6367L5.49328 47.7926L6.58314 47.0974L6.51552 46.9657C5.25751 44.5235 4.36605 41.9039 3.87583 39.1984H3.87494Z" fill="url(#paint15_linear_735_580)"/>
<path opacity="0.27" d="M9.25197 51.2659L9.0082 50.9506L10.187 49.0845L7.37207 50.8798L7.47083 51.0196C11.2573 56.3752 16.7511 60.3054 23.0394 62.1061L23.2031 62.1527L23.4851 60.8859L23.3392 60.8438C17.7422 59.2303 12.8321 55.8905 9.25286 51.2659H9.25197Z" fill="url(#paint16_linear_735_580)"/>
<path d="M30.9237 10.5966C31.8152 10.5966 32.6951 10.6486 33.5607 10.7463L33.147 9.60311C32.4148 9.53681 31.6737 9.50098 30.9237 9.50098C26.9228 9.50098 23.1452 10.4649 19.8071 12.1734L20.4192 13.0908C23.5803 11.4952 27.147 10.5966 30.9237 10.5966Z" fill="url(#paint17_linear_735_580)"/>
<path d="M49.1172 19.2973L49.6528 18.233C46.5673 14.576 42.4454 11.8337 37.7426 10.4675L37.5015 11.539C42.1207 12.8945 46.151 15.6404 49.1163 19.2973H49.1172Z" fill="url(#paint18_linear_735_580)"/>
<path d="M17.9788 14.5142L16.7955 14C12.4405 17.0881 9.12823 21.5648 7.49121 26.7914L8.54993 27.0566C10.1905 21.8694 13.5606 17.4599 17.9788 14.5142Z" fill="url(#paint19_linear_735_580)"/>
<path d="M7.67019 30.9661L6.52339 31.3585C6.41485 32.3027 6.35791 33.2631 6.35791 34.2369C6.35791 38.6689 7.51628 42.8275 9.54297 46.4245L10.4691 45.8467C8.54475 42.4172 7.44599 38.4565 7.44599 34.2369C7.44599 33.1269 7.52251 32.0349 7.6693 30.9661H7.67019Z" fill="url(#paint20_linear_735_580)"/>
<path d="M30.9239 57.8784C30.2584 57.8784 29.6001 57.8497 28.9497 57.7951L29.3679 58.9248C29.883 58.957 30.4017 58.9741 30.9248 58.9741C35.6455 58.9741 40.0538 57.632 43.7976 55.3081L43.2167 54.3809C39.641 56.5982 35.4319 57.8775 30.9248 57.8775L30.9239 57.8784Z" fill="url(#paint21_linear_735_580)"/>
<path d="M12.5153 48.9099L11.9966 50.0065C15.2697 53.986 19.7573 56.9155 24.8863 58.2208L25.1185 57.1493C20.0616 55.8539 15.6603 52.9055 12.5153 48.9099Z" fill="url(#paint22_linear_735_580)"/>
<path fill-rule="evenodd" clip-rule="evenodd" d="M22.0707 26.2412C22.4959 25.8954 22.9639 25.6096 23.4666 25.3928C24.0315 25.1491 24.6303 25.0183 25.2451 25.0183H27.915L21.2575 16.9043L8.10889 0.879639L18.1178 19.0607L22.0707 26.2421V26.2412Z" fill="url(#paint23_linear_735_580)"/>
</g>
<defs>
<linearGradient id="paint0_linear_735_580" x1="30.9236" y1="10.3706" x2="30.9236" y2="12.8477" gradientUnits="userSpaceOnUse">
<stop stop-color="#AEACB9"/>
<stop offset="1" stop-color="#17191C"/>
</linearGradient>
<linearGradient id="paint1_linear_735_580" x1="30.9236" y1="55.627" x2="30.9236" y2="58.1041" gradientUnits="userSpaceOnUse">
<stop stop-color="#AEACB9"/>
<stop offset="1" stop-color="#17191C"/>
</linearGradient>
<linearGradient id="paint2_linear_735_580" x1="8.45167" y1="32.8359" x2="8.45167" y2="35.6392" gradientUnits="userSpaceOnUse">
<stop stop-color="#AEACB9"/>
<stop offset="1" stop-color="#17191C"/>
</linearGradient>
<linearGradient id="paint3_linear_735_580" x1="14.5418" y1="16.3694" x2="14.5418" y2="19.1126" gradientUnits="userSpaceOnUse">
<stop stop-color="#AEACB9"/>
<stop offset="1" stop-color="#17191C"/>
</linearGradient>
<linearGradient id="paint4_linear_735_580" x1="14.5418" y1="49.3621" x2="14.5418" y2="52.1053" gradientUnits="userSpaceOnUse">
<stop stop-color="#AEACB9"/>
<stop offset="1" stop-color="#17191C"/>
</linearGradient>
<linearGradient id="paint5_linear_735_580" x1="47.3055" y1="16.3694" x2="47.3055" y2="19.1126" gradientUnits="userSpaceOnUse">
<stop stop-color="#AEACB9"/>
<stop offset="1" stop-color="#17191C"/>
</linearGradient>
<linearGradient id="paint6_linear_735_580" x1="14.7032" y1="47.2468" x2="14.7032" y2="64.3851" gradientUnits="userSpaceOnUse">
<stop stop-color="#AEACB9"/>
<stop offset="1" stop-color="#17191C"/>
</linearGradient>
<linearGradient id="paint7_linear_735_580" x1="36.4391" y1="57.0254" x2="36.4391" y2="65.3599" gradientUnits="userSpaceOnUse">
<stop stop-color="#AEACB9"/>
<stop offset="1" stop-color="#17191C"/>
</linearGradient>
<linearGradient id="paint8_linear_735_580" x1="47.2147" y1="4.26148" x2="47.2147" y2="20.3336" gradientUnits="userSpaceOnUse">
<stop stop-color="#AEACB9"/>
<stop offset="1" stop-color="#17191C"/>
</linearGradient>
<linearGradient id="paint9_linear_735_580" x1="26.5231" y1="3.11572" x2="26.5231" y2="11.5011" gradientUnits="userSpaceOnUse">
<stop stop-color="#AEACB9"/>
<stop offset="1" stop-color="#17191C"/>
</linearGradient>
<linearGradient id="paint10_linear_735_580" x1="9.83514" y1="8.12891" x2="9.83514" y2="26.1702" gradientUnits="userSpaceOnUse">
<stop stop-color="#AEACB9"/>
<stop offset="1" stop-color="#17191C"/>
</linearGradient>
<linearGradient id="paint11_linear_735_580" x1="4.28204" y1="27.7" x2="4.28204" y2="49.4403" gradientUnits="userSpaceOnUse">
<stop stop-color="#AEACB9"/>
<stop offset="1" stop-color="#17191C"/>
</linearGradient>
<linearGradient id="paint12_linear_735_580" x1="46.4812" y1="6.50928" x2="46.4812" y2="18.5679" gradientUnits="userSpaceOnUse">
<stop stop-color="#AEACB9"/>
<stop offset="1" stop-color="#17191C"/>
</linearGradient>
<linearGradient id="paint13_linear_735_580" x1="10.0722" y1="10.2532" x2="10.0722" y2="25.5038" gradientUnits="userSpaceOnUse">
<stop stop-color="#AEACB9"/>
<stop offset="1" stop-color="#17191C"/>
</linearGradient>
<linearGradient id="paint14_linear_735_580" x1="26.8347" y1="5.26782" x2="26.8347" y2="9.51072" gradientUnits="userSpaceOnUse">
<stop stop-color="#AEACB9"/>
<stop offset="1" stop-color="#17191C"/>
</linearGradient>
<linearGradient id="paint15_linear_735_580" x1="4.36872" y1="28.7246" x2="4.36872" y2="47.7926" gradientUnits="userSpaceOnUse">
<stop stop-color="#AEACB9"/>
<stop offset="1" stop-color="#17191C"/>
</linearGradient>
<linearGradient id="paint16_linear_735_580" x1="15.4286" y1="49.0845" x2="15.4286" y2="62.1527" gradientUnits="userSpaceOnUse">
<stop stop-color="#AEACB9"/>
<stop offset="1" stop-color="#17191C"/>
</linearGradient>
<linearGradient id="paint17_linear_735_580" x1="26.6839" y1="9.50098" x2="26.6839" y2="13.0908" gradientUnits="userSpaceOnUse">
<stop stop-color="#AEACB9"/>
<stop offset="1" stop-color="#17191C"/>
</linearGradient>
<linearGradient id="paint18_linear_735_580" x1="43.5771" y1="10.4675" x2="43.5771" y2="19.2973" gradientUnits="userSpaceOnUse">
<stop stop-color="#AEACB9"/>
<stop offset="1" stop-color="#17191C"/>
</linearGradient>
<linearGradient id="paint19_linear_735_580" x1="12.735" y1="14" x2="12.735" y2="27.0566" gradientUnits="userSpaceOnUse">
<stop stop-color="#AEACB9"/>
<stop offset="1" stop-color="#17191C"/>
</linearGradient>
<linearGradient id="paint20_linear_735_580" x1="8.41352" y1="30.9661" x2="8.41352" y2="46.4245" gradientUnits="userSpaceOnUse">
<stop stop-color="#AEACB9"/>
<stop offset="1" stop-color="#17191C"/>
</linearGradient>
<linearGradient id="paint21_linear_735_580" x1="36.3737" y1="54.3809" x2="36.3737" y2="58.9741" gradientUnits="userSpaceOnUse">
<stop stop-color="#AEACB9"/>
<stop offset="1" stop-color="#17191C"/>
</linearGradient>
<linearGradient id="paint22_linear_735_580" x1="18.5575" y1="48.9099" x2="18.5575" y2="58.2208" gradientUnits="userSpaceOnUse">
<stop stop-color="#AEACB9"/>
<stop offset="1" stop-color="#17191C"/>
</linearGradient>
<linearGradient id="paint23_linear_735_580" x1="18.0119" y1="0.879639" x2="18.0119" y2="26.2421" gradientUnits="userSpaceOnUse">
<stop stop-color="#AEACB9"/>
<stop offset="1" stop-color="#17191C"/>
</linearGradient>
<clipPath id="clip0_735_580">
<rect width="57" height="66" fill="white" transform="translate(0 0.000244141)"/>
</clipPath>
</defs>
</svg>
