<svg width="119" height="44" viewBox="0 0 119 44" fill="none" xmlns="http://www.w3.org/2000/svg">
<path d="M11.3228 31.6838C13.2298 32.8606 16.256 34.6475 18.9652 37.0973C18.9652 37.0973 12.2691 33.7541 8.00362 31.7078C8.00362 31.7078 7.91716 36.689 9.68004 38.572C10.5206 39.4702 12.884 40.4982 15.1224 41.3244C17.577 42.2322 12.1394 39.1052 11.1691 37.6929C10.7656 37.1069 10.5639 36.2135 10.4678 35.3681C23.8551 41.3004 29.5521 43.8798 29.5521 43.8798C19.508 33.0384 9.66563 30.6606 11.3228 31.6838Z" fill="black"/>
<path d="M107.892 31.6838C105.985 32.8606 102.959 34.6475 100.25 37.0973C100.25 37.0973 106.946 33.7541 111.212 31.7078C111.212 31.7078 111.298 36.689 109.535 38.572C108.695 39.4702 106.331 40.4982 104.093 41.3244C101.638 42.2322 107.076 39.1052 108.046 37.6929C108.45 37.1069 108.651 36.2135 108.747 35.3681C95.36 41.3004 89.6631 43.8798 89.6631 43.8798C99.7072 33.0384 109.55 30.6606 107.892 31.6838Z" fill="black"/>
<path d="M1.80234 18.1475C3.23858 18.0754 6.99011 18.0322 9.00277 19.4252C11.6111 21.2361 13.4556 22.5043 12.101 20.5396C10.5351 18.2676 8.80102 17.2444 8.03727 16.961C7.27352 16.6776 2.10976 16.5479 1.27876 16.8217C0.212386 17.1724 0.418936 20.7222 0.418936 20.7222C0.418936 20.7222 1.04819 18.1859 1.80234 18.1475Z" fill="black"/>
<path d="M117.413 18.1475C115.976 18.0754 112.225 18.0322 110.212 19.4252C107.604 21.2361 105.759 22.5043 107.114 20.5396C108.68 18.2676 110.414 17.2444 111.178 16.961C111.941 16.6776 117.1 16.5479 117.936 16.8217C119.002 17.1724 118.791 20.7174 118.791 20.7174C118.791 20.7174 118.162 18.1811 117.408 18.1427L117.413 18.1475Z" fill="black"/>
<path d="M40.2925 29.0274C37.372 27.8793 32.2659 26.6592 23.8934 26.0444C22.5436 25.9435 18.2541 25.5112 18.2541 25.5112C18.2541 25.5112 21.2467 27.226 24.0903 30.3675C25.2864 31.6885 26.8091 33.6915 27.5152 35.0365C25.834 33.509 23.1585 30.7758 19.0515 28.3357C15.3624 26.1405 14.4305 25.7418 11.8655 25.0693C9.21873 24.3776 6.25979 24.6658 4.44887 26.568C3.02223 28.0715 2.40258 29.8055 1.82616 31.2466C0.96634 33.3937 0.702148 35.5217 0.702148 35.5217C0.702148 35.5217 2.04713 32.6972 3.36328 30.8143C4.75629 28.8256 6.34625 28.0619 8.0755 27.937C11.3419 27.7064 15.3576 29.2003 18.5087 30.8287C24.0903 33.7204 31.1467 39.547 31.1467 39.5518C31.1467 39.5518 30.5606 38.2933 30.258 37.5632C29.5375 35.8195 28.548 33.8212 27.4768 31.847C27.0157 30.992 25.8676 29.1907 25.8676 29.1907C25.8676 29.1907 29.4222 29.037 32.2659 29.2915C36.9973 29.7094 40.648 30.478 43.6165 31.3859C46.0183 32.116 47.2335 32.9614 46.9213 32.6396C45.6196 31.2898 42.0938 29.7383 40.2877 29.0274H40.2925Z" fill="black"/>
<path d="M78.9222 29.0274C81.8427 27.8793 86.9488 26.6592 95.3213 26.0444C96.6711 25.9435 100.961 25.5112 100.961 25.5112C100.961 25.5112 97.968 27.226 95.1243 30.3675C93.9283 31.6885 92.4056 33.6915 91.6994 35.0365C93.3807 33.509 96.0562 30.7758 100.163 28.3357C103.852 26.1405 104.784 25.7418 107.349 25.0693C109.996 24.3776 112.955 24.6658 114.766 26.568C116.192 28.0715 116.812 29.8055 117.389 31.2466C118.248 33.3937 118.513 35.5217 118.513 35.5217C118.513 35.5217 117.168 32.6972 115.851 30.8143C114.458 28.8256 112.868 28.0619 111.139 27.937C107.873 27.7064 103.857 29.2003 100.706 30.8287C95.1243 33.7204 88.068 39.547 88.068 39.5518C88.068 39.5518 88.654 38.2933 88.9567 37.5632C89.6772 35.8195 90.6667 33.8212 91.7379 31.847C92.199 30.992 93.347 29.1907 93.347 29.1907C93.347 29.1907 89.7925 29.037 86.9488 29.2915C82.2174 29.7094 78.5667 30.478 75.5981 31.3859C73.1964 32.116 71.9811 32.9614 72.2934 32.6396C73.5951 31.2898 77.1209 29.7383 78.927 29.0274H78.9222Z" fill="black"/>
<path d="M59.6077 27.9033C50.9422 27.9033 45.106 28.5758 45.106 28.5758C45.106 28.5758 55.8129 29.988 59.6077 29.988C63.4024 29.988 74.1094 28.5758 74.1094 28.5758C74.1094 28.5758 68.2732 27.9033 59.6077 27.9033Z" fill="black"/>
<path d="M97.3295 13.5313C95.0911 10.2265 92.3242 5.67275 89.0002 4.20769C86.2046 2.97799 80.8823 2.0173 72.8605 1.49852C66.2413 1.07101 62.0142 0.965332 59.6125 0.965332C57.2107 0.965332 52.9837 1.07101 46.3645 1.49852C38.3378 2.0173 33.0204 2.97799 30.2247 4.20769C26.9007 5.66795 24.1387 10.2217 21.8955 13.5313C20.3968 15.7457 18.6531 18.7623 17.1929 21.5291C17.1929 21.5291 18.73 19.4684 21.3431 15.7841C25.6086 9.77013 27.5828 8.52122 30.1431 7.24349C32.7033 5.96576 37.6605 5.11555 45.1876 4.65922C51.6915 4.26053 59.6077 4.20769 59.6077 4.20769C59.6077 4.20769 67.5238 4.26533 74.0278 4.65922C81.5548 5.12035 86.512 5.96576 89.0723 7.24349C91.6325 8.52122 93.6068 9.77013 97.8723 15.7841C100.485 19.4684 102.022 21.5291 102.022 21.5291C100.562 18.7623 98.8234 15.7457 97.3199 13.5313H97.3295Z" fill="black"/>
</svg>
