<svg width="204" height="55" viewBox="0 0 204 55" fill="none" xmlns="http://www.w3.org/2000/svg">
<g clip-path="url(#clip0_735_690)">
<path fill-rule="evenodd" clip-rule="evenodd" d="M111.055 13.7166C115.874 8.40355 125.405 14.9534 132.342 28.3447C137.152 37.6297 139.452 47.7652 138.806 54.8791H134.9C134.728 48.1196 132.45 39.5651 128.34 31.6314C122.614 20.5768 115.12 14.1861 109.969 15.2807C110.285 14.6936 110.646 14.1686 111.056 13.7166H111.055Z" fill="black"/>
<path fill-rule="evenodd" clip-rule="evenodd" d="M101.801 2.6602C107.487 -3.11211 117.191 1.4891 125.848 12.9523C117.809 3.58598 109.26 0.199266 104.065 5.47312C92.4109 17.3046 104.768 46.3313 107.944 54.8798H107.548C100.418 42.1044 91.2983 13.3224 101.801 2.6602H101.801Z" fill="black"/>
<path fill-rule="evenodd" clip-rule="evenodd" d="M96.2201 46.001C96.1623 45.834 96.105 45.6671 96.0483 45.4995C96.105 45.6665 96.1623 45.8334 96.2201 46.001Z" fill="black"/>
<path fill-rule="evenodd" clip-rule="evenodd" d="M91.7782 25.8807C91.7662 25.7331 91.7535 25.5854 91.7427 25.4377C91.7541 25.5848 91.7662 25.7331 91.7782 25.8807Z" fill="black"/>
<path fill-rule="evenodd" clip-rule="evenodd" d="M91.9533 27.6744C91.9376 27.5358 91.9226 27.3978 91.9087 27.2598C91.9232 27.3978 91.9382 27.5358 91.9533 27.6744Z" fill="black"/>
<path fill-rule="evenodd" clip-rule="evenodd" d="M103.818 54.8798C93.4438 33.0201 91.8756 9.75672 100.614 1.54398C101.083 1.10338 101.574 0.717638 102.083 0.378906C100.31 0.790568 98.6809 1.65307 97.2458 3.00137C96.0265 4.14775 95.0073 5.58706 94.1852 7.27469C89.6871 10.1642 84.993 11.4419 84.2451 16.5488C84.2107 16.8749 84.1812 17.2064 84.1564 17.5427L92.4909 12.1815C92.1691 13.5659 91.9316 15.0426 91.7791 16.5983C86.6734 19.8204 83.6206 19.7071 83.8472 25.436L91.5718 20.5618C91.5567 22.1138 91.6122 23.7237 91.7381 25.383C86.7898 28.4918 83.8376 28.2833 84.6651 33.6608L92.1118 28.9849C92.3288 30.646 92.6103 32.3451 92.9556 34.0731L92.9147 33.867C88.1344 36.9746 85.078 36.8637 86.3377 41.9585L93.6415 37.1994C93.3914 36.1549 93.1642 35.1188 92.9593 34.093C93.5306 36.9481 94.2756 39.8822 95.1905 42.853C90.3308 45.869 87.2068 45.6834 88.8655 50.6191L96.2375 46.0523C96.883 47.9153 97.5936 49.7867 98.3681 51.657C95.9596 53.1928 93.9242 53.9317 92.8104 54.881H103.818V54.8798Z" fill="black"/>
<path fill-rule="evenodd" clip-rule="evenodd" d="M79.2877 41.1226L69.3307 37.8889C69.2824 37.4833 69.2372 37.0789 69.1957 36.6781C69.7845 42.3883 71.0798 48.5855 73.0507 54.8792H69.5627C64.2268 36.936 64.4263 20.0254 70.9164 13.2772C72.2129 11.9289 73.6854 11.0664 75.2874 10.6548C74.8281 10.9929 74.3845 11.3793 73.9608 11.8199C73.774 12.0139 73.5931 12.2183 73.4171 12.4292C75.0975 13.0102 78.7706 12.9584 78.0093 17.1142L71.6879 15.0613L71.7199 14.9992C71.078 16.2276 70.5446 17.6139 70.119 19.1357L70.1431 19.0495C75.7232 20.8583 77.3759 19.6318 77.3638 24.7688L69.4349 22.194C69.0835 24.2282 68.8865 26.442 68.8406 28.7968C68.8563 28.0229 68.8883 27.2641 68.9359 26.5221C74.7365 28.4026 77.2059 27.3322 77.8635 32.7953L68.8304 29.8618C68.8298 31.3289 68.8852 32.8465 68.9968 34.4064C75.0343 36.3635 78.0395 35.4208 79.2877 41.1226Z" fill="black"/>
<path fill-rule="evenodd" clip-rule="evenodd" d="M81.4128 49.2364L70.6433 45.7388C70.3848 44.5267 70.1539 43.3261 69.9502 42.1399C76.2414 44.1795 79.6203 43.3369 81.4128 49.2364Z" fill="black"/>
<path fill-rule="evenodd" clip-rule="evenodd" d="M77.0748 54.8798L72.6098 53.4303C72.2403 52.1886 71.8974 50.9519 71.5815 49.7229C76.5269 51.3262 80.6459 51.3424 82.9658 54.7291V54.8804H77.0754L77.0748 54.8798Z" fill="black"/>
<path fill-rule="evenodd" clip-rule="evenodd" d="M84.8612 54.8796L84.6798 54.3733C84.0711 52.6356 83.4894 50.9016 82.9554 49.1386C77.5399 31.2576 77.4236 14.7802 83.6564 7.54392C85.0125 5.9696 86.5905 4.92568 88.3378 4.3772C87.8496 4.77982 87.3806 5.23488 86.9376 5.7496C83.3273 9.94156 81.8482 17.2357 82.2948 26.1061C82.3298 26.2055 82.3648 26.3044 82.3991 26.405L82.3081 26.3755C82.7722 34.892 84.9987 44.8382 88.8073 54.8802H84.8612V54.8796Z" fill="black"/>
<path fill-rule="evenodd" clip-rule="evenodd" d="M106.334 9.69169C110.482 5.1176 117.553 7.90219 124.282 15.8003C118.591 9.92012 112.856 8.11737 109.366 11.9658C105.163 16.6001 105.475 28.0381 109.581 39.9226C109.634 37.7293 110.195 35.9621 111.292 34.9923C112.187 34.2015 113.325 34.0418 114.57 34.4173C114.944 27.9386 115.226 21.1604 111.454 17.6682C113.431 18.3589 118.91 21.2646 121.244 24.743C117.29 23.4477 117.141 29.7618 116.713 35.5185C117.748 36.2562 118.801 37.2923 119.807 38.5809C122.304 35.0309 124.217 31.4212 123.092 27.2021C124.399 28.8385 127.495 34.2124 127.623 38.3989C125.73 36.1218 123.345 37.5792 120.864 40.0582C121.347 40.7923 121.812 41.5855 122.251 42.433C122.907 43.7011 123.455 44.9951 123.892 46.2759C126.853 44.8083 129.277 42.6632 129.058 39.3603C130.025 41.2185 132.023 47.089 131.34 51.2213C130.239 49.2028 127.497 48.4644 124.508 48.3457C125.117 50.7572 125.309 53.0325 125.063 54.8792H113.595C112.676 53.3996 111.781 51.824 110.918 50.1605C102.628 34.1587 100.575 16.0402 106.334 9.69169Z" fill="black"/>
<path fill-rule="evenodd" clip-rule="evenodd" d="M134.713 51.1475L203.773 54.8795H134.713V51.1475Z" fill="black"/>
<path fill-rule="evenodd" clip-rule="evenodd" d="M71.2149 51.1475V54.8795H0.877441L71.2149 51.1475Z" fill="black"/>
</g>
<defs>
<clipPath id="clip0_735_690">
<rect width="204" height="55" fill="white" transform="translate(0 0.000244141)"/>
</clipPath>
</defs>
</svg>
