<svg width="242" height="78" viewBox="0 0 242 78" fill="none" xmlns="http://www.w3.org/2000/svg">
<path d="M135.84 71.5651L135.018 74.6335H49.3115C50.1051 73.8696 50.886 73.0293 51.6415 72.1282L51.7391 72.0178C51.8636 71.8693 51.9852 71.7179 52.1069 71.5651H135.842H135.84Z" fill="black"/>
<path d="M192.569 66.0013L192.551 66.0706L191.749 69.0697H53.96C54.1453 68.7995 54.3363 68.5151 54.5371 68.2067C54.8257 67.7668 55.1299 67.283 55.4751 66.7157C55.6208 66.4724 55.7594 66.2361 55.8966 66.0013H192.571H192.569Z" fill="black"/>
<path d="M24.9498 0.61731C24.5834 0.638529 24.2184 0.685213 23.852 0.747458C17.2923 1.89191 10.7339 9.13637 6.19712 19.7251C5.76282 20.7182 5.3554 21.7523 4.96354 22.809C3.48381 26.8281 2.28276 31.239 1.46651 35.9172C0.271123 42.8066 0.0405335 49.4286 0.636104 55.2966V55.3065C0.766252 56.4977 0.923279 57.669 1.11143 58.7922C2.86277 69.1984 7.4307 76.5886 13.849 77.7585C13.8745 77.7642 13.9013 77.7642 13.9268 77.7741C14.4813 77.8689 15.0401 77.9156 15.5947 77.9198C7.28499 71.2667 3.48522 54.4323 6.80401 35.3966C9.60078 19.3502 16.6189 6.28867 24.9498 0.61731Z" fill="black"/>
<path d="M42.2712 0.706448C42.1722 0.722009 42.0831 0.731912 41.9841 0.748888C39.9455 1.10397 37.907 2.05037 35.9322 3.49757C35.8218 3.57679 35.7129 3.66025 35.6082 3.73806C35.1272 4.10445 34.6519 4.50056 34.1766 4.93061C33.3504 5.67189 32.5412 6.50371 31.7519 7.41899C26.2587 13.7383 21.6809 23.9507 19.6 35.9187C17.1172 50.1558 18.795 63.2682 23.3573 70.9314C23.9373 71.9089 24.564 72.7973 25.2388 73.5867C27.1457 75.8346 29.4148 77.2974 31.981 77.7628C32.0023 77.7685 32.0334 77.7685 32.0546 77.7784C32.1225 77.7939 32.2003 77.7996 32.2696 77.8095C31.1874 77.9722 30.1052 77.9665 29.0343 77.7784C29.0131 77.7685 28.982 77.7685 28.9607 77.7628C27.8531 77.5591 26.802 77.1771 25.8089 76.6183C25.0139 76.1741 24.2613 75.6252 23.5454 74.9717C22.6259 74.13 21.7743 73.127 21.0005 71.9769C20.9481 71.9033 20.8958 71.8311 20.8491 71.7519C15.9049 64.2316 14.0022 50.6834 16.5797 35.9187C18.3876 25.5181 22.0827 16.4445 26.6251 10.0998C27.5815 8.7516 28.5802 7.53358 29.6087 6.44571C30.6597 5.33238 31.7462 4.36051 32.8496 3.54566C33.8639 2.79307 34.8938 2.17628 35.9392 1.7052C36.9422 1.24543 37.9509 0.92572 38.9652 0.748888C40.0686 0.560739 41.1763 0.529616 42.2741 0.706448H42.2712Z" fill="black"/>
<path d="M35.4744 0.704886C35.3768 0.720447 35.2863 0.734594 35.1872 0.750155C25.651 2.41096 16.1007 16.9678 12.8003 35.9185C9.10096 57.1341 14.6422 75.8429 25.1828 77.7612C25.2054 77.7683 25.2351 77.7683 25.2578 77.7768C25.3257 77.7923 25.4021 77.7994 25.4685 77.8065C24.3892 77.972 23.3098 77.9649 22.2375 77.7768C22.2148 77.7697 22.1851 77.7697 22.1625 77.7612C11.6233 75.8429 6.08067 57.1341 9.78 35.9185C13.0804 16.9678 22.6307 2.41096 32.1669 0.750155C33.269 0.562006 34.3795 0.530883 35.4744 0.704886Z" fill="black"/>
<path d="M54.7106 63.5073C54.6144 63.687 54.5139 63.8652 54.4177 64.0435C54.1291 64.5613 53.8363 65.0663 53.5406 65.56C53.4501 65.7085 53.361 65.8557 53.2704 66.0014C53.0653 66.331 52.8602 66.655 52.6536 66.9718C52.3353 67.4571 52.0156 67.9296 51.6917 68.3851C51.5247 68.6171 51.3578 68.8477 51.1895 69.0698C50.799 69.5932 50.4058 70.0954 50.004 70.5778C49.9743 70.6117 49.946 70.6471 49.9163 70.6811C49.6616 70.9852 49.407 71.278 49.1481 71.5638C48.5172 72.2641 47.8721 72.9134 47.2214 73.5061C46.7814 73.9079 46.3358 74.2842 45.8873 74.6322C44.501 75.7158 43.0835 76.5519 41.6533 77.1107C40.8964 77.4063 40.1368 77.6242 39.3771 77.76C38.1944 77.9694 36.9976 77.9779 35.8221 77.7756C35.8023 77.7642 35.7697 77.7642 35.7499 77.76C32.4269 77.1545 29.6032 74.8798 27.4119 71.387C26.921 70.6146 26.4669 69.7828 26.0482 68.9C24.6845 66.0467 23.656 62.6246 23.0109 58.7923C22.82 57.6705 22.6615 56.4977 22.5356 55.3066V55.2981C21.9358 49.4287 22.1664 42.8053 23.3632 35.9173C24.1794 31.239 25.3805 26.8295 26.8602 22.8091C27.2521 21.7523 27.6581 20.7182 28.0924 19.7237C29.7914 15.7528 31.7804 12.2558 33.9462 9.37268C34.5404 8.5734 35.1543 7.82505 35.7754 7.12338C38.9103 3.60088 42.3281 1.34309 45.7515 0.746106C46.9229 0.54381 48.0885 0.532493 49.2528 0.737618C49.2754 0.741862 49.3066 0.741862 49.3278 0.746106C55.4136 1.85944 59.833 8.56491 61.7683 18.1209H59.9476C58.267 11.5116 55.0939 7.0385 50.8485 6.29722C46.7729 5.58565 42.4554 8.45598 38.7391 13.693C38.268 14.3509 37.8082 15.0511 37.364 15.7839C34.0764 21.1554 31.3956 28.421 29.9611 36.6204C28.2013 46.7125 28.7134 56.1158 30.9443 62.7321C31.2329 63.5837 31.5456 64.3901 31.8865 65.1483C33.6845 69.1051 36.2281 71.6756 39.3545 72.2188C39.6544 72.2711 39.9557 72.3037 40.2584 72.3164C40.8356 72.3461 41.4142 72.3023 41.9984 72.1947H42.0013C42.6732 72.0688 43.3452 71.8595 44.0157 71.5638C44.5661 71.3247 45.1135 71.0291 45.6582 70.6811C45.7119 70.6471 45.7657 70.6132 45.8209 70.5778C46.4744 70.1477 47.1209 69.6455 47.7589 69.0698C48.0023 68.8533 48.2427 68.6242 48.4846 68.3851C48.9289 67.9479 49.3674 67.4769 49.7989 66.9718C50.0676 66.6606 50.3308 66.3367 50.5939 66.0014C50.7085 65.8571 50.8217 65.7085 50.9334 65.56C51.2956 65.0776 51.6549 64.5712 52.0086 64.0435C52.1274 63.8681 52.2448 63.687 52.358 63.5073C52.4117 63.4267 52.4641 63.3447 52.515 63.264C53.078 62.3756 53.6255 61.432 54.1518 60.439H241.099L240.28 63.5073H54.7106Z" fill="black"/>
</svg>
