<svg width="148" height="38" viewBox="0 0 148 38" fill="none" xmlns="http://www.w3.org/2000/svg">
<path d="M1.54292 37.26V27.6327H8.21192V28.8639H2.94512V31.788H7.04912V32.9679H2.94512V36.0972H8.38292V37.26H1.54292ZM17.0737 37.4652C16.5493 37.4652 16.042 37.4025 15.5518 37.2771C15.0616 37.1517 14.617 36.9579 14.218 36.6957C13.819 36.4335 13.4998 36.0972 13.2604 35.6868C13.021 35.265 12.8956 34.7634 12.8842 34.182H14.3206C14.3206 34.2162 14.332 34.3074 14.3548 34.4556C14.3776 34.6038 14.4346 34.7748 14.5258 34.9686C14.6284 35.1624 14.7766 35.3505 14.9704 35.5329C15.1756 35.7153 15.4549 35.8692 15.8083 35.9946C16.1731 36.1086 16.6291 36.1656 17.1763 36.1656C17.5981 36.1656 17.9515 36.12 18.2365 36.0288C18.5215 35.9376 18.7495 35.8179 18.9205 35.6697C19.0915 35.5215 19.2112 35.3676 19.2796 35.208C19.3594 35.0484 19.3993 34.9059 19.3993 34.7805C19.3993 34.4271 19.2853 34.1421 19.0573 33.9255C18.8407 33.7089 18.5443 33.5379 18.1681 33.4125C17.7919 33.2757 17.3758 33.156 16.9198 33.0534C16.4752 32.9394 16.0306 32.8197 15.586 32.6943C15.1414 32.5575 14.731 32.3808 14.3548 32.1642C13.99 31.9476 13.705 31.6683 13.4998 31.3263C13.2946 30.9729 13.2034 30.5226 13.2262 29.9754C13.2604 29.451 13.4428 29.0007 13.7734 28.6245C14.104 28.2483 14.5543 27.9633 15.1243 27.7695C15.7057 27.5643 16.3669 27.4617 17.1079 27.4617C17.7805 27.4617 18.3961 27.5814 18.9547 27.8208C19.5247 28.0602 19.9807 28.4193 20.3227 28.8981C20.6761 29.3655 20.8471 29.964 20.8357 30.6936H19.4506C19.462 30.2946 19.3822 29.9754 19.2112 29.736C19.0402 29.4852 18.8179 29.2914 18.5443 29.1546C18.2821 29.0178 18.0085 28.9266 17.7235 28.881C17.4385 28.824 17.182 28.7955 16.954 28.7955C16.3156 28.7955 15.7855 28.9152 15.3637 29.1546C14.9533 29.3826 14.7424 29.7075 14.731 30.1293C14.7196 30.4941 14.8279 30.7848 15.0559 31.0014C15.2839 31.218 15.586 31.389 15.9622 31.5144C16.3384 31.6398 16.7545 31.7538 17.2105 31.8564C17.6665 31.959 18.1168 32.073 18.5614 32.1984C19.006 32.3238 19.4107 32.4948 19.7755 32.7114C20.1517 32.9166 20.4424 33.1959 20.6476 33.5493C20.8642 33.9027 20.9611 34.3587 20.9383 34.9173C20.9155 35.4531 20.7331 35.9091 20.3911 36.2853C20.0491 36.6615 19.5931 36.9522 19.0231 37.1574C18.4531 37.3626 17.8033 37.4652 17.0737 37.4652ZM29.6258 27.9405V37.26H28.2065V27.9405H29.6258ZM25.2311 28.8639V27.6327H32.5841V28.8639H25.2311ZM37.783 37.26C37.4296 37.26 37.1902 37.1688 37.0648 36.9864C36.9508 36.804 36.8938 36.5874 36.8938 36.3366C36.8938 36.0972 36.9565 35.892 37.0819 35.721C37.2073 35.5386 37.441 35.4474 37.783 35.4474C38.1136 35.4474 38.3359 35.5386 38.4499 35.721C38.5753 35.892 38.638 36.0972 38.638 36.3366C38.638 36.5988 38.5753 36.8211 38.4499 37.0035C38.3359 37.1745 38.1136 37.26 37.783 37.26Z" fill="black"/>
<g clip-path="url(#clip0_1596_835)">
<path fill-rule="evenodd" clip-rule="evenodd" d="M55.7268 15.3408L63.3112 28.5144H68.3488L60.7644 15.3408H55.7268ZM77.2066 8.80171L69.6222 21.9192L72.169 26.3098L75.7817 20.0362L79.774 13.1736L77.2085 8.80171H77.2066ZM65.8581 15.3988L67.1315 17.5473L74.7159 4.37374L72.169 0L64.5846 13.1736L65.8581 15.3969V15.3988ZM88.6318 15.3408H83.5942L75.9911 28.5144H81.0474L88.6318 15.3408ZM94.2789 23.0972L98.7649 15.3408H93.6694L86.085 28.5144H91.1805L94.2789 23.0972ZM91.1805 32.8881H53.1781V37.26H91.1786V32.8881H91.1805ZM58.2737 28.5144L50.6893 15.3408H45.5938L50.0797 23.0972L53.1781 28.5144H58.2737Z" fill="#282F39"/>
</g>
<path d="M105.53 37.26V36.0801C105.541 36.0687 105.649 36.0003 105.854 35.8749C106.071 35.7495 106.35 35.5785 106.692 35.3619C107.034 35.1453 107.405 34.8945 107.804 34.6095C108.214 34.3131 108.619 33.9996 109.018 33.669C109.417 33.3384 109.776 32.9964 110.095 32.643C110.426 32.2782 110.682 31.9191 110.865 31.5657C111.138 31.0071 111.224 30.5169 111.121 30.0951C111.019 29.6733 110.785 29.3427 110.42 29.1033C110.067 28.8525 109.628 28.7271 109.103 28.7271C108.465 28.7385 107.946 28.9494 107.547 29.3598C107.16 29.7588 107 30.3744 107.069 31.2066L105.752 31.0356C105.706 30.306 105.826 29.679 106.111 29.1546C106.396 28.6302 106.812 28.2312 107.359 27.9576C107.906 27.684 108.539 27.5472 109.257 27.5472C109.873 27.5472 110.42 27.6612 110.899 27.8892C111.389 28.1058 111.777 28.4079 112.062 28.7955C112.347 29.1831 112.506 29.6334 112.541 30.1464C112.575 30.648 112.455 31.1781 112.181 31.7367C111.965 32.1471 111.663 32.5575 111.275 32.9679C110.899 33.3783 110.483 33.7602 110.027 34.1136C109.571 34.467 109.126 34.7805 108.693 35.0541C108.271 35.3277 107.906 35.55 107.599 35.721C107.291 35.892 107.091 35.9946 107 36.0288H112.729V37.26H105.53ZM121.447 37.4994C120.068 37.4994 119.048 37.0491 118.386 36.1485C117.725 35.2365 117.395 34.011 117.395 32.472C117.395 31.4574 117.531 30.5796 117.805 29.8386C118.09 29.0862 118.529 28.5048 119.122 28.0944C119.726 27.6726 120.501 27.4617 121.447 27.4617C122.371 27.4617 123.129 27.6669 123.722 28.0773C124.326 28.4877 124.77 29.0691 125.055 29.8215C125.352 30.5739 125.5 31.4574 125.5 32.472C125.5 33.4638 125.352 34.3416 125.055 35.1054C124.77 35.8578 124.326 36.4449 123.722 36.8667C123.129 37.2885 122.371 37.4994 121.447 37.4994ZM121.43 36.3024C122.376 36.3024 123.066 35.9718 123.499 35.3106C123.944 34.638 124.166 33.6918 124.166 32.472C124.166 31.6512 124.069 30.9615 123.875 30.4029C123.693 29.8329 123.397 29.3997 122.986 29.1033C122.587 28.7955 122.069 28.6416 121.43 28.6416C120.507 28.6416 119.823 28.9608 119.378 29.5992C118.945 30.2376 118.728 31.1952 118.728 32.472C118.728 33.2814 118.82 33.9711 119.002 34.5411C119.196 35.1111 119.486 35.55 119.874 35.8578C120.273 36.1542 120.792 36.3024 121.43 36.3024ZM134.756 36.0288V37.26H130.464V36.0288H132.02V29.4966C131.918 29.8728 131.764 30.1692 131.558 30.3858C131.353 30.6024 131.137 30.7563 130.909 30.8475C130.692 30.9387 130.493 30.9957 130.31 31.0185C130.128 31.0413 130.008 31.0527 129.951 31.0527V29.5308C130.019 29.5422 130.162 29.5308 130.379 29.4966C130.607 29.4624 130.852 29.3826 131.114 29.2572C131.387 29.1318 131.621 28.9437 131.815 28.6929C132.02 28.4307 132.128 28.0773 132.14 27.6327H133.405V36.0288H134.756ZM143.247 37.431C142.551 37.431 141.947 37.3113 141.434 37.0719C140.932 36.8325 140.528 36.5133 140.22 36.1143C139.912 35.7153 139.701 35.2707 139.587 34.7805L141.006 34.5924C141.018 34.6608 141.058 34.7805 141.126 34.9515C141.206 35.1225 141.326 35.3049 141.485 35.4987C141.656 35.6925 141.884 35.8635 142.169 36.0117C142.466 36.1485 142.836 36.2169 143.281 36.2169C143.782 36.2169 144.198 36.12 144.529 35.9262C144.86 35.721 145.116 35.4645 145.299 35.1567C145.481 34.8375 145.584 34.5069 145.606 34.1649C145.641 33.7887 145.578 33.4296 145.418 33.0876C145.259 32.7342 145.008 32.4435 144.666 32.2155C144.335 31.9875 143.902 31.8735 143.366 31.8735C142.99 31.8735 142.671 31.9248 142.409 32.0274C142.146 32.1186 141.936 32.2326 141.776 32.3694C141.628 32.5062 141.514 32.6259 141.434 32.7285C141.366 32.8311 141.331 32.8881 141.331 32.8995L139.895 32.643L140.391 27.6327H146.547V28.8639H141.417L141.075 32.1129C141.075 32.1129 141.12 32.0502 141.212 31.9248C141.314 31.7994 141.468 31.6569 141.673 31.4973C141.89 31.3377 142.164 31.1952 142.494 31.0698C142.836 30.9444 143.252 30.8817 143.742 30.8817C144.518 30.8817 145.15 31.0413 145.641 31.3605C146.142 31.6797 146.501 32.0958 146.718 32.6088C146.946 33.1104 147.043 33.6348 147.009 34.182C146.963 34.7292 146.786 35.2536 146.478 35.7552C146.182 36.2454 145.76 36.6501 145.213 36.9693C144.666 37.2771 144.01 37.431 143.247 37.431Z" fill="black"/>
<defs>
<clipPath id="clip0_1596_835">
<rect width="53.1711" height="37.26" fill="white" transform="translate(45.5938)"/>
</clipPath>
</defs>
</svg>
