<svg width="123" height="60" viewBox="0 0 123 60" fill="none" xmlns="http://www.w3.org/2000/svg">
<path d="M64.7215 45.2491C64.666 45.2637 64.6135 45.2841 64.558 45.3045C65.4601 45.3804 66.3066 46.1365 66.6044 47.2312C66.9488 48.4981 66.4292 49.7504 65.4338 50.1299C65.6323 50.1475 65.8337 50.1299 66.0322 50.0774C67.1328 49.7796 67.7283 48.4543 67.3634 47.1232C67.0014 45.7891 65.8162 44.9513 64.7186 45.2491H64.7215ZM103.477 0.594277C89.0208 0.29944 80.9493 1.19855 77.2799 3.49011C89.3244 0.422045 110.378 1.91959 117.065 3.33831C119.001 3.74992 119.596 4.62567 119.52 5.97726C119.445 7.32592 117.179 14.2794 116.651 16.2294C117.378 16.2703 118.105 16.3112 118.832 16.352C118.832 16.352 120.799 7.29965 121.797 4.33667C121.841 4.20823 121.903 4.10022 121.97 3.99805C121.984 3.27993 121.996 2.55597 122.008 1.83201C116.657 0.678933 110.827 0.748995 103.471 0.597197L103.477 0.594277ZM63.3904 48.2062C63.0459 46.9393 63.5655 45.6869 64.561 45.3045C64.3625 45.287 64.161 45.3045 63.9625 45.3571C62.8649 45.6577 62.2694 46.9801 62.6314 48.3113C62.9934 49.6454 64.1785 50.4832 65.2762 50.1854C65.3316 50.1708 65.3871 50.1504 65.4396 50.1299C64.5376 50.057 63.691 49.298 63.3933 48.2033L63.3904 48.2062ZM90.6731 25.2731C85.2901 25.2818 82.7095 26.7735 79.478 28.7761C74.8307 31.6544 73.4148 32.5681 69.9585 32.9972C66.5022 33.4264 62.103 32.6323 58.4482 32.4251C54.7934 32.2178 46.6926 32.0748 45.1746 32.6907C50.3971 32.752 53.0389 32.9009 57.155 33.2103C61.271 33.5198 66.9926 34.3897 69.5907 33.9898C72.1859 33.5898 74.1417 33.4672 79.081 30.2357C84.0203 27.0041 86.0316 25.9474 90.6702 25.2731H90.6731ZM60.9266 23.2472C53.29 23.5712 47.3699 26.9662 44.4011 32.7257C42.6262 36.1675 42.4335 41.0746 42.2934 45.071C43.3122 35.569 44.0654 33.2833 46.9729 29.9292C48.8236 27.7923 51.7341 25.746 57.6162 24.4177C61.4316 23.5566 75.5984 23.8485 78.7219 23.2705C77.2944 23.1888 68.5602 22.9231 60.9266 23.2472ZM105.444 24.1463C104.04 23.8748 102.519 24.0061 100.879 24.9724C96.6662 27.4508 93.3354 32.9943 91.2919 39.8194C89.2485 46.6444 89.193 51.9398 89.2398 57.5038C81.5127 58.1256 64.669 59.8888 39.6428 56.9696C14.6137 54.0504 6.48084 50.7342 2.74721 49.1111C1.346 48.501 1.02197 47.8734 0.911039 47.1611C0.648312 48.6937 0.76508 49.0936 2.72093 50.1095C4.67387 51.1254 18.5312 56.8236 48.8849 58.9488C74.8774 60.7675 85.8126 59.4217 90.3578 59.0743C90.3578 54.3686 89.6922 46.8196 93.1894 38.2664C96.6895 29.7132 101.608 24.5345 106.942 27.1238C109.995 28.6068 112.231 33.9547 112.973 37.8723C112.952 30.008 108.331 24.7009 105.444 24.1433V24.1463ZM99.0365 49.0528C98.1812 48.8513 97.3434 50.1299 96.2925 51.5983C97.8105 50.0015 98.2892 49.622 98.7913 49.7504C99.3401 49.8935 100.94 52.3164 102.321 54.027C100.887 51.4494 99.8889 49.2542 99.0336 49.0528H99.0365ZM105.87 43.5997C104.224 44.4667 102.496 45.1002 102.35 46.0518C102.207 47.0035 103.24 49.7125 103.926 51.3502C103.313 49.26 102.394 46.9247 102.811 45.9876C103.228 45.0506 104.119 44.6886 105.867 43.6026L105.87 43.5997ZM10.8509 24.0091C12.2346 22.6867 13.1162 21.2913 12.8155 20.8914C12.5177 20.4914 11.1515 21.2388 9.76785 22.5611C8.38415 23.8835 7.50256 25.2789 7.80324 25.6818C8.10099 26.0817 9.46717 25.3344 10.8538 24.012L10.8509 24.0091ZM9.76493 22.783C11.0319 21.5774 12.255 20.868 12.5002 21.1979C12.7454 21.5248 11.9164 22.7684 10.6494 23.9711C9.38252 25.1767 8.15938 25.8861 7.91417 25.5592C7.67187 25.2322 8.498 23.9886 9.76493 22.7859V22.783ZM84.7938 18.0072C70.1308 17.5752 57.9753 19.3121 50.508 22.7597C42.0949 26.648 40.4689 33.33 39.4822 36.5937C43.2509 26.8494 48.7215 24.047 53.8534 22.5203C61.922 20.1207 71.4765 19.134 82.2104 18.991C92.1414 18.8596 105.681 19.6303 107.289 19.6215C108.898 19.6128 113.676 19.1574 114.853 17.9167C112.246 19.5807 100.257 18.4655 84.7968 18.0101L84.7938 18.0072ZM72.3785 45.7103C70.6942 42.9575 64.4734 43.2874 62.3365 43.7136C71.894 43.661 70.4606 48.9331 69.687 50.2525C70.7905 50.0424 74.0629 48.466 72.3785 45.7132V45.7103ZM79.0752 11.4624C79.9889 11.5704 80.9931 12.2477 81.6761 12.7673C82.3622 12.8081 83.0306 12.849 83.6554 12.887C82.6015 11.8098 80.9989 10.9019 79.2883 10.7822C77.4725 10.6538 75.9662 11.3427 75.1109 12.3761C76.8449 11.3544 77.8228 11.3164 79.0752 11.4653V11.4624ZM4.2068 40.7564C4.46369 39.6909 5.02125 38.8706 5.5759 38.6575C5.52043 38.6254 5.46497 38.5992 5.40367 38.5846C4.73517 38.424 3.9324 39.3815 3.60837 40.7243C3.28434 42.0671 3.56458 43.2874 4.23015 43.4479C4.37027 43.48 4.51331 43.4654 4.65927 43.4071C4.11922 43.0918 3.9178 41.9767 4.20972 40.7564H4.2068ZM11.0727 45.614C7.45877 47.0794 6.53339 48.1069 7.69231 48.7375C10.4743 50.2525 30.2985 53.6826 39.1699 54.1993C32.1814 53.2885 16.59 50.7576 9.14314 48.5623C7.35076 48.034 9.54307 46.5569 11.0727 45.6169V45.614ZM5.57298 38.6546C6.11303 38.9699 6.31445 40.085 6.02253 41.3052C5.76564 42.3678 5.20808 43.1881 4.65635 43.4041C4.71182 43.4362 4.76728 43.4625 4.83151 43.4771C5.5 43.6377 6.30277 42.6802 6.6268 41.3373C6.95083 39.9945 6.67351 38.7743 6.00502 38.6138C5.86782 38.5816 5.72186 38.5962 5.57882 38.6546H5.57298ZM29.1629 38.8502C24.3258 38.2372 18.2101 37.268 11.4201 36.147C4.62716 35.029 3.87693 34.4773 3.23179 33.7037C2.4874 32.8104 3.63464 30.3846 5.05336 28.3119C2.20132 30.8721 1.32556 33.4672 2.37063 34.6758C3.91196 36.4623 20.6301 38.4269 29.16 38.8502H29.1629ZM10.0393 26.6451C10.4451 27.0742 12.1003 26.1693 13.7321 24.625C15.3639 23.0808 16.3594 21.4781 15.9536 21.0519C15.5478 20.6228 13.8927 21.5278 12.2608 23.072C10.629 24.6163 9.63357 26.216 10.0393 26.6451ZM15.5741 21.3993C15.904 21.7467 14.9669 23.1654 13.4811 24.5695C11.9952 25.9737 10.5268 26.829 10.197 26.4845C9.8671 26.1372 10.8071 24.7155 12.29 23.3114C13.773 21.9072 15.2442 21.0519 15.5741 21.3993ZM64.0151 31.2428C65.6557 29.8854 66.1227 27.5267 65.0543 25.9766C63.9859 24.4265 61.7906 24.2718 60.1471 25.6292C58.5066 26.9866 58.0395 29.3453 59.1079 30.8954C60.1763 32.4455 62.3716 32.6002 64.0151 31.2428ZM60.2902 26.0788C61.7177 24.8994 63.6268 25.0337 64.5522 26.3794C65.4805 27.7252 65.0777 29.7745 63.6502 30.9538C62.2227 32.1332 60.3165 31.9989 59.3882 30.6531C58.4628 29.3074 58.8656 27.2581 60.2902 26.0788ZM101.144 40.3653C100.598 39.6325 100.207 34.0803 100.166 33.4701C100.347 36.9761 100.592 39.7143 100.908 40.6338C101.188 41.4541 101.457 41.5008 104.154 40.7564C106.107 40.2193 106.889 39.8661 108.34 39.399C105.473 40.085 101.713 41.1272 101.144 40.3623V40.3653ZM72.9332 31.4384C74.8219 29.9963 75.3765 27.4216 74.1738 25.6934C72.9711 23.9624 70.4636 23.7288 68.5778 25.1709C66.689 26.613 66.1344 29.1877 67.3371 30.9188C68.5398 32.6499 71.0474 32.8834 72.9332 31.4413V31.4384ZM68.7354 25.6672C70.376 24.4148 72.5537 24.6192 73.5958 26.1226C74.6409 27.6259 74.1592 29.862 72.5187 31.1144C70.8781 32.3667 68.7033 32.1653 67.6582 30.659C66.6131 29.1556 67.0948 26.9195 68.7354 25.6672ZM55.9581 30.8867C57.1024 29.7307 57.2075 27.9558 56.1975 26.9224C55.1875 25.889 53.4389 25.9854 52.2975 27.1414C51.1531 28.2973 51.048 30.0722 52.0581 31.1056C53.0681 32.139 54.8167 32.0427 55.9581 30.8867ZM52.4609 27.4566C53.4535 26.4524 54.9714 26.3678 55.8501 27.2669C56.7288 28.166 56.6354 29.7073 55.6428 30.7115C54.6503 31.7157 53.1323 31.8004 52.2537 30.9013C51.375 30.0021 51.4684 28.4608 52.4609 27.4566ZM16.6279 18.1065C22.6356 15.4442 25.6628 13.1176 38.2737 12.995C28.7104 12.5279 24.7462 13.0067 16.6279 18.1065ZM10.5327 31.5814C14.5524 26.1226 18.5312 22.0211 26.3167 19.1253C35.3487 15.7653 45.8081 13.7481 55.3597 12.3936C44.1821 13.1847 32.9754 15.8704 24.6674 18.953C16.3594 22.0386 12.1441 28.1952 10.5327 31.5814Z" fill="black"/>
</svg>
