<svg width="77" height="85" viewBox="0 0 77 85" fill="none" xmlns="http://www.w3.org/2000/svg">
<path d="M18.6907 84.7166C18.0056 84.7166 17.302 84.6629 16.6154 84.5722C16.5785 84.5538 16.5432 84.5538 16.5079 84.5538C8.4787 83.2727 2.75981 75.2804 0.57701 64.0039C0.523247 63.7151 0.469484 63.4263 0.432617 63.1375H7.01787C8.64153 72.8626 12.7552 80.5845 18.6907 84.7166Z" fill="black"/>
<path d="M30.4007 0.965454C23.4544 5.06069 17.2302 12.7105 12.8277 22.5261H6.53125C6.65721 22.2373 6.8016 21.9486 6.946 21.6598C12.6111 10.1851 20.82 2.33719 29.0289 1.09141C29.4806 1.03765 29.9306 0.983887 30.4007 0.965454Z" fill="black"/>
<path d="M39.2773 84.5738C39.3679 84.5922 39.457 84.5922 39.5476 84.5922C38.1943 84.7719 36.841 84.7719 35.5062 84.5738C35.4708 84.5553 35.434 84.5553 35.4155 84.5553C34.0269 84.3203 32.7089 83.924 31.4647 83.3111C30.4724 82.8241 29.5338 82.2281 28.6321 81.5246C27.4954 80.6229 26.4125 79.5215 25.457 78.2773C25.3848 78.2051 25.331 78.1145 25.2588 78.0423C22.4263 74.2896 20.3879 69.1467 19.3418 63.139H23.0945C24.0684 68.6782 25.8917 73.477 28.3986 77.1406C29.1206 78.2051 29.9132 79.1605 30.7627 80.0269C33.1436 82.4632 35.9762 84.0499 39.1882 84.5553C39.2251 84.5553 39.2604 84.5553 39.2788 84.5738H39.2773Z" fill="black"/>
<path d="M52.0683 1.05613C51.9423 1.07456 51.8333 1.09146 51.7073 1.09146C49.1451 1.48931 46.6013 2.51696 44.1297 4.08685C43.9853 4.15905 43.8594 4.24968 43.7334 4.34031C43.1205 4.73662 42.5245 5.1698 41.9285 5.63985C40.9008 6.43401 39.8901 7.3357 38.8978 8.32802C35.2357 11.9732 31.8978 16.8257 29.1912 22.5277H25.4385C27.4584 18.2343 29.8763 14.4263 32.4922 11.2328C33.6827 9.77195 34.9285 8.45398 36.2265 7.28194C37.526 6.07303 38.8962 5.00851 40.268 4.12525C41.5491 3.31266 42.8302 2.64599 44.1282 2.14062C45.3909 1.63524 46.6551 1.29269 47.9177 1.09453C49.3064 0.896376 50.6965 0.85951 52.0683 1.0592V1.05613Z" fill="black"/>
<path d="M30.7797 84.5738C30.8703 84.5738 30.9594 84.5922 31.05 84.5922C29.6967 84.7719 28.3434 84.7719 27.0085 84.5738C26.9732 84.5553 26.9364 84.5553 26.9179 84.5553C18.6906 83.2389 12.8995 74.8487 10.8242 63.139H14.5953C16.6522 74.8487 22.4617 83.2389 30.689 84.5553C30.7244 84.5553 30.7612 84.5553 30.7797 84.5738Z" fill="black"/>
<path d="M43.5542 1.05609C43.4467 1.07453 43.3192 1.09142 43.1932 1.10986C34.7861 2.37253 26.3591 10.5814 20.7124 22.5261H16.9229C22.588 10.583 31.0135 2.37253 39.4221 1.10986C40.8107 0.893267 42.1825 0.857937 43.5542 1.05609Z" fill="black"/>
<path d="M60.8919 1.09152H60.8013C59.3405 0.87493 57.8781 0.87493 56.4173 1.09152C52.1408 1.74129 47.8658 4.19444 43.9319 8.00243C43.1562 8.75972 42.3989 9.57232 41.64 10.4387C38.9334 13.5785 36.4434 17.3665 34.3328 21.6614C34.1884 21.9502 34.044 22.239 33.8996 22.5278H42.7767C43.7506 20.6875 44.8151 18.9732 45.9165 17.4033C46.4757 16.6092 47.0532 15.8519 47.6492 15.1299C52.2852 9.44636 57.6984 6.34344 62.786 7.11917C68.7214 8.00396 72.9795 13.9394 74.8198 22.5278H76.9856C74.9288 10.7981 69.1377 2.40949 60.8919 1.09152ZM48.4065 78.5477C44.5095 77.9517 41.3159 75.1745 39.0794 70.8795C38.6462 70.0685 38.2499 69.1837 37.8889 68.2636C37.276 66.6937 36.7706 64.9794 36.3727 63.1391H27.8213C27.8566 63.4279 27.9119 63.7167 27.9657 64.0055C28.7783 68.1545 30.0578 71.8534 31.7721 74.9563C32.2959 75.9133 32.8551 76.815 33.468 77.6445C36.2099 81.4341 39.746 83.8872 43.8966 84.5554C43.9319 84.5554 43.9688 84.5554 43.9872 84.5738C45.4665 84.7904 46.9641 84.772 48.4434 84.5554C56.8336 83.239 65.2222 75.047 70.8704 63.1391H68.4342C63.0041 73.3327 55.4434 79.5938 48.4081 78.5477H48.4065Z" fill="black"/>
</svg>
