<svg width="226" height="75" viewBox="0 0 226 75" fill="none" xmlns="http://www.w3.org/2000/svg">
<g clip-path="url(#clip0_1644_637)">
<path d="M163.734 12.4826L164.143 11.5054C164.779 11.4813 165.417 11.4649 166.061 11.4649C170.57 11.4649 174.909 12.0699 178.971 13.1841L179.339 14.88L180.216 13.547C184.839 14.954 189.079 17.0251 192.763 19.6296L192.4 21.8713L194.135 20.6481C196.643 22.5868 198.86 24.7826 200.734 27.1831L201.942 26.4628C194.371 16.9823 181.449 10.733 166.775 10.733C150.701 10.733 136.728 18.2265 129.589 29.2542H129.879C136.523 19.2707 148.919 12.3238 163.334 11.5405L163.732 12.4826H163.734Z" fill="#020202"/>
<path d="M223.673 34.9158L210.135 36.5867C211.071 39.5922 211.585 42.7394 211.585 45.9894C211.585 47.8184 211.411 49.6124 211.107 51.3713L224.824 52.4302C225.204 50.3287 225.41 48.1797 225.41 45.9894C225.41 42.1586 224.803 38.4484 223.674 34.9158H223.673Z" fill="#020202"/>
<path d="M217.522 68.8194C220.719 64.5806 223.051 59.8457 224.316 54.7808L210.613 53.7234C209.44 58.3663 207.238 62.6901 204.211 66.5232L217.522 68.8194Z" fill="#020202"/>
<path d="M202.422 68.6342C200.575 70.6547 198.492 72.5172 196.199 74.1858H212.761C213.841 73.1494 214.858 72.0656 215.818 70.9451L202.422 68.6349V68.6342Z" fill="#020202"/>
<path d="M222.851 32.6156C221.47 29.1017 219.566 25.7855 217.209 22.7349L207.49 30.3716C208.188 31.6385 208.799 32.9466 209.329 34.2842L222.851 32.6156Z" fill="#020202"/>
<path d="M174.506 0.422485C167.514 0.422485 160.699 1.5367 154.37 3.5549L154.605 3.45601L146.943 6.44283C142.946 8.2944 139.238 10.5283 135.914 13.083L132.417 16.0223C130.561 17.7282 128.864 19.5448 127.349 21.4586C126.37 22.6974 125.466 23.9759 124.645 25.2926C124.494 25.5355 0.00976562 29.2535 0.00976562 29.2535H125.49C133.387 13.1982 152.378 1.85204 174.506 1.85204C186.833 1.85204 198.182 5.37611 207.186 11.2695V11.0064C198.085 5.26399 186.766 0.422485 174.506 0.422485Z" fill="#020202"/>
<path d="M187.89 36.9168H196.266L222.549 16.2653L187.89 36.9168Z" fill="#020202"/>
<path d="M145.275 10.2893L145.944 12.8689C150.997 10.6498 156.619 9.21793 162.582 8.75621L162.281 4.12805C156.114 5.31857 150.372 7.43254 145.275 10.2885V10.2893Z" fill="#020202"/>
<path d="M184.316 3.9115L182.364 10.9308C186.978 12.3612 191.238 14.3926 194.99 16.9348L202.296 10.1499C196.924 7.17784 190.847 5.03116 184.316 3.9115Z" fill="#020202"/>
<path d="M173.926 3.0177C170.496 3.0177 167.147 3.30034 163.905 3.83448L164.218 8.65496C165.065 8.61525 165.916 8.588 166.776 8.588C171.673 8.588 176.385 9.24593 180.796 10.459L182.691 3.64294C179.843 3.23416 176.915 3.0177 173.927 3.0177H173.926Z" fill="#020202"/>
<path d="M203.792 10.9979L196.347 17.9114C199.268 20.0572 201.865 22.506 204.037 25.2149L214.154 19.1875C211.173 16.0746 207.683 13.3175 203.793 10.9979H203.792Z" fill="#020202"/>
<path d="M125.95 30.4775H0.00976562V31.4889H126.512V31.4687C131.978 21.0304 136.832 17.2198 144.429 13.5634L143.803 11.1434C136.224 15.7171 129.956 21.577 125.95 30.4775Z" fill="#020202"/>
</g>
<defs>
<clipPath id="clip0_1644_637">
<rect width="225.399" height="73.7624" fill="white" transform="translate(0.00976562 0.422485)"/>
</clipPath>
</defs>
</svg>
