<svg width="83" height="50" viewBox="0 0 83 50" fill="none" xmlns="http://www.w3.org/2000/svg">
<g clip-path="url(#clip0_1644_736)">
<path fill-rule="evenodd" clip-rule="evenodd" d="M24.59 0.105957C31.81 0.105957 38.3 3.21596 42.8 8.17596H36.05C32.8 5.91596 28.85 4.58596 24.59 4.58596C13.49 4.58596 4.48 13.596 4.48 24.696C4.48 28.536 5.56 32.136 7.43 35.186C15.69 35.026 21.22 32.926 23.53 28.166C25.93 23.226 24.57 17.626 18.03 17.236V9.65596H82.5C79.29 13.916 74.21 15.696 68.68 15.696H31.5C31.78 16.176 32.02 16.676 32.22 17.196H72.03C68.82 21.456 63.74 23.236 58.21 23.236H32.91C32.84 23.836 32.73 24.436 32.59 25.046H61.87C58.66 29.306 53.58 31.096 48.05 31.096H29.89C29.47 31.716 29.01 32.326 28.51 32.906H48.32C45.11 37.166 40.16 38.646 34.62 38.646H10.11C13.77 42.446 18.9 44.806 24.59 44.806C29.58 44.806 34.15 42.986 37.67 39.966C39.47 39.776 41.21 39.386 42.84 38.766C43.83 38.386 44.79 37.916 45.68 37.336C41.38 44.496 33.54 49.286 24.58 49.286C11.01 49.286 0 38.276 0 24.696C0 11.116 11.01 0.105957 24.59 0.105957Z" fill="black"/>
</g>
<defs>
<clipPath id="clip0_1644_736">
<rect width="82.5" height="49.18" fill="white" transform="translate(0 0.105957)"/>
</clipPath>
</defs>
</svg>
