<svg width="59" height="48" viewBox="0 0 59 48" fill="none" xmlns="http://www.w3.org/2000/svg">
<g clip-path="url(#clip0_1644_745)">
<path fill-rule="evenodd" clip-rule="evenodd" d="M5.67969 23.5811C10.115 2.29598 45.967 12.1776 58.4521 0.235962C53.5602 20.7057 17.1158 11.0524 5.67969 23.5811Z" fill="black"/>
<path fill-rule="evenodd" clip-rule="evenodd" d="M3.33789 32.5495C7.48511 12.8298 39.7606 23.4126 51.1043 12.7266C46.5548 31.669 13.7413 21.2765 3.33789 32.5495Z" fill="black"/>
<path fill-rule="evenodd" clip-rule="evenodd" d="M1.75 40.4254C5.50043 22.831 33.1341 34.0442 42.983 24.9725C38.8956 41.844 10.7945 30.7776 1.75 40.4254Z" fill="black"/>
<path fill-rule="evenodd" clip-rule="evenodd" d="M0 47.236C3.14167 32.6854 25.0192 43.442 32.9332 36.3325C29.5306 50.258 7.27802 39.6046 0 47.236Z" fill="black"/>
</g>
<defs>
<clipPath id="clip0_1644_745">
<rect width="58.4524" height="47" fill="white" transform="translate(0 0.235962)"/>
</clipPath>
</defs>
</svg>
