<svg width="92" height="45" viewBox="0 0 92 45" fill="none" xmlns="http://www.w3.org/2000/svg">
<path d="M48.1964 34.0128C48.1548 34.0238 48.1153 34.0391 48.0737 34.0545C48.7508 34.1114 49.3863 34.679 49.6098 35.5007C49.8683 36.4517 49.4783 37.3917 48.7311 37.6766C48.8801 37.6897 49.0313 37.6766 49.1803 37.6371C50.0064 37.4136 50.4534 36.4188 50.1795 35.4196C49.9078 34.4182 49.0181 33.7893 48.1942 34.0128H48.1964ZM77.2872 0.493594C66.4362 0.27228 60.3775 0.947178 57.6231 2.66729C66.6641 0.364311 82.4673 1.48841 87.4874 2.55335C88.9402 2.86231 89.3872 3.51968 89.3302 4.53422C89.2732 5.54657 87.5728 10.7661 87.1762 12.2298C87.7218 12.2605 88.2674 12.2912 88.8131 12.3218C88.8131 12.3218 90.29 5.52685 91.0394 3.30275C91.0722 3.20634 91.1182 3.12526 91.1686 3.04857C91.1796 2.50952 91.1884 1.9661 91.1971 1.42267C87.1806 0.557139 82.8047 0.609729 77.2828 0.495785L77.2872 0.493594ZM47.1972 36.2326C46.9387 35.2816 47.3287 34.3415 48.0759 34.0545C47.9269 34.0413 47.7757 34.0545 47.6267 34.0939C46.8028 34.3196 46.3558 35.3122 46.6275 36.3114C46.8992 37.3128 47.7889 37.9417 48.6128 37.7182C48.6544 37.7072 48.696 37.6919 48.7355 37.6766C48.0584 37.6218 47.4229 37.0521 47.1994 36.2304L47.1972 36.2326ZM67.6765 19.0182C63.6358 19.0248 61.6988 20.1445 59.2731 21.6477C55.7847 23.8083 54.7219 24.4941 52.1275 24.8162C49.5331 25.1384 46.2309 24.5423 43.4875 24.3868C40.7441 24.2312 34.6634 24.1238 33.524 24.5862C37.4441 24.6322 39.4271 24.7439 42.5168 24.9762C45.6064 25.2085 49.9012 25.8615 51.8514 25.5613C53.7994 25.2611 55.2675 25.169 58.9751 22.7433C62.6827 20.3176 64.1924 19.5244 67.6743 19.0182H67.6765ZM45.3478 17.4975C39.6156 17.7408 35.1718 20.2892 32.9433 24.6125C31.611 27.1959 31.4664 30.8794 31.3612 33.8792C32.1259 26.7467 32.6913 25.031 34.8737 22.5133C36.263 20.9093 38.4476 19.3732 42.863 18.3762C45.7269 17.7298 56.361 17.9489 58.7056 17.5151C57.6341 17.4537 51.0779 17.2543 45.3478 17.4975ZM78.7641 18.1724C77.7101 17.9686 76.5685 18.0673 75.337 18.7926C72.1751 20.6529 69.6749 24.8141 68.141 29.9371C66.6071 35.0602 66.5655 39.0351 66.6006 43.2116C60.8004 43.6783 48.157 45.0019 29.3716 42.8106C10.584 40.6194 4.4792 38.1302 1.67662 36.9118C0.624828 36.4539 0.381601 35.9827 0.298335 35.4481C0.101124 36.5985 0.188773 36.8987 1.6569 37.6612C3.12283 38.4238 13.5246 42.7011 36.309 44.2963C55.8197 45.6614 64.0281 44.6513 67.4398 44.3905C67.4398 40.8582 66.9402 35.1917 69.5653 28.7714C72.1926 22.3511 75.8848 18.4639 79.8882 20.4075C82.1802 21.5206 83.8587 25.535 84.4153 28.4756C84.3999 22.5724 80.9312 18.5888 78.7641 18.1702V18.1724ZM73.9543 36.868C73.3123 36.7168 72.6834 37.6766 71.8946 38.7788C73.034 37.5802 73.3934 37.2953 73.7703 37.3917C74.1822 37.4991 75.383 39.3178 76.4195 40.6019C75.3436 38.667 74.5942 37.0192 73.9521 36.868H73.9543ZM79.084 32.7748C77.8482 33.4256 76.5509 33.9011 76.4414 34.6154C76.334 35.3298 77.1097 37.3632 77.6246 38.5925C77.1645 37.0236 76.4742 35.2706 76.7876 34.5672C77.1009 33.8638 77.7693 33.5921 79.0818 32.777L79.084 32.7748ZM7.75947 18.0694C8.79811 17.0768 9.45987 16.0294 9.23417 15.7292C9.01066 15.429 7.98517 15.99 6.94653 16.9826C5.90788 17.9752 5.24613 19.0226 5.47183 19.325C5.69533 19.6252 6.72083 19.0643 7.76166 18.0716L7.75947 18.0694ZM6.94433 17.1491C7.89533 16.2442 8.81345 15.7117 8.99752 15.9593C9.18158 16.2047 8.55927 17.1382 7.60828 18.041C6.65728 18.9459 5.73916 19.4784 5.5551 19.233C5.37322 18.9876 5.99334 18.0541 6.94433 17.1513V17.1491ZM63.2633 13.5643C52.2568 13.24 43.1325 14.5438 37.5273 17.1316C31.2122 20.0503 29.9917 25.066 29.2511 27.5158C32.0799 20.2015 36.1863 18.0979 40.0385 16.9519C46.095 15.1507 53.2669 14.4101 61.3241 14.3027C68.7786 14.2041 78.9416 14.7826 80.1489 14.776C81.3563 14.7695 84.9434 14.4276 85.8264 13.4963C83.8696 14.7453 74.8703 13.9083 63.2655 13.5665L63.2633 13.5643ZM53.944 34.3591C52.6797 32.2927 48.0102 32.5403 46.4062 32.8602C53.5803 32.8208 52.5044 36.7782 51.9237 37.7686C52.752 37.6108 55.2084 36.4276 53.944 34.3612V34.3591ZM58.9707 8.65154C59.6566 8.73262 60.4103 9.24098 60.9231 9.63102C61.438 9.6617 61.9398 9.69238 62.4087 9.72086C61.6177 8.9123 60.4147 8.23083 59.1307 8.14099C57.7677 8.04457 56.637 8.5617 55.995 9.3374C57.2966 8.57047 58.0307 8.54198 58.9707 8.65373V8.65154ZM2.77223 30.6405C2.96506 29.8407 3.38359 29.225 3.79992 29.065C3.75829 29.0409 3.71665 29.0212 3.67064 29.0103C3.16885 28.8897 2.56626 29.6085 2.32303 30.6164C2.0798 31.6244 2.29016 32.5403 2.78976 32.6608C2.89494 32.685 3.00231 32.674 3.11187 32.6302C2.7065 32.3935 2.5553 31.5565 2.77442 30.6405H2.77223ZM7.926 34.2867C5.21326 35.3867 4.51864 36.158 5.38856 36.6314C7.4768 37.7686 22.3574 40.3433 29.0166 40.7311C23.7708 40.0475 12.0674 38.1477 6.4776 36.4999C5.13219 36.1033 6.7778 34.9945 7.926 34.2889V34.2867ZM3.79773 29.0628C4.20311 29.2995 4.3543 30.1366 4.13518 31.0525C3.94235 31.8501 3.52382 32.4658 3.10968 32.628C3.15132 32.6521 3.19295 32.6718 3.24116 32.6828C3.74295 32.8033 4.34554 32.0846 4.58876 31.0766C4.83199 30.0686 4.62382 29.1527 4.12203 29.0322C4.01904 29.0081 3.90948 29.019 3.80211 29.0628H3.79773ZM21.5051 29.2097C17.8742 28.7495 13.2836 28.022 8.18676 27.1806C3.08777 26.3413 2.52462 25.9272 2.04036 25.3465C1.4816 24.676 2.34275 22.8551 3.40769 21.2993C1.26686 23.221 0.609489 25.169 1.39395 26.0762C2.55092 27.4172 15.1001 28.8919 21.5029 29.2097H21.5051ZM7.15031 20.0481C7.45489 20.3702 8.69732 19.691 9.92222 18.5318C11.1471 17.3726 11.8943 16.1697 11.5897 15.8497C11.2852 15.5276 10.0427 16.2069 8.81784 17.3661C7.59294 18.5252 6.84573 19.726 7.15031 20.0481ZM11.3049 16.1105C11.5525 16.3712 10.8491 17.4362 9.73377 18.4902C8.61843 19.5441 7.51624 20.1862 7.26864 19.9276C7.02103 19.6669 7.7266 18.5997 8.83975 17.5457C9.95289 16.4918 11.0573 15.8497 11.3049 16.1105ZM47.6661 23.4993C48.8976 22.4804 49.2482 20.7099 48.4462 19.5463C47.6442 18.3828 45.9964 18.2667 44.7628 19.2856C43.5313 20.3045 43.1807 22.075 43.9827 23.2386C44.7847 24.4021 46.4325 24.5182 47.6661 23.4993ZM44.8701 19.623C45.9417 18.7378 47.3747 18.8386 48.0693 19.8487C48.7661 20.8589 48.4638 22.3971 47.3922 23.2824C46.3207 24.1676 44.8899 24.0668 44.193 23.0567C43.4984 22.0465 43.8008 20.5083 44.8701 19.623ZM75.5364 30.3469C75.1266 29.7969 74.833 25.6292 74.8023 25.1712C74.9382 27.8029 75.1223 29.8583 75.3589 30.5485C75.5693 31.1642 75.7709 31.1993 77.7956 30.6405C79.2615 30.2373 79.8487 29.9722 80.9378 29.6216C78.786 30.1365 75.9637 30.9188 75.5364 30.3447V30.3469ZM54.3604 23.6461C55.7781 22.5637 56.1944 20.631 55.2916 19.3338C54.3888 18.0344 52.5066 17.8591 51.091 18.9416C49.6733 20.024 49.257 21.9567 50.1598 23.2561C51.0626 24.5555 52.9448 24.7308 54.3604 23.6483V23.6461ZM51.2094 19.3141C52.4408 18.374 54.0755 18.5274 54.8578 19.6559C55.6422 20.7844 55.2807 22.4629 54.0492 23.4029C52.8177 24.3429 51.1853 24.1917 50.4008 23.0611C49.6163 21.9326 49.9779 20.2541 51.2094 19.3141ZM41.6184 23.232C42.4773 22.3643 42.5562 21.032 41.798 20.2563C41.0399 19.4806 39.7273 19.5529 38.8706 20.4206C38.0116 21.2884 37.9327 22.6206 38.6909 23.3963C39.449 24.172 40.7616 24.0997 41.6184 23.232ZM38.9933 20.6573C39.7383 19.9035 40.8777 19.84 41.5373 20.5149C42.1968 21.1898 42.1267 22.3467 41.3817 23.1005C40.6367 23.8543 39.4972 23.9178 38.8377 23.2429C38.1781 22.568 38.2482 21.4111 38.9933 20.6573ZM12.0959 13.6388C16.6055 11.6404 18.8778 9.89397 28.3439 9.80194C21.1654 9.45134 18.1897 9.8107 12.0959 13.6388ZM7.52063 23.7535C10.538 19.6559 13.5246 16.5772 19.3686 14.4035C26.1483 11.8814 33.9994 10.3673 41.1692 9.35054C32.7789 9.94437 24.3668 11.9603 18.1306 14.2742C11.8943 16.5904 8.73019 21.2117 7.52063 23.7535Z" fill="black"/>
</svg>
