<svg width="42" height="44" viewBox="0 0 42 44" fill="none" xmlns="http://www.w3.org/2000/svg">
<g clip-path="url(#clip0_1644_816)">
<path fill-rule="evenodd" clip-rule="evenodd" d="M41.9632 25.0872V31.7437L20.9801 43.8584L15.2148 40.5301L41.9632 25.0872Z" fill="black"/>
<path fill-rule="evenodd" clip-rule="evenodd" d="M-0.00195312 7.51613V0.858398L16.2552 10.2449L10.4893 13.5732L-0.00195312 7.51613Z" fill="black"/>
<path fill-rule="evenodd" clip-rule="evenodd" d="M41.9637 0.858398V7.51552C31.4718 13.5726 20.9812 19.6296 10.4899 25.6867L-0.00195312 19.6296V12.9725L10.4893 19.0301C20.9805 12.9719 31.4718 6.91544 41.9637 0.858398Z" fill="black"/>
<path fill-rule="evenodd" clip-rule="evenodd" d="M41.9637 12.9725V19.6303C31.4718 25.6873 20.9812 31.745 10.4899 37.802L-0.00195312 31.7437V25.0872L10.4893 31.1437C20.9805 25.0866 31.4712 19.0302 41.963 12.9719" fill="black"/>
</g>
<defs>
<clipPath id="clip0_1644_816">
<rect width="41.9656" height="43" fill="white" transform="translate(0 0.858398)"/>
</clipPath>
</defs>
</svg>
