<svg width="224" height="96" viewBox="0 0 224 96" fill="none" xmlns="http://www.w3.org/2000/svg">
<g clip-path="url(#clip0_1644_866)">
<path d="M111.814 26.8252L223.628 0.979248L214.856 10.5965L190.92 51.4989L113.301 95.4267L111.814 95.9792L110.327 95.4267L32.7084 51.4989L8.77182 10.5965L0 0.979248L111.814 26.8252Z" fill="#ADADAD"/>
<path d="M111.814 91.4413L188.379 48.0857L211.706 7.73303L111.814 32.0217L11.9219 7.73303L35.2491 48.0857L111.814 91.4413Z" fill="#434343"/>
<path d="M203.472 13.8953L201.932 16.5605L111.815 38.4741L21.6984 16.5605L20.1582 13.8953L111.815 36.1801L203.472 13.8953Z" fill="#131414"/>
<path d="M201.93 16.5604L185.424 45.1134L111.814 86.7973L38.2038 45.1134L21.6973 16.5604L111.814 38.4741L201.93 16.5604Z" fill="url(#paint0_linear_1644_866)"/>
<path d="M201.93 16.5604L185.424 45.1134L111.814 86.7973L38.2038 45.1134L21.6973 16.5604L111.814 38.4741L201.93 16.5604Z" fill="url(#paint1_linear_1644_866)"/>
<path d="M170.551 75.7429C148.686 75.7429 134.125 75.7401 125.028 75.7346C120.48 75.7346 117.299 75.729 115.256 75.7262L113.011 75.7206C112.715 75.7206 112.254 75.7206 111.812 75.5978C111.373 75.7178 110.912 75.7206 110.613 75.7206L108.368 75.7262C106.325 75.729 103.144 75.7318 98.5956 75.7346C89.5023 75.7401 74.9413 75.7429 53.0732 75.7429C49.8083 75.7429 47.2813 74.7438 45.5537 72.7707L31.2136 61.5125L29.8942 61.5292H1.44865L0.400391 13.6915L32.1332 30.5231L56.8721 30.5705H166.763L191.496 30.5231L223.229 13.6915L222.181 61.532H193.752L192.41 61.5153L178.07 72.7735C176.343 74.7466 173.816 75.7457 170.551 75.7457V75.7429Z" fill="#ADADAD"/>
<path d="M169.29 72.2259C168.929 72.0836 168.474 72.0836 168.091 72.0808L165.894 72.0752C163.892 72.0724 160.778 72.0696 156.328 72.0668C147.43 72.0612 133.191 72.0584 111.826 72.0584C90.4609 72.0584 76.2214 72.0612 67.3238 72.0668C62.8736 72.0668 59.7595 72.0724 57.7581 72.0752L55.5609 72.0808C55.1752 72.0808 54.7195 72.0836 54.3617 72.2259H53.0898C50.6299 72.2259 48.7962 71.5198 47.6333 70.13L47.5578 70.0379L32.2002 57.9815L29.8772 58.0122H4.24382L3.36328 17.7935L31.4342 32.6826L56.8775 32.7328H166.774L192.22 32.6826L220.291 17.7935L219.411 58.0122H193.766L191.457 57.9815L176.099 70.0379L176.024 70.13C174.861 71.5198 173.025 72.2259 170.567 72.2259H169.296H169.29Z" fill="url(#paint2_linear_1644_866)"/>
</g>
<defs>
<linearGradient id="paint0_linear_1644_866" x1="111.814" y1="7.5851" x2="111.814" y2="106.107" gradientUnits="userSpaceOnUse">
<stop stop-color="#040404"/>
<stop offset="0.12" stop-color="#0A0A0A"/>
<stop offset="0.25" stop-color="#131313"/>
<stop offset="0.38" stop-color="#1F1F1F"/>
<stop offset="0.5" stop-color="#414141"/>
<stop offset="0.64" stop-color="#1F1F1F"/>
<stop offset="0.75" stop-color="#131313"/>
<stop offset="0.88" stop-color="#0A0A0A"/>
</linearGradient>
<linearGradient id="paint1_linear_1644_866" x1="111.814" y1="7.5851" x2="111.814" y2="106.107" gradientUnits="userSpaceOnUse">
<stop stop-color="#040404"/>
<stop offset="0.12" stop-color="#0A0A0A"/>
<stop offset="0.25" stop-color="#131313"/>
<stop offset="0.38" stop-color="#1F1F1F"/>
<stop offset="0.5" stop-color="#414141"/>
<stop offset="0.64" stop-color="#1F1F1F"/>
<stop offset="0.75" stop-color="#131313"/>
<stop offset="0.88" stop-color="#0A0A0A"/>
</linearGradient>
<linearGradient id="paint2_linear_1644_866" x1="111.826" y1="30.408" x2="111.826" y2="74.7628" gradientUnits="userSpaceOnUse">
<stop stop-color="#231F20"/>
<stop offset="0.43" stop-color="#2D292A"/>
<stop offset="1" stop-color="#373334"/>
</linearGradient>
<clipPath id="clip0_1644_866">
<rect width="223.628" height="95" fill="white" transform="translate(0 0.979248)"/>
</clipPath>
</defs>
</svg>
