<svg width="204" height="56" viewBox="0 0 204 56" fill="none" xmlns="http://www.w3.org/2000/svg">
<g clip-path="url(#clip0_1644_490)">
<path fill-rule="evenodd" clip-rule="evenodd" d="M110.439 14.4259C115.258 9.11284 124.788 15.6627 131.726 29.054C136.536 38.339 138.836 48.4745 138.189 55.5884H134.284C134.112 48.8289 131.834 40.2744 127.724 32.3407C121.998 21.2861 114.504 14.8954 109.353 15.9899C109.668 15.4029 110.03 14.8779 110.44 14.4259H110.439Z" fill="black"/>
<path fill-rule="evenodd" clip-rule="evenodd" d="M101.185 3.36952C106.87 -2.40279 116.574 2.19842 125.231 13.6617C117.192 4.2953 108.643 0.908586 103.449 6.18244C91.7942 18.0139 104.151 47.0406 107.327 55.5891H106.932C99.8009 42.8137 90.6816 14.0317 101.184 3.36952H101.185Z" fill="black"/>
<path fill-rule="evenodd" clip-rule="evenodd" d="M95.6034 46.7102C95.5456 46.5433 95.4883 46.3763 95.4316 46.2087C95.4883 46.3757 95.5456 46.5427 95.6034 46.7102Z" fill="black"/>
<path fill-rule="evenodd" clip-rule="evenodd" d="M91.1615 26.59C91.1495 26.4424 91.1368 26.2947 91.126 26.147C91.1374 26.2941 91.1495 26.4424 91.1615 26.59Z" fill="black"/>
<path fill-rule="evenodd" clip-rule="evenodd" d="M91.3366 28.3838C91.3209 28.2452 91.3059 28.1071 91.292 27.9691C91.3065 28.1071 91.3215 28.2452 91.3366 28.3838Z" fill="black"/>
<path fill-rule="evenodd" clip-rule="evenodd" d="M103.201 55.589C92.8272 33.7294 91.2589 10.466 99.9978 2.25323C100.467 1.81264 100.957 1.4269 101.466 1.08817C99.6934 1.49983 98.0642 2.36233 96.6291 3.71062C95.4098 4.85701 94.3906 6.29632 93.5685 7.98395C89.0704 10.8734 84.3763 12.1512 83.6284 17.2581C83.594 17.5842 83.5645 17.9157 83.5397 18.252L91.8742 12.8907C91.5524 14.2752 91.3149 15.7519 91.1624 17.3075C86.0567 20.5297 83.0039 20.4164 83.2305 26.1453L90.9551 21.271C90.94 22.8231 90.9955 24.4329 91.1214 26.0922C86.1731 29.2011 83.2209 28.9926 84.0484 34.3701L91.4951 29.6941C91.7121 31.3552 91.9936 33.0543 92.3389 34.7823L92.298 34.5762C87.5177 37.6839 84.4613 37.573 85.721 42.6678L93.0248 37.9087C92.7747 36.8642 92.5475 35.8281 92.3426 34.8022C92.9139 37.6573 93.6589 40.5914 94.5738 43.5622C89.7141 46.5783 86.5901 46.3927 88.2488 51.3284L95.6208 46.7615C96.2663 48.6245 96.9769 50.496 97.7514 52.3663C95.3429 53.902 93.3075 54.6409 92.1937 55.5902H103.201V55.589Z" fill="black"/>
<path fill-rule="evenodd" clip-rule="evenodd" d="M78.671 41.8318L68.714 38.5982C68.6657 38.1925 68.6205 37.7881 68.579 37.3873C69.1678 43.0975 70.4631 49.2948 72.434 55.5884H68.946C63.6101 37.6453 63.8096 20.7346 70.2997 13.9865C71.5962 12.6382 73.0687 11.7757 74.6707 11.364C74.2114 11.7021 73.7678 12.0885 73.3441 12.5291C73.1573 12.7232 72.9764 12.9275 72.8004 13.1384C74.4808 13.7195 78.1539 13.6676 77.3926 17.8234L71.0712 15.7705L71.1032 15.7085C70.4613 16.9368 69.9279 18.3231 69.5023 19.845L69.5264 19.7588C75.1065 21.5676 76.7592 20.341 76.7471 25.478L68.8182 22.9032C68.4668 24.9374 68.2698 27.1512 68.224 29.5061C68.2396 28.7322 68.2716 27.9733 68.3192 27.2314C74.1198 29.1119 76.5892 28.0414 77.2468 33.5045L68.2137 30.5711C68.2131 32.0381 68.2685 33.5558 68.3801 35.1156C74.4176 37.0727 77.4228 36.13 78.671 41.8318Z" fill="black"/>
<path fill-rule="evenodd" clip-rule="evenodd" d="M80.7966 49.9457L70.0271 46.4481C69.7685 45.236 69.5377 44.0353 69.334 42.8492C75.6252 44.8888 79.0041 44.0462 80.7966 49.9457Z" fill="black"/>
<path fill-rule="evenodd" clip-rule="evenodd" d="M76.4581 55.5891L71.9931 54.1395C71.6236 52.8979 71.2807 51.6611 70.9648 50.4321C75.9102 52.0354 80.0292 52.0517 82.3491 55.4384V55.5897H76.4587L76.4581 55.5891Z" fill="black"/>
<path fill-rule="evenodd" clip-rule="evenodd" d="M84.2446 55.589L84.0631 55.0827C83.4544 53.345 82.8727 51.611 82.3387 49.848C76.9232 31.9669 76.8069 15.4896 83.0397 8.2533C84.3958 6.67898 85.9738 5.63506 87.7211 5.08658C87.2329 5.4892 86.7639 5.94426 86.3209 6.45899C82.7106 10.6509 81.2315 17.9451 81.6781 26.8154C81.7131 26.9149 81.7481 27.0137 81.7824 27.1144L81.6914 27.0849C82.1555 35.6014 84.382 45.5476 88.1906 55.5896H84.2446V55.589Z" fill="black"/>
<path fill-rule="evenodd" clip-rule="evenodd" d="M105.718 10.4009C109.866 5.82683 116.937 8.61142 123.666 16.5095C117.975 10.6293 112.24 8.8266 108.749 12.675C104.546 17.3094 104.859 28.7473 108.965 40.6318C109.018 38.4385 109.579 36.6713 110.676 35.7015C111.571 34.9108 112.709 34.751 113.954 35.1265C114.328 28.6478 114.61 21.8696 110.838 18.3774C112.815 19.0681 118.293 21.9739 120.628 25.4522C116.673 24.1569 116.524 30.4711 116.097 36.2277C117.131 36.9654 118.185 38.0015 119.19 39.2902C121.687 35.7401 123.601 32.1304 122.476 27.9113C123.782 29.5477 126.879 34.9216 127.007 39.1081C125.114 36.831 122.729 38.2884 120.248 40.7674C120.731 41.5016 121.196 42.2948 121.634 43.1422C122.291 44.4103 122.839 45.7044 123.276 46.9852C126.237 45.5175 128.661 43.3724 128.442 40.0695C129.408 41.9277 131.407 47.7982 130.724 51.9305C129.623 49.912 126.88 49.1737 123.892 49.0549C124.501 51.4664 124.693 53.7417 124.447 55.5885H112.979C112.059 54.1088 111.164 52.5333 110.302 50.8697C102.012 34.868 99.9591 16.7494 105.718 10.4009Z" fill="black"/>
<path fill-rule="evenodd" clip-rule="evenodd" d="M134.097 51.8569L203.156 55.589H134.097V51.8569Z" fill="black"/>
<path fill-rule="evenodd" clip-rule="evenodd" d="M70.5982 51.8569V55.589H0.260742L70.5982 51.8569Z" fill="black"/>
</g>
<defs>
<clipPath id="clip0_1644_490">
<rect width="202.896" height="54.71" fill="white" transform="translate(0.260742 0.878937)"/>
</clipPath>
</defs>
</svg>
