<svg width="124" height="82" viewBox="0 0 124 82" fill="none" xmlns="http://www.w3.org/2000/svg">
<mask id="mask0_1644_712" style="mask-type:luminance" maskUnits="userSpaceOnUse" x="8" y="4" width="69" height="74">
<path d="M35.7779 5.02803C30.6763 5.58574 26.1034 7.23487 22.2301 9.72985L26.8418 14.3133C29.8671 11.951 33.4645 10.186 37.5096 9.19109L35.7779 5.02803ZM20.9635 10.5942C16.8135 13.5875 13.5594 17.5989 11.4415 22.286L18.5898 25.2081C20.1627 21.3745 22.5772 17.9919 25.6758 15.2775L20.9635 10.5946V10.5942ZM10.8555 23.6736C9.07077 28.2094 8.31339 33.3131 8.78433 38.6986L16.6067 38.6501C16.2465 34.3847 16.773 30.3143 18.0561 26.6171L10.8555 23.6736ZM8.94566 40.2032C9.10531 41.4404 9.32857 42.6906 9.61964 43.9509C10.4499 47.5466 11.7705 50.9746 13.4895 54.1701L20.2482 51.3091C18.9723 48.7796 17.9845 46.0963 17.3383 43.2993C17.0944 42.2428 16.9062 41.194 16.7688 40.1548L8.94524 40.2032H8.94566ZM14.2296 55.4924C16.6058 59.559 19.6362 63.2157 23.1274 66.3143L27.7917 61.5624C25.1051 58.9343 22.7853 55.9309 20.9567 52.6444L14.2296 55.4919V55.4924ZM24.2727 67.2975C27.7909 70.2162 31.7315 72.5831 35.9118 74.2617L38.0736 68.8788C34.7497 67.2258 31.6464 65.1024 28.8873 62.5969L24.2731 67.2979L24.2727 67.2975ZM37.3192 74.798C41.5619 76.3249 46.0244 77.1447 50.5232 77.1148L50.4672 72.6038C46.6609 72.1631 42.9389 71.1037 39.4363 69.5254L37.3192 74.798ZM52.0287 77.0701C52.4415 77.0499 52.8547 77.025 53.2676 76.9901C57.5262 76.6303 61.4311 75.517 64.886 73.7895L63.8776 71.4479C61.8013 72.0894 59.5945 72.5208 57.2748 72.7171C55.503 72.8666 53.7322 72.8712 51.9748 72.7444L52.0283 77.0701H52.0287ZM66.2201 73.0793C70.3789 70.728 73.8196 67.4504 76.3546 63.5156C73.4413 66.7865 69.6957 69.359 65.3098 70.9651L66.2201 73.0789V73.0793ZM39.0045 8.86379C40.1132 8.64896 41.2518 8.48931 42.4195 8.39074C44.9789 8.17465 47.5362 8.25721 50.0527 8.60894V6.31953C45.933 5.1346 41.6465 4.61859 37.352 4.89239L39.0041 8.86379H39.0045ZM51.559 8.85241C56.284 9.71889 60.8329 11.5273 64.9379 14.0795C60.9125 10.871 56.3657 8.37305 51.559 6.78457V8.85241Z" fill="white"/>
</mask>
<g mask="url(#mask0_1644_712)">
<mask id="mask1_1644_712" style="mask-type:luminance" maskUnits="userSpaceOnUse" x="8" y="4" width="69" height="74">
<path d="M76.3547 4.61853H8.31348V77.145H76.3547V4.61853Z" fill="white"/>
</mask>
<g mask="url(#mask1_1644_712)">
<rect width="68.1794" height="72.6074" transform="matrix(1 0 0 -1 8.27051 77.1786)" fill="#090909"/>
</g>
</g>
<path fill-rule="evenodd" clip-rule="evenodd" d="M1.29718 44.6543C-3.77491 22.6907 10.4397 3.33754 33.0465 1.4285C33.7937 1.36532 34.5402 1.32235 35.2866 1.29834C13.9747 4.24361 0.846036 23.0404 5.75047 44.2782C10.6549 65.516 31.7971 81.4188 53.628 80.7204C52.8997 80.8211 52.1617 80.9033 51.4148 80.9664C28.808 82.8759 6.36969 66.6184 1.29718 44.6543Z" fill="#090909"/>
<path fill-rule="evenodd" clip-rule="evenodd" d="M9.31152 0.118652L26.3302 15.5047L37.9361 25.9968C37.9361 25.9968 33.8194 26.5385 31.4942 30.2454L22.9145 18.5936L9.31152 0.118652Z" fill="#090909"/>
<path fill-rule="evenodd" clip-rule="evenodd" d="M68.9173 48.1187H66.1683H56.8312L54.2697 55.08H45.1626L47.0931 49.8343H37.986L36.0559 55.08H45.1626L43.2325 60.3252H34.1254L32.1953 65.5704H41.3024L43.2325 60.3252H52.3396L54.2697 55.08H66.3558L67.6363 51.5993L123.148 48.1187H68.9173Z" fill="#090909"/>
</svg>
