<svg width="119" height="44" viewBox="0 0 119 44" fill="none" xmlns="http://www.w3.org/2000/svg">
<path d="M11.4263 31.257C13.3333 32.4339 16.3595 34.2208 19.0687 36.6706C19.0687 36.6706 12.3726 33.3273 8.10714 31.281C8.10714 31.281 8.02067 36.2623 9.78355 38.1452C10.6242 39.0435 12.9875 40.0714 15.2259 40.8976C17.6805 41.8055 12.2429 38.6784 11.2726 37.2662C10.8691 36.6802 10.6674 35.7867 10.5713 34.9413C23.9587 40.8736 29.6556 43.4531 29.6556 43.4531C19.6115 32.6116 9.76914 30.2339 11.4263 31.257Z" fill="black"/>
<path d="M107.995 31.257C106.088 32.4339 103.062 34.2208 100.353 36.6706C100.353 36.6706 107.049 33.3273 111.314 31.281C111.314 31.281 111.401 36.2623 109.638 38.1452C108.797 39.0435 106.434 40.0714 104.195 40.8976C101.741 41.8055 107.178 38.6784 108.149 37.2662C108.552 36.6802 108.754 35.7867 108.85 34.9413C95.4626 40.8736 89.7656 43.4531 89.7656 43.4531C99.8097 32.6116 109.652 30.2339 107.995 31.257Z" fill="black"/>
<path d="M1.90537 17.7207C3.34161 17.6487 7.09314 17.6054 9.1058 18.9985C11.7141 20.8094 13.5586 22.0775 12.204 20.1129C10.6381 17.8408 8.90405 16.8177 8.1403 16.5343C7.37654 16.2509 2.21279 16.1212 1.38179 16.395C0.315413 16.7456 0.521963 20.2954 0.521963 20.2954C0.521963 20.2954 1.15122 17.7592 1.90537 17.7207Z" fill="black"/>
<path d="M117.516 17.7207C116.08 17.6487 112.328 17.6054 110.316 18.9985C107.707 20.8094 105.863 22.0775 107.217 20.1129C108.783 17.8408 110.517 16.8177 111.281 16.5343C112.045 16.2509 117.204 16.1212 118.04 16.395C119.106 16.7456 118.895 20.2906 118.895 20.2906C118.895 20.2906 118.265 17.7544 117.511 17.7159L117.516 17.7207Z" fill="black"/>
<path d="M40.396 28.6006C37.4755 27.4526 32.3694 26.2325 23.9969 25.6176C22.6471 25.5168 18.3576 25.0844 18.3576 25.0844C18.3576 25.0844 21.3502 26.7993 24.1939 29.9408C25.3899 31.2617 26.9126 33.2648 27.6187 34.6098C25.9375 33.0823 23.262 30.3491 19.155 27.9089C15.4659 25.7137 14.534 25.315 11.969 24.6425C9.32225 23.9508 6.3633 24.239 4.55239 26.1412C3.12575 27.6447 2.5061 29.3788 1.92968 30.8198C1.06986 32.967 0.805664 35.0949 0.805664 35.0949C0.805664 35.0949 2.15064 32.2705 3.4668 30.3875C4.85981 28.3989 6.44976 27.6351 8.17902 27.5102C11.4454 27.2796 15.4611 28.7735 18.6122 30.4019C24.1939 33.2936 31.2502 39.1202 31.2502 39.125C31.2502 39.125 30.6642 37.8665 30.3615 37.1364C29.641 35.3927 28.6515 33.3945 27.5803 31.4202C27.1192 30.5652 25.9711 28.7639 25.9711 28.7639C25.9711 28.7639 29.5257 28.6102 32.3694 28.8648C37.1008 29.2827 40.7515 30.0513 43.72 30.9591C46.1218 31.6892 47.3371 32.5347 47.0248 32.2128C45.7231 30.863 42.1973 29.3115 40.3912 28.6006H40.396Z" fill="black"/>
<path d="M79.0257 28.6006C81.9462 27.4526 87.0523 26.2325 95.4248 25.6176C96.7746 25.5168 101.064 25.0844 101.064 25.0844C101.064 25.0844 98.0715 26.7993 95.2279 29.9408C94.0318 31.2617 92.5091 33.2648 91.803 34.6098C93.4842 33.0823 96.1597 30.3491 100.267 27.9089C103.956 25.7137 104.888 25.315 107.453 24.6425C110.099 23.9508 113.058 24.239 114.869 26.1412C116.296 27.6447 116.916 29.3788 117.492 30.8198C118.352 32.967 118.616 35.0949 118.616 35.0949C118.616 35.0949 117.271 32.2705 115.955 30.3875C114.562 28.3989 112.972 27.6351 111.243 27.5102C107.976 27.2796 103.961 28.7735 100.81 30.4019C95.2278 33.2936 88.1715 39.1202 88.1715 39.125C88.1715 39.125 88.7576 37.8665 89.0602 37.1364C89.7807 35.3927 90.7702 33.3945 91.8414 31.4202C92.3025 30.5652 93.4506 28.7639 93.4506 28.7639C93.4506 28.7639 89.896 28.6102 87.0523 28.8648C82.3209 29.2827 78.6702 30.0513 75.7017 30.9591C73.2999 31.6892 72.0846 32.5347 72.3969 32.2128C73.6986 30.863 77.2244 29.3115 79.0305 28.6006H79.0257Z" fill="black"/>
<path d="M59.7107 27.4766C51.0452 27.4766 45.209 28.1491 45.209 28.1491C45.209 28.1491 55.916 29.5613 59.7107 29.5613C63.5055 29.5613 74.2125 28.1491 74.2125 28.1491C74.2125 28.1491 68.3762 27.4766 59.7107 27.4766Z" fill="black"/>
<path d="M97.4325 13.1045C95.1941 9.7997 92.4273 5.24599 89.1033 3.78093C86.3076 2.55124 80.9854 1.59054 72.9635 1.07176C66.3443 0.644251 62.1173 0.538574 59.7155 0.538574C57.3138 0.538574 53.0867 0.644251 46.4675 1.07176C38.4409 1.59054 33.1234 2.55124 30.3278 3.78093C27.0038 5.24119 24.2417 9.7949 21.9985 13.1045C20.4998 15.3189 18.7562 18.3355 17.2959 21.1023C17.2959 21.1023 18.833 19.0416 21.4461 15.3573C25.7116 9.34337 27.6858 8.09446 30.2461 6.81673C32.8064 5.53901 37.7636 4.68879 45.2906 4.23246C51.7946 3.83377 59.7107 3.78093 59.7107 3.78093C59.7107 3.78093 67.6269 3.83857 74.1308 4.23246C81.6579 4.69359 86.6151 5.53901 89.1753 6.81673C91.7356 8.09446 93.7098 9.34337 97.9753 15.3573C100.588 19.0416 102.126 21.1023 102.126 21.1023C100.665 18.3355 98.9264 15.3189 97.4229 13.1045H97.4325Z" fill="black"/>
</svg>
