<svg width="188" height="41" viewBox="0 0 188 41" fill="none" xmlns="http://www.w3.org/2000/svg">
<g clip-path="url(#clip0_1644_651)">
<path d="M137.285 23.9262C143.499 23.8663 154.015 24.6431 161.184 25.7519C180.633 28.7617 187.209 32.9847 187.209 32.9847C175.64 23.7397 156.993 21.0327 147.062 19.7614C136.999 18.473 116.866 18.2813 105.332 18.2916C102.148 16.0911 97.2858 12.8555 93.8331 10.768C85.8278 5.9273 81.2871 3.83807 81.2871 3.83807C81.2871 3.83807 85.1495 3.73369 86.2868 3.68236C97.8689 3.16219 113.196 4.69532 125.271 9.23654C135.847 13.2148 137.909 14.7137 137.909 14.7137C137.909 14.7137 132.744 9.88504 119.289 5.31131C104.186 0.176349 90.4416 -0.0255589 73.7068 0.270459C63.8145 0.255059 56.7017 1.71632 51.4436 2.99793C42.2381 5.24116 23.856 11.6748 17.9672 13.9386C12.0784 16.2058 0.208984 20.6786 0.208984 20.6786C0.208984 20.6786 3.68548 20.7094 9.32098 20.7607C5.01148 23.2195 2.92558 28.2912 2.92558 28.2912C4.66298 25.8563 9.15948 21.6795 14.4159 23.3016C20.5937 25.2095 24.74 33.9788 24.74 33.9788C24.3439 31.5764 22.649 23.9895 18.3072 20.8428C18.3378 20.8428 18.3701 20.8428 18.4007 20.8428L18.3157 20.8479C18.3157 20.8479 56.8853 23.0997 85.8567 23.0501C100.468 23.0262 108.676 20.2388 123.87 22.6087C130.307 23.6131 137.661 26.3611 141.967 28.8849C142.235 30.0861 142.407 31.5559 143.393 33.012C145.581 36.2426 150.19 37.4677 153.561 38.0854C157.362 38.7818 164.475 39.3602 164.475 39.3602C164.475 39.3602 154.838 31.9443 144.182 27.1156C142.069 26.1574 139.541 24.7698 137.283 23.9262H137.285ZM80.1209 19.2669C65.5689 19.2669 57.1386 18.1958 53.9698 17.8108C49.2795 17.241 40.7302 15.6822 33.4015 12.0205C33.4015 12.0205 46.5136 5.84517 57.8237 4.20595C70.1011 2.42642 81.8719 4.77745 97.7346 19.1471C96.378 19.1591 85.3756 19.2669 80.1209 19.2669Z" fill="#030303"/>
<path d="M121.308 28.5923C113.854 26.1078 107.282 28.9431 105.656 30.0159C101.162 32.9846 100.47 35.9979 100.47 35.9979C100.47 35.9979 103.067 32.9162 107.589 31.472C110.806 30.4454 116.793 29.4068 123.034 32.4628C130.118 35.9328 132.107 40.1832 132.107 40.1832C132.107 40.1832 130.935 31.8006 121.308 28.5906V28.5923Z" fill="#030303"/>
</g>
<defs>
<clipPath id="clip0_1644_651">
<rect width="187" height="40" fill="white" transform="translate(0.208984 0.184937)"/>
</clipPath>
</defs>
</svg>
