<svg width="290" height="46" viewBox="0 0 290 46" fill="none" xmlns="http://www.w3.org/2000/svg">
<g clip-path="url(#clip0_1644_688)">
<path d="M250.695 31.8249C242.378 30.682 233.744 28.9378 226.959 27.5666C231.21 27.2752 234.846 26.8239 234.846 26.8239C225.598 24.6415 204.921 19.3307 204.921 19.3307C188.534 15.1377 175.165 12.5193 161.858 12.4953C149.004 12.4725 141.298 14.1949 132.182 18.3836C125.706 21.3587 116.852 26.0214 111.94 28.7334C111.598 28.9128 109.287 30.1448 109.287 30.1448C109.287 30.1448 108.427 29.6446 108.409 28.5344C93.6274 27.8254 79.1498 28.8226 65.3355 32.8633C48.7115 37.7251 39.5882 44.6637 38.7227 45.3412C39.797 45.0171 42.833 44.0907 49.2214 42.5651C52.737 41.7256 55.064 39.0876 60.4499 36.928C62.7693 35.9983 65.2203 35.3132 67.4788 34.8228C85.3164 30.9462 105.578 32.0978 126.482 33.3331C157.705 35.1784 182.04 32.4403 182.04 32.4403C182.04 32.4403 166.483 32.4197 148.901 31.5247C139.401 31.0409 130.667 30.3504 122.119 29.6381C124.277 27.8493 130.555 24.4436 137.915 22.0644C144.956 19.7885 149.305 19.1241 149.305 19.1241C149.305 19.1241 142.441 19.4003 135.152 21.4098C132.725 22.0796 126.078 24.0293 126.078 24.0293C129.752 21.9861 135.344 19.434 139.969 18.0508C146.615 16.062 161.323 14.0753 180.164 17.7116C187.44 19.1165 197.246 21.6414 205.114 23.7814C187.353 24.2957 172.185 29.2554 172.185 29.2554C172.185 29.2554 189.595 26.4031 210.789 28.4703C230.89 30.4308 241.007 33.3374 241.007 33.3374C236.348 34.8424 232.201 36.978 232.201 36.978L244.615 37.5576C246.619 39.9879 247.947 43.0098 247.947 43.0098C247.76 39.28 247.318 35.6036 247.152 34.3183C248.967 33.4951 250.693 31.8292 250.693 31.8292L250.695 31.8249Z" fill="black"/>
</g>
<defs>
<clipPath id="clip0_1644_688">
<rect width="289.418" height="44.8463" fill="white" transform="translate(0 0.495117)"/>
</clipPath>
</defs>
</svg>
