<svg width="51" height="58" viewBox="0 0 51 58" fill="none" xmlns="http://www.w3.org/2000/svg">
<g clip-path="url(#clip0_1937_1499)">
<path d="M25.0981 34.6465C22.3001 34.6465 19.5021 33.9479 17.0045 32.5508L3.66797 25.0844L6.43969 20.1344L19.7762 27.6008C23.0587 29.4373 27.1374 29.4373 30.4199 27.6008L43.7565 20.1344L46.5282 25.0844L33.1916 32.5508C30.6941 33.9479 27.8961 34.6465 25.0981 34.6465Z" fill="black"/>
<path d="M28.2889 54.5298H22.614V41.843C22.614 37.9032 20.4808 34.2602 17.0443 32.3373L5.1875 25.6972L7.95922 20.7471L19.816 27.3872C25.044 30.3129 28.2889 35.8526 28.2889 41.843V54.5298Z" fill="black"/>
<path d="M28.2882 54.5298H22.6133V41.843C22.6133 35.8526 25.862 30.3129 31.0899 27.3872L42.9467 20.7471L45.7184 25.6972L33.8616 32.3373C30.4252 34.2602 28.2882 37.9032 28.2882 41.843V54.5298Z" fill="black"/>
<path d="M25.0991 21.171C23.533 21.171 22.2598 19.9016 22.2598 18.3317V2.83938C22.2598 1.27325 23.5292 6.10352e-05 25.0991 6.10352e-05C26.669 6.10352e-05 27.9384 1.26949 27.9384 2.83938V18.3355C27.9384 19.9016 26.669 21.1748 25.0991 21.1748V21.171Z" fill="black"/>
<path d="M50.1989 32.303C50.1989 46.1428 38.9355 57.4024 25.0994 57.4024C11.2634 57.4024 0 46.1428 0 32.303C0 23.9127 4.07495 16.3149 10.7338 11.7104C12.33 10.5987 14.0727 9.66352 15.9468 8.9274C17.4077 8.35278 19.049 9.07387 19.6236 10.5348C19.6987 10.7226 19.7513 10.9179 19.7851 11.1132C19.9992 12.4052 19.2893 13.7159 18.0162 14.2117C16.1533 14.9403 14.4557 15.9281 12.961 17.1149C8.4128 20.7316 5.67488 26.245 5.67488 32.303C5.67488 43.0105 14.3881 51.7275 25.1032 51.7275C35.8182 51.7275 44.5277 43.0143 44.5277 32.303C44.5277 26.2488 41.7898 20.7316 37.2454 17.1224C35.7469 15.9281 34.0455 14.9441 32.1865 14.2117C30.917 13.7159 30.2072 12.4052 30.425 11.1132C30.4551 10.9179 30.5039 10.7264 30.5828 10.5348C31.1574 9.07387 32.7986 8.35653 34.2596 8.9274C36.1262 9.65601 37.8651 10.5874 39.4575 11.6916C46.1277 16.3036 50.2101 23.9014 50.2101 32.303H50.1989Z" fill="black"/>
</g>
<defs>
<clipPath id="clip0_1937_1499">
<rect width="50.1989" height="57.4023" fill="white"/>
</clipPath>
</defs>
</svg>
