<svg width="139" height="48" viewBox="0 0 139 48" fill="none" xmlns="http://www.w3.org/2000/svg">
<path d="M79.1599 44.1273C78.6088 44.4079 77.9353 44.7345 77.1496 44.9998C76.7567 45.1375 76.3383 45.26 75.8944 45.3518C75.4505 45.4488 74.9862 45.5202 74.4964 45.5508C74.0117 45.5865 73.5066 45.5814 72.9862 45.5457C72.7259 45.5253 72.4606 45.4998 72.1902 45.459C72.0575 45.4386 71.9198 45.4131 71.782 45.3927L71.6698 45.3722H71.6392C71.6392 45.3722 71.6545 45.3722 71.6392 45.3671H71.629L71.5779 45.3518L71.379 45.311C70.8483 45.1988 70.3126 45.0457 69.7871 44.8365C69.2615 44.6324 68.7411 44.3824 68.2462 44.0814C67.2512 43.4742 66.3277 42.6834 65.5471 41.7394C65.1542 41.27 64.7971 40.7598 64.4756 40.2241C64.1542 39.6883 63.8736 39.1169 63.6286 38.5301C63.6031 38.4689 63.5827 38.4077 63.5572 38.3465C63.5368 38.2699 63.5164 38.1934 63.496 38.1169C63.4092 37.7801 63.3378 37.4281 63.2766 37.0607C63.2154 36.6984 63.1643 36.3209 63.1337 35.9331C63.1031 35.5453 63.0776 35.1525 63.0725 34.7494C63.0572 33.9432 63.1082 33.1116 63.2103 32.2748C63.2358 32.0656 63.2664 31.8564 63.3021 31.6472C63.3327 31.438 63.3735 31.2288 63.4144 31.0196C63.496 30.6013 63.6031 30.188 63.7103 29.7798C63.8225 29.3716 63.9552 28.9685 64.1032 28.5808C64.1746 28.3869 64.2511 28.193 64.3328 28.0042C64.3736 27.9124 64.4195 27.8154 64.4603 27.7287C64.4807 27.6828 64.496 27.6471 64.5266 27.596L64.6032 27.443L64.746 27.1725C64.792 27.0807 64.8481 26.9889 64.894 26.897C64.996 26.7184 65.0981 26.5399 65.2103 26.3664C65.4297 26.0245 65.6542 25.6929 65.894 25.3868C66.1338 25.0806 66.3839 24.7949 66.6492 24.5296C66.9094 24.2643 67.1849 24.0347 67.4655 23.8204C68.0268 23.3969 68.6186 23.0857 69.2105 22.8765C69.8024 22.6673 70.384 22.5601 70.9095 22.5142C71.4402 22.4683 71.9147 22.4887 72.3076 22.5193C72.7004 22.5601 73.0117 22.6111 73.226 22.6571C73.4403 22.703 73.5525 22.7336 73.5525 22.7336C73.5525 22.7336 73.4607 22.6571 73.277 22.5397C73.0882 22.4224 72.8076 22.2591 72.4198 22.0958C72.0371 21.9325 71.5422 21.7693 70.9555 21.6672C70.3687 21.5652 69.6748 21.5295 68.9197 21.6366C68.5421 21.6876 68.1543 21.7795 67.7615 21.907C67.3635 22.0295 66.9706 22.2081 66.5828 22.4122C66.1951 22.6213 65.8124 22.8714 65.4501 23.152C65.0828 23.4326 64.7409 23.7489 64.4144 24.0959C64.0878 24.4377 63.7766 24.8051 63.496 25.1929C63.399 25.3204 63.3123 25.4531 63.2205 25.5858C63.3684 25.1776 63.5266 24.7847 63.7052 24.4122C64.1287 23.5142 64.6389 22.7387 65.1593 22.0907C65.6797 21.4427 66.2104 20.9325 66.6798 20.5345C67.1492 20.1366 67.5523 19.861 67.838 19.6825C68.1237 19.5039 68.287 19.4222 68.287 19.4222C68.287 19.4222 68.1033 19.4375 67.7666 19.509C67.4298 19.5855 66.94 19.7233 66.343 19.9835C65.7461 20.2437 65.0369 20.6315 64.3021 21.1927C63.5674 21.7591 62.8021 22.504 62.1133 23.4428C61.4245 24.3816 60.8224 25.5041 60.3683 26.7593C59.9142 28.0144 59.6132 29.392 59.4652 30.8207C59.3887 31.535 59.3479 32.2646 59.353 32.9891V33.2493C59.353 33.3412 59.353 33.4381 59.3581 33.535C59.3632 33.7289 59.3734 33.9228 59.3785 34.1167C59.3887 34.3055 59.404 34.4943 59.4244 34.683L59.4499 34.9688L59.4856 35.2545C59.5673 36.0147 59.7152 36.775 59.8989 37.5352C60.0826 38.2954 60.3326 39.0455 60.6387 39.7802C60.9449 40.5149 61.302 41.2292 61.7255 41.9129C62.149 42.5915 62.6286 43.2344 63.1643 43.8263C64.2307 45.01 65.5063 45.9794 66.8686 46.6529C67.5523 46.9846 68.2564 47.2499 68.9554 47.4438C69.6595 47.6325 70.3636 47.7499 71.0524 47.806C71.1391 47.8111 71.2259 47.8162 71.3075 47.8264H71.3687L71.4147 47.8315H71.4453H71.5575C71.7259 47.8315 71.8892 47.8315 72.0524 47.8315C72.379 47.8315 72.7055 47.8111 73.0219 47.7856C73.6597 47.7244 74.2719 47.6172 74.8434 47.4642C75.4148 47.3111 75.9455 47.107 76.4251 46.8927C76.9098 46.6682 77.3384 46.4182 77.7312 46.1682C78.119 45.9131 78.466 45.6529 78.767 45.4029C79.068 45.1477 79.3333 44.9079 79.5629 44.6783C80.0222 44.2191 80.3487 43.8365 80.5579 43.5661C80.665 43.4334 80.7416 43.3262 80.7977 43.2548C80.8487 43.1834 80.8793 43.1477 80.8793 43.1477C80.8793 43.1477 80.7212 43.2395 80.4303 43.4181C80.1395 43.5916 79.7109 43.8416 79.1599 44.1273Z" fill="black"/>
<path d="M16.5458 21.2436C12.1119 14.7638 7.64746 15.774 7.64746 15.774C7.64746 15.774 17.704 15.7179 17.3774 38.1626C17.3774 38.1626 45.0367 40.2341 56.5933 41.2444C56.5933 41.2444 37.0466 37.9636 22.7603 35.9534C21.1939 35.734 20.8725 34.6268 20.7092 33.7594C20.1735 30.8613 18.5765 24.2182 16.5458 21.2487V21.2436Z" fill="black"/>
<path d="M31.0507 9.77892C31.0507 9.77892 31.7038 9.17175 33.6579 7.88089C38.551 4.64607 42.2042 4.15115 46.0615 3.94196C52.1536 3.61031 54.5822 8.8197 55.2761 9.97791C55.7353 10.7432 57.3885 13.0086 53.4087 13.774C53.4342 13.723 55.419 9.66157 50.9698 9.69728C46.9646 9.733 46.235 11.7892 46.235 11.7892C47.8422 11.7892 50.3729 11.8096 51.7964 12.0239C52.1587 12.08 52.4495 13.0903 50.9392 14.1668C49.6024 14.3454 46.9442 14.6873 44.6584 14.6363C44.6584 14.6363 61.4958 16.121 60.2406 13.3862C59.5314 11.8504 51.9546 4.9471 55.6843 3.83481C60.7304 2.33475 68.7971 1.83473 78.8332 3.69195C78.8434 3.69195 72.9248 0.737748 55.669 0.727543C38.8928 0.722441 30.2139 5.6461 25.2852 9.09012C25.2852 9.09012 28.5047 9.37074 31.0558 9.77892H31.0507Z" fill="black"/>
<path d="M105.927 38.7699C104.442 35.5147 104.345 34.8361 109.31 34.6575C122.111 34.1932 129.249 31.9737 129.249 31.9737C129.249 31.9737 112.361 32.9993 99.401 30.9839C96.957 30.591 90.7578 28.5858 87.4873 25.3204C80.8645 18.7028 79.691 17.4987 81.2778 16.0292C82.5891 14.82 88.3597 16.9476 89.4669 18.3507C93.3497 23.2591 90.3904 23.8305 112.493 26.5602C112.493 26.5602 99.799 18.3201 89.6353 15.2282C78.9104 11.9627 70.9509 13.7791 66.966 14.5955C62.9863 15.4067 58.5269 17.1007 50.0572 16.2945C41.5875 15.4884 25.245 15.4373 32.6126 12.4525C32.6126 12.4525 13.6221 7.07987 5.31055 14.3251C5.59117 14.0904 9.82603 10.6667 16.9079 13.5495C22.153 15.6823 23.2551 20.31 25.2246 24.4785C27.5308 29.3512 29.286 34.8871 56.5524 36.6627C56.5524 36.6627 39.9803 34.5197 33.2402 29.0807C27.7553 24.652 27.1328 20.8712 27.5053 16.4884C27.5053 16.4884 39.0006 18.0242 48.0316 18.5497C55.8993 19.0089 59.1392 20.7998 59.9351 23.1264C59.9351 23.1264 63.8945 15.2945 71.6244 16.5956C76.9613 17.4884 81.0329 22.1009 82.7065 31.1318C84.1402 38.8515 82.0789 48.2039 94.2273 46.8212C94.2273 46.8212 88.5536 45.7855 88.3852 40.2342C88.2934 37.2851 88.0791 35.7085 89.3037 34.7442C90.8343 33.5401 94.1508 34.2391 96.5641 34.7799C96.5641 34.7799 98.4061 36.9994 99.9061 38.4127C102.549 40.8975 104.901 44.1987 122.336 41.3006C122.336 41.3006 107.401 42.0251 105.911 38.7699H105.927Z" fill="black"/>
<path d="M138.535 39.6984C138.489 39.5045 138.433 39.3362 138.372 39.178C138.132 38.5606 137.872 38.0861 137.648 37.6116C137.423 37.1422 137.234 36.6881 137.112 36.2544C136.979 35.7799 136.872 35.285 136.775 34.8156C136.596 33.8666 136.484 32.9482 136.464 32.1063C136.459 31.6879 136.464 31.2797 136.5 30.9022C136.52 30.7185 136.535 30.545 136.576 30.346C136.591 30.2491 136.607 30.1674 136.632 30.0552C136.647 29.948 136.663 29.846 136.663 29.7389C136.678 29.3205 136.556 28.948 136.403 28.6572C136.249 28.3612 136.061 28.1265 135.882 27.9378C135.515 27.5602 135.183 27.3357 134.954 27.1877C134.724 27.0449 134.591 26.9836 134.591 26.9836C134.591 26.9836 134.709 27.0704 134.908 27.2541C135.107 27.4326 135.392 27.7133 135.668 28.1214C135.806 28.3255 135.943 28.5602 136.035 28.8256C136.127 29.096 136.173 29.3919 136.117 29.6929C136.091 29.8409 136.045 29.9787 135.969 30.1674C135.897 30.3358 135.831 30.545 135.765 30.7491C135.647 31.1522 135.556 31.5859 135.494 32.0451C135.428 32.5043 135.392 32.9788 135.382 33.4737C135.367 33.9686 135.382 34.4788 135.423 35.0044C135.464 35.5299 135.53 36.0605 135.627 36.6167C135.739 37.2136 135.938 37.7698 136.153 38.3004C136.26 38.5657 136.367 38.8259 136.474 39.076C136.581 39.326 136.678 39.5709 136.75 39.7903C136.785 39.8974 136.811 40.0046 136.826 40.0862C136.831 40.1168 136.836 40.1423 136.836 40.1678H136.826L136.739 40.2342C136.341 40.4995 135.372 41.4791 127.933 43.4333C123.948 44.4792 116.233 45.3058 116.233 45.3058C116.233 45.3058 116.376 45.316 116.647 45.3313C116.912 45.3415 117.31 45.3721 117.81 45.3823C118.31 45.3976 118.917 45.4129 119.616 45.4129C120.31 45.4129 121.101 45.3976 121.958 45.367C122.815 45.3313 123.744 45.2854 124.729 45.2037C125.708 45.1221 126.744 45.015 127.815 44.867C128.081 44.8262 128.351 44.7956 128.622 44.7496C128.892 44.7037 129.168 44.6578 129.438 44.6119C129.989 44.5149 130.54 44.4129 131.101 44.2853C132.219 44.0455 133.346 43.7445 134.469 43.3567C135.025 43.1578 135.586 42.9384 136.132 42.6781C136.27 42.6169 136.408 42.5455 136.54 42.4792C136.673 42.4077 136.811 42.3363 136.943 42.2598C137.076 42.1832 137.214 42.1067 137.341 42.0199C137.469 41.9434 137.627 41.8312 137.739 41.7546L137.826 41.6934L137.867 41.6628L137.908 41.6322L137.949 41.6016C138.056 41.5148 138.163 41.4077 138.26 41.2801C138.454 41.025 138.561 40.6832 138.576 40.4127C138.597 40.1321 138.561 39.9076 138.515 39.7137L138.535 39.6984ZM136.852 40.2342C136.852 40.2342 136.852 40.2291 136.852 40.2087C136.852 40.224 136.852 40.2291 136.852 40.2342Z" fill="black"/>
<path d="M13.6522 8.85554C18.0249 8.3147 22.5812 8.85554 22.5812 8.85554C13.0604 5.07988 18.9892 5.09519 22.4791 4.91151C28.8212 4.58496 32.602 3.63594 32.602 3.63594C32.602 3.63594 18.6677 3.40124 13.0859 3.55941C10.1674 3.64105 6.84585 4.04412 8.05508 5.68705C9.2286 7.28405 13.6573 8.85554 13.6573 8.85554H13.6522Z" fill="black"/>
<path d="M91.7529 11.9474C91.7529 11.9474 105.912 12.6004 118.57 21.0804C118.57 21.0804 113.218 14.8352 102.59 12.1463C106.34 12.5545 110.754 13.376 115.32 14.9577C125.183 18.3711 133.209 25.3663 133.209 25.3663C129.066 19.4579 124.958 17.4629 122.974 16.8047C120.948 15.6006 118.621 14.4373 116.014 13.4678C108.136 10.534 100.656 10.9728 91.7733 11.9474C91.8244 11.9423 91.7631 11.9474 91.7631 11.9474H91.7529Z" fill="black"/>
<path d="M13.9536 38.224C13.7393 38.2852 13.5097 38.3618 13.2546 38.4077C13.0046 38.4689 12.724 38.4995 12.4331 38.5352C11.8464 38.5863 11.1984 38.5556 10.53 38.3975C9.8616 38.2444 9.17789 37.9485 8.52481 37.525C8.04009 37.2138 7.56559 36.8311 7.12679 36.3872C6.93291 36.1474 6.71351 35.8464 6.47881 35.4943C6.24921 35.132 6.0043 34.7188 5.7696 34.2545C5.65225 34.0197 5.54 33.7748 5.42775 33.5197C5.3206 33.2646 5.21345 32.9942 5.11651 32.7136C4.91752 32.1574 4.74405 31.5605 4.60118 30.9329C4.56547 30.7798 4.52975 30.6166 4.49914 30.4584C4.46342 30.3002 4.43791 30.1369 4.4124 29.9737C4.35628 29.6471 4.31036 29.3155 4.27464 28.9838C4.193 28.3154 4.13688 27.6266 4.15219 26.9429C4.28995 19.9478 8.99421 19.1161 8.99421 19.1161C8.99421 19.1161 8.80543 19.0038 8.58093 18.9273C8.43297 18.8763 8.25439 18.81 8.02989 18.764C7.70335 18.6926 7.29517 18.6416 6.81045 18.6875C6.33084 18.7283 5.7696 18.8763 5.22876 19.1977C4.68792 19.5141 4.1777 19.9988 3.79503 20.5906C3.65217 20.7998 3.52461 21.0243 3.41236 21.2539C3.42257 21.1927 3.43277 21.1315 3.44297 21.0703C3.45828 20.9784 3.47359 20.8815 3.494 20.7947C3.51951 20.708 3.53992 20.6162 3.56543 20.5294C3.61135 20.3508 3.65217 20.1774 3.69809 20.009C3.74911 19.8406 3.81034 19.6876 3.86136 19.5294C3.9532 19.2079 4.10116 18.9324 4.21852 18.6569C4.48383 18.1314 4.75935 17.6773 5.04508 17.3405C5.17774 17.1619 5.3206 17.0293 5.43285 16.8966C5.49408 16.8354 5.5553 16.7844 5.60632 16.7334C5.66245 16.6823 5.70837 16.6364 5.75939 16.6007C5.80531 16.5599 5.84613 16.5293 5.88185 16.4986C5.91756 16.4731 5.95328 16.4476 5.97879 16.4272C6.02981 16.3915 6.06042 16.3711 6.06042 16.3711C6.06042 16.3711 6.02981 16.3711 5.96348 16.3864C5.93287 16.3915 5.89205 16.4017 5.84613 16.417C5.80021 16.4272 5.74919 16.4425 5.68796 16.4629C5.56551 16.4986 5.42264 16.5599 5.25427 16.6313C5.091 16.7129 4.89201 16.8048 4.69813 16.9425C4.28484 17.1926 3.84095 17.5803 3.38175 18.0854C3.16745 18.3457 2.92765 18.6263 2.73376 18.9528C2.63172 19.111 2.51947 19.2743 2.42253 19.4528C2.33069 19.6314 2.23885 19.8151 2.14701 19.9988C2.10109 20.0957 2.05006 20.1876 2.00414 20.2845C1.96332 20.3815 1.92761 20.4835 1.88679 20.5855C1.81026 20.7896 1.72862 20.9937 1.64699 21.208L1.58576 21.3662L1.53984 21.5295C1.50923 21.6366 1.47861 21.7489 1.448 21.8611C1.38677 22.0856 1.32554 22.3101 1.25922 22.5397C1.16227 22.9989 1.08574 23.4785 0.999001 23.9734C0.942876 24.4633 0.907161 24.9633 0.86124 25.4786C0.830627 26.4939 0.805116 27.5501 0.92757 28.6216C0.942876 28.7593 0.958183 28.9022 0.97349 29.0451C0.988796 29.1828 1.01431 29.3155 1.03472 29.4532C1.07553 29.7237 1.11635 29.9992 1.17758 30.2696C1.28473 30.8104 1.42759 31.3564 1.59596 31.887C1.93271 32.9534 2.39191 33.9942 2.96336 34.9535C3.0348 35.0708 3.10623 35.1933 3.17766 35.3106C3.25929 35.428 3.33583 35.5402 3.41236 35.6576C3.56543 35.8872 3.7389 36.1066 3.90728 36.326C4.07055 36.5454 4.26444 36.7495 4.43791 36.9586C4.61649 37.1627 4.82058 37.3515 5.00936 37.5403C5.79511 38.2801 6.6931 38.8771 7.61151 39.2853C8.07071 39.4894 8.54522 39.6373 9.00442 39.7496C9.23912 39.8006 9.46872 39.8312 9.69322 39.8669C9.92282 39.8822 10.1422 39.9128 10.3616 39.9128C11.2392 39.9281 12.0249 39.77 12.6729 39.5302C12.9893 39.3975 13.2852 39.2802 13.5352 39.1271C13.7954 38.9944 14.0097 38.8363 14.2036 38.6985C14.2495 38.6628 14.3005 38.6322 14.3465 38.5965C14.3873 38.5607 14.4332 38.525 14.474 38.4944C14.5506 38.423 14.6271 38.3618 14.6985 38.3005C14.8414 38.1883 14.9434 38.0658 15.0302 37.9791C15.1985 37.7954 15.2904 37.6985 15.2904 37.6985C15.2904 37.6985 15.1679 37.7495 14.9434 37.8515C14.724 37.9587 14.3873 38.0862 13.9689 38.2291L13.9536 38.224Z" fill="black"/>
</svg>
