<svg width="54" height="56" viewBox="0 0 54 56" fill="none" xmlns="http://www.w3.org/2000/svg">
<g clip-path="url(#clip0_1740_1151)">
<path fill-rule="evenodd" clip-rule="evenodd" d="M27.0983 0C37.8452 0 47.0978 6.39965 51.253 15.5959V15.758L51.2588 15.8637C51.3422 19.6822 44.9969 19.753 42.3633 19.851C47.5908 7.09638 20.4716 -6.91395 4.82617 12.1472C5.59859 10.9498 6.46514 9.81926 7.41514 8.76446V8.73438L7.51315 8.65481C12.3583 3.3381 19.3382 0 27.0983 0Z" fill="black"/>
<path fill-rule="evenodd" clip-rule="evenodd" d="M26.8348 21.9888C29.0231 21.9888 30.7979 23.7626 30.7979 25.9518C30.7979 28.141 29.024 29.9148 26.8348 29.9148C24.6457 29.9148 22.8718 28.141 22.8718 25.9518C22.8718 23.7626 24.6457 21.9888 26.8348 21.9888ZM52.416 18.5362C52.1239 17.3183 51.6872 16.119 51.2273 15.3902C52.3791 27.6713 -4.92564 7.41757 0.344485 29.4083C0.636569 30.6261 0.370685 31.9749 0.830645 32.7037C-2.17171 23.1484 17.034 26.0527 20.9709 33.9264C22.1023 36.1893 22.9514 43.1411 23.5686 44.9159C24.4138 47.3477 29.2569 47.3477 30.1021 44.9159C30.7193 43.1411 31.5684 36.1893 32.6998 33.9264C37.8486 23.6277 55.1903 30.1118 52.416 18.5352V18.5362Z" fill="black"/>
<path fill-rule="evenodd" clip-rule="evenodd" d="M5.43719 29.1754C5.62059 40.0048 13.8455 48.8741 24.3984 50.0696C26.4469 50.3015 27.5308 50.2957 29.588 50.0318C39.643 48.7402 47.5118 40.4735 48.1882 30.238L48.2542 30.2176L48.2813 30.2089L48.3551 30.1856L48.3745 30.1798L48.4269 30.1633L48.4667 30.1506L48.5589 30.1206L48.5754 30.1157L48.5977 30.1079L48.6491 30.0905L48.7403 30.0604L48.7675 30.0517L48.8315 30.0303L48.9218 29.9983L48.9363 29.9934L49.0091 29.9672H49.0111L49.1003 29.9342H49.1023L49.1896 29.9013L49.2216 29.8896H49.2226L49.2672 29.8731L49.2779 29.8692L49.3662 29.8362L49.4312 29.811H49.4322L49.4536 29.8023L49.5409 29.7673L49.5933 29.747L49.6273 29.7334L49.6399 29.7285L49.7136 29.6984L49.7534 29.6819L49.799 29.6625L49.8378 29.646L49.8456 29.6431L49.8854 29.6266L49.9126 29.615L49.9698 29.5907L50.0494 29.5558L50.0552 29.5539L50.0707 29.5471L50.1386 29.516L50.2221 29.4772L50.226 29.4753L50.2493 29.4646L50.3046 29.4384L50.3793 29.4025L50.3871 29.3986L50.4288 29.3782L50.4463 29.3695L50.4695 29.3578L50.5316 29.3268L50.5501 29.3171L50.6306 29.2763L50.651 29.2657L50.7102 29.2346L50.7898 29.1919L50.8286 29.1715L50.8674 29.1492L50.8713 29.1473L50.8752 29.1453L50.879 29.1434L50.8829 29.1414L50.8868 29.1395L50.8907 29.1376L50.8946 29.1356L50.8985 29.1337L50.9023 29.1317L50.9091 29.1279L50.913 29.1259L50.9159 29.124L50.9198 29.122L50.9237 29.1201L50.9344 29.1143L50.9382 29.1123L50.9412 29.1104L50.945 29.1085L50.9489 29.1065L50.9528 29.1046L50.9557 29.1026L50.9596 29.1007L50.9635 29.0988L50.9674 29.0968L50.9703 29.0949L50.9741 29.0929L50.978 29.091L50.9819 29.089L50.9858 29.0871L50.9897 29.0852L50.9935 29.0832L50.9974 29.0813L51.0013 29.0793L51.0052 29.0774L51.0091 29.0755L51.013 29.0735L51.0159 29.0716H51.0178L51.0197 29.0696L51.0236 29.0677L51.0275 29.0658L51.0304 29.0638L51.0333 29.0619L51.0372 29.0599L51.0401 29.058L51.044 29.0561L51.0479 29.0541L51.0518 29.0522L51.0557 29.0502L51.0586 29.0483L51.0624 29.0463L51.0654 29.0444L51.0721 29.0405L51.076 29.0386L51.1013 29.024L51.1178 29.0143L51.1779 28.9784L51.2002 28.9648L51.2041 28.9629L51.2546 28.9328L51.2604 28.9289L51.2769 28.9192L51.4001 28.8416L51.405 28.8387L51.4787 28.7911L51.5379 28.7523L51.5486 28.7455L51.5525 28.7426L51.5583 28.7387L51.5748 28.7271L51.6253 28.6931L51.6728 28.6601L51.6971 28.6436L51.7242 28.6242L51.7378 28.6155L51.7689 28.5932L51.8067 28.566L51.8407 28.5418L51.8931 28.5029L51.9009 28.4971L51.9106 28.4894L51.9377 28.469L51.9533 28.4564L52.0639 28.369H52.0658L52.0678 28.3661L52.0707 28.3632L52.0736 28.3603L52.1794 28.2739L52.1832 28.271L52.19 28.2652L52.2056 28.2526L52.2686 28.1982L52.3133 28.1604L52.3152 28.1585L52.3492 28.1274L52.4122 28.0701L52.419 28.0643L52.4336 28.0517L52.4443 28.042L52.5035 27.9867L52.5355 27.9576L52.55 27.944L52.552 27.9421L52.5714 27.9236L52.6655 27.8305L52.6684 27.8266L52.7121 27.7819L52.7548 27.7383L52.78 27.7121L52.8149 27.6742L52.8276 27.6606L52.8334 27.6539L52.8732 27.6102L52.8897 27.5918L52.9013 27.5782L52.9459 27.5277L52.9489 27.5238L52.9518 27.5199L52.9547 27.5161L52.9576 27.5132L52.9605 27.5093L52.9634 27.5054L52.9654 27.5034V27.5015L52.9702 27.4976L52.9731 27.4937L52.976 27.4908L52.9789 27.487L52.9819 27.4831L52.9848 27.4792L52.9877 27.4753L53.0828 27.3608L53.0857 27.3569L53.0886 27.353L53.0915 27.3501L53.0944 27.3462L53.0973 27.3424L53.1041 27.3336L53.1109 27.3249L53.1177 27.3162L53.1245 27.3074L53.1313 27.2987L53.1371 27.2909V27.289L53.1439 27.2803L53.1507 27.2715L53.1575 27.2628L53.1643 27.2541L53.1711 27.2453L53.175 27.2395L53.1759 27.2366L53.1827 27.2279L53.1895 27.2191L53.1963 27.2104L53.2031 27.2017L53.2099 27.1929L53.2138 27.1881H53.2147L53.2167 27.1842L53.2235 27.1755L53.2303 27.1667L53.2371 27.158L53.2439 27.1493L53.2506 27.1405L53.2526 27.1376V27.1357L53.2565 27.1328L53.2633 27.124L53.2701 27.1153L53.2759 27.1066L53.2827 27.0978L53.2885 27.0891L53.2904 27.0862L53.2924 27.0842L53.2953 27.0794L53.3021 27.0707L53.3079 27.0619L53.3147 27.0532L53.3205 27.0445L53.3263 27.0357L53.3283 27.0318L53.3312 27.027L53.337 27.0183L53.3428 27.0095L53.3487 27.0008L53.3545 26.9921L53.3603 26.9833L53.3622 26.9804L53.3661 26.9746L53.3729 26.9659L53.3787 26.9571L53.3846 26.9484L53.3904 26.9397L53.3952 26.9329V26.9309L53.3981 26.929L53.403 26.9222L53.4088 26.9135L53.4146 26.9047L53.4205 26.896L53.4263 26.8873L53.4302 26.8814L53.4321 26.8785L53.437 26.8698L53.4428 26.8611L53.4486 26.8523L53.4544 26.8436L53.4603 26.8349L53.4632 26.83L53.4661 26.8252L53.4719 26.8164L53.4777 26.8077L53.4826 26.798L53.4884 26.7893L53.4942 26.7805C53.5456 27.454 53.5718 28.1342 53.5718 28.8212C53.5718 43.5962 41.5945 55.5746 26.8195 55.5746C13.7349 55.5746 2.8453 46.1803 0.524158 33.7692C0.222371 30.7853 2.57845 29.5063 5.42166 29.1909" fill="black"/>
</g>
<defs>
<clipPath id="clip0_1740_1151">
<rect width="53.5862" height="55.56" fill="white"/>
</clipPath>
</defs>
</svg>
