<svg width="163" height="120" viewBox="0 0 163 120" fill="none" xmlns="http://www.w3.org/2000/svg">
<path d="M135.476 34.0385L162.603 38.7411L129.033 39.4313L129.112 38.6697C129.525 34.7275 129.753 30.7646 129.804 26.8011C129.843 23.7512 129.82 20.6754 129.59 17.6317C105.092 3.22441 57.5122 3.22272 33.014 17.6295C32.7753 20.7661 32.7567 23.9358 32.8035 27.0797C32.8637 30.9509 33.0894 34.8193 33.4908 38.6697L33.5707 39.4313L0 38.7411L27.1276 34.038C26.7166 27.8487 26.5838 20.569 27.3398 14.4467L27.3792 14.1309L27.6455 13.9553C54.1048 -3.50752 108.501 -3.50696 134.961 13.9553L135.226 14.1309L135.266 14.4467C136.02 20.5718 135.887 27.8481 135.476 34.0385ZM81.3011 113.394C100.203 104.138 113.611 89.2906 121.527 69.8756L121.702 69.4455L159.915 70.1356L126.221 74.0749C117.23 94.8455 102.273 110.4 81.5893 119.849L81.3017 119.979L81.0157 119.849C60.3335 110.401 45.374 94.8494 36.3926 74.0755L2.68849 70.1356L40.901 69.4455L41.0761 69.875C48.9958 89.2895 62.3972 104.138 81.3022 113.394L81.3011 113.394Z" fill="black"/>
</svg>
