<svg width="308" height="35" viewBox="0 0 308 35" fill="none" xmlns="http://www.w3.org/2000/svg">
<path d="M102.199 34.4196H0" stroke="black" stroke-width="0.910211" stroke-miterlimit="10"/>
<path d="M307.895 34.4196H207.148" stroke="black" stroke-width="0.910211" stroke-miterlimit="10"/>
<path d="M144.434 33.8664V24.3477L149.538 29.1053L154.673 24.3477L159.813 29.1053L164.917 24.3477V33.8664H144.434Z" stroke="black" stroke-width="0.910211" stroke-miterlimit="10"/>
<path d="M117.715 30.7265C117.693 30.7868 117.658 30.8285 117.609 30.8518C117.566 30.8725 117.528 30.8886 117.497 30.9002L117.131 31.0142C117.134 31.2097 117.096 31.4179 117.017 31.6388C116.887 32.0042 116.715 32.298 116.5 32.5202C116.286 32.7424 116.032 32.8849 115.738 32.9478C115.441 33.0053 115.106 32.9764 114.731 32.8612C114.557 32.8038 114.385 32.7451 114.216 32.6852C114.044 32.6238 113.87 32.5597 113.695 32.4929C113.339 32.3483 113.065 32.1582 112.873 31.9226C112.678 31.6815 112.566 31.4063 112.535 31.097C112.507 30.7838 112.555 30.4504 112.681 30.0971C112.806 29.7437 112.978 29.4566 113.197 29.2359C113.417 29.0111 113.679 28.8667 113.982 28.8026C114.281 28.7371 114.614 28.7625 114.979 28.8789C115.159 28.9337 115.335 28.9918 115.508 29.0532C115.676 29.1131 115.846 29.1778 116.015 29.2472C116.521 29.454 116.86 29.7398 117.034 30.1045L117.802 29.8892C117.808 29.8866 117.817 29.8855 117.83 29.8857C117.844 29.886 117.857 29.8883 117.869 29.8925C117.902 29.8999 117.927 29.92 117.942 29.9526C117.962 29.9867 117.965 30.0218 117.952 30.058L117.715 30.7265ZM116.24 31.3625C116.325 31.1256 116.323 30.9079 116.235 30.7094C116.143 30.5094 115.943 30.3477 115.634 30.2243C115.46 30.1535 115.297 30.091 115.144 30.0367C114.988 29.981 114.822 29.9265 114.646 29.8732C114.435 29.807 114.25 29.7865 114.091 29.8116C113.935 29.8328 113.805 29.8929 113.702 29.9919C113.595 30.0896 113.513 30.2167 113.458 30.3733C113.403 30.5259 113.387 30.6738 113.408 30.8171C113.426 30.959 113.488 31.0896 113.595 31.209C113.702 31.3284 113.858 31.4292 114.064 31.5115C114.235 31.5769 114.399 31.6374 114.556 31.6931C114.708 31.7473 114.874 31.8039 115.052 31.8626C115.369 31.9619 115.627 31.963 115.824 31.8658C116.019 31.7632 116.158 31.5954 116.24 31.3625Z" fill="black"/>
<path d="M119.905 25.3047C119.721 25.6314 119.506 25.8868 119.26 26.0711C119.011 26.2532 118.735 26.3472 118.433 26.3531C118.128 26.3569 117.799 26.2593 117.446 26.0604L115.174 24.7789C115.134 24.7558 115.108 24.724 115.096 24.6834C115.085 24.6427 115.091 24.602 115.114 24.5612L115.456 23.9543C115.479 23.9135 115.511 23.8874 115.552 23.8761C115.592 23.8647 115.633 23.8706 115.674 23.8936L117.94 25.172C118.215 25.327 118.455 25.3772 118.662 25.3227C118.869 25.2681 119.039 25.124 119.171 24.8901C119.3 24.66 119.335 24.4423 119.275 24.237C119.214 24.0317 119.047 23.8516 118.772 23.6966L116.506 22.4182C116.465 22.3952 116.439 22.3634 116.428 22.3227C116.419 22.2784 116.425 22.2376 116.446 22.2005L116.791 21.5881C116.812 21.551 116.843 21.5267 116.883 21.5154C116.924 21.5041 116.965 21.51 117.006 21.533L119.277 22.8145C119.63 23.0134 119.884 23.2446 120.038 23.5081C120.189 23.7694 120.252 24.0522 120.228 24.3562C120.199 24.6582 120.092 24.9744 119.905 25.3047Z" fill="black"/>
<path d="M122.432 21.178C122.408 21.2077 122.378 21.2245 122.342 21.2282C122.303 21.2293 122.27 21.2191 122.243 21.1976C122.227 21.1842 122.213 21.1704 122.203 21.1564L119.97 17.3845C119.942 17.3451 119.927 17.2997 119.925 17.2484C119.922 17.1972 119.943 17.1451 119.986 17.0921L120.501 16.4569C120.544 16.4039 120.591 16.3733 120.642 16.365C120.692 16.3567 120.74 16.3624 120.784 16.382L124.934 17.7915C124.95 17.7989 124.967 17.8093 124.983 17.8228C125.01 17.8442 125.026 17.8743 125.033 17.913C125.037 17.9489 125.027 17.9818 125.003 18.0116L124.584 18.5277C124.543 18.5774 124.502 18.6044 124.46 18.6087C124.418 18.6131 124.385 18.6105 124.36 18.601L123.63 18.3632L122.494 19.7627L122.877 20.4274C122.891 20.4501 122.901 20.4825 122.905 20.5244C122.91 20.5664 122.892 20.6122 122.851 20.6618L122.432 21.178ZM122.003 19.0594L122.837 18.032L120.993 17.3829L122.003 19.0594Z" fill="black"/>
<path d="M127.317 15.6797C127.282 15.7109 127.243 15.7253 127.201 15.7229C127.159 15.7205 127.122 15.7019 127.091 15.6669L124.324 12.5674C124.292 12.5325 124.278 12.4939 124.28 12.4518C124.283 12.4097 124.301 12.373 124.336 12.3418L124.866 11.8692C124.901 11.838 124.939 11.8236 124.981 11.8259C125.024 11.8283 125.06 11.847 125.091 11.882L127.395 14.4617L128.873 13.1419C128.908 13.1107 128.946 13.0962 128.989 13.0986C129.031 13.101 129.067 13.1197 129.099 13.1546L129.456 13.5552C129.487 13.5902 129.502 13.6287 129.499 13.6708C129.497 13.7129 129.478 13.7496 129.443 13.7808L127.317 15.6797Z" fill="black"/>
<path d="M132.147 11.7676C132.109 11.794 132.068 11.8033 132.027 11.7955C131.986 11.7877 131.952 11.7644 131.925 11.7257L129.584 8.29313C129.557 8.2544 129.548 8.21431 129.556 8.17286C129.564 8.1314 129.587 8.09747 129.626 8.07105L130.222 7.66399C130.261 7.63757 130.301 7.62828 130.343 7.63611C130.384 7.64394 130.418 7.66722 130.444 7.70595L132.786 11.1385C132.812 11.1772 132.822 11.2173 132.814 11.2588C132.806 11.3002 132.783 11.3341 132.744 11.3606L132.147 11.7676Z" fill="black"/>
<path d="M136.805 8.96701C136.763 8.98804 136.722 8.99192 136.682 8.97865C136.642 8.96538 136.611 8.93779 136.59 8.8959L135.053 5.8338L134.013 6.35583C133.975 6.37495 133.936 6.37787 133.896 6.3646C133.856 6.35132 133.826 6.32564 133.807 6.28756L133.549 5.7734C133.528 5.7315 133.524 5.69053 133.537 5.65049C133.551 5.61044 133.576 5.58086 133.615 5.56174L136.608 4.05876C136.65 4.03773 136.691 4.03385 136.731 4.04712C136.771 4.0604 136.802 4.08798 136.823 4.12988L137.081 4.64403C137.1 4.68212 137.103 4.72118 137.09 4.76123C137.076 4.80128 137.049 4.83182 137.007 4.85285L135.973 5.37201L137.51 8.4341C137.531 8.476 137.535 8.51697 137.522 8.55701C137.508 8.59706 137.481 8.6276 137.439 8.64863L136.805 8.96701Z" fill="black"/>
<path d="M142.86 6.45768C142.815 6.47168 142.774 6.4689 142.737 6.44934C142.7 6.42979 142.674 6.39764 142.66 6.3529L142.24 5.01076L140.005 2.87701C139.997 2.86608 139.989 2.85719 139.983 2.85033C139.975 2.8394 139.969 2.82783 139.965 2.81563C139.955 2.7831 139.958 2.75081 139.975 2.71877C139.995 2.68139 140.021 2.6576 140.053 2.64742L140.7 2.44502C140.757 2.42719 140.806 2.42743 140.848 2.44571C140.889 2.464 140.92 2.48343 140.939 2.50402L142.422 3.8819L142.855 1.90444C142.86 1.87622 142.874 1.84278 142.897 1.80412C142.921 1.76547 142.961 1.73723 143.018 1.71941L143.665 1.51701C143.697 1.50682 143.73 1.51215 143.764 1.53298C143.8 1.54847 143.823 1.57248 143.833 1.60502C143.837 1.61722 143.839 1.63006 143.838 1.64353C143.837 1.65294 143.836 1.66438 143.836 1.67786L143.216 4.70524L143.636 6.04738C143.65 6.09212 143.647 6.13318 143.628 6.17056C143.608 6.20794 143.576 6.23363 143.531 6.24763L142.86 6.45768Z" fill="black"/>
<path d="M153.62 4.60605C153.246 4.62169 152.915 4.57363 152.629 4.46188C152.343 4.34587 152.118 4.1612 151.953 3.90786C151.789 3.65026 151.698 3.31921 151.682 2.91471L151.573 0.308845C151.571 0.262007 151.584 0.223064 151.613 0.192014C151.641 0.160964 151.679 0.144462 151.726 0.142507L152.422 0.11345C152.469 0.111496 152.508 0.124799 152.539 0.153361C152.57 0.181922 152.586 0.219622 152.588 0.266459L152.697 2.86594C152.71 3.18102 152.794 3.4121 152.95 3.55917C153.105 3.70623 153.317 3.77417 153.585 3.76297C153.849 3.75195 154.053 3.66669 154.195 3.50719C154.338 3.34768 154.403 3.11038 154.389 2.79529L154.281 0.195817C154.279 0.148979 154.292 0.110036 154.321 0.0789864C154.354 0.0477589 154.391 0.0312565 154.434 0.0294794L155.136 0.000156151C155.179 -0.00162101 155.216 0.0117713 155.247 0.040333C155.278 0.0688945 155.294 0.106594 155.296 0.153432L155.405 2.7593C155.422 3.1638 155.359 3.50125 155.217 3.77164C155.075 4.03777 154.868 4.24048 154.596 4.37977C154.325 4.51481 153.999 4.59023 153.62 4.60605Z" fill="black"/>
<path d="M160.407 4.8859C160.001 4.83512 159.668 4.73334 159.408 4.58055C159.152 4.42829 158.966 4.24829 158.851 4.04054C158.735 3.8328 158.686 3.62056 158.705 3.40384C158.709 3.37001 158.725 3.342 158.754 3.3198C158.783 3.29337 158.817 3.28254 158.855 3.2873L159.533 3.3722C159.588 3.37907 159.629 3.39705 159.655 3.42613C159.682 3.45097 159.706 3.4819 159.728 3.5189C159.748 3.59449 159.786 3.67008 159.841 3.74568C159.9 3.8218 159.984 3.89026 160.092 3.95106C160.201 4.00763 160.34 4.04649 160.509 4.06765C160.784 4.10203 160.995 4.08328 161.141 4.01141C161.292 3.94006 161.377 3.82827 161.396 3.67604C161.41 3.56609 161.383 3.47253 161.315 3.39535C161.252 3.3187 161.143 3.24283 160.989 3.16776C160.839 3.09321 160.638 3.00783 160.383 2.9116C160.075 2.80427 159.815 2.68373 159.604 2.54998C159.398 2.41253 159.248 2.25208 159.155 2.06865C159.067 1.88152 159.039 1.6611 159.07 1.40738C159.102 1.15365 159.2 0.938261 159.364 0.761197C159.528 0.579903 159.744 0.450153 160.012 0.371944C160.28 0.289507 160.589 0.27024 160.94 0.314144C161.223 0.349584 161.468 0.418851 161.674 0.521945C161.885 0.625567 162.054 0.747687 162.183 0.888304C162.315 1.02945 162.411 1.17456 162.47 1.32363C162.528 1.47269 162.551 1.61304 162.539 1.74466C162.535 1.77849 162.518 1.80861 162.489 1.83504C162.461 1.85724 162.427 1.86596 162.389 1.8612L161.679 1.77233C161.637 1.76704 161.6 1.75382 161.568 1.73268C161.536 1.71153 161.513 1.67849 161.497 1.63356C161.485 1.52044 161.421 1.41577 161.304 1.31956C161.192 1.21965 161.037 1.15726 160.838 1.1324C160.631 1.10648 160.461 1.12391 160.329 1.18468C160.201 1.24599 160.127 1.35487 160.108 1.51134C160.095 1.61282 160.114 1.70322 160.164 1.78251C160.219 1.8581 160.315 1.93238 160.452 2.00534C160.593 2.07459 160.781 2.15601 161.014 2.24959C161.376 2.37226 161.667 2.501 161.887 2.63581C162.106 2.77062 162.26 2.92947 162.349 3.11238C162.438 3.29105 162.467 3.50724 162.435 3.76097C162.4 4.04429 162.289 4.27739 162.103 4.46027C161.921 4.64367 161.684 4.77289 161.391 4.84793C161.103 4.91926 160.775 4.93192 160.407 4.8859Z" fill="black"/>
<path d="M165.489 5.76366C165.444 5.75043 165.411 5.72529 165.391 5.68825C165.371 5.65121 165.368 5.6102 165.381 5.56523L166.554 1.57917C166.567 1.5342 166.592 1.50162 166.629 1.48142C166.666 1.46123 166.707 1.45775 166.752 1.47098L169.53 2.28859C169.575 2.30182 169.608 2.32696 169.628 2.364C169.648 2.40104 169.652 2.44205 169.639 2.48702L169.494 2.97761C169.482 3.01849 169.458 3.04903 169.421 3.06923C169.383 3.08942 169.342 3.0929 169.297 3.07967L167.311 2.49489L167.027 3.45768L168.879 4.00275C168.924 4.01598 168.957 4.04112 168.977 4.07816C168.997 4.1152 169.001 4.15621 168.987 4.20118L168.854 4.65498C168.842 4.69586 168.817 4.7264 168.78 4.74659C168.743 4.76679 168.702 4.77027 168.657 4.75703L166.805 4.21196L166.513 5.20541L168.549 5.80463C168.594 5.81786 168.626 5.843 168.647 5.88004C168.667 5.91708 168.67 5.95809 168.657 6.00306L168.514 6.48752C168.501 6.53249 168.476 6.56507 168.439 6.58527C168.402 6.60546 168.361 6.60894 168.316 6.59571L165.489 5.76366Z" fill="black"/>
<path d="M171.596 7.85946C171.554 7.83898 171.526 7.8088 171.512 7.76893C171.498 7.72907 171.501 7.68805 171.522 7.64588L173.338 3.90843C173.358 3.86627 173.388 3.83829 173.428 3.82449C173.468 3.81069 173.509 3.81403 173.551 3.83452L174.994 4.53562C175.378 4.72184 175.668 4.93866 175.865 5.18609C176.064 5.42969 176.174 5.70099 176.195 6C176.221 6.29703 176.155 6.61799 175.997 6.96288C175.919 7.13341 175.849 7.28192 175.788 7.40842C175.726 7.53492 175.654 7.67965 175.57 7.84262C175.385 8.19353 175.171 8.45424 174.927 8.62476C174.683 8.79527 174.406 8.87658 174.098 8.86867C173.791 8.85694 173.447 8.75889 173.068 8.57453L171.596 7.85946ZM172.727 7.49202L173.399 7.81883C173.591 7.91194 173.762 7.95954 173.913 7.96163C174.063 7.96372 174.197 7.9174 174.314 7.82266C174.437 7.72596 174.549 7.57887 174.65 7.3814C174.707 7.2721 174.758 7.17337 174.801 7.0852C174.847 6.9989 174.89 6.91073 174.929 6.82071C174.972 6.73254 175.017 6.63386 175.066 6.52467C175.198 6.23345 175.225 5.9863 175.149 5.78324C175.078 5.5782 174.897 5.40492 174.605 5.2634L173.961 4.95055L172.727 7.49202Z" fill="black"/>
<path d="M182.045 14.6005C181.743 14.3372 181.529 14.0633 181.404 13.7789C181.285 13.494 181.251 13.2048 181.304 12.9113C181.359 12.6145 181.502 12.3208 181.733 12.0302C181.845 11.8957 181.966 11.753 182.098 11.602C182.229 11.4511 182.357 11.3079 182.481 11.1726C182.735 10.9076 183.003 10.7291 183.287 10.6373C183.577 10.545 183.872 10.5399 184.174 10.6219C184.476 10.704 184.774 10.8739 185.07 11.1316C185.285 11.3193 185.457 11.5174 185.586 11.7261C185.715 11.9347 185.799 12.1465 185.838 12.3613C185.877 12.5761 185.871 12.7834 185.821 12.9831C185.772 13.1828 185.676 13.3706 185.534 13.5465C185.508 13.5754 185.476 13.5897 185.437 13.5893C185.401 13.5918 185.368 13.5804 185.339 13.5552L184.79 13.0762C184.752 13.0426 184.73 13.0064 184.724 12.9675C184.718 12.9286 184.729 12.8811 184.755 12.8249C184.872 12.5934 184.905 12.3933 184.854 12.2246C184.804 12.0559 184.695 11.8988 184.528 11.7531C184.328 11.5794 184.123 11.4968 183.913 11.5052C183.702 11.5135 183.481 11.6404 183.25 11.8857C183.011 12.1407 182.775 12.4105 182.544 12.6951C182.332 12.9573 182.237 13.1934 182.257 13.4034C182.278 13.6135 182.387 13.8053 182.587 13.979C182.754 14.1246 182.924 14.2111 183.098 14.2385C183.278 14.2655 183.472 14.2054 183.679 14.0583C183.734 14.0213 183.78 14.0046 183.816 14.0082C183.856 14.0085 183.895 14.0255 183.933 14.0591L184.482 14.5381C184.511 14.5633 184.527 14.5939 184.529 14.63C184.535 14.6689 184.525 14.7028 184.5 14.7317C184.345 14.8963 184.172 15.0169 183.981 15.0933C183.79 15.1698 183.585 15.2035 183.367 15.1942C183.149 15.1849 182.928 15.1306 182.704 15.0311C182.479 14.9317 182.26 14.7881 182.045 14.6005Z" fill="black"/>
<path d="M185.527 17.859C185.502 17.8293 185.492 17.7965 185.495 17.7605C185.502 17.7218 185.519 17.6917 185.545 17.67C185.562 17.6565 185.578 17.646 185.594 17.6385L189.737 16.2081C189.781 16.1882 189.828 16.1823 189.879 16.1903C189.93 16.1984 189.977 16.2288 190.02 16.2815L190.539 16.9141C190.582 16.9668 190.603 17.0188 190.601 17.0701C190.599 17.1214 190.584 17.1668 190.556 17.2064L188.342 20.9895C188.332 21.0036 188.318 21.0174 188.302 21.031C188.276 21.0526 188.243 21.063 188.203 21.0621C188.167 21.0586 188.137 21.0419 188.113 21.0123L187.691 20.4983C187.651 20.4488 187.633 20.4031 187.637 20.3612C187.641 20.3192 187.65 20.2868 187.665 20.264L188.044 19.5974L186.901 18.2036L186.173 18.4451C186.148 18.4548 186.114 18.4575 186.072 18.4533C186.03 18.4492 185.989 18.4224 185.948 18.373L185.527 17.859ZM187.688 17.8635L188.527 18.8866L189.533 17.21L187.688 17.8635Z" fill="black"/>
<path d="M189.942 23.7398C189.919 23.6991 189.913 23.6584 189.924 23.6177C189.935 23.577 189.961 23.5451 190.002 23.5218L193.61 21.4606C193.65 21.4373 193.691 21.4313 193.732 21.4424C193.772 21.4535 193.804 21.4794 193.828 21.5201L194.668 22.991C194.932 23.4535 195.033 23.8793 194.971 24.2683C194.912 24.6553 194.683 24.9629 194.283 25.1912C194.013 25.3455 193.75 25.4097 193.495 25.3838C193.24 25.3579 193.005 25.2611 192.792 25.0935L191.851 26.6689C191.835 26.6927 191.818 26.7099 191.8 26.7205C191.77 26.7374 191.736 26.7421 191.697 26.7347C191.663 26.7252 191.636 26.7038 191.617 26.6705L191.265 26.0544C191.226 25.9878 191.215 25.9283 191.229 25.876C191.247 25.8216 191.266 25.7785 191.288 25.7468L192.172 24.3434L191.788 23.6718L190.506 24.4043C190.465 24.4276 190.424 24.4337 190.384 24.4226C190.343 24.4115 190.311 24.3856 190.288 24.3448L189.942 23.7398ZM192.493 23.2691L192.899 23.9795C193.015 24.1831 193.147 24.3065 193.294 24.3499C193.444 24.3969 193.602 24.3729 193.769 24.2777C193.935 24.1826 194.039 24.0595 194.08 23.9083C194.122 23.7571 194.083 23.5779 193.965 23.3707L193.559 22.6602L192.493 23.2691Z" fill="black"/>
<path d="M193.479 31.1668C193.337 30.783 193.274 30.4406 193.29 30.1394C193.307 29.8422 193.381 29.5944 193.513 29.396C193.644 29.1976 193.81 29.0567 194.011 28.9734C194.043 28.9616 194.075 28.9633 194.108 28.9784C194.145 28.992 194.17 29.0168 194.183 29.0528L194.42 29.6944C194.439 29.7464 194.442 29.7908 194.429 29.8276C194.419 29.863 194.403 29.8986 194.379 29.9344C194.322 29.9875 194.272 30.0558 194.23 30.1394C194.19 30.227 194.168 30.3329 194.164 30.4571C194.164 30.5798 194.193 30.7211 194.252 30.881C194.348 31.1408 194.462 31.3192 194.593 31.4161C194.726 31.517 194.864 31.5408 195.008 31.4877C195.112 31.4493 195.182 31.3823 195.22 31.2867C195.259 31.1951 195.276 31.0637 195.272 30.8926C195.269 30.7255 195.252 30.507 195.22 30.237C195.174 29.9135 195.161 29.6274 195.183 29.3786C195.21 29.1323 195.283 28.9257 195.403 28.7587C195.529 28.5942 195.712 28.4676 195.951 28.379C196.191 28.2904 196.427 28.278 196.66 28.342C196.897 28.4045 197.111 28.5365 197.304 28.7379C197.5 28.9379 197.66 29.2037 197.783 29.5355C197.882 29.8034 197.933 30.0525 197.936 30.283C197.941 30.5174 197.911 30.724 197.845 30.9028C197.781 31.0855 197.696 31.2373 197.591 31.358C197.485 31.4786 197.371 31.5639 197.249 31.6137C197.217 31.6255 197.182 31.6246 197.146 31.6109C197.113 31.5958 197.09 31.5703 197.076 31.5343L196.828 30.8627C196.813 30.8227 196.808 30.7838 196.812 30.7459C196.817 30.708 196.835 30.6717 196.867 30.6369C196.963 30.5746 197.026 30.4694 197.058 30.3214C197.095 30.1759 197.079 30.0092 197.009 29.8214C196.937 29.6255 196.843 29.4829 196.728 29.3935C196.615 29.3082 196.484 29.2928 196.336 29.3475C196.241 29.383 196.169 29.4412 196.122 29.5223C196.08 29.6059 196.058 29.7252 196.056 29.8804C196.06 30.038 196.074 30.2418 196.098 30.4918C196.156 30.8702 196.176 31.1878 196.157 31.4446C196.139 31.7014 196.069 31.9113 195.947 32.0743C195.83 32.2358 195.651 32.3609 195.411 32.4495C195.143 32.5485 194.885 32.5575 194.637 32.4765C194.391 32.3995 194.167 32.2483 193.965 32.0228C193.769 31.7999 193.607 31.5146 193.479 31.1668Z" fill="black"/>
</svg>
