<svg width="298" height="51" viewBox="0 0 298 51" fill="none" preserveAspectRatio="none" xmlns="http://www.w3.org/2000/svg">
<g clip-path="url(#clip0_1644_758)">
<path d="M12.9771 0.235962L0.00195312 50.8584H206.023L219.128 0.235962H12.9771Z" fill="black"/>
<path d="M244.991 17.219H260.31L255.878 34.0368H240.562L244.991 17.219Z" fill="black"/>
<path d="M260.602 37.0022H270.517L267.65 47.8928H257.73L260.602 37.0022Z" fill="black"/>
<path d="M262.093 4.66846H269.633L267.454 12.9475H259.91L262.093 4.66846Z" fill="black"/>
<path d="M275.745 18.092H284.304L281.826 27.4881H273.271L275.745 18.092Z" fill="black"/>
<path d="M290.943 8.81006H297.578L295.659 16.0941H289.023L290.943 8.81006Z" fill="black"/>
<path d="M282.537 37.0022H287.497L286.065 42.4495H281.105L282.537 37.0022Z" fill="black"/>
<path d="M225.245 34.0366H240.564L236.132 50.8583H220.816L225.245 34.0366Z" fill="black"/>
<path d="M234.224 0.397217H249.543L245.11 17.2189H229.795L234.224 0.397217Z" fill="black"/>
<path d="M214.479 17.219H229.795L225.366 34.0368H210.047L214.479 17.219Z" fill="black"/>
</g>
<defs>
<clipPath id="clip0_1644_758">
<rect width="297.575" height="50.6224" fill="white" transform="translate(0 0.235962)"/>
</clipPath>
</defs>
</svg>
