<svg width="156" height="45" viewBox="0 0 156 45" fill="none" xmlns="http://www.w3.org/2000/svg">
<path fill-rule="evenodd" clip-rule="evenodd" d="M103.299 12.5001H144.858C150.603 12.5001 155.74 10.8438 155.74 6.53105H101.41C94.7212 6.291 93.393 10.5238 93.0009 11.988C90.1204 22.662 86.7358 27.9349 77.8701 32.2317C69.0045 27.9349 65.6199 22.662 62.7394 11.988C62.3473 10.5238 61.0111 6.291 54.3219 6.53105H0C0 10.8438 5.13693 12.5001 10.882 12.5001H52.4415C54.1778 12.5001 56.4343 12.4441 57.3624 14.6765H10.6339C10.6339 18.9893 15.7869 20.6456 21.5239 20.6456H44.6321H54.6099C56.1702 20.6456 58.6747 20.7096 59.0027 22.83H22.9642C22.9642 27.1428 28.1171 28.7911 33.8542 28.7911H57.8505C59.6108 28.7911 62.3153 28.7111 62.8514 30.9755H33.166C33.166 35.2883 38.319 36.9446 44.056 36.9446H63.6436C69.4206 36.9446 75.0456 40.0971 77.8701 44.1059C79.8785 40.4492 86.3197 36.9446 92.0967 36.9446H111.684C117.429 36.9446 122.582 35.2883 122.582 30.9755H92.8969C93.433 28.7111 96.1375 28.7911 97.8978 28.7911H121.894C127.639 28.7911 132.792 27.1428 132.792 22.83H96.7536C97.0816 20.7096 99.5861 20.6456 101.146 20.6456H111.124H134.232C139.977 20.6456 145.122 18.9893 145.122 14.6765H98.3859C99.314 12.4441 101.57 12.5001 103.307 12.5001H103.299ZM52.3855 11.2199H10.89C8.36152 11.2199 3.02455 10.8198 1.6243 8.02732C3.89671 9.30755 7.44135 9.53159 9.3857 9.53159H44.6321H51.1933C53.1857 9.53159 57.3944 9.93166 58.4906 12.7242C56.7063 11.4439 53.9058 11.2199 52.3775 11.2199H52.3855ZM54.1698 19.3654H21.5239C18.9314 19.3654 13.3944 18.9413 12.1622 15.9648C13.6185 17.205 18.4434 17.6771 20.2917 17.6771H44.6321H52.9856C54.978 17.6771 59.1868 18.0771 60.283 20.8697C58.4986 19.5894 55.6981 19.3654 54.1698 19.3654ZM58.6587 27.5189H44.6321H33.8542C31.2617 27.5189 25.7247 27.0948 24.4925 24.1182C25.8607 25.0464 29.9814 25.8306 32.95 25.8306H44.6321H57.4664C59.4588 25.8306 63.6676 26.2306 64.7638 29.0231C62.9794 27.7429 60.1789 27.5189 58.6507 27.5189H58.6587ZM64.4677 35.6643H44.6321H44.056C41.4635 35.6643 35.9265 35.2403 34.6943 32.2637C36.0065 33.3839 40.2713 33.976 43.4159 33.976H63.2755C65.2679 33.976 69.4766 34.3761 70.5728 37.1686C68.7885 35.8884 65.988 35.6643 64.4597 35.6643H64.4677ZM111.108 33.976H112.316C115.469 33.976 119.734 33.3919 121.038 32.2637C119.806 35.2403 114.269 35.6643 111.676 35.6643H91.2646C89.7363 35.6643 86.9438 35.8884 85.1515 37.1686C86.2557 34.3761 90.4564 33.976 92.4488 33.976H111.1H111.108ZM98.2739 25.8306H111.108H122.79C125.759 25.8306 129.88 25.0464 131.248 24.1182C130.016 27.0948 124.479 27.5189 121.886 27.5189H111.108H97.0816C95.5534 27.5189 92.7529 27.7429 90.9685 29.0231C92.0647 26.2306 96.2735 25.8306 98.2659 25.8306H98.2739ZM102.763 17.6771H111.116H135.457C137.305 17.6771 142.138 17.213 143.594 15.9648C142.362 18.9413 136.825 19.3654 134.232 19.3654H111.124H101.586C100.058 19.3654 97.2577 19.5894 95.4734 20.8697C96.5775 18.0771 100.778 17.6771 102.771 17.6771H102.763ZM97.2497 12.7242C98.3539 9.93166 102.555 9.53159 104.547 9.53159H111.108H146.355C148.299 9.53159 151.844 9.30755 154.116 8.02732C152.716 10.8198 147.379 11.2199 144.85 11.2199H111.116H103.363C101.834 11.2199 99.042 11.4439 97.2497 12.7242Z" fill="black"/>
<path fill-rule="evenodd" clip-rule="evenodd" d="M87.3682 0.065918H68.3807C67.3805 3.67457 66.8204 6.99518 66.7324 10.0117V11.8521C66.9965 19.6215 70.6131 25.1665 77.8784 28.167C85.1518 25.1665 88.7684 19.6055 89.0245 11.8281V10.0197C88.9285 7.00318 88.3763 3.67457 87.3762 0.065918L87.3682 0.065918ZM77.8704 25.3745C69.0288 21.2458 68.2207 12.4362 70.5651 2.7384H85.1838C87.5202 12.4362 86.7121 21.2458 77.8784 25.3745H77.8704Z" fill="black"/>
</svg>
