<svg width="109" height="54" viewBox="0 0 109 54" fill="none" xmlns="http://www.w3.org/2000/svg">
<g clip-path="url(#clip0_1644_718)">
<path d="M-0.00028554 53.6047C15.6665 49.4373 34.2806 47.0223 54.2506 47.0223C74.2206 47.0223 92.8329 49.4373 108.5 53.6047C102.288 49.8265 93.1099 46.7525 82.1138 44.7991C79.7513 44.3791 78.2595 42.0166 78.8859 39.7012C81.0928 31.5582 84.4184 20.8681 88.3215 13.5035L75.2091 21.7334C75.4571 22.5155 75.5947 23.3501 75.5947 24.2172C75.5947 28.6671 72.0736 32.2733 67.7305 32.2733C63.3875 32.2733 59.8663 28.6671 59.8663 24.2172C59.8663 21.308 61.3762 19.2243 63.6337 17.8086C63.6337 17.8086 61.4522 15.0749 58.9738 10.7373C55.784 5.15056 54.247 -0.00170898 54.247 -0.00170898C54.247 -0.00170898 52.71 5.15056 49.5202 10.7373C47.0436 15.0749 44.8603 17.8086 44.8603 17.8086C47.116 19.2243 48.6277 21.308 48.6277 24.2172C48.6277 28.6671 45.1065 32.2733 40.7635 32.2733C36.4204 32.2733 32.8993 28.6671 32.8993 24.2172C32.8993 23.3501 33.0369 22.5155 33.2849 21.7334L20.1725 13.5035C24.1336 20.9749 27.4501 31.6017 29.6425 39.6958C30.2707 42.013 28.7771 44.3737 26.4146 44.7937C15.4058 46.7471 6.21466 49.8229 -0.00390625 53.6047H-0.00028554Z" fill="black"/>
</g>
<defs>
<clipPath id="clip0_1644_718">
<rect width="108.5" height="53.6046" fill="white"/>
</clipPath>
</defs>
</svg>
