<svg width="89" height="50" viewBox="0 0 89 50" fill="none" xmlns="http://www.w3.org/2000/svg">
<g clip-path="url(#clip0_1644_770)">
<path d="M77.3416 39.651L76.8792 39.4191C75.1923 38.5712 73.2793 37.7898 71.031 37.0305C69.0176 36.3495 66.9244 35.7483 64.8992 35.1663C62.8636 34.5813 60.7586 33.9757 58.723 33.2873C56.4304 32.5118 54.4761 31.7141 52.7478 30.8455C50.6649 29.7981 48.8598 28.6326 47.2275 27.281L46.9395 27.0417L57.7481 2.78027L58.2488 3.19536C59.8221 4.49973 61.5666 5.62535 63.5815 6.6387C65.2685 7.48661 67.1814 8.26805 69.4297 9.02733C71.4431 9.70831 73.5378 10.3095 75.5616 10.8915C77.5971 11.4765 79.7021 12.0822 81.7377 12.7705C84.0303 13.5461 85.9846 14.3437 87.713 15.2123L88.134 15.4236L77.3431 39.6481L77.3416 39.651ZM48.1493 26.7551C49.6472 27.959 51.3001 29.0108 53.1939 29.9621C54.8808 30.81 56.7938 31.5915 59.0421 32.3507C61.0555 33.0317 63.1487 33.6329 65.1739 34.215C67.2095 34.7999 69.3145 35.4056 71.3501 36.0939C73.4403 36.8 75.2484 37.5268 76.8615 38.3083L79.0566 33.3803C78.7892 33.2504 78.513 33.1204 78.2353 32.9948C78.1171 32.9416 77.996 32.887 77.8763 32.8338L78.2766 31.9312C78.3993 31.9859 78.5233 32.042 78.6445 32.0967C78.9192 32.2222 79.1925 32.3493 79.4584 32.4793L81.6535 27.5513C80.259 26.8748 78.7287 26.2455 76.9797 25.6295C76.9678 25.6251 76.956 25.6206 76.9442 25.6177C76.8393 25.5808 76.73 25.5424 76.6192 25.5054L76.9413 24.5718C77.0048 24.594 77.0698 24.6162 77.1318 24.6383C77.1909 24.659 77.2485 24.6797 77.3061 24.6989C79.0802 25.3223 80.6342 25.9619 82.0553 26.6488L84.2504 21.7209C83.983 21.5909 83.7068 21.4609 83.4291 21.3353C83.3493 21.2999 83.2696 21.2629 83.1883 21.2275C83.1854 21.2275 83.1824 21.2245 83.1795 21.223C83.1676 21.2171 83.1558 21.2127 83.144 21.2068C83.144 21.2068 83.1425 21.2068 83.141 21.2068C83.1366 21.2053 83.1322 21.2024 83.1277 21.2009C83.1263 21.2009 83.1233 21.1994 83.1218 21.1979C83.1189 21.1964 83.1145 21.195 83.1115 21.1935C83.1085 21.1935 83.1056 21.1905 83.1026 21.1905C83.0908 21.1861 83.0805 21.1802 83.0687 21.1758L83.469 20.2732C83.5931 20.3279 83.7157 20.384 83.8368 20.4386C84.1027 20.5598 84.3671 20.6839 84.6241 20.8079C84.633 20.8124 84.6419 20.8168 84.6493 20.8198L86.8444 15.8918C85.2623 15.1237 83.4808 14.4087 81.4186 13.7115C79.4052 13.0305 77.312 12.4293 75.2868 11.8473C73.2512 11.2623 71.1462 10.6567 69.1107 9.9683C66.8181 9.19277 64.8637 8.39509 63.1354 7.5265C61.2653 6.587 59.6182 5.55001 58.1203 4.36973L53.2899 15.2138L53.3652 15.1193C54.8129 16.2803 56.3979 17.2937 58.209 18.2169L57.7599 19.0959C55.9622 18.1785 54.3771 17.174 52.925 16.0292L48.1448 26.7596L48.1493 26.7551ZM73.2527 31.0715C72.8908 30.9518 72.5067 30.8278 72.1138 30.7037L72.4107 29.7627C72.8081 29.8883 73.1951 30.0138 73.5629 30.135L73.2527 31.0715ZM71.7327 30.584C71.0487 30.3713 70.316 30.1512 69.4297 29.8912L69.7074 28.9443C70.5997 29.2058 71.3368 29.4274 72.0266 29.6416L71.7327 30.584ZM69.0442 29.7804C68.635 29.6622 68.2288 29.5441 67.8846 29.4451L68.1579 28.4967C68.5021 28.5957 68.9098 28.7139 69.3204 28.8321L69.0457 29.7804H69.0442ZM67.1105 29.222C66.852 29.1482 66.5935 29.0728 66.3365 28.999L66.6112 28.0506C66.8683 28.1245 67.1268 28.1998 67.3853 28.2737L67.112 29.222H67.1105ZM65.948 28.8867C64.6968 28.5233 63.7425 28.2353 62.8562 27.9561L63.1531 27.0151C64.0321 27.2928 64.9789 27.5779 66.2227 27.9398L65.948 28.8882V28.8867ZM62.4721 27.8335C62.2107 27.7493 61.9522 27.6651 61.7055 27.5838L62.0157 26.6473C62.2609 26.7285 62.515 26.8113 62.7735 26.894L62.4721 27.8335ZM57.3625 25.9515C57.2384 25.8984 57.1144 25.8437 56.9932 25.7905L57.3936 24.888C57.5117 24.9411 57.6343 24.9943 57.754 25.046L57.3625 25.953V25.9515ZM75.8496 25.241C75.2558 25.0445 74.6649 24.8555 74.0666 24.6708C72.9144 24.3163 71.7386 23.975 70.4815 23.6131L70.7548 22.6648C72.6751 23.2173 74.4064 23.7225 76.1598 24.303L75.8496 25.2395V25.241ZM54.448 24.5438C54.1482 24.3813 53.8498 24.2144 53.5602 24.046L54.0581 23.1936C54.3372 23.3561 54.6268 23.5186 54.9178 23.6767L54.448 24.5452V24.5438ZM52.86 23.6235C52.6266 23.4787 52.3947 23.3295 52.1687 23.1803L52.7123 22.3575C52.931 22.5023 53.1555 22.6456 53.38 22.7859L52.86 23.625V23.6235ZM70.0945 23.5023C69.9379 23.458 69.7813 23.4122 69.6232 23.3664C67.8994 22.8701 66.1341 22.356 64.4088 21.7873C64.4014 21.7844 64.394 21.7829 64.3866 21.7799C64.2551 21.7371 64.1237 21.6928 63.9937 21.6485C63.9937 21.6485 63.9922 21.6485 63.9907 21.6485C63.9671 21.6411 63.9449 21.6322 63.9213 21.6248L64.2374 20.6898C64.3792 20.737 64.521 20.7858 64.6628 20.8316C64.682 20.8375 64.7012 20.8449 64.7219 20.8508C66.5847 21.4653 68.5065 22.0178 70.3678 22.554L70.0945 23.5023ZM51.4863 22.7165C51.374 22.6367 51.2602 22.5555 51.1495 22.4757L51.73 21.678C51.8378 21.7563 51.9471 21.8346 52.055 21.9099L51.4863 22.7165ZM59.9594 20.1196C59.8354 20.0664 59.7113 20.0117 59.5901 19.9586L59.9905 19.056C60.1086 19.1092 60.2312 19.1624 60.3509 19.2141L59.9594 20.121V20.1196ZM78.4465 19.4105C78.2693 19.3514 78.0905 19.2938 77.9118 19.2362C76.2854 18.7103 74.6176 18.2273 72.9912 17.759C72.8908 17.731 72.7918 17.7014 72.6914 17.6733L72.9647 16.725C74.6841 17.2198 76.4553 17.728 78.188 18.2893C78.3786 18.3514 78.5677 18.4134 78.7567 18.4755L78.4465 19.412V19.4105ZM72.3043 17.5611C72.0458 17.4872 71.7873 17.4119 71.5303 17.338L71.8051 16.3897C72.0621 16.4635 72.3206 16.5389 72.5791 16.6127L72.3058 17.5611H72.3043ZM71.1433 17.2258C69.8921 16.8624 68.9378 16.5743 68.0515 16.2951L68.3484 15.3541C69.2274 15.6319 70.1742 15.917 71.418 16.2789L71.1433 17.2272V17.2258ZM67.666 16.1725C67.4045 16.0883 67.146 16.0041 66.8993 15.9229L67.2095 14.9863C67.4547 15.0676 67.7088 15.1503 67.9673 15.233L67.666 16.1725ZM59.6418 12.8828C59.342 12.7203 59.0436 12.5534 58.7541 12.385L59.2519 11.5326C59.5311 11.6951 59.8206 11.8576 60.1116 12.0157L59.6418 12.8843V12.8828ZM58.0553 11.9625C57.8219 11.8177 57.59 11.6685 57.364 11.5194L57.9076 10.6966C58.1262 10.8413 58.3508 10.9846 58.5753 11.1235L58.0553 11.9625ZM56.6815 11.0555C56.5693 10.9757 56.4555 10.8945 56.3447 10.8147L56.9253 10.017C57.0316 10.0953 57.141 10.1736 57.2503 10.249L56.6815 11.0555Z" fill="black"/>
<path d="M60.8725 12.9684C58.9699 12.0127 57.147 10.8738 55.4453 9.46452C56.3109 7.52053 57.1766 5.57802 58.0422 3.63403C59.7439 5.04328 61.5653 6.18219 63.4694 7.13794C62.6038 9.08192 61.7382 11.0244 60.8725 12.9684Z" fill="black"/>
<path d="M66.7848 15.3836C64.761 14.6997 62.7771 13.9242 60.873 12.9684C61.7387 11.0244 62.6043 9.08193 63.47 7.13794C65.3726 8.09368 67.3565 8.86921 69.3817 9.55315C68.516 11.4971 67.6504 13.4396 66.7848 15.3836Z" fill="transparent"/>
<path d="M60.8723 12.9685C62.7749 13.9243 64.7588 14.6998 66.784 15.3837C65.9184 17.3277 65.0528 19.2702 64.1871 21.2142C62.1634 20.5303 60.1795 19.7547 58.2754 18.799C59.141 16.855 60.0067 14.9125 60.8723 12.9685Z" fill="black"/>
<path d="M55.4465 9.4646C57.1482 10.8738 58.9696 12.0128 60.8737 12.9685C60.0081 14.9125 59.1425 16.855 58.2768 18.799C56.3742 17.8432 54.5513 16.7043 52.8496 15.2951C53.7152 13.3511 54.5809 11.4086 55.4465 9.4646Z" fill="transparent"/>
<path d="M72.9391 17.2553C70.874 16.6615 68.8104 16.0676 66.7852 15.3837C67.6508 13.4397 68.5164 11.4972 69.3821 9.55322C71.4058 10.2372 73.4709 10.831 75.5361 11.4248C74.6704 13.3688 73.8048 15.3113 72.9391 17.2553Z" fill="black"/>
<path d="M79.0915 19.1269C77.0677 18.443 75.0026 17.8491 72.9375 17.2553C73.8031 15.3113 74.6688 13.3688 75.5344 11.4248C77.5995 12.0186 79.6632 12.6125 81.6884 13.2964C80.8228 15.2404 79.9571 17.1829 79.0915 19.1269Z" fill="transparent"/>
<path d="M72.9387 17.2552C75.0038 17.8491 77.0675 18.4429 79.0927 19.1269C78.2271 21.0708 77.3614 23.0134 76.4958 24.9573C74.472 24.2734 72.4069 23.6796 70.3418 23.0857C71.2074 21.1417 72.0731 19.1992 72.9387 17.2552Z" fill="black"/>
<path d="M66.7844 15.3837C68.8082 16.0676 70.8733 16.6614 72.9384 17.2553C72.0728 19.1993 71.2071 21.1418 70.3415 23.0858C68.2764 22.4919 66.2127 21.8981 64.1875 21.2142C65.0531 19.2702 65.9188 17.3277 66.7844 15.3837Z" fill="transparent"/>
<path d="M85.0016 21.5435C83.0989 20.5878 81.1151 19.8123 79.0898 19.1283C79.9555 17.1843 80.8211 15.2418 81.6867 13.2979C83.7105 13.9818 85.6944 14.7573 87.5985 15.7131C86.7328 17.6571 85.8672 19.5996 85.0016 21.5435Z" fill="black"/>
<path d="M79.0911 19.1268C81.1148 19.8108 83.0987 20.5863 85.0028 21.542C84.1371 23.486 83.2715 25.4285 82.4059 27.3725C80.5032 26.4168 78.5194 25.6413 76.4941 24.9573C77.3598 23.0133 78.2254 21.0708 79.0911 19.1268Z" fill="transparent"/>
<path d="M55.6792 24.6294C53.7765 23.6737 51.9537 22.5348 50.252 21.1255C51.1176 19.1815 51.9832 17.239 52.8489 15.295C54.5506 16.7043 56.372 17.8432 58.2761 18.7989C57.4104 20.7429 56.5448 22.6854 55.6792 24.6294Z" fill="black"/>
<path d="M61.5895 27.0461C59.5657 26.3622 57.5818 25.5866 55.6777 24.6309C56.5434 22.6869 57.409 20.7444 58.2746 18.8004C60.1773 19.7562 62.1611 20.5317 64.1864 21.2156C63.3207 23.1596 62.4551 25.1021 61.5895 27.0461Z" fill="transparent"/>
<path d="M55.6789 24.6294C57.5816 25.5851 59.5654 26.3607 61.5907 27.0446C60.725 28.9886 59.8594 30.9311 58.9938 32.8751C56.97 32.1912 54.9861 31.4156 53.082 30.4599C53.9477 28.5159 54.8133 26.5734 55.6789 24.6294Z" fill="black"/>
<path d="M50.2532 21.1255C51.9549 22.5347 53.7763 23.6736 55.6804 24.6294C54.8147 26.5734 53.9491 28.5159 53.0835 30.4599C51.1808 29.5041 49.358 28.3652 47.6562 26.956C48.5219 25.012 49.3875 23.0695 50.2532 21.1255Z" fill="transparent"/>
<path d="M67.7438 28.9162C65.6787 28.3224 63.6151 27.7285 61.5898 27.0446C62.4555 25.1006 63.3211 23.1581 64.1867 21.2141C66.2105 21.8981 68.2756 22.4919 70.3407 23.0857C69.4751 25.0297 68.6095 26.9722 67.7438 28.9162Z" fill="black"/>
<path d="M73.8981 30.7892C71.8744 30.1053 69.8093 29.5115 67.7441 28.9176C68.6098 26.9737 69.4754 25.0311 70.3411 23.0872C72.4062 23.681 74.4698 24.2748 76.495 24.9588C75.6294 26.9028 74.7638 28.8453 73.8981 30.7892Z" fill="transparent"/>
<path d="M67.7434 28.9163C69.8085 29.5101 71.8721 30.1039 73.8974 30.7879C73.0317 32.7319 72.1661 34.6744 71.3005 36.6184C69.2767 35.9344 67.2116 35.3406 65.1465 34.7467C66.0121 32.8028 66.8778 30.8602 67.7434 28.9163Z" fill="black"/>
<path d="M61.5891 27.0461C63.6129 27.7301 65.678 28.3239 67.7431 28.9177C66.8774 30.8617 66.0118 32.8042 65.1462 34.7482C63.0811 34.1544 61.0174 33.5606 58.9922 32.8766C59.8578 30.9326 60.7235 28.9901 61.5891 27.0461Z" fill="transparent"/>
<path d="M79.8082 33.2046C77.9056 32.2488 75.9217 31.4733 73.8965 30.7893C74.7621 28.8454 75.6278 26.9028 76.4934 24.9589C78.5171 25.6428 80.501 26.4183 82.4051 27.3741C81.5395 29.3181 80.6739 31.2606 79.8082 33.2046Z" fill="black"/>
<path d="M73.8977 30.7893C75.9214 31.4732 77.9053 32.2488 79.8094 33.2045C78.9438 35.1485 78.0781 37.091 77.2125 39.035C75.3099 38.0793 73.326 37.3037 71.3008 36.6198C72.1664 34.6758 73.0321 32.7333 73.8977 30.7893Z" fill="transparent"/>
<path d="M36.7173 49.6399L36.577 49.5778C36.2313 49.4242 36.0747 49.018 36.2299 48.6723L57.3463 1.26474C57.5 0.919075 57.9062 0.762492 58.2519 0.917597L58.3922 0.97964C58.7379 1.13327 58.8944 1.5395 58.7393 1.88516L37.6228 49.2913C37.4692 49.6369 37.063 49.7935 36.7173 49.6384V49.6399Z" fill="black"/>
<path d="M10.7929 39.8091L0.00195312 15.5846L0.422953 15.3733C2.15127 14.5048 4.1056 13.7056 6.3982 12.9315C8.43378 12.2432 10.5373 11.639 12.5729 11.054C14.5981 10.472 16.6913 9.86932 18.7062 9.18834C20.9545 8.42758 22.8674 7.64615 24.5544 6.79972C26.5693 5.78636 28.3139 4.66074 29.8871 3.35638L30.3878 2.94128L41.1935 27.1998L40.9055 27.4391C39.2732 28.7907 37.468 29.9577 35.3852 31.0035C33.6569 31.8721 31.7025 32.6713 29.4099 33.4453C27.3744 34.1337 25.2694 34.7379 23.2353 35.3243C21.21 35.9063 19.1168 36.509 17.1034 37.1885C14.8551 37.9493 12.9422 38.7307 11.2552 39.5772L10.7929 39.8091ZM9.07931 33.5384L11.2744 38.4663C12.8875 37.6849 14.6956 36.9596 16.7858 36.252C18.8214 35.5636 20.9264 34.9595 22.962 34.373C24.9872 33.791 27.0804 33.1883 29.0938 32.5088C31.3421 31.748 33.2551 30.9666 34.942 30.1202C36.8343 29.1689 38.4888 28.1171 39.9866 26.9132L35.2064 16.1829C34.7175 16.5684 34.2123 16.9392 33.6894 17.2952C32.6612 17.9954 31.5637 18.6424 30.3716 19.2495L29.9225 18.3706C31.7336 17.4473 33.3186 16.434 34.7662 15.2729L34.8416 15.3674L30.0111 4.52336C28.5133 5.70364 26.8662 6.74063 24.9961 7.68012C23.2678 8.54871 21.3134 9.34787 19.0208 10.1219C16.9853 10.8103 14.8803 11.4145 12.8447 12.0009C10.8194 12.5829 8.72626 13.1856 6.71285 13.8651C4.65068 14.5624 2.86919 15.2773 1.28711 16.0455L3.48222 20.9734C3.74812 20.8449 4.0214 20.7164 4.29616 20.5908C4.41729 20.5361 4.54137 20.48 4.66398 20.4254L5.0643 21.3279C4.94317 21.3811 4.82351 21.4358 4.70534 21.4889C4.42763 21.6145 4.15287 21.7445 3.88402 21.8745L6.07913 26.8024C6.98317 26.3651 7.94039 25.9471 8.97443 25.5409C9.56235 25.309 10.1754 25.0815 10.8165 24.8569C10.8209 24.8569 10.8239 24.854 10.8283 24.8525C10.8741 24.8363 10.9214 24.82 10.9686 24.8038C11.0425 24.7772 11.1178 24.7521 11.1947 24.7255L11.5167 25.659C11.4384 25.6856 11.3616 25.7122 11.2862 25.7388C11.2862 25.7388 11.2862 25.7388 11.2848 25.7388C11.2818 25.7388 11.2789 25.7418 11.2744 25.7418C11.2729 25.7418 11.2715 25.7418 11.27 25.7432C11.267 25.7432 11.2656 25.7447 11.2626 25.7462C11.2626 25.7462 11.2611 25.7462 11.2596 25.7462C11.2242 25.758 11.1902 25.7713 11.1548 25.7831C10.2153 26.114 9.34077 26.4479 8.51502 26.7906C7.80154 27.0875 7.12646 27.3903 6.47945 27.705L8.67456 32.6329C8.94045 32.5044 9.21373 32.3759 9.48849 32.2503C9.57122 32.2119 9.65542 32.175 9.74109 32.1365C9.74109 32.1365 9.74109 32.1365 9.74257 32.1365C9.75143 32.1321 9.7603 32.1292 9.76916 32.1247C9.76916 32.1247 9.76916 32.1247 9.77064 32.1247C9.78245 32.1188 9.79575 32.1144 9.80757 32.1085C9.81052 32.1085 9.81348 32.1055 9.81643 32.1055C9.82973 32.0996 9.84302 32.0937 9.85631 32.0878L10.2566 32.9904C10.137 33.0435 10.0159 33.0982 9.89768 33.1514C9.61996 33.2769 9.34521 33.4069 9.07636 33.5369L9.07931 33.5384ZM14.8832 31.231L14.573 30.2945C14.9393 30.1734 15.3278 30.0478 15.7252 29.9222L16.0221 30.8632C15.6292 30.9873 15.2466 31.1114 14.8832 31.231ZM16.4018 30.7436L16.1078 29.8011C16.7976 29.5869 17.5348 29.3653 18.427 29.1039L18.7047 30.0507C17.8184 30.3107 17.0857 30.5294 16.4018 30.7436ZM19.0917 29.9385L18.817 28.9901C19.2262 28.8705 19.6339 28.7538 19.9795 28.6548L20.2528 29.6032C19.9086 29.7021 19.5024 29.8188 19.0932 29.9385H19.0917ZM21.0254 29.3816L20.7521 28.4332C21.0106 28.3594 21.2676 28.2855 21.5261 28.2102L21.8009 29.1585C21.5424 29.2339 21.2839 29.3077 21.0269 29.3816H21.0254ZM22.1865 29.0463L21.9117 28.0979C23.1555 27.736 24.1024 27.4509 24.9813 27.1732L25.2782 28.1141C24.3919 28.3933 23.4376 28.6814 22.1865 29.0448V29.0463ZM25.6638 27.993L25.3624 27.0535C25.6209 26.9708 25.875 26.8881 26.1202 26.8068L26.4304 27.7434C26.1823 27.8261 25.9238 27.9103 25.6638 27.993ZM30.7719 26.1096L30.3804 25.2026C30.5016 25.1509 30.6227 25.0977 30.7409 25.0445L31.1412 25.9471C31.122 25.956 31.1028 25.9634 31.0836 25.9722C30.9802 26.018 30.8753 26.0638 30.7704 26.1081L30.7719 26.1096ZM12.2863 25.4005L11.9761 24.464C13.7295 23.882 15.4623 23.3783 17.3811 22.8258L17.6544 23.7742C15.7444 24.3237 14.022 24.8259 12.2863 25.4005ZM33.6879 24.7033L33.2181 23.8347C33.5091 23.6781 33.7972 23.5156 34.0779 23.3517L34.5757 24.204C34.2861 24.3724 33.9878 24.5408 33.6879 24.7018V24.7033ZM35.2744 23.783L34.7544 22.944C34.979 22.8036 35.2035 22.6603 35.4221 22.5156L35.9657 23.3384C35.7397 23.4876 35.5078 23.6368 35.2744 23.7815V23.783ZM18.04 23.6619L17.7667 22.7135C17.8125 22.7002 17.8583 22.6869 17.9041 22.6736C19.4832 22.2201 21.1022 21.7533 22.6902 21.2452C23.0949 21.1152 23.4997 20.9837 23.9 20.8478L24.2161 21.7829C22.2101 22.4609 20.1361 23.0592 18.1271 23.6368C18.0991 23.6456 18.0695 23.653 18.0414 23.6619H18.04ZM36.6482 22.8745L36.0795 22.068C36.1873 21.9912 36.2966 21.9129 36.4044 21.8361L36.985 22.6338C36.8742 22.715 36.7604 22.7962 36.6482 22.8745ZM28.175 20.2791L27.7835 19.3721C27.9047 19.3204 28.0258 19.2672 28.144 19.2141L28.5443 20.1166C28.4217 20.1713 28.2976 20.2245 28.175 20.2776V20.2791ZM9.68791 19.5701L9.3777 18.6335C9.80313 18.4917 10.233 18.3543 10.6629 18.2184C12.1652 17.7472 13.6867 17.3085 15.1698 16.883L15.4431 17.8314C13.7768 18.31 12.0588 18.8049 10.3837 19.3426C10.1503 19.4179 9.91836 19.4932 9.68791 19.5701ZM15.8301 17.7206L15.5568 16.7723C15.8153 16.6984 16.0723 16.6245 16.3309 16.5492L16.6056 17.4976C16.3471 17.5729 16.0886 17.6468 15.8316 17.7206H15.8301ZM16.9926 17.3838L16.7179 16.4355C17.9617 16.0735 18.9086 15.7884 19.7875 15.5107L20.0844 16.4517C19.1981 16.7309 18.2438 17.0189 16.9926 17.3823V17.3838ZM20.4685 16.332L20.1671 15.3926C20.4256 15.3098 20.6797 15.2271 20.9249 15.1459L21.2351 16.0824C20.987 16.1651 20.7285 16.2493 20.467 16.332H20.4685ZM28.4926 13.0423L28.0228 12.1737C28.3139 12.0172 28.6019 11.8547 28.8826 11.6907L29.3804 12.543C29.0923 12.7114 28.7925 12.8798 28.4926 13.0409V13.0423ZM30.0806 12.122L29.5606 11.283C29.7851 11.1441 30.0097 10.9994 30.2283 10.8561L30.7719 11.6789C30.5459 11.8281 30.314 11.9773 30.0806 12.122ZM31.4544 11.2136L30.8856 10.407C30.995 10.3302 31.1043 10.2519 31.2106 10.1751L31.7912 10.9728C31.6804 11.054 31.5666 11.1353 31.4544 11.2136Z" fill="black"/>
<path d="M27.2649 13.1281C29.1675 12.1723 30.9904 11.0334 32.6921 9.62419C31.8264 7.6802 30.9608 5.73769 30.0952 3.7937C28.3935 5.20294 26.5721 6.34186 24.668 7.29761C25.5336 9.24159 26.3992 11.1841 27.2649 13.1281Z" fill="black"/>
<path d="M21.3528 15.5432C23.3765 14.8592 25.3604 14.0837 27.2645 13.128C26.3989 11.184 25.5332 9.24147 24.6676 7.29749C22.765 8.25323 20.7811 9.02876 18.7559 9.7127C19.6215 11.6567 20.4871 13.5992 21.3528 15.5432Z" fill="transparent"/>
<path d="M27.2633 13.1281C25.3607 14.0838 23.3768 14.8593 21.3516 15.5433C22.2172 17.4873 23.0828 19.4298 23.9485 21.3737C25.9722 20.6898 27.9561 19.9143 29.8602 18.9585C28.9946 17.0145 28.1289 15.072 27.2633 13.1281Z" fill="black"/>
<path d="M32.6889 9.62256C30.9872 11.0318 29.1658 12.1707 27.2617 13.1265C28.1274 15.0705 28.993 17.013 29.8586 18.9569C31.7613 18.0012 33.5841 16.8623 35.2858 15.453C34.4202 13.5091 33.5546 11.5665 32.6889 9.62256Z" fill="transparent"/>
<path d="M15.1985 17.4149C17.2636 16.821 19.3272 16.2272 21.3525 15.5433C20.4868 13.5993 19.6212 11.6568 18.7556 9.71277C16.7318 10.3967 14.6667 10.9905 12.6016 11.5844C13.4672 13.5284 14.3328 15.4709 15.1985 17.4149Z" fill="black"/>
<path d="M9.04417 19.2863C11.0679 18.6024 13.133 18.0085 15.1982 17.4147C14.3325 15.4707 13.4669 13.5282 12.6013 11.5842C10.5361 12.1781 8.4725 12.7719 6.44727 13.4558C7.3129 15.3998 8.17854 17.3423 9.04417 19.2863Z" fill="transparent"/>
<path d="M15.1989 17.4148C13.1338 18.0086 11.0702 18.6025 9.04492 19.2864C9.91056 21.2304 10.7762 23.1729 11.6418 25.1169C13.6656 24.4329 15.7307 23.8391 17.7958 23.2453C16.9302 21.3013 16.0645 19.3588 15.1989 17.4148Z" fill="black"/>
<path d="M21.3513 15.5432C19.3275 16.2272 17.2624 16.821 15.1973 17.4148C16.0629 19.3588 16.9285 21.3013 17.7942 23.2453C19.8593 22.6515 21.9229 22.0576 23.9482 21.3737C23.0825 19.4297 22.2169 17.4872 21.3513 15.5432Z" fill="transparent"/>
<path d="M3.13206 21.7018C5.03469 20.746 7.01856 19.9705 9.04379 19.2865C8.17816 17.3426 7.31252 15.4 6.44689 13.4561C4.42313 14.14 2.43926 14.9155 0.535156 15.8713C1.40079 17.8153 2.26643 19.7578 3.13206 21.7018Z" fill="black"/>
<path d="M9.04259 19.2865C7.01883 19.9704 5.03496 20.746 3.13086 21.7017C3.9965 23.6457 4.86213 25.5882 5.72777 27.5322C7.63039 26.5765 9.61426 25.8009 11.6395 25.117C10.7739 23.173 9.90822 21.2305 9.04259 19.2865Z" fill="transparent"/>
<path d="M32.4582 24.789C34.3609 23.8332 36.1837 22.6943 37.8854 21.2851C37.0198 19.3411 36.1542 17.3986 35.2885 15.4546C33.5868 16.8638 31.7654 18.0027 29.8613 18.9585C30.727 20.9025 31.5926 22.845 32.4582 24.789Z" fill="black"/>
<path d="M26.5461 27.2042C28.5699 26.5203 30.5538 25.7447 32.4579 24.789C31.5922 22.845 30.7266 20.9025 29.8609 18.9585C27.9583 19.9142 25.9745 20.6898 23.9492 21.3737C24.8149 23.3177 25.6805 25.2602 26.5461 27.2042Z" fill="transparent"/>
<path d="M32.4567 24.7891C30.554 25.7448 28.5702 26.5203 26.5449 27.2043C27.4106 29.1483 28.2762 31.0908 29.1418 33.0348C31.1656 32.3508 33.1495 31.5753 35.0536 30.6195C34.1879 28.6756 33.3223 26.733 32.4567 24.7891Z" fill="black"/>
<path d="M37.8842 21.285C36.1825 22.6943 34.3611 23.8332 32.457 24.7889C33.3227 26.7329 34.1883 28.6754 35.0539 30.6194C36.9566 29.6637 38.7794 28.5248 40.4811 27.1155C39.6155 25.1715 38.7499 23.229 37.8842 21.285Z" fill="transparent"/>
<path d="M20.3918 29.0757C22.4569 28.4819 24.5206 27.8881 26.5458 27.2041C25.6802 25.2602 24.8145 23.3176 23.9489 21.3737C21.9252 22.0576 19.86 22.6514 17.7949 23.2453C18.6606 25.1892 19.5262 27.1318 20.3918 29.0757Z" fill="black"/>
<path d="M14.2375 30.9475C16.2613 30.2635 18.3264 29.6697 20.3915 29.0758C19.5259 27.1319 18.6602 25.1893 17.7946 23.2454C15.7295 23.8392 13.6659 24.433 11.6406 25.117C12.5063 27.061 13.3719 29.0035 14.2375 30.9475Z" fill="transparent"/>
<path d="M20.3923 29.0758C18.3272 29.6696 16.2635 30.2635 14.2383 30.9474C15.1039 32.8914 15.9696 34.8339 16.8352 36.7779C18.8589 36.094 20.9241 35.5001 22.9892 34.9063C22.1235 32.9623 21.2579 31.0198 20.3923 29.0758Z" fill="black"/>
<path d="M26.5446 27.2041C24.5209 27.888 22.4557 28.4819 20.3906 29.0757C21.2563 31.0197 22.1219 32.9622 22.9875 34.9062C25.0526 34.3124 27.1163 33.7185 29.1415 33.0346C28.2759 31.0906 27.4103 29.1481 26.5446 27.2041Z" fill="transparent"/>
<path d="M8.32738 33.3641C10.23 32.4084 12.2139 31.6328 14.2391 30.9489C13.3735 29.0049 12.5078 27.0624 11.6422 25.1184C9.61844 25.8023 7.63457 26.5779 5.73047 27.5336C6.5961 29.4776 7.46174 31.4201 8.32738 33.3641Z" fill="black"/>
<path d="M14.2379 30.9474C12.2141 31.6313 10.2303 32.4069 8.32617 33.3626C9.19181 35.3066 10.0574 37.2491 10.9231 39.1931C12.8257 38.2373 14.8096 37.4618 16.8348 36.7779C15.9692 34.8339 15.1035 32.8914 14.2379 30.9474Z" fill="transparent"/>
<path d="M51.4179 49.7978L51.5582 49.7358C51.9039 49.5822 52.0605 49.1759 51.9053 48.8303L30.7889 1.42416C30.6352 1.0785 30.229 0.921916 29.8833 1.07702L29.743 1.13906C29.3973 1.29269 29.2408 1.69892 29.3959 2.04458L50.5124 49.4507C50.666 49.7964 51.0722 49.9529 51.4179 49.7978Z" fill="black"/>
</g>
<defs>
<clipPath id="clip0_1644_770">
<rect width="88.1309" height="49" fill="transparent" transform="translate(0 0.858398)"/>
</clipPath>
</defs>
</svg>
