<svg width="72" height="83" viewBox="0 0 72 83" fill="none" xmlns="http://www.w3.org/2000/svg">
<path fill-rule="evenodd" clip-rule="evenodd" d="M39.3573 15.3949L40.2419 13.8134L41.1266 12.233H39.3573H37.5869L38.4715 13.8134L39.3573 15.3949Z" fill="#0C0C0C"/>
<path fill-rule="evenodd" clip-rule="evenodd" d="M39.3573 69.9991L40.2419 71.5806L41.1266 73.161H39.3573H37.5869L38.4715 71.5806L39.3573 69.9991Z" fill="#0C0C0C"/>
<path fill-rule="evenodd" clip-rule="evenodd" d="M12.3476 42.6965L10.7842 41.8023L9.21973 40.9081V42.6965V44.4862L10.7842 43.5919L12.3476 42.6965Z" fill="#0C0C0C"/>
<path fill-rule="evenodd" clip-rule="evenodd" d="M20.2586 23.3914L19.779 21.6406L19.2982 19.8899L18.0471 21.1558L16.7959 22.4205L18.5267 22.9054L20.2586 23.3914Z" fill="#0C0C0C"/>
<path fill-rule="evenodd" clip-rule="evenodd" d="M20.2586 62.0024L18.5267 62.4873L16.7959 62.9733L18.0471 64.238L19.2982 65.5039L19.779 63.7532L20.2586 62.0024Z" fill="#0C0C0C"/>
<path fill-rule="evenodd" clip-rule="evenodd" d="M58.4551 23.3914L58.9359 21.6406L59.4155 19.8899L60.6667 21.1558L61.9189 22.4205L60.187 22.9054L58.4551 23.3914Z" fill="#0C0C0C"/>
<path fill-rule="evenodd" clip-rule="evenodd" d="M30.7476 76.1924C23.1909 74.213 16.8514 69.8036 12.3661 63.9876L15.3118 59.3026L6.71777 64.8052C11.9283 72.6692 19.9126 78.675 29.6401 81.1782L30.7476 76.1913V76.1924Z" fill="#0C0C0C"/>
<path fill-rule="evenodd" clip-rule="evenodd" d="M57.3271 72.1512C51.1403 76.0095 43.742 77.8917 36.131 77.1542L34.9421 71.7842L33.8176 76.8477L32.709 81.8426C42.4874 83.5476 52.1245 81.4149 60.0307 76.468L57.3259 72.1524L57.3271 72.1512Z" fill="#0C0C0C"/>
<path fill-rule="evenodd" clip-rule="evenodd" d="M48.7853 9.42678C55.6282 11.4016 61.4292 15.3857 65.6985 20.5921L63.0978 24.9501L71.3592 19.6602C66.2981 12.4708 58.8658 6.9522 49.8928 4.4353L48.7842 9.42792L48.7853 9.42678Z" fill="#0C0C0C"/>
<path fill-rule="evenodd" clip-rule="evenodd" d="M23.3994 12.0807C29.3916 8.88455 36.3419 7.46315 43.4439 8.33451L44.626 13.6759L46.8387 3.70782C37.5886 1.88848 28.4221 3.52371 20.6855 7.75246L23.3983 12.0818L23.3994 12.0807Z" fill="#0C0C0C"/>
<path fill-rule="evenodd" clip-rule="evenodd" d="M6.6704 32.4C8.85822 25.2758 13.1728 19.3146 18.7317 15.0767L23.3619 17.9481L20.7838 13.8337L20.6899 13.6896H20.6921L17.9873 9.3717C10.3922 14.3483 4.48145 21.963 1.72461 31.2782L6.6704 32.4Z" fill="#0C0C0C"/>
<path fill-rule="evenodd" clip-rule="evenodd" d="M0.94399 34.3524C-1.14768 44.181 0.560499 53.9558 5.07755 62.1023L9.35364 59.3635C5.88299 52.9861 4.37957 45.4858 5.45764 37.8447L10.9057 36.612L5.87733 35.4719L0.942859 34.3524H0.94399Z" fill="#0C0C0C"/>
<path opacity="0.27" d="M66.2509 20.1301L66.5756 20.5257L65.2803 22.6961L68.6469 20.5406L68.5123 20.3611C63.9013 14.2203 57.4951 9.65655 50.2031 7.37065L49.9916 7.30432L49.6318 8.92469L49.8117 8.98187C56.2541 11.0162 61.9431 14.8779 66.2509 20.1312V20.1301Z" fill="#0C0C0C"/>
<path opacity="0.27" d="M6.24691 31.3721C8.49356 24.6379 12.6871 18.7773 18.3003 14.4994L18.6894 14.2021L21.1035 15.7001L20.1815 14.2284L19.6917 13.4725L19.703 13.4656L18.8376 12.0831L18.6623 12.2043C12.1169 16.7521 7.17679 23.3468 4.65638 30.9684L4.58398 31.1857L6.18695 31.5493L6.24578 31.3732L6.24691 31.3721Z" fill="#0C0C0C"/>
<path opacity="0.27" d="M23.8187 11.0507C29.924 7.98149 36.759 6.78537 43.5306 7.61671L44.0329 7.67846L44.6279 10.3657L45.5419 6.24791L45.3281 6.21246C43.3552 5.88542 41.3575 5.7196 39.3574 5.7196C33.6594 5.7196 28.0699 7.04495 22.9759 9.62817L22.7734 9.73108L23.6535 11.1353L23.8187 11.0519V11.0507Z" fill="#0C0C0C"/>
<path opacity="0.27" d="M4.96419 49.0294C4.29336 45.3096 4.22209 41.4856 4.74925 37.7429L4.81939 37.2477L7.63166 36.6119L3.43927 35.6605L3.40081 35.8709C2.98565 38.1214 2.77637 40.4073 2.77637 42.6966C2.77637 48.6647 4.18363 54.5103 6.91897 59.8003L7.02192 59.9993L8.40769 59.1119L8.32171 58.9438C6.72214 55.8265 5.58863 52.4829 4.96532 49.0294H4.96419Z" fill="#0C0C0C"/>
<path opacity="0.27" d="M11.8014 64.4327L11.4915 64.0302L12.9904 61.6482L9.41113 63.9398L9.5367 64.1182C14.3513 70.9542 21.3367 75.9708 29.3323 78.2693L29.5404 78.3288L29.899 76.7118L29.7135 76.6581C22.5969 74.5986 16.3536 70.3355 11.8026 64.4327H11.8014Z" fill="#0C0C0C"/>
<path d="M39.3575 12.5215C40.491 12.5215 41.6098 12.5878 42.7105 12.7124L42.1845 11.2533C41.2535 11.1687 40.3112 11.1229 39.3575 11.1229C34.2703 11.1229 29.4671 12.3534 25.2227 14.5341L26.001 15.705C30.0203 13.6684 34.5554 12.5215 39.3575 12.5215Z" fill="#0C0C0C"/>
<path d="M62.4902 23.6274L63.1712 22.2689C59.2481 17.601 54.007 14.1007 48.0273 12.3568L47.7207 13.7245C53.5941 15.4546 58.7186 18.9595 62.4891 23.6274H62.4902Z" fill="#0C0C0C"/>
<path d="M22.8985 17.5221L21.394 16.8657C15.8566 20.8074 11.645 26.5216 9.56348 33.1929L10.9097 33.5314C12.9957 26.9104 17.2808 21.282 22.8985 17.5221Z" fill="#0C0C0C"/>
<path d="M9.79065 38.5215L8.33248 39.0223C8.19447 40.2276 8.12207 41.4535 8.12207 42.6965C8.12207 48.3535 9.59495 53.6617 12.1719 58.253L13.3495 57.5154C10.9027 53.138 9.50558 48.0825 9.50558 42.6965C9.50558 41.2797 9.60287 39.8857 9.78952 38.5215H9.79065Z" fill="#0C0C0C"/>
<path d="M39.3579 72.873C38.5117 72.873 37.6746 72.8364 36.8477 72.7667L37.3793 74.2086C38.0343 74.2498 38.6938 74.2715 39.359 74.2715C45.3614 74.2715 50.9667 72.5585 55.7269 69.5922L54.9882 68.4087C50.4418 71.2389 45.0899 72.8719 39.359 72.8719L39.3579 72.873Z" fill="#0C0C0C"/>
<path d="M15.9505 61.4253L15.291 62.825C19.4529 67.9045 25.1588 71.6438 31.6804 73.3099L31.9757 71.9423C25.5457 70.2887 19.9495 66.5254 15.9505 61.4253Z" fill="#0C0C0C"/>
<path fill-rule="evenodd" clip-rule="evenodd" d="M28.1002 32.4906C28.641 32.0492 29.236 31.6845 29.8751 31.4077C30.5935 31.0967 31.3548 30.9297 32.1365 30.9297H35.5314L27.0663 20.5728L10.3477 0.118652L23.0741 23.3253L28.1002 32.4918V32.4906Z" fill="#0C0C0C"/>
</svg>
