<svg width="163" height="63" viewBox="0 0 163 63" fill="none" xmlns="http://www.w3.org/2000/svg">
<path fill-rule="evenodd" clip-rule="evenodd" d="M3.52265 62.4951C-6.12816 47.8395 13.7425 40.9866 23.3374 40.0592C35.4032 38.8919 44.2362 39.2391 53.2649 40.1641C73.5172 28.3301 77.1753 23.6072 100.115 26.0327C114.29 27.6043 128.244 31.3474 141.654 36.9872C144.217 38.052 149.601 36.2707 153.009 35.567C154.919 35.0137 155.208 35.8059 154.389 37.4695C153.334 39.1983 152.882 40.9144 152.822 42.1842C156.08 43.849 159.298 45.6268 162.473 47.5141C137.884 41.3396 116.925 39.5269 99.5933 42.0747C107.137 40.2212 114.159 39.0306 120.66 38.5017C124.208 38.2617 123.96 36.8252 120.845 35.5857C114.068 33.6401 107.156 32.0907 100.387 31.062C82.8465 28.3977 73.2947 31.0305 57.8993 40.6814C69.7647 42.0945 82.9257 44.2055 104.753 45.0047C78.2948 48.2771 51.3602 41.8079 24.0247 44.5363C13.351 45.6011 2.03845 51.9099 3.52265 62.4951Z" fill="black"/>
<path fill-rule="evenodd" clip-rule="evenodd" d="M81.4444 19.8338C82.0525 20.6074 82.4848 21.5254 82.6793 22.5273C78.2081 23.1599 74.4684 24.4146 70.6368 26.2424C70.3082 25.4759 70.1253 24.6324 70.1253 23.7459C70.1253 20.6994 72.2747 18.1562 75.1406 17.5493L78.5937 11.4295C67.4027 12.8963 58.0012 20.047 53.3855 29.89C52.245 32.3214 51.7627 33.9 51.0485 36.5725C50.0688 36.4874 49.0937 36.4105 48.1221 36.3441C51.3398 21.0477 64.4029 9.37915 80.3749 8.27357L85.0477 -0.00488281L82.8273 12.2194L81.4444 19.8338ZM107.785 22.7661C102.377 16.3318 94.5226 12.0225 85.6535 11.2688L86.1848 8.34114C97.0751 9.35235 106.537 15.281 112.332 23.8857C110.802 23.4733 109.287 23.0993 107.785 22.7661Z" fill="black"/>
</svg>
