<svg width="63" height="54" viewBox="0 0 63 54" fill="none" xmlns="http://www.w3.org/2000/svg">
<g clip-path="url(#clip0_1644_721)">
<path d="M52.8527 18.2316L50.8105 17.9662L52.5772 16.9088L52.1986 14.884L53.7505 16.2373L55.5592 15.2524L54.7528 17.1467L56.2482 18.5623L54.1973 18.3795L53.3125 20.239L52.8527 18.2316Z" fill="black"/>
<path d="M9.54387 18.2316L11.5861 17.9662L9.81945 16.9088L10.1966 14.884L8.64461 16.2373L6.83594 15.2524L7.64382 17.1467L6.14844 18.5623L8.19933 18.3795L9.08409 20.239L9.54387 18.2316Z" fill="black"/>
<path d="M31.1971 6.8442L28.5777 8.66738L29.5016 5.61279L26.959 3.68373L30.1499 3.61847L31.1971 0.604492L32.2458 3.61847L35.4367 3.68373L32.8927 5.61279L33.818 8.66738L31.1971 6.8442Z" fill="black"/>
<path d="M44.4531 10.9198L41.7988 11.3796L43.5944 9.37368L42.3369 6.99064L44.8012 8.07991L46.678 6.14795L46.4039 8.82688L48.8218 10.0148L46.1893 10.5833L45.8063 13.2492L44.4531 10.9198Z" fill="black"/>
<path d="M18.04 10.9401L20.6943 11.3999L18.8972 9.39248L20.1548 7.01089L17.6919 8.09871L15.8151 6.16675L16.0878 8.84713L13.6699 10.035L16.3039 10.6021L16.6868 13.268L18.04 10.9401Z" fill="black"/>
<path d="M31.2943 42.9089C41.8707 42.9089 50.3557 46.7946 53.2116 48.2784C54.9028 42.1779 57.9936 32.4296 62.3956 24.3276L52.8229 29.758C51.5363 30.4875 50.7415 31.8553 50.743 33.3347V33.3579C50.743 37.4278 47.3649 40.7101 43.2602 40.552C39.5109 40.4084 36.465 37.3393 36.3461 33.5885C36.262 30.8922 37.6645 28.5236 39.7908 27.2212C39.7908 27.2212 37.7936 24.915 35.5251 21.038C32.604 16.0457 31.1971 12.292 31.1971 12.292C31.1971 12.292 29.7902 16.0442 26.869 21.038C24.6006 24.915 22.6033 27.2212 22.6033 27.2212C24.7297 28.5236 26.1337 30.8936 26.0481 33.59C25.9306 37.3407 22.8833 40.4098 19.1339 40.5534C15.0293 40.7101 11.6512 37.4292 11.6512 33.3593V33.3361C11.6541 31.8567 10.8593 30.489 9.57132 29.7594L0 24.3276C4.42233 32.4702 7.52333 42.22 9.20872 48.2856C12.0878 46.8091 20.696 42.9089 31.2943 42.9089Z" fill="black"/>
<path d="M31.2941 46.1826C20.9207 46.1826 12.3545 50.2815 10.1484 51.436C10.1557 51.465 10.1629 51.4926 10.1702 51.5201C10.6488 53.3375 12.633 54.2861 14.3576 53.5391C19.6704 51.2402 25.3982 49.9377 31.2869 49.9377C37.1756 49.9377 42.8931 51.3229 48.0595 53.5507C49.7855 54.2948 51.7697 53.3491 52.2483 51.5303C52.257 51.4969 52.2657 51.4636 52.2744 51.4302C50.1032 50.2757 41.6632 46.1812 31.2941 46.1812V46.1826Z" fill="black"/>
</g>
<defs>
<clipPath id="clip0_1644_721">
<rect width="62.3956" height="53.2014" fill="white" transform="translate(0 0.604492)"/>
</clipPath>
</defs>
</svg>
