<svg width="139" height="48" viewBox="0 0 139 48" fill="none" xmlns="http://www.w3.org/2000/svg">
<g clip-path="url(#clip0_735_501)">
<path d="M78.9621 44.1755C78.4111 44.4561 77.7376 44.7827 76.9518 45.048C76.559 45.1858 76.1406 45.3082 75.6967 45.4001C75.2528 45.497 74.7885 45.5684 74.2987 45.599C73.814 45.6348 73.3088 45.6297 72.7884 45.5939C72.5282 45.5735 72.2629 45.548 71.9925 45.5072C71.8598 45.4868 71.722 45.4613 71.5843 45.4409L71.472 45.4205H71.4414C71.4414 45.4205 71.4567 45.4205 71.4414 45.4154H71.4312L71.3802 45.4001L71.1812 45.3592C70.6506 45.247 70.1148 45.0939 69.5893 44.8847C69.0638 44.6806 68.5433 44.4306 68.0484 44.1296C67.0535 43.5224 66.13 42.7316 65.3493 41.7877C64.9565 41.3183 64.5993 40.808 64.2779 40.2723C63.9564 39.7366 63.6758 39.1651 63.4309 38.5784C63.4054 38.5171 63.385 38.4559 63.3595 38.3947C63.339 38.3181 63.3186 38.2416 63.2982 38.1651C63.2115 37.8283 63.1401 37.4763 63.0788 37.1089C63.0176 36.7467 62.9666 36.3691 62.936 35.9813C62.9054 35.5935 62.8798 35.2007 62.8747 34.7976C62.8594 33.9914 62.9105 33.1598 63.0125 32.323C63.038 32.1138 63.0686 31.9046 63.1043 31.6954C63.135 31.4862 63.1758 31.277 63.2166 31.0679C63.2982 30.6495 63.4054 30.2362 63.5125 29.828C63.6248 29.4198 63.7574 29.0168 63.9054 28.629C63.9768 28.4351 64.0534 28.2412 64.135 28.0524C64.1758 27.9606 64.2217 27.8636 64.2626 27.7769C64.283 27.731 64.2983 27.6953 64.3289 27.6443L64.4054 27.4912L64.5483 27.2208C64.5942 27.1289 64.6503 27.0371 64.6962 26.9452C64.7983 26.7667 64.9003 26.5881 65.0126 26.4146C65.232 26.0728 65.4565 25.7411 65.6963 25.435C65.9361 25.1288 66.1861 24.8431 66.4514 24.5778C66.7116 24.3125 66.9872 24.0829 67.2678 23.8686C67.829 23.4451 68.4209 23.1339 69.0127 22.9247C69.6046 22.7155 70.1863 22.6083 70.7118 22.5624C71.2424 22.5165 71.7169 22.5369 72.1098 22.5675C72.5027 22.6083 72.8139 22.6594 73.0282 22.7053C73.2425 22.7512 73.3547 22.7818 73.3547 22.7818C73.3547 22.7818 73.2629 22.7053 73.0792 22.5879C72.8904 22.4706 72.6098 22.3073 72.2221 22.144C71.8394 21.9808 71.3445 21.8175 70.7577 21.7154C70.171 21.6134 69.4771 21.5777 68.7219 21.6848C68.3444 21.7359 67.9566 21.8277 67.5637 21.9553C67.1657 22.0777 66.7729 22.2563 66.3851 22.4604C65.9973 22.6696 65.6147 22.9196 65.2524 23.2002C64.885 23.4808 64.5432 23.7972 64.2166 24.1441C63.8901 24.486 63.5789 24.8533 63.2982 25.2411C63.2013 25.3687 63.1146 25.5013 63.0227 25.634C63.1707 25.2258 63.3288 24.8329 63.5074 24.4605C63.9309 23.5625 64.4411 22.7869 64.9616 22.1389C65.482 21.4909 66.0126 20.9807 66.482 20.5827C66.9514 20.1848 67.3545 19.9093 67.6402 19.7307C67.926 19.5521 68.0892 19.4705 68.0892 19.4705C68.0892 19.4705 67.9056 19.4858 67.5688 19.5572C67.2321 19.6337 66.7422 19.7715 66.1453 20.0317C65.5483 20.2919 64.8391 20.6797 64.1044 21.2409C63.3697 21.8073 62.6043 22.5522 61.9155 23.491C61.2267 24.4298 60.6247 25.5523 60.1706 26.8075C59.7165 28.0626 59.4154 29.4402 59.2675 30.8689C59.1909 31.5832 59.1501 32.3128 59.1552 33.0373V33.2975C59.1552 33.3894 59.1552 33.4863 59.1603 33.5833C59.1654 33.7771 59.1756 33.971 59.1807 34.1649C59.1909 34.3537 59.2062 34.5425 59.2266 34.7313L59.2522 35.017L59.2879 35.3027C59.3695 36.063 59.5175 36.8232 59.7012 37.5834C59.8848 38.3437 60.1348 39.0937 60.441 39.8284C60.7471 40.5631 61.1043 41.2774 61.5278 41.9611C61.9512 42.6397 62.4309 43.2826 62.9666 43.8745C64.033 45.0582 65.3085 46.0276 66.6708 46.7011C67.3545 47.0328 68.0586 47.2981 68.7576 47.492C69.4617 47.6808 70.1658 47.7981 70.8547 47.8542C70.9414 47.8593 71.0281 47.8644 71.1098 47.8746H71.171L71.2169 47.8797H71.2475H71.3598C71.5282 47.8797 71.6914 47.8797 71.8547 47.8797C72.1812 47.8797 72.5078 47.8593 72.8241 47.8338C73.4619 47.7726 74.0742 47.6654 74.6456 47.5124C75.2171 47.3593 75.7477 47.1552 76.2273 46.9409C76.712 46.7164 77.1406 46.4664 77.5335 46.2164C77.9213 45.9613 78.2682 45.7011 78.5692 45.4511C78.8703 45.196 79.1356 44.9562 79.3652 44.7266C79.8244 44.2674 80.1509 43.8847 80.3601 43.6143C80.4673 43.4816 80.5438 43.3745 80.5999 43.303C80.651 43.2316 80.6816 43.1959 80.6816 43.1959C80.6816 43.1959 80.5234 43.2877 80.2326 43.4663C79.9417 43.6398 79.5132 43.8898 78.9621 44.1755Z" fill="black"/>
<path d="M16.347 21.2921C11.9132 14.8122 7.44873 15.8225 7.44873 15.8225C7.44873 15.8225 17.5052 15.7663 17.1787 38.2111C17.1787 38.2111 44.838 40.2826 56.3945 41.2929C56.3945 41.2929 36.8479 38.0121 22.5616 36.0018C20.9952 35.7824 20.6737 34.6752 20.5105 33.8079C19.9747 30.9098 18.3777 24.2667 16.347 21.2972V21.2921Z" fill="black"/>
<path d="M30.8529 9.82726C30.8529 9.82726 31.506 9.22009 33.4602 7.92923C38.3532 4.6944 42.0064 4.19949 45.8637 3.9903C51.9558 3.65865 54.3845 8.86804 55.0784 10.0262C55.5376 10.7916 57.1907 13.057 53.211 13.8223C53.2365 13.7713 55.2212 9.70991 50.7721 9.74562C46.7668 9.78134 46.0372 11.8375 46.0372 11.8375C47.6444 11.8375 50.1751 11.858 51.5987 12.0722C51.9609 12.1284 52.2517 13.1386 50.7415 14.2152C49.4047 14.3938 46.7464 14.7356 44.4606 14.6846C44.4606 14.6846 61.298 16.1693 60.0429 13.4345C59.3336 11.8988 51.7568 4.99544 55.4866 3.88315C60.5327 2.38309 68.5993 1.88307 78.6354 3.74029C78.6456 3.74029 72.727 0.786087 55.4713 0.775883C38.6951 0.770781 30.0162 5.69444 25.0874 9.13846C25.0874 9.13846 28.3069 9.41908 30.858 9.82726H30.8529Z" fill="black"/>
<path d="M105.728 38.8182C104.243 35.563 104.146 34.8844 109.111 34.7058C121.912 34.2415 129.05 32.022 129.05 32.022C129.05 32.022 112.162 33.0476 99.2023 31.0322C96.7583 30.6393 90.5591 28.6342 87.2885 25.3687C80.6658 18.7511 79.4923 17.547 81.0791 16.0775C82.3904 14.8683 88.161 16.9959 89.2682 18.3991C93.151 23.3074 90.1917 23.8789 112.295 26.6086C112.295 26.6086 99.6002 18.3685 89.4366 15.2765C78.7117 12.0111 70.7522 13.8275 66.7673 14.6438C62.7876 15.4551 58.3282 17.149 49.8585 16.3429C41.3888 15.5367 25.0463 15.4857 32.4139 12.5009C32.4139 12.5009 13.4234 7.12821 5.11182 14.3734C5.39244 14.1387 9.6273 10.7151 16.7092 13.5979C21.9543 15.7306 23.0564 20.3583 25.0259 24.5269C27.3321 29.3995 29.0873 34.9354 56.3536 36.711C56.3536 36.711 39.7815 34.5681 33.0415 29.1291C27.5566 24.7003 26.9341 20.9196 27.3066 16.5367C27.3066 16.5367 38.8019 18.0725 47.8329 18.5981C55.7005 19.0573 58.9405 20.8481 59.7364 23.1748C59.7364 23.1748 63.6958 15.3428 71.4257 16.6439C76.7626 17.5368 80.8342 22.1492 82.5077 31.1802C83.9415 38.8999 81.8801 48.2523 94.0286 46.8696C94.0286 46.8696 88.3549 45.8338 88.1865 40.2826C88.0947 37.3335 87.8804 35.7569 89.1049 34.7926C90.6356 33.5884 93.9521 34.2874 96.3654 34.8283C96.3654 34.8283 98.2073 37.0478 99.7074 38.4611C102.35 40.9459 104.702 44.247 122.137 41.3489C122.137 41.3489 107.203 42.0735 105.713 38.8182H105.728Z" fill="black"/>
<path d="M138.337 39.7468C138.291 39.5529 138.235 39.3845 138.173 39.2263C137.933 38.609 137.673 38.1345 137.449 37.66C137.224 37.1905 137.035 36.7364 136.913 36.3028C136.78 35.8282 136.673 35.3333 136.576 34.8639C136.398 33.9149 136.285 32.9965 136.265 32.1546C136.26 31.7362 136.265 31.3281 136.301 30.9505C136.321 30.7668 136.336 30.5933 136.377 30.3944C136.393 30.2974 136.408 30.2158 136.433 30.1035C136.449 29.9964 136.464 29.8943 136.464 29.7872C136.479 29.3688 136.357 28.9963 136.204 28.7055C136.051 28.4096 135.862 28.1749 135.683 27.9861C135.316 27.6085 134.984 27.384 134.755 27.2361C134.525 27.0932 134.393 27.032 134.393 27.032C134.393 27.032 134.51 27.1187 134.709 27.3024C134.908 27.481 135.194 27.7616 135.469 28.1698C135.607 28.3739 135.745 28.6086 135.836 28.8739C135.928 29.1443 135.974 29.4402 135.918 29.7413C135.893 29.8892 135.847 30.027 135.77 30.2158C135.699 30.3842 135.632 30.5933 135.566 30.7974C135.449 31.2005 135.357 31.6342 135.296 32.0934C135.229 32.5526 135.194 33.0271 135.183 33.522C135.168 34.017 135.183 34.5272 135.224 35.0527C135.265 35.5782 135.331 36.1089 135.428 36.665C135.541 37.262 135.74 37.8181 135.954 38.3488C136.061 38.6141 136.168 38.8743 136.275 39.1243C136.382 39.3743 136.479 39.6192 136.551 39.8386C136.586 39.9458 136.612 40.0529 136.627 40.1345C136.632 40.1652 136.638 40.1907 136.638 40.2162H136.627L136.541 40.2825C136.143 40.5478 135.173 41.5274 127.734 43.4816C123.749 44.5276 116.035 45.3541 116.035 45.3541C116.035 45.3541 116.178 45.3643 116.448 45.3796C116.713 45.3898 117.111 45.4205 117.611 45.4307C118.111 45.446 118.718 45.4613 119.417 45.4613C120.111 45.4613 120.902 45.446 121.759 45.4154C122.617 45.3796 123.545 45.3337 124.53 45.2521C125.51 45.1705 126.545 45.0633 127.617 44.9153C127.882 44.8745 128.152 44.8439 128.423 44.798C128.693 44.7521 128.969 44.7061 129.239 44.6602C129.79 44.5633 130.341 44.4612 130.903 44.3337C132.02 44.0939 133.148 43.7928 134.27 43.4051C134.826 43.2061 135.387 42.9867 135.933 42.7265C136.071 42.6653 136.209 42.5938 136.342 42.5275C136.474 42.4561 136.612 42.3846 136.745 42.3081C136.877 42.2316 137.015 42.155 137.143 42.0683C137.27 41.9918 137.428 41.8795 137.541 41.803L137.627 41.7417L137.668 41.7111L137.709 41.6805L137.75 41.6499C137.857 41.5632 137.964 41.456 138.061 41.3285C138.255 41.0734 138.362 40.7315 138.377 40.4611C138.398 40.1805 138.362 39.956 138.316 39.7621L138.337 39.7468ZM136.653 40.2825C136.653 40.2825 136.653 40.2774 136.653 40.257C136.653 40.2723 136.653 40.2774 136.653 40.2825Z" fill="black"/>
<path d="M13.4545 8.90388C17.8271 8.36304 22.3834 8.90388 22.3834 8.90388C12.8626 5.12822 18.7914 5.14353 22.2814 4.95984C28.6235 4.6333 32.4042 3.68428 32.4042 3.68428C32.4042 3.68428 18.47 3.44958 12.8881 3.60775C9.96966 3.68939 6.6481 4.09246 7.85733 5.73539C9.03084 7.33239 13.4596 8.90388 13.4596 8.90388H13.4545Z" fill="black"/>
<path d="M91.5542 11.9957C91.5542 11.9957 105.713 12.6488 118.372 21.1287C118.372 21.1287 113.019 14.8836 102.391 12.1947C106.142 12.6029 110.555 13.4243 115.121 15.006C124.984 18.4194 133.01 25.4146 133.01 25.4146C128.867 19.5062 124.76 17.5112 122.775 16.853C120.749 15.6489 118.423 14.4856 115.815 13.5162C107.937 10.5824 100.458 11.0212 91.5746 11.9957C91.6256 11.9906 91.5644 11.9957 91.5644 11.9957H91.5542Z" fill="black"/>
<path d="M13.7553 38.2723C13.5411 38.3336 13.3115 38.4101 13.0563 38.456C12.8063 38.5172 12.5257 38.5479 12.2349 38.5836C11.6481 38.6346 11.0001 38.604 10.3317 38.4458C9.66335 38.2927 8.97965 37.9968 8.32657 37.5733C7.84185 37.2621 7.36734 36.8794 6.92855 36.4355C6.73467 36.1957 6.51527 35.8947 6.28057 35.5426C6.05097 35.1804 5.80606 34.7671 5.57135 34.3028C5.454 34.0681 5.34175 33.8232 5.2295 33.5681C5.12236 33.313 5.01521 33.0425 4.91827 32.7619C4.71928 32.2058 4.5458 31.6088 4.40294 30.9812C4.36723 30.8282 4.33151 30.6649 4.3009 30.5067C4.26518 30.3486 4.23967 30.1853 4.21416 30.022C4.15803 29.6955 4.11211 29.3638 4.0764 29.0322C3.99476 28.3638 3.93864 27.675 3.95394 26.9913C4.0917 19.9961 8.79597 19.1644 8.79597 19.1644C8.79597 19.1644 8.60719 19.0522 8.38269 18.9757C8.23472 18.9246 8.05615 18.8583 7.83165 18.8124C7.5051 18.741 7.09692 18.6899 6.61221 18.7359C6.1326 18.7767 5.57135 18.9246 5.03052 19.2461C4.48968 19.5624 3.97946 20.0471 3.59679 20.639C3.45392 20.8482 3.32637 21.0727 3.21412 21.3023C3.22432 21.2411 3.23453 21.1798 3.24473 21.1186C3.26004 21.0268 3.27535 20.9298 3.29575 20.8431C3.32127 20.7563 3.34168 20.6645 3.36719 20.5778C3.41311 20.3992 3.45392 20.2257 3.49984 20.0573C3.55087 19.889 3.61209 19.7359 3.66312 19.5777C3.75496 19.2563 3.90292 18.9808 4.02027 18.7052C4.28559 18.1797 4.56111 17.7256 4.84684 17.3889C4.97949 17.2103 5.12236 17.0776 5.23461 16.945C5.29583 16.8837 5.35706 16.8327 5.40808 16.7817C5.46421 16.7307 5.51013 16.6848 5.56115 16.649C5.60707 16.6082 5.64789 16.5776 5.6836 16.547C5.71932 16.5215 5.75504 16.496 5.78055 16.4756C5.83157 16.4398 5.86218 16.4194 5.86218 16.4194C5.86218 16.4194 5.83157 16.4194 5.76524 16.4347C5.73463 16.4398 5.69381 16.45 5.64789 16.4654C5.60197 16.4756 5.55095 16.4909 5.48972 16.5113C5.36726 16.547 5.2244 16.6082 5.05603 16.6796C4.89276 16.7613 4.69377 16.8531 4.49988 16.9909C4.0866 17.2409 3.64271 17.6287 3.18351 18.1338C2.96921 18.394 2.72941 18.6746 2.53552 19.0012C2.43348 19.1593 2.32123 19.3226 2.22428 19.5012C2.13244 19.6798 2.0406 19.8634 1.94876 20.0471C1.90284 20.1441 1.85182 20.2359 1.8059 20.3329C1.76508 20.4298 1.72937 20.5318 1.68855 20.6339C1.61202 20.838 1.53038 21.0421 1.44874 21.2564L1.38752 21.4145L1.3416 21.5778C1.31098 21.6849 1.28037 21.7972 1.24976 21.9094C1.18853 22.1339 1.1273 22.3584 1.06097 22.588C0.964031 23.0472 0.887497 23.5269 0.800759 24.0218C0.744634 24.5116 0.708918 25.0116 0.662998 25.5269C0.632385 26.5423 0.606874 27.5984 0.729327 28.6699C0.744634 28.8077 0.759941 28.9505 0.775248 29.0934C0.790554 29.2312 0.816066 29.3638 0.836474 29.5016C0.877292 29.772 0.91811 30.0475 0.979337 30.3179C1.08648 30.8588 1.22935 31.4047 1.39772 31.9354C1.73447 33.0017 2.19367 34.0426 2.76512 35.0018C2.83655 35.1192 2.90798 35.2416 2.97942 35.359C3.06105 35.4763 3.13759 35.5886 3.21412 35.7059C3.36719 35.9355 3.54066 36.1549 3.70904 36.3743C3.87231 36.5937 4.06619 36.7978 4.23967 37.007C4.41825 37.2111 4.62234 37.3999 4.81112 37.5886C5.59687 38.3285 6.49486 38.9254 7.41326 39.3336C7.87247 39.5377 8.34697 39.6857 8.80618 39.7979C9.04088 39.8489 9.27048 39.8795 9.49498 39.9153C9.72458 39.9306 9.94398 39.9612 10.1634 39.9612C11.041 39.9765 11.8267 39.8183 12.4747 39.5785C12.791 39.4459 13.087 39.3285 13.337 39.1754C13.5972 39.0428 13.8115 38.8846 14.0054 38.7468C14.0513 38.7111 14.1023 38.6805 14.1482 38.6448C14.189 38.6091 14.235 38.5734 14.2758 38.5428C14.3523 38.4713 14.4288 38.4101 14.5003 38.3489C14.6431 38.2366 14.7452 38.1142 14.8319 38.0274C15.0003 37.8437 15.0921 37.7468 15.0921 37.7468C15.0921 37.7468 14.9697 37.7978 14.7452 37.8999C14.5258 38.007 14.189 38.1346 13.7707 38.2774L13.7553 38.2723Z" fill="black"/>
</g>
<defs>
<clipPath id="clip0_735_501">
<rect width="139" height="48" fill="white" transform="translate(0.000488281 0.000244141)"/>
</clipPath>
</defs>
</svg>
