<svg width="145" height="68" viewBox="0 0 145 68" fill="none" xmlns="http://www.w3.org/2000/svg">
<g clip-path="url(#clip0_1644_681)">
<path d="M76.6477 15.5303C76.7711 17.787 76.1162 19.6455 75.7249 20.3221C74.2705 22.8358 72.3653 24.8013 68.6315 26.2958C64.4171 27.983 59.012 26.5528 57.3237 26.0903C55.6353 25.6278 54.0491 25.3152 52.8201 25.3152C51.5911 25.3152 43.6854 25.5978 42.2267 25.6749C40.7681 25.752 39.5135 25.8547 39.6666 25.6235C39.8197 25.3923 40.7213 23.568 42.0268 22.7972C43.3324 22.0264 59.0673 18.3908 63.0562 17.2303C55.5333 18.545 41.8695 21.9451 41.4102 22.3305C40.8659 22.7887 38.3568 25.8419 38.4419 26.3815C38.5014 26.7583 48.0741 26.2915 50.2983 26.2145C52.5224 26.1374 54.3043 26.2701 55.7629 26.7369C57.2216 27.1994 61.5125 28.7153 64.736 28.5611C67.9596 28.407 71.6211 26.784 73.539 25.161C75.457 23.5381 78.1617 19.8639 76.6435 15.5303H76.6477ZM77.8257 62.3138C77.4685 62.0055 75.4995 61.8684 73.8112 61.8684L69.0482 61.6714L52.0801 60.9906C51.2168 60.8707 46.0031 56.4599 46.0031 56.4599C46.0031 56.4599 36.5834 57.7575 35.4055 57.8131C33.7214 57.8945 25.5393 57.0081 17.4125 55.6549C13.449 54.9954 5.41145 52.8029 4.86286 52.5288C4.08462 52.1392 4.08462 51.7281 4.18669 51.317C4.19944 50.9872 3.30213 51.8394 2.63447 52.5674C1.87324 53.3939 0.916392 54.5072 1.14604 54.7385C1.32465 54.9226 2.08587 53.9977 2.694 53.638C2.92365 54.5072 10.4551 56.6098 15.4477 57.5733C20.8061 58.6054 26.3345 59.5346 32.2075 60.1341C33.411 61.042 36.2772 63.5 36.7365 63.6027C37.1958 63.7055 56.8984 64.532 60.0198 64.4806C63.1413 64.4292 76.1885 63.2944 77.1113 63.1916C78.0341 63.0889 78.1872 62.6264 77.8257 62.3181V62.3138ZM45.7564 52.486C46.1519 52.516 63.5325 52.6316 65.6546 52.6145C67.781 52.5974 68.9844 52.4389 68.9547 52.0064C68.9207 51.5054 68.2275 51.2056 67.3259 51.1842C66.2245 51.1628 53.6536 51.1671 53.6536 51.1671C52.1609 51.2442 47.2066 51.8266 46.4624 51.8651C45.7139 51.9036 45.3652 52.4561 45.7607 52.486H45.7564ZM6.2067 48.7048C4.81608 47.7541 4.9309 45.5188 4.69701 42.7653C4.60345 41.6477 3.81671 39.5065 2.98318 39.3952C2.83859 42.32 2.88537 48.3836 3.9698 49.7582C5.16905 51.2741 13.3639 53.0641 16.7618 53.6251C21.8352 54.4601 27.4785 55.0297 28.9244 54.9997C30.6042 54.9697 31.4802 53.3725 32.0884 52.3704C29.9195 53.6294 25.6286 53.0427 19.6536 52.1306C13.2363 51.15 7.59307 49.6555 6.20245 48.7048H6.2067ZM102.606 13.3977C101.062 12.1087 96.244 9.50942 90.2307 9.45375C84.2175 9.39808 79.042 10.5372 71.4425 14.2584C72.9649 14.1728 75.2699 14.464 76.2905 14.7466C80.7133 12.2115 86.684 10.3145 91.4938 10.3145C96.3035 10.3145 99.914 11.7747 102.606 13.402V13.3977ZM5.36893 29.3148C6.67449 30.0813 9.71939 30.501 12.1902 30.638C16.2047 30.8521 20.5041 31.0063 35.4522 30.6509C42.5329 30.4796 49.2819 29.7901 52.1609 29.2035C40.2195 29.6146 14.9714 29.4347 9.82996 27.5377C8.80082 27.1565 8.42234 26.4286 9.76192 25.4394C12.0584 23.7436 15.0522 22.506 18.5777 21.2856C22.6815 19.8639 33.3642 16.8963 43.847 15.2947C46.9982 14.7766 48.4909 14.5882 50.2898 14.3569C48.8396 14.2884 46.3008 14.5068 43.4345 14.8794C35.9626 15.8514 27.2999 17.4187 17.8165 20.4977C14.0996 21.7053 9.84698 23.2982 6.57243 25.5636C5.34341 26.4114 3.74016 28.3641 5.36467 29.3148H5.36893ZM69.2481 42.5812C69.2481 41.8061 68.657 41.0653 67.2791 41.0653C65.6674 41.0653 50.0218 41.3479 47.2534 41.4935C45.2163 41.6048 43.1581 41.759 41.9375 43.7417C40.717 45.7244 37.7317 50.9872 35.5586 56.5884C37.0512 54.8113 37.1873 54.6743 37.5956 53.8563C38.0038 53.0384 42.0056 44.9707 44.723 44.0157C47.4362 43.0608 51.6464 43.6732 54.2915 43.4676C55.04 42.9195 55.9203 42.2729 57.3449 42.2044C58.7696 42.1358 66.4966 41.9945 67.513 41.9988C68.8824 41.9988 69.2226 44.08 69.2226 44.08C69.2226 43.215 69.2524 42.8852 69.2524 42.5726L69.2481 42.5812ZM62.3801 21.8894C62.3078 23.9192 63.5623 25.3751 65.2549 25.6663C65.3357 25.6792 65.4207 25.6663 65.5015 25.662C63.928 25.4565 62.7415 23.8335 62.8096 21.9022C62.8776 19.9752 64.1704 18.4379 65.7524 18.3394C65.6716 18.3308 65.5908 18.3137 65.5058 18.318C63.8302 18.4293 62.4481 19.8553 62.3758 21.8851L62.3801 21.8894ZM67.9383 20.0737C67.5981 19.5855 67.1303 19.2772 66.6072 19.2558C65.5058 19.2173 64.5659 20.4677 64.5107 22.0521C64.4554 23.6365 65.3059 24.9469 66.4073 24.9855C66.9814 25.0069 67.5088 24.6771 67.8915 24.1333C67.1303 24.0134 66.5604 23.1141 66.5945 22.0478C66.6285 21.0244 67.2111 20.1979 67.9383 20.0694V20.0737ZM50.0346 22.8914C49.9496 23.8378 50.2728 24.6429 50.7533 24.6857C51.2339 24.7285 51.6931 23.9963 51.7739 23.0499C51.859 22.1035 51.5358 21.2984 51.0552 21.2556C50.5747 21.2128 50.1197 21.9451 50.0346 22.8914ZM51.5656 22.9343C51.5188 23.4653 51.2934 23.8764 51.0637 23.8549C50.8341 23.8335 50.6853 23.3882 50.732 22.8572C50.7788 22.3262 51.0042 21.9151 51.2338 21.9365C51.4635 21.9579 51.6123 22.4033 51.5656 22.9343ZM108.832 46.0755C109.355 37.0956 104.299 29.5846 96.2482 29.1093C95.6741 29.075 95.0958 29.0793 94.5259 29.1178C94.7045 29.1178 94.8831 29.1264 95.0575 29.1392C102.836 29.5974 107.709 37.0999 107.186 46.0798C106.701 54.4216 100.339 60.9863 93.501 61.3588C101.19 61.7528 108.322 54.8755 108.836 46.0798L108.832 46.0755ZM99.5908 23.4353C97.0222 22.9771 93.7094 22.9985 92.7185 26.116C91.9871 28.4198 95.2999 27.7004 97.5793 27.816C97.7069 27.816 97.8387 27.8246 97.9663 27.8331C106.021 28.3085 111.039 36.4362 110.473 46.1826C109.908 55.9289 102.614 63.2944 94.5642 62.8191C90.8389 62.6007 87.6026 60.7379 85.2551 57.8346C85.1658 59.6759 85.119 61.8898 85.1828 65.3242C87.509 66.5746 90.0946 67.3197 92.8376 67.4353C103.72 67.8935 112.957 58.2499 113.472 45.8999C113.922 34.9802 108.398 25.7434 99.5908 23.4353ZM105.217 15.7915C102.683 14.3526 100.79 14.0015 102.972 15.3376C104.928 16.5366 109.002 19.6626 110.18 25.0197C110.384 25.1225 110.588 25.0711 110.639 24.6086C110.69 24.1461 110.546 22.0907 110.516 21.2727C110.478 20.2536 111.303 19.911 112.532 19.8724C113.616 19.8382 129.406 20.2835 132.63 20.4377C135.849 20.5919 136.083 19.8082 136.134 18.9775C136.232 17.3973 134.994 15.2091 133.655 13.6418C134.216 14.5667 134.705 15.7144 134.833 16.9391C134.905 17.6243 134.68 19.153 133.246 19.1016C131.813 19.0503 110.18 17.8855 108.908 17.5558C107.331 17.1489 106.34 16.4295 105.221 15.7958L105.217 15.7915ZM63.5751 13.4105C69.044 10.0832 79.7054 5.20576 89.5375 3.20596C96.8436 1.72002 102.976 1.34318 111.728 1.5787C112.225 1.23184 112.706 0.687996 113.531 0.533835C112.255 0.383957 98.702 0.229796 90.1499 2.17394C76.7243 5.22718 67.7044 9.69356 61.5125 13.3335C62.1036 13.3035 63.5708 13.4105 63.5708 13.4105H63.5751ZM127.799 8.58445C129.585 10.7513 130.776 15.2305 130.946 16.8021C131.056 17.1104 132.064 17.1104 132.43 16.9091C131.371 12.0188 129.321 9.88197 127.799 8.58445ZM120.28 14.0186C121.573 13.9116 122.704 13.8902 123.223 13.2821C123.555 12.8924 123.465 11.7919 122.389 11.7919C121.313 11.7919 118.375 11.8475 117.677 11.8475C117.086 11.3593 116.036 9.89482 116.036 9.89482L115.092 13.3292C115.092 13.6803 115.925 13.8345 116.495 13.9073C117.184 13.9929 118.991 14.13 120.284 14.0229L120.28 14.0186ZM114.156 4.60625C113.714 6.23778 111.571 10.2974 110.86 11.4793C106.935 11.218 101.381 10.944 100.042 10.944C101.254 11.3508 102.546 12.083 103.354 12.5712C105.859 12.6098 112.931 13.1408 113.982 13.3035C114.258 12.6312 116.465 5.41131 116.848 4.16518C117.15 3.18026 117.303 2.86766 117.89 2.55077C118.575 2.17822 119.812 2.19535 122.445 3.64703C125.477 5.32138 128.016 7.17988 131.001 10.2246C129.011 7.23983 124.788 3.99389 122.253 2.60216C118.8 0.709407 116.618 0.636609 115.751 0.636609C114.883 0.636609 114.037 1.0734 113.616 1.61724C114.577 1.73286 114.628 2.9062 114.165 4.60625H114.156ZM29.8472 26.5099C31.0677 26.557 36.0604 26.4157 37.4255 26.4157C38.7183 24.2489 40.3428 22.5232 40.9722 22.0907C41.5633 21.6838 55.6566 18.4079 55.6566 18.4079L55.8522 18.1124C53.1858 18.6178 35.9966 22.6002 32.9729 23.9106C31.5696 24.5187 30.0471 25.1867 29.8515 26.5142L29.8472 26.5099ZM141.828 15.1791L141.815 16.6993C141.815 16.6993 141.854 16.9562 142.198 16.9562C142.543 16.9562 143.266 16.8278 143.589 15.8471C143.78 15.2562 144.103 14.2499 143.487 13.8259C142.87 13.402 141.798 13.235 141.837 13.7745V14.4169L135.152 14.9136C135.313 15.1406 135.471 15.3761 135.67 15.6759L141.828 15.1791ZM94.5982 45.2619C94.3728 46.2725 94.8023 47.2231 95.5508 47.3944C96.3035 47.5657 97.0945 46.8848 97.3157 45.8742C97.541 44.8636 97.1115 43.9087 96.3631 43.7417C95.6103 43.5747 94.8194 44.2513 94.594 45.2619H94.5982ZM97.843 44.6966C97.9663 45.0478 98.5107 45.1762 99.0592 44.9792C99.6078 44.7823 99.9566 44.3412 99.8332 43.9901C99.7099 43.6389 99.1656 43.5104 98.6127 43.7074C98.0641 43.9044 97.7197 44.3455 97.843 44.6966ZM96.7713 42.2258C96.9074 41.6562 96.7288 41.1209 96.3673 41.0353C96.0058 40.9497 95.6061 41.3393 95.4658 41.9089C95.3297 42.4784 95.5083 43.0137 95.8698 43.0993C96.2312 43.185 96.631 42.7953 96.7671 42.2258H96.7713ZM93.6456 48.3237C93.501 48.8675 93.6456 49.3728 93.9688 49.4585C94.292 49.5441 94.6663 49.1758 94.8108 48.6363C94.9554 48.0967 94.8108 47.5871 94.4876 47.4972C94.1644 47.4116 93.7902 47.7798 93.6456 48.3237ZM97.1158 47.2788C96.8138 47.4158 96.7501 47.9426 96.9797 48.4521C97.2093 48.9617 97.6389 49.2658 97.9451 49.1287C98.247 48.9917 98.3108 48.465 98.0811 47.9554C97.8515 47.4458 97.422 47.1418 97.1158 47.2788ZM92.5612 43.8659C92.34 44.1142 92.4506 44.581 92.8078 44.9022C93.1651 45.2233 93.6371 45.2833 93.8583 45.0349C94.0794 44.7823 93.9688 44.3198 93.6116 43.9986C93.2544 43.6774 92.7823 43.6175 92.5612 43.8659ZM97.2349 51.8865L97.6431 59.2648C98.6 58.8537 99.4888 58.3099 100.301 57.6504L98.6893 51.1585C98.2342 51.4797 97.7452 51.7281 97.2349 51.8865ZM94.7811 39.999C95.1766 39.8234 95.5891 39.6992 96.0101 39.6393L97.1413 30.9206C96.7628 30.8136 96.3801 30.7237 95.9846 30.6551C95.3722 30.5524 94.7726 30.5138 94.1857 30.5395L94.7811 39.999ZM101.215 33.186L98.5787 40.0589C98.9487 40.2474 99.2889 40.4829 99.5993 40.7655L103.197 35.4427C102.619 34.5991 101.955 33.8411 101.215 33.186ZM100.59 48.966L104.32 52.2377C104.762 51.2313 105.115 50.1608 105.374 49.0431L101.241 47.2874C101.088 47.8912 100.867 48.4522 100.59 48.966ZM105.311 40.1574L100.926 42.6497C101.092 43.0265 101.22 43.4291 101.313 43.8487L105.812 43.1208C105.727 42.0973 105.557 41.1081 105.311 40.1574ZM87.3815 57.826C88.1724 58.5625 89.0527 59.1449 89.9968 59.5432L94.3005 51.7666C93.803 51.5653 93.3479 51.2699 92.9482 50.9059L87.3815 57.8217V57.826ZM91.0728 46.2339L84.8936 46.2682C85.404 42.791 86.0163 39.9904 86.5734 37.8236L92.0424 42.5683C92.2593 42.1872 92.5059 41.8361 92.7781 41.5192L87.794 33.5714C89.0655 29.6916 92.5016 21.7952 98.8679 20.6304C105.34 19.4442 108.64 26.9167 110.086 31.3489C110.15 31.5416 110.257 31.6101 110.422 31.7C110.669 31.8285 111.256 31.8156 111.188 31.2975C108.271 16.3053 99.4037 16.7678 97.103 17.423C95.032 18.014 89.4567 20.7203 85.7059 31.8071C82.3548 41.7076 81.5723 51.9079 81.4065 62.6735C82.0316 62.6307 83.2521 62.4508 83.7965 62.1211C83.805 57.5177 84.0516 53.4924 84.4216 50.0109L91.2344 47.797C91.1238 47.2959 91.0685 46.7692 91.0728 46.2297V46.2339ZM7.41871 38.543C13.9848 39.3695 29.5028 41.2023 38.0549 41.3008C38.8926 40.0504 40.0621 38.1277 40.4449 37.1642C40.8276 36.2006 41.019 35.721 40.347 34.6633C39.6794 33.6056 38.9139 31.8199 37.3702 31.867C35.4395 31.927 33.3939 31.9569 31.3059 31.9698C30.8764 32.9162 30.1662 34.1366 29.3667 35.053C28.3588 36.2049 26.1644 36.1279 21.9585 36.1321C16.1324 36.1407 5.95154 35.0487 4.26749 34.1323C3.44672 33.6827 3.50201 32.8091 3.62959 32.0854C3.60833 32.094 3.59131 32.1068 3.5743 32.1154C3.05973 32.5222 2.63021 33.1731 2.57918 34.719C2.50263 37.1556 4.85435 38.2219 7.41445 38.543H7.41871ZM141.637 15.5431L135.819 15.967L135.93 16.1255L141.628 15.8514L141.637 15.5431ZM114.475 14.738C116.593 15.0892 126.578 16.5623 127.544 16.695C128.581 16.8406 129.831 17.0547 130.223 16.7336C129.542 16.6608 125.077 15.8343 122.36 15.3632C119.625 14.8922 115.738 14.297 114.688 14.0614L114.475 14.738ZM65.7865 48.6834C67.8065 48.6663 68.9504 48.5078 68.9207 48.0753C68.8866 47.5743 68.2317 47.2703 67.3727 47.2531C66.3265 47.2274 54.3893 47.2274 54.3893 47.2274C52.9689 47.3045 48.2655 47.8869 47.5553 47.9254C46.8451 47.964 46.5134 48.5164 46.8876 48.5464C47.2619 48.5763 63.7707 48.7005 65.7907 48.6834H65.7865Z" fill="black"/>
</g>
<defs>
<clipPath id="clip0_1644_681">
<rect width="143.725" height="67" fill="white" transform="translate(0.84668 0.452881)"/>
</clipPath>
</defs>
</svg>
