<svg width="167" height="94" viewBox="0 0 167 94" fill="none" xmlns="http://www.w3.org/2000/svg">
<path fill-rule="evenodd" clip-rule="evenodd" d="M58.8081 26.2131C56.1284 24.7028 54.3996 23.4519 54.044 23.1901H81.6617L79.2784 24.9634L81.2258 26.728V31.5983L79.5291 29.1533L78.5042 32.5924C77.6373 32.5343 76.7803 32.4442 75.9319 32.3244L78.1856 28.5334L74.8551 32.1565C73.8413 31.9824 72.8435 31.7712 71.8705 31.5292L76.6914 27.7727L70.0873 31.0451C68.7599 30.6561 67.4818 30.2153 66.2679 29.746L75.0453 26.8132L63.9377 28.7853C62.7522 28.263 61.6446 27.7258 60.6308 27.1997L73.8549 25.3178L58.8069 26.2131M85.1959 23.1901H84.76L87.1433 24.9634L85.1959 26.728V31.5983L86.8926 29.1533L87.9187 32.5924C88.7831 32.5343 89.6414 32.4442 90.4873 32.3244L88.2349 28.5334L91.5653 32.1565C92.5791 31.9824 93.5769 31.7712 94.5487 31.5292L89.7291 27.7727L96.3331 31.0451C97.6606 30.6561 98.9387 30.2153 100.153 29.746L91.3751 26.8132L102.485 28.7853C103.669 28.263 104.776 27.7258 105.79 27.1997L92.5655 25.3178L107.612 26.2131H107.614C110.293 24.7028 112.022 23.4519 112.378 23.1901H85.1959ZM54.5416 40.0892H111.88L112.58 37.664C114.074 32.4775 115.28 26.9725 115.96 21.5663C109.551 18.489 102.682 16.3515 95.6873 15.1228C91.8962 14.4572 87.5705 13.8657 83.7264 14.0176L83.2115 14.0386L82.6965 14.0176C78.8524 13.8657 74.5267 14.4584 70.7356 15.1228C63.7401 16.3515 56.8706 18.489 50.4629 21.5663C51.1421 26.9725 52.3473 32.4775 53.8439 37.664L54.5441 40.0892H54.5416Z" fill="black"/>
<path fill-rule="evenodd" clip-rule="evenodd" d="M165.375 38.4901L126.697 34.988C129.468 22.9716 129.546 14.172 129.546 14.172C106.848 0.0512957 83.21 0.992262 83.21 0.992262C83.21 0.992262 59.5723 0.0512957 36.8742 14.1732C36.8742 14.1732 36.9533 22.9716 39.7231 34.9893L26.7274 36.1661L1.04469 38.4913H50.9764C49.2933 32.6616 47.883 25.9698 47.2631 19.8301C54.455 16.123 62.2643 13.5842 70.2192 12.1888C74.0152 11.5219 78.9238 10.886 82.8136 11.0403L83.21 11.0552L83.6089 11.0403C87.4975 10.886 92.4048 11.5207 96.2032 12.1888C104.156 13.5842 111.965 16.1218 119.157 19.8301C118.537 25.9698 117.126 32.6628 115.444 38.4913H165.375M26.7286 69.7482L56.574 72.4155C63.0731 80.9336 71.7159 88.6243 83.21 93.9787C94.7041 88.6243 103.348 80.9336 109.848 72.4155L166.421 67.3587H101.083C96.2156 73.4639 90.3031 78.6824 83.2112 82.6834C76.1182 78.6824 70.2057 73.4639 65.3391 67.3587H0L26.7286 69.7482Z" fill="black"/>
</svg>
