<svg width="86" height="35" viewBox="0 0 86 35" fill="none" xmlns="http://www.w3.org/2000/svg">
<g clip-path="url(#clip0_1644_751)">
<path d="M27.2905 23.3552C26.1519 23.3552 25.0929 23.9685 24.5254 24.9565L23.8205 26.1842L21 31.1831H32.8653C34.2015 31.1831 35.4328 30.4638 36.0907 29.3011L39.5184 23.236C39.1208 23.3143 38.7124 23.3552 38.2991 23.3552H27.2893H27.2905Z" fill="url(#paint0_linear_1644_751)"/>
<path d="M17.5889 9.65242L22.5456 0.922119H9.79115C8.10196 0.922119 6.54168 1.82937 5.70793 3.29928L0.75 12.0296H13.5057C15.1961 12.0296 16.7539 11.1211 17.5889 9.65242Z" fill="url(#paint1_linear_1644_751)"/>
<path d="M68.1065 31.1448L73.0632 22.4146H60.3087C58.6195 22.4146 57.0593 23.3218 56.2255 24.7917L51.2676 33.522H64.0233C65.7137 33.522 67.2715 32.6136 68.1065 31.1448Z" fill="url(#paint2_linear_1644_751)"/>
<path d="M71.9512 0.917236C70.2608 0.917236 68.7017 1.82569 67.8668 3.29439L64.3089 9.56078C63.6992 10.6343 62.7016 11.4066 61.5498 11.7452C61.1257 11.8705 60.6799 11.9379 60.2256 11.9379H50.4676C49.8809 11.9379 49.3098 12.0464 48.776 12.244C48.2712 12.4319 47.8013 12.7018 47.3856 13.0428C46.9362 13.4115 46.5495 13.8597 46.2519 14.379L41.3301 22.9562H54.0629C54.5231 22.9562 54.9737 22.8864 55.4039 22.7586C56.081 22.5562 56.7039 22.2044 57.2268 21.7285C57.581 21.4056 57.8895 21.0273 58.1352 20.5996L61.7016 14.385C62.3522 13.2512 63.4353 12.4584 64.6751 12.1596C65.0306 12.0741 65.398 12.0271 65.7727 12.0271H76.7826C78.532 12.0271 80.1465 11.0873 81.0104 9.5656L85.9201 0.917236H71.9512Z" fill="url(#paint3_linear_1644_751)"/>
<path d="M27.5056 20.6008L31.0719 14.3862C31.9093 12.9283 33.4623 12.0283 35.1431 12.0283H44.9433C45.5312 12.0283 46.1023 11.9199 46.6361 11.7223C47.1409 11.5343 47.6096 11.2644 48.0253 10.9235C48.4795 10.5512 48.8711 10.0945 49.1711 9.56681L54.082 0.917236H41.3227C39.6323 0.917236 38.0733 1.82569 37.2383 3.29439L33.6804 9.56078C32.8467 11.0307 31.2864 11.9379 29.596 11.9379H19.838C18.097 11.9379 16.4885 12.8693 15.621 14.3802L10.6992 22.9574H23.432C25.114 22.9574 26.667 22.0574 27.5032 20.5996L27.5056 20.6008Z" fill="url(#paint4_linear_1644_751)"/>
</g>
<defs>
<linearGradient id="paint0_linear_1644_751" x1="47.0993" y1="7.25492" x2="11.1902" y2="49.7787" gradientUnits="userSpaceOnUse">
<stop stop-color="#343536"/>
<stop offset="1"/>
</linearGradient>
<linearGradient id="paint1_linear_1644_751" x1="8.89715" y1="5.768" x2="71.2659" y2="21.8322" gradientUnits="userSpaceOnUse">
<stop stop-color="#343536"/>
<stop offset="1"/>
</linearGradient>
<linearGradient id="paint2_linear_1644_751" x1="59.4147" y1="27.2604" x2="121.783" y2="43.3246" gradientUnits="userSpaceOnUse">
<stop stop-color="#343536"/>
<stop offset="1"/>
</linearGradient>
<linearGradient id="paint3_linear_1644_751" x1="10.8114" y1="-1.66595" x2="73.1801" y2="14.3994" gradientUnits="userSpaceOnUse">
<stop stop-color="#343536"/>
<stop offset="1"/>
</linearGradient>
<linearGradient id="paint4_linear_1644_751" x1="8.87027" y1="5.87999" x2="71.239" y2="21.9442" gradientUnits="userSpaceOnUse">
<stop stop-color="#343536"/>
<stop offset="1"/>
</linearGradient>
<clipPath id="clip0_1644_751">
<rect width="86" height="34" fill="white" transform="translate(0 0.235962)"/>
</clipPath>
</defs>
</svg>
