<svg width="44" height="65" viewBox="0 0 44 65" fill="none" xmlns="http://www.w3.org/2000/svg">
<path d="M32.9843 30.6469L27.4479 33.7729C27.6556 34.2464 27.8196 34.7504 27.9377 35.2769L33.6201 34.3634C33.5119 33.0803 33.296 31.837 32.9843 30.6469ZM27.8125 21.9029L24.4853 30.5244C24.9511 30.7584 25.3819 31.0569 25.7728 31.4095L30.3164 24.7343C29.5849 23.6753 28.7474 22.723 27.8125 21.9029ZM27.0236 41.6941L31.7329 45.7982C32.2933 44.5359 32.74 43.1937 33.0674 41.7936L27.8475 39.5893C27.6534 40.3443 27.3735 41.0506 27.0236 41.6941ZM10.341 52.808C11.342 53.7298 12.4496 54.464 13.6458 54.9637L19.0789 45.211C18.4502 44.9579 17.8767 44.5905 17.3727 44.1329L10.3415 52.8086L10.341 52.808ZM37.4318 38.0695C38.0916 26.8085 31.7067 17.3877 21.538 16.7912C20.8109 16.7491 20.0849 16.7541 19.3621 16.8016C19.5868 16.8054 19.8115 16.8126 20.0351 16.8257C29.8599 17.4014 36.0109 26.8079 35.3499 38.0689C34.7371 48.5328 26.7038 56.7612 18.0675 57.2287C27.7764 57.7207 36.785 49.0997 37.4323 38.0689L37.4318 38.0695ZM19.4578 37.0471C19.1746 38.3122 19.7137 39.5089 20.6616 39.7221C21.6107 39.9343 22.609 39.082 22.8927 37.8174C23.1765 36.5524 22.6374 35.3551 21.6894 35.1419C20.7404 34.9303 19.7415 35.7832 19.4578 37.0471ZM22.1984 33.2415C22.3723 32.5259 22.1438 31.8573 21.69 31.7468C21.2357 31.637 20.7267 32.1279 20.5539 32.843C20.3806 33.5586 20.6086 34.2272 21.0629 34.3377C21.5172 34.4476 22.0257 33.9561 22.1984 33.2415ZM22.7856 45.3559L23.2995 54.6072C24.5082 54.0911 25.6306 53.4078 26.6562 52.585L24.6203 44.4457C24.0474 44.8502 23.4291 45.1586 22.785 45.3559H22.7856ZM18.2086 35.4639C17.7559 35.0593 17.1617 34.985 16.8806 35.2993C16.6002 35.6131 16.7391 36.1959 17.1906 36.6005C17.6438 37.0061 18.2387 37.0805 18.5191 36.7661C18.8001 36.4518 18.6613 35.8695 18.2086 35.4639ZM25.7607 9.67862C22.5144 9.10404 18.3343 9.13301 17.084 13.0408C16.1601 15.9285 20.3451 15.0281 23.2213 15.1746C23.3842 15.179 23.5488 15.1867 23.7117 15.1954C33.8815 15.7913 40.221 25.983 39.5054 38.205C38.7881 50.4282 29.5822 59.6637 19.4135 59.0678C14.7064 58.7922 10.6198 56.4584 7.65722 52.819C7.54624 55.1293 7.4861 57.9028 7.56756 62.2135C10.5044 63.7804 13.7694 64.7158 17.2327 64.8596C30.9779 65.4325 42.6429 53.3411 43.2891 37.8524C43.8599 24.1581 36.8834 12.5751 25.7607 9.67753V9.67862ZM23.5521 36.3381C23.7079 36.7787 24.3973 36.9372 25.0899 36.6923C25.7843 36.4468 26.2205 35.8914 26.0653 35.4502C25.9089 35.0107 25.2212 34.8516 24.5263 35.0965C23.8325 35.342 23.3968 35.898 23.5521 36.3381ZM18.254 40.8883C18.0736 41.5678 18.2578 42.2058 18.6645 42.313C19.0707 42.4218 19.5469 41.9587 19.7279 41.2797C19.9083 40.6007 19.7241 39.9622 19.3173 39.8539C18.9106 39.7462 18.4349 40.2093 18.254 40.8883ZM22.6374 39.5778C22.2542 39.7511 22.1766 40.4104 22.4658 41.0506C22.7544 41.6914 23.2989 42.0697 23.6838 41.8969C24.0671 41.7236 24.1447 41.0643 23.856 40.4241C23.5674 39.7834 23.0223 39.4045 22.6374 39.5778ZM18.933 18.5839L19.6852 30.4473C20.1855 30.2265 20.7065 30.0734 21.2395 29.9974L22.6702 19.0622C22.1935 18.9261 21.7064 18.8135 21.2067 18.7309C20.4353 18.6019 19.6765 18.5565 18.933 18.5839ZM15.0027 38.2679L7.20181 38.31C7.75344 34.8658 8.47509 31.046 9.19564 27.6602L16.2284 33.6712C16.5029 33.194 16.815 32.7528 17.1595 32.3537L10.8658 22.3873C12.5967 17.3636 16.8096 7.62028 24.8505 6.15785C32.4305 4.77961 36.7566 11.5893 38.8023 17.0225C38.8291 17.14 38.8592 17.2559 38.8915 17.3707C39.7793 18.515 40.5769 19.7544 41.2795 21.0741C38.652 9.89129 33.0461 2.16036 26.097 1.71097C15.5593 1.02923 5.92526 17.3516 4.57819 38.1679C4.1441 44.8737 4.62411 51.227 5.82522 56.7831C5.87989 51.596 6.1762 47.0163 6.60536 43.01L15.2066 40.2344C15.0683 39.6062 14.9978 38.9464 15.0027 38.2685V38.2679Z" fill="black"/>
<path d="M1.63467 39.4945C2.52525 17.8107 12.1718 0.500937 23.3694 0.141753C22.9326 0.0723222 22.4914 0.0280392 22.0458 0.00945131C10.8001 -0.449233 0.999946 15.8447 0.155836 36.4024C-0.201708 45.1141 1.10655 53.1927 3.58859 59.6466C2.06438 53.6755 1.33508 46.7914 1.63467 39.494V39.4945Z" fill="black"/>
</svg>
