<svg width="143" height="58" viewBox="0 0 143 58" fill="none" xmlns="http://www.w3.org/2000/svg">
<g clip-path="url(#clip0_1605_871)">
<path fill-rule="evenodd" clip-rule="evenodd" d="M73.6325 16.5641C66.7446 16.5641 60.6953 20.159 57.2578 25.5741C60.5178 20.9569 65.896 17.9397 71.9766 17.9397C81.9201 17.9397 89.9838 26.0034 89.9838 35.947C89.9838 45.8905 81.9201 53.9542 71.9766 53.9542C65.8966 53.9542 60.5189 50.9376 57.2578 46.3204C60.6959 51.7355 66.7452 55.3299 73.6325 55.3299C82.4678 55.3299 89.9241 49.4146 92.2573 41.3291L92.2667 41.2989C92.3544 41.0131 92.4426 40.6915 92.5319 40.3448C94.7417 32.2202 96.0912 27.3294 105.995 24.2559L106.022 24.2464C109.803 23.0812 114.223 22.1611 119.099 20.6286C132.282 16.6255 140.605 9.46904 139.675 -0.000488281C137.275 11.4695 115.946 16.2352 100.054 18.8978C94.4313 19.8771 90.9983 21.6514 89.3529 23.7138C89.9559 24.7707 90.4628 25.8901 90.8609 27.0598C87.6378 20.8262 81.1318 16.5635 73.632 16.5635" fill="black"/>
<path fill-rule="evenodd" clip-rule="evenodd" d="M42.791 18.8984C48.0977 19.823 51.4537 21.456 53.1973 23.3699C52.5832 24.6049 52.0824 25.9047 51.7061 27.2569C55.0766 19.4283 62.8606 13.9445 71.9237 13.9445C77.2109 13.9445 82.062 15.8109 85.8563 18.9196C82.454 16.5083 78.2973 15.0902 73.8108 15.0902C62.2933 15.0902 52.9534 24.4307 52.9534 35.9476C52.9534 47.4644 62.2933 56.805 73.8108 56.805C78.2973 56.805 82.454 55.3869 85.8563 52.9755C82.062 56.0842 77.2109 57.9506 71.9237 57.9506C61.8076 57.9506 53.285 51.1186 50.7156 41.8193C48.2194 32.7568 47.3295 27.4551 36.6808 24.204C32.9323 23.0595 28.5607 22.1439 23.7458 20.6297C10.563 16.6261 2.23968 9.46965 3.17038 0.00012207C5.57 11.4701 26.8992 16.2358 42.7915 18.8984" fill="black"/>
<path fill-rule="evenodd" clip-rule="evenodd" d="M29.1759 25.0855C35.8248 24.798 42.2487 28.3891 44.4932 31.4291C48.7201 37.154 47.2166 46.5805 54.0408 51.4177C43.9817 49.0963 44.343 42.4831 41.7005 36.3807C39.4538 31.1907 34.2805 27.2216 29.1759 25.0855ZM1.79181 33.894C12.168 45.3031 37.6499 37.4706 43.8606 46.6353C29.5276 39.7423 10.7036 54.259 1.79181 33.894ZM0.185547 23.6635C10.2536 34.7103 31.9384 30.0383 41.2287 42.1799C36.1715 39.2868 30.111 38.5872 23.9813 38.1802C9.68633 37.2288 3.34782 35.3758 0.185547 23.6635ZM9.86946 45.7447C21.3578 50.8617 38.3863 42.9906 48.1077 50.5423C35.5764 46.221 22.3851 58.5066 9.86946 45.7447ZM113.67 25.0855C107.021 24.798 100.597 28.3891 98.3529 31.4291C94.1265 37.154 95.022 46.5805 88.1972 51.4177C98.2569 49.0963 98.5037 42.4831 101.146 36.3807C103.393 31.1912 108.566 27.2216 113.671 25.0855H113.67ZM141.054 33.894C130.678 45.3031 105.196 37.4706 98.9855 46.6353C113.318 39.7423 132.143 54.259 141.054 33.894ZM142.661 23.6635C132.592 34.7103 110.908 30.0383 101.617 42.1799C106.675 39.2868 112.735 38.5872 118.865 38.1802C133.16 37.2288 139.498 35.3758 142.661 23.6641V23.6635ZM132.977 45.7447C121.489 50.8617 104.46 42.9906 94.7384 50.5423C107.27 46.221 120.461 58.5066 132.977 45.7447ZM141.907 11.4577C137.04 19.7045 125.582 21.5045 115.555 26.3563C109.842 29.1154 105.47 32.223 103.774 37.3427C110.234 30.4319 125.606 30.8836 133.908 25.2921C139.476 21.5386 141.711 16.5121 141.907 11.4572V11.4577ZM0.938709 11.4577C5.80607 19.7045 17.2643 21.5045 27.291 26.3563C33.0037 29.1154 37.3764 32.223 39.0725 37.3427C32.6123 30.4319 17.2403 30.8836 8.9382 25.2921C3.37071 21.5386 1.13523 16.5121 0.938709 11.4577Z" fill="black"/>
<path d="M72.3902 45.0379C71.0049 45.0379 69.7162 44.7158 68.5242 44.0714C67.3322 43.411 66.1804 42.5089 65.069 41.3652C65.0367 41.333 64.9965 41.3169 64.9481 41.3169C64.8032 41.3169 64.6421 41.4055 64.4649 41.5827L64.1508 41.2444L67.5094 38.0791L67.8235 38.4174C67.7268 38.4979 67.6382 38.6107 67.5577 38.7557C67.4772 38.9006 67.4611 39.0053 67.5094 39.0698C69.0075 40.9706 70.6425 41.921 72.4144 41.921C73.0265 41.921 73.5742 41.8002 74.0574 41.5585C74.5568 41.3169 74.9434 41.0108 75.2173 40.6404C75.4911 40.2538 75.628 39.8591 75.628 39.4564C75.628 38.506 74.7984 37.7247 73.1393 37.1126L70.1673 36.0011C68.9752 35.5662 68.041 34.9702 67.3644 34.2131C66.704 33.456 66.3737 32.5459 66.3737 31.4827C66.3737 30.4357 66.6154 29.5256 67.0986 28.7523C67.598 27.963 68.2987 27.359 69.2008 26.9402C70.1028 26.5213 71.1499 26.3119 72.3419 26.3119C73.4695 26.3119 74.4118 26.4891 75.1689 26.8435C75.9421 27.1818 76.7637 27.7053 77.6335 28.4141C77.6496 28.4302 77.6818 28.4382 77.7302 28.4382C77.8107 28.4382 77.8993 28.4141 77.996 28.3657C78.1087 28.3013 78.1973 28.2369 78.2617 28.1724L78.5759 28.4866L75.5797 31.4344L75.2656 31.0961C75.3461 31.0156 75.4025 30.927 75.4347 30.8303C75.483 30.7176 75.475 30.637 75.4106 30.5887C74.3635 29.7511 73.3245 29.3323 72.2936 29.3323C71.472 29.3323 70.8197 29.5256 70.3364 29.9122C69.8532 30.2826 69.6115 30.7578 69.6115 31.3377C69.6115 31.8532 69.7404 32.2479 69.9981 32.5217C70.272 32.7956 70.6827 33.0291 71.2304 33.2224L74.1541 34.2856C75.1689 34.6561 76.0146 35.0507 76.6912 35.4696C77.3677 35.8723 77.9074 36.4119 78.3101 37.0884C78.7128 37.7489 78.9141 38.5785 78.9141 39.5772C78.9141 40.5437 78.6564 41.4458 78.1409 42.2834C77.6416 43.1049 76.8925 43.7734 75.8938 44.2889C74.9112 44.7883 73.7433 45.0379 72.3902 45.0379Z" fill="black"/>
</g>
<defs>
<clipPath id="clip0_1605_871">
<rect width="142.475" height="57.95" fill="white" transform="translate(0.078125)"/>
</clipPath>
</defs>
</svg>
