<svg width="224" height="39" viewBox="0 0 224 39" fill="none" xmlns="http://www.w3.org/2000/svg">
<g clip-path="url(#clip0_1644_655)">
<path d="M116.851 4.29362C122.794 3.88949 138.438 3.74312 153.674 3.95814C164.842 4.11487 175.79 4.32601 182.538 4.38689C195.772 4.50605 203.791 1.17974 203.791 1.17974C203.791 1.17974 180.332 0.160345 152.215 0.187547C129.005 0.209567 116.88 0.436243 106.179 2.6486C94.5501 5.05267 69.2881 17.288 69.2881 17.288C70.9567 17.288 79.3139 13.6249 92.8618 9.2818C101.878 6.3907 108.516 4.86226 116.851 4.29492V4.29362Z" fill="black"/>
<path d="M197.683 19.2777C208.825 18.3658 223.209 18.7777 223.209 18.7777C223.209 18.7777 208.429 11.9165 198.569 9.60443C192.529 8.18868 180.228 7.90112 180.228 7.90112C180.228 7.90112 191.41 12.989 197.064 16.6184C197.064 16.6184 91.7675 19.5005 65.7041 20.7906C50.1479 21.5613 32.4181 21.6869 20.662 25.8876C5.93877 31.1451 0.208984 38.1851 0.208984 38.1851C0.208984 38.1851 5.3957 34.4391 12.7206 31.513C14.9637 30.6167 17.3642 29.7695 19.9497 29.0183C22.7936 28.2411 28.0486 27.0391 33.3442 26.9652C32.6778 27.1038 31.9668 27.2632 31.227 27.4458C19.1535 30.4107 15.5711 36.7745 15.5711 36.7745C15.7849 36.5944 16.0013 36.4196 16.2178 36.2473C17.0429 35.6269 18.6668 34.5505 21.1382 33.5324C22.0486 33.158 23.0783 32.7889 24.2497 32.4288C27.4871 31.4767 32.1531 30.4548 37.9209 30.4651C44.0665 30.4755 47.2082 31.2837 51.7784 32.6166C51.7784 32.6166 51.1304 31.855 49.2401 30.6257C47.3577 29.4017 45.6879 28.6737 43.8645 28.166C49.0447 27.7696 128.4 25.8409 145.942 25.1661C163.484 24.4912 189.33 23.806 196.17 23.806C216.452 23.806 221.556 25.5352 221.556 25.5352C221.556 25.5352 218.391 23.6117 211.133 21.7323C207.783 20.8644 202.33 19.8321 197.685 19.2777H197.683Z" fill="black"/>
<path d="M187.516 27.1724C175.672 27.1724 171.585 31.7875 171.585 31.7875C171.585 31.7875 176.352 30.0609 183.632 30.0609H194.766C199.628 30.0609 202.745 27.1737 202.745 27.1737H187.515L187.516 27.1724Z" fill="black"/>
</g>
<defs>
<clipPath id="clip0_1644_655">
<rect width="223" height="38" fill="white" transform="translate(0.208984 0.185059)"/>
</clipPath>
</defs>
</svg>
