<svg width="131" height="75" viewBox="0 0 131 75" fill="none" xmlns="http://www.w3.org/2000/svg">
<g clip-path="url(#clip0_1644_660)">
<path d="M66.802 15.748C74.0261 17.4827 81.7959 21.394 85.7633 24.0221C85.7633 24.0221 86.8489 23.9791 87.2867 24.0129C82.7915 21.1331 76.2242 17.5656 66.3702 14.959C60.0937 13.298 50.0718 13.0985 49.1241 13.1814C49.7329 13.3134 50.0718 13.734 50.4346 14.0073C56.909 14.0349 61.4342 14.4586 66.802 15.748ZM46.4102 28.5813C45.0788 28.6243 42.2779 29.3396 43.1715 29.6988C44.443 30.2085 46.1673 28.9743 46.2753 32.2685C46.3653 35.0593 46.5572 40.779 46.971 44.1224L47.2619 45.5715C47.1689 44.5983 46.6561 36.6988 46.893 32.5203C47.094 29.0203 47.1929 28.5567 46.4102 28.5813ZM102.278 31.0712C102.73 31.412 103.894 32.7475 104.8 34.4054C105.81 34.4361 109.496 34.6633 110.398 34.6541C110.284 33.6532 109.172 33.1159 108.149 32.6247C105.942 31.5716 93.3263 28.176 91.3681 27.7339L91.506 27.9611C91.506 27.9611 101.849 30.7519 102.278 31.0712ZM118.846 30.9883C121.422 31.9861 123.608 32.987 125.269 34.3133C126.238 35.0869 125.941 35.6273 125.17 35.8883C121.329 37.1931 102.659 36.7418 93.8421 36.1554C95.9592 36.6619 100.934 37.3374 106.161 37.6321C117.203 38.2492 120.381 38.2339 123.356 38.1632C125.185 38.1203 127.447 37.8716 128.43 37.3282C129.654 36.6527 128.511 35.1453 127.623 34.4791C125.254 32.6984 122.148 31.4028 119.425 30.408C112.486 27.8752 106.113 26.4936 100.613 25.591C98.5022 25.244 96.6309 25.023 95.5574 25.0383C96.8828 25.2532 97.9804 25.4313 100.298 25.8918C108.014 27.3379 115.844 29.8186 118.843 30.9821L118.846 30.9883ZM31.1404 29.9567C31.2124 33.0576 31.8211 35.6396 32.028 36.1523C31.3233 30.3282 32.4569 28.2804 32.8527 27.869C31.4253 27.7677 31.1194 28.9988 31.1404 29.9536V29.9567ZM33.9533 22.5607C32.9247 23.7089 31.9651 25.3239 31.9981 26.5151C32.016 27.1383 32.169 27.7339 34.556 27.694C36.9401 27.6541 48.6233 27.6848 49.424 27.737C50.3297 27.7923 50.9324 28.0686 50.8814 28.8361C50.8424 29.4532 50.6865 30.9914 50.7165 31.3414C50.7435 31.6914 50.8934 31.7343 51.0464 31.6607C52.039 27.6633 55.1217 25.4067 56.5941 24.5532C58.2375 23.6015 56.828 23.8225 54.9238 24.8418C54.0841 25.2931 53.3344 25.8089 52.1589 26.0791C51.2083 26.2971 35.1918 26.6686 34.1302 26.6747C33.0716 26.6809 32.9397 25.5265 33.0057 25.0138C33.1286 24.0958 33.5124 23.2484 33.9503 22.5638L33.9533 22.5607ZM46.6321 23.1625C47.058 23.1225 47.6757 23.0274 47.6847 22.7603L47.064 20.1568C47.064 20.1568 46.2543 21.2313 45.8045 21.5844C45.2857 21.569 43.1176 21.4585 42.3229 21.434C41.5282 21.4094 41.4382 22.2353 41.6721 22.5361C42.041 23.0059 42.8777 23.0489 43.8283 23.1594C44.7819 23.2699 46.1194 23.2085 46.6291 23.1594L46.6321 23.1625ZM35.8845 25.0046C36.0434 23.8256 37.027 20.4853 38.3945 18.9011C37.2399 19.8405 35.6776 21.4002 34.7839 25.0506C35.0478 25.2103 35.7945 25.2348 35.8845 25.0046ZM45.8585 14.5967C46.2843 14.8515 46.3922 15.0879 46.5902 15.834C46.8421 16.7765 48.3115 22.2568 48.5004 22.7695C49.2801 22.6712 54.519 22.4379 56.3722 22.4655C56.981 22.1186 57.9526 21.5967 58.8582 21.3204C57.8656 21.2897 53.7573 21.3664 50.8484 21.4708C50.3476 20.5651 48.8573 17.4642 48.5664 16.227C48.2635 14.9375 48.3295 14.0594 49.0402 13.995C48.7403 13.5774 48.1255 13.2305 47.4838 13.209C46.8421 13.1875 45.2287 13.1906 42.6318 14.5353C40.7275 15.5208 37.5338 17.8634 35.9954 20.0585C38.2685 17.8388 40.1877 16.5002 42.4668 15.3151C44.443 14.2866 45.3607 14.302 45.8585 14.5998V14.5967ZM38.4005 25.0015C39.1142 24.9247 46.5302 24.0497 48.1046 23.8348L47.9636 23.3221C47.1839 23.4725 44.2931 23.8318 42.2629 24.1203C40.2447 24.4089 36.9221 24.9278 36.4183 24.9646C36.7032 25.2164 37.6298 25.0844 38.4005 24.9984V25.0015ZM80.9143 52.9031C80.8813 53.2285 81.769 53.3759 83.3403 53.4373C84.9087 53.5017 97.7615 53.8149 98.0524 53.8026C98.3433 53.7903 98.0974 53.3667 97.5456 53.3206C96.9938 53.2746 93.3473 52.7219 92.2437 52.6268C92.2437 52.6268 82.9535 52.3289 82.1378 52.3228C81.4691 52.3167 80.9503 52.5254 80.9143 52.9031ZM97.3057 50.8184C97.5816 50.8061 97.3507 50.3825 96.8259 50.3364C96.3011 50.2904 92.8375 49.7439 91.7909 49.6518C91.7909 49.6518 82.9655 49.3755 82.1918 49.3693C81.556 49.3632 81.0642 49.575 81.0283 49.9526C80.9983 50.2781 81.8379 50.4254 83.3313 50.4838C84.8217 50.5421 97.0298 50.8338 97.3057 50.8215V50.8184ZM128.622 47.4566C128.388 49.5198 128.421 51.2022 127.372 51.8868C126.322 52.5684 122.118 53.557 117.353 54.1465C112.914 54.696 109.73 55.0338 108.155 54.036C108.584 54.8035 109.196 56.0223 110.437 56.0868C111.505 56.1421 115.688 55.8443 119.461 55.3346C121.986 54.9938 128.082 53.8395 129.003 52.7281C129.837 51.7211 130.004 47.1649 129.965 44.9606C129.348 45.025 128.718 46.6185 128.625 47.4535L128.622 47.4566ZM94.9846 32.7935C95.3415 32.772 95.5964 32.1764 95.5574 31.4642C95.5154 30.7519 95.1945 30.19 94.8407 30.2115C94.4838 30.233 94.2289 30.8286 94.2679 31.5409C94.3069 32.2563 94.6308 32.815 94.9846 32.7935ZM94.6907 30.7181C94.8617 30.7089 95.0176 31.0251 95.0416 31.4212C95.0656 31.8203 94.9456 32.1519 94.7747 32.1611C94.6038 32.1703 94.4478 31.8571 94.4238 31.458C94.4028 31.0589 94.5228 30.7273 94.6907 30.7181ZM116.012 42.0654C112.905 41.9641 111.28 41.9702 110.56 41.083C109.988 40.3768 109.49 39.4435 109.196 38.722C107.651 38.6637 106.14 38.5931 104.713 38.504C103.576 38.4334 102.967 39.7567 102.452 40.5365C101.933 41.3163 102.062 41.6816 102.326 42.4154C102.587 43.1461 103.408 44.6198 103.999 45.5807C110.32 45.7066 121.836 44.6873 126.706 44.2207C128.607 44.0365 130.367 43.2873 130.367 41.4575C130.367 40.2939 130.061 39.7935 129.69 39.4773C129.681 39.4681 129.666 39.4619 129.651 39.4527C129.729 39.9992 129.75 40.6593 129.132 40.9755C127.869 41.6264 120.318 42.2097 116.009 42.0685L116.012 42.0654ZM104.056 55.0307C104.338 55.657 104.437 55.7614 105.498 57.1337C104.02 52.8724 101.93 48.8474 101.072 47.3307C100.215 45.811 98.6971 45.6452 97.1917 45.5163C95.1465 45.3413 83.5892 44.7641 82.3987 44.7272C81.3791 44.6965 80.9263 45.2369 80.9083 45.8202C80.9023 46.0535 80.9143 46.3022 80.8963 46.9531C80.8963 46.9531 81.1932 45.3996 82.2068 45.4272C82.9595 45.4487 88.6662 45.7343 89.7217 45.8171C90.7743 45.9031 91.41 46.4097 91.9498 46.8364C93.902 47.0513 97.0268 46.6891 99.012 47.472C100.997 48.2548 103.777 54.4074 104.059 55.0338L104.056 55.0307ZM84.06 33.1865C84.12 33.1927 84.183 33.2049 84.243 33.1957C85.5024 33.0177 86.4591 31.9492 86.4531 30.4234C86.4471 28.8975 85.4575 27.7923 84.222 27.6694C84.162 27.6633 84.099 27.6725 84.039 27.6787C85.2056 27.7861 86.1292 28.9712 86.1352 30.4234C86.1412 31.8756 85.2266 33.0668 84.06 33.1865ZM78.1254 32.6216C79.5079 33.8865 82.1738 35.1913 84.5548 35.3817C86.9329 35.572 90.1386 34.5343 91.2271 34.2212C92.3157 33.908 93.6352 33.8466 95.2785 33.9571C96.9218 34.0677 103.987 34.6356 104.041 34.3563C104.116 33.9541 102.332 31.5993 101.939 31.2431C101.606 30.9422 91.584 28.0686 86.0542 26.905C88.978 27.869 100.529 30.9668 101.477 31.5778C102.425 32.1887 103.051 33.5795 103.159 33.7576C103.267 33.9356 102.344 33.8282 101.267 33.7361C100.191 33.644 94.3519 33.2479 93.4432 33.2172C92.5376 33.1896 91.3561 33.383 90.0966 33.6931C88.8371 34.0032 84.8097 34.9488 81.733 33.5856C79.0071 32.376 77.6426 30.8532 76.623 28.9313C76.3501 28.4155 75.9093 27.0002 76.0503 25.3085C74.8298 28.5291 76.746 31.3536 78.1284 32.6185L78.1254 32.6216ZM82.3267 31.983C82.5996 32.4006 82.9805 32.6615 83.4033 32.6585C84.219 32.6554 84.8787 31.6883 84.8727 30.4971C84.8697 29.3058 84.204 28.3449 83.3883 28.348C82.9985 28.348 82.6476 28.5721 82.3867 28.9313C82.9205 29.0418 83.3313 29.6773 83.3343 30.4479C83.3373 31.2523 82.8965 31.9124 82.3297 31.9861L82.3267 31.983ZM79.9277 24.4734C74.3949 21.5015 70.5955 20.5252 66.1483 20.4269C61.7011 20.3287 58.0815 22.1708 56.909 23.1041C58.9362 21.9436 61.6381 20.9305 65.1946 21.0441C68.7512 21.1546 73.1204 22.7204 76.3321 24.7282C77.0938 24.541 78.8031 24.3752 79.9277 24.4734ZM61.3562 48.8198C61.914 48.7092 62.2528 48.0031 62.1089 47.2386C61.965 46.4772 61.3952 45.9461 60.8374 46.0566C60.2796 46.1671 59.9408 46.8733 60.0847 47.6377C60.2287 48.3991 60.7984 48.9303 61.3562 48.8198ZM51.5711 47.5211C51.7511 54.1434 56.87 59.4763 62.5617 59.3596C57.5148 58.9206 52.9596 53.8425 52.7887 47.5579C52.6057 40.7974 56.3752 35.2712 62.1359 35.1084C62.2678 35.1054 62.3998 35.1054 62.5287 35.1084C62.1059 35.0685 61.6831 35.0501 61.2572 35.0624C55.2926 35.2312 51.3882 40.7606 51.5711 47.5211ZM61.4162 36.229C61.1223 36.269 60.8344 36.3273 60.5525 36.401L61.1943 42.9803C61.5031 43.0356 61.806 43.1369 62.0969 43.2781L62.7506 36.183C62.3158 36.1523 61.872 36.1646 61.4162 36.229ZM62.4777 50.4101C62.7177 50.3518 62.8376 49.9741 62.7446 49.5627C62.6517 49.1513 62.3818 48.8658 62.1419 48.9241C61.902 48.9825 61.782 49.3601 61.875 49.7715C61.9679 50.1798 62.2378 50.4684 62.4807 50.4101H62.4777ZM61.2183 45.5838C61.4851 45.5255 61.6321 45.1294 61.5421 44.6965C61.4552 44.2636 61.1643 43.9597 60.8974 44.018C60.6305 44.0764 60.4836 44.4724 60.5735 44.9053C60.6635 45.3351 60.9514 45.6391 61.2183 45.5838ZM60.2766 49.5812C60.4566 49.2035 60.4236 48.8075 60.2017 48.6939C59.9798 48.5834 59.6529 48.8013 59.473 49.179C59.293 49.5566 59.326 49.9557 59.5479 50.0662C59.7698 50.1768 60.0967 49.9588 60.2766 49.5812ZM32.2949 24.2616L28.0067 23.8103V24.0405L32.214 24.3782L32.2979 24.2616H32.2949ZM60.8854 26.2572C59.1971 25.7107 52.6537 25.155 50.1617 36.358C50.0987 36.7479 50.5336 36.7725 50.7195 36.6804C50.8454 36.619 50.9234 36.5698 50.9744 36.4255C52.1439 33.1251 54.7529 27.5896 59.5089 28.6304C64.1901 29.6558 66.5501 35.6672 67.4018 38.6146L63.5393 44.4724C63.7342 44.718 63.9082 44.9882 64.0611 45.2799L68.2114 41.8382C68.5713 43.4808 68.9641 45.5992 69.261 48.2241L64.6968 48.0553C64.6879 48.4636 64.6339 48.8566 64.5409 49.2312L69.5249 51.0518C69.7198 53.6767 69.8098 56.707 69.7138 60.1671C70.1097 60.4249 71.0063 60.5907 71.4681 60.6399C71.5881 52.5439 71.2402 44.8593 68.9851 37.3404C66.4631 28.919 62.4058 26.7545 60.8854 26.2633V26.2572ZM129.927 54.868C129.45 54.3061 128.802 53.646 128.805 53.8917C128.871 54.2048 128.862 54.5118 128.277 54.7881C127.866 54.9816 121.875 56.443 118.933 56.8451C112.896 57.6741 106.827 58.15 105.585 58.0486C104.716 57.978 97.7795 56.7837 97.7795 56.7837C97.7795 56.7837 93.8271 59.9767 93.1853 60.0473L80.6264 60.164L77.1028 60.2039C75.8553 60.164 74.3979 60.2223 74.125 60.4464C73.8521 60.6706 73.9571 61.0236 74.6348 61.1219C75.3126 61.2201 84.9327 62.3776 87.2417 62.4881C89.5478 62.5986 104.131 62.439 104.473 62.3714C104.815 62.307 106.989 60.5263 107.9 59.8693C112.255 59.553 116.363 58.985 120.348 58.3342C124.058 57.7263 129.675 56.3201 129.864 55.6723C130.307 55.9579 130.847 56.6702 130.982 56.5381C131.156 56.3693 130.472 55.5096 129.932 54.871L129.927 54.868ZM60.0127 52.157C59.6379 52.025 59.284 51.8316 58.9542 51.5768L57.6167 56.4184C58.2015 56.9311 58.8462 57.3609 59.5449 57.6925L60.0127 52.157ZM67.1618 56.8513L63.2035 51.5215C62.9006 51.7855 62.5557 51.9974 62.1839 52.1355L65.1886 58.0794C65.8964 57.803 66.5591 57.3824 67.1618 56.8482V56.8513ZM62.8676 46.3145C62.5947 46.5478 62.5047 46.8948 62.6637 47.0882C62.8226 47.2816 63.1705 47.2478 63.4434 47.0114C63.7162 46.7781 63.8062 46.4312 63.6473 46.2378C63.4883 46.0443 63.1375 46.0781 62.8676 46.3114V46.3145ZM26.7742 40.604C26.5972 40.6102 26.4713 41.0338 26.4863 41.5496C26.5013 42.0654 26.6572 42.4799 26.8311 42.4737C27.0051 42.4676 27.134 42.0439 27.119 41.5281C27.104 41.0124 26.9481 40.5979 26.7742 40.6009V40.604ZM26.5553 34.0677C25.5267 34.1198 24.8549 37.6168 25.0619 41.8781C25.2658 46.1395 26.2674 49.5535 27.299 49.5013C28.3275 49.4491 28.9993 45.9522 28.7924 41.6909C28.5884 37.4295 27.5868 34.0155 26.5553 34.0677ZM26.9631 48.0062C26.0964 48.0338 25.3048 45.1601 25.1968 41.5895C25.0888 38.0189 25.7066 35.1023 26.5732 35.0747C27.4399 35.047 28.2286 37.9207 28.3365 41.4913C28.4445 45.0619 27.8267 47.9785 26.9631 48.0062ZM27.227 31.8694C27.6138 32.5786 28.2136 34.2334 28.7204 36.6558C29.2212 39.0505 29.2961 40.9602 29.65 41.3102C30.2798 41.9365 32.5828 43.84 37.126 45.5685C40.7575 46.95 42.9496 47.5794 46.5062 48.4636C46.3353 47.3399 45.1208 47.0268 42.7217 46.2009C38.9283 44.893 32.208 41.8382 31.6712 40.2295C31.1794 38.7435 30.8135 36.4225 30.4537 33.9234C30.0638 31.24 29.8449 28.3756 29.1792 27.8659C28.5135 27.3563 26.3873 27.8936 25.4637 31.5317C26.2374 30.7887 26.8401 31.1571 27.227 31.8664V31.8694ZM27.5598 24.8603C27.8147 24.8695 27.8477 24.676 27.8477 24.676L27.8747 23.5339L32.4149 24.0497C32.5678 23.8287 32.6908 23.6568 32.8137 23.491L27.8867 22.9629L27.8987 22.4809C27.9407 22.0756 27.143 22.1769 26.6782 22.4809C26.2134 22.7848 26.4293 23.5493 26.5583 23.9975C26.7742 24.7405 27.305 24.8572 27.5598 24.8633V24.8603ZM58.2704 46.161C58.1715 46.422 58.4174 46.7628 58.8192 46.9224C59.2211 47.082 59.6259 46.9992 59.7249 46.7382C59.8238 46.4772 59.5779 46.1364 59.1761 45.9768C58.7742 45.8171 58.3694 45.9 58.2704 46.161ZM31.8451 46.4895C31.2993 46.3022 30.9425 46.1794 30.3907 45.7619C30.0039 45.4671 29.641 44.6198 29.5121 44.804C29.4191 44.9391 29.74 47.3031 29.8329 47.3492C30.3217 47.607 47.1989 53.3452 48.9802 53.9131C48.6623 53.4895 48.4914 52.8294 48.3025 52.0004C47.3639 51.7518 32.3819 46.6737 31.8421 46.4895H31.8451ZM61.74 60.4372C55.7755 60.6061 50.5546 54.9017 50.3536 47.5641C50.1557 40.2264 54.0482 34.2334 60.0127 34.0646C60.1087 34.0646 60.2047 34.0615 60.3006 34.0646C61.9859 34.0277 64.421 34.6448 63.9322 32.8979C63.2694 30.5339 60.8254 30.4387 58.9122 30.7243C52.3478 32.2563 48.0566 39.0689 48.1435 47.2847C48.2425 56.578 54.8548 64.0385 62.9096 63.9495C64.9398 63.928 66.868 63.4276 68.6133 62.5403C68.7392 59.9583 68.7512 58.2943 68.7302 56.9096C66.9309 59.0342 64.4959 60.3605 61.737 60.4372H61.74ZM59.284 43.2382L57.4908 38.0097C56.93 38.4856 56.4202 39.0382 55.9734 39.6615L58.5133 43.7448C58.7473 43.5391 59.0051 43.3702 59.284 43.2382ZM57.4908 45.1294L54.306 43.1553C54.1021 43.8615 53.9522 44.6014 53.8682 45.3689L57.1789 46.0228C57.2569 45.7097 57.3618 45.4119 57.4938 45.1294H57.4908ZM57.5957 49.8851C57.4038 49.4921 57.2509 49.0654 57.1519 48.6079L54.0571 49.8329C54.2221 50.6772 54.462 51.4908 54.7649 52.2553L57.5957 49.882V49.8851Z" fill="black"/>
<path d="M100.392 65.5369C86.3154 73.1079 63.4917 72.6627 43.4298 63.3202C18.3299 51.6291 7.05746 30.4358 18.2579 15.9876C27.5122 4.05085 49.2084 0.449557 70.6288 6.15084C52.2312 2.78902 34.3704 6.78636 26.1867 17.3416C15.3221 31.3568 25.638 51.626 49.2264 62.6141C66.8293 70.8114 86.8462 71.5237 100.389 65.5338L100.392 65.5369Z" fill="black"/>
<path d="M103.529 64.7414C88.8915 76.0979 60.8558 77.5562 35.798 67.2282C6.86566 55.3068 -7.13568 32.1885 4.5266 15.5943C12.1585 4.7321 28.8978 -0.640677 47.6642 0.28958C32.2954 0.961945 18.9688 6.32244 12.3324 15.7662C0.817102 32.1517 13.7899 54.6314 41.3067 65.9695C63.6597 75.1799 88.7326 74.2097 103.532 64.7414H103.529Z" fill="black"/>
</g>
<defs>
<clipPath id="clip0_1644_660">
<rect width="130.588" height="74" fill="white" transform="translate(0.415039 0.185059)"/>
</clipPath>
</defs>
</svg>
