<svg width="95" height="77" viewBox="0 0 95 77" fill="none" xmlns="http://www.w3.org/2000/svg">
<path d="M3.81406 62.8837C2.76236 62.1498 1.77807 61.5007 0.920915 60.9536C0.917063 66.4991 1.58931 71.6228 2.85096 76.1186H4.60188C5.69403 75.0803 6.81893 74.1249 7.96116 73.2427C9.43856 72.1044 10.941 71.0893 12.4396 70.1897C9.95285 67.441 6.6475 64.8619 3.81214 62.8837H3.81406Z" fill="black"/>
<path d="M10.3575 44.4057C11.9793 43.2057 15.4022 40.9019 20.3679 38.7446C15.8876 33.5362 12.8885 30.618 10.9662 28.9884C9.84127 28.0349 9.0862 27.5226 8.62006 27.251C6.76513 31.1766 5.1818 35.4123 3.93555 39.8579C4.59623 40.2644 5.46109 40.8153 6.45694 41.4991C7.61266 42.2926 8.94559 43.2654 10.3575 44.4057Z" fill="black"/>
<path d="M7.03656 60.6033C9.21894 58.3053 12.2007 56.2578 15.2788 54.5261C12.2488 50.6737 8.46772 47.5359 5.52257 45.4056C4.56332 44.7121 3.69461 44.1247 2.96843 43.6547C2.65253 45.03 2.36168 46.4188 2.1132 47.8249C1.57964 50.8471 1.23485 53.798 1.05957 56.6603C1.77997 57.0918 2.73729 57.6832 3.841 58.4055C4.81565 59.043 5.90203 59.7827 7.03656 60.6033Z" fill="black"/>
<path d="M35.5184 38.2034C35.6686 37.6949 35.8285 37.194 35.9864 36.6894C37.329 32.4286 38.9759 28.3239 40.9002 24.4657C41.5628 23.1347 42.262 21.8365 42.9882 20.569C44.6659 17.6412 46.5015 14.881 48.4894 12.3423C48.9594 11.7413 49.4371 11.1576 49.9167 10.5894C51.0724 9.22181 52.2551 7.95823 53.457 6.78325C55.911 4.38513 58.4517 2.38767 61.0347 0.839004L38.9123 0.831299C35.6513 0.831299 32.3594 1.74432 29.1465 3.40855C30.0268 3.97293 30.9321 4.59701 31.8432 5.28852C33.4227 6.48661 35.0156 7.87925 36.52 9.48955C40.0276 8.21441 44.2787 7.21279 49.3408 6.89111C48.2813 8.04683 47.2412 9.27382 46.2261 10.5702C46.1144 10.7127 46.0084 10.8629 45.8967 11.0055C35.3257 12.558 29.3276 17.3003 27.1837 19.3382C28.3259 20.3398 29.4528 21.4455 30.5199 22.6724C33.1318 21.8846 36.1328 21.2316 39.5383 20.8503C38.8237 22.1736 38.1438 23.5277 37.4946 24.9068C26.862 26.6616 21.122 31.1843 19.7255 32.419C21.2029 34.0254 22.6629 35.6974 24.0267 37.3019C26.8543 36.2907 30.0499 35.3911 33.5806 34.7574C33.1434 36.0846 32.7427 37.431 32.3652 38.787C22.8228 40.8461 16.1177 44.9142 13.2535 46.9098C15.1084 48.626 16.9672 50.5907 18.6198 52.7731C23.9939 50.1439 29.9613 47.9673 30.3292 47.8498L29.8977 50.6389C29.8245 51.1686 29.7571 51.6945 29.6935 52.2222C26.8909 53.1834 15.5052 57.3228 10.0078 62.8722C12.065 64.5345 14.101 66.3952 15.771 68.3503C21.4167 65.5014 26.5538 64.1743 29.133 63.6369C29.1638 64.912 29.2293 66.1717 29.3256 67.4122C26.3458 68.0922 20.5326 69.7468 14.6095 73.2428C13.1764 74.0884 11.7375 75.0438 10.3295 76.1186H33.5748C31.5812 67.8186 31.4406 58.047 33.2474 47.8363C33.8252 44.5695 34.588 41.3489 35.5164 38.2053L35.5184 38.2034Z" fill="black"/>
<path d="M17.1628 29.7185C18.2684 28.7092 21.3754 26.1801 26.7051 24.0189C23.7927 20.9986 20.5182 18.8355 17.8273 17.3831C16.8623 16.863 15.9724 16.4316 15.2038 16.0868C13.4471 18.4849 11.8022 21.1161 10.2939 23.9322C11.0124 24.329 11.8118 24.8895 12.667 25.5733C14.0539 26.6828 15.5871 28.1197 17.1628 29.7185Z" fill="black"/>
<path d="M24.2417 17.0018C25.5515 15.6766 28.3541 13.2188 32.8383 11.0441C31.3301 9.57055 29.7429 8.31467 28.2039 7.25911C27.2966 6.63695 26.4067 6.08413 25.5592 5.5968C22.772 7.56538 20.083 10.0887 17.5693 13.0724C18.3706 13.4518 19.2567 13.9045 20.1967 14.4303C21.4699 15.143 22.8433 15.9963 24.2417 17.0018Z" fill="black"/>
<path d="M64.4044 19.766C66.4674 17.8802 68.619 16.4086 70.8033 15.4262L65.6815 2.53613C62.0526 4.06553 58.4968 6.585 55.1722 9.89035L55.124 9.94043L64.4044 19.7679V19.766Z" fill="black"/>
<path d="M55.5352 31.4714C57.3709 28.1179 59.4281 25.1304 61.6297 22.6167L51.6751 13.7697C50.007 15.8172 48.4199 18.0651 46.9386 20.4882C46.2163 21.669 45.5209 22.8883 44.8525 24.1461L55.5352 31.4733V31.4714Z" fill="black"/>
<path d="M49.995 45.0259C51.0178 41.5145 52.2717 38.1783 53.7106 35.0868L42.5829 28.8074C40.676 33.0835 39.083 37.6929 37.8984 42.5257L49.995 45.0259Z" fill="black"/>
<path d="M48.0141 53.7497C48.2819 52.1182 48.6035 50.5118 48.9714 48.9323L36.8345 47.5127C36.8152 47.6206 36.7921 47.7284 36.7748 47.8363C34.8967 58.4535 35.3012 68.2463 37.5086 76.1167H48.2222C46.818 69.7429 46.6504 62.0439 48.016 53.7478L48.0141 53.7497Z" fill="black"/>
<path d="M93.6314 22.4048L91.083 24.3136C92.2657 26.4151 93.4137 28.9057 94.4982 31.8663C94.45 28.5378 94.1534 25.3692 93.6314 22.4048Z" fill="black"/>
<path d="M89.8567 22.2892L92.9945 19.4808C91.5344 14.3205 89.2962 9.99424 86.4146 6.81409L83.7295 15.8749C85.752 17.177 87.84 19.2092 89.8587 22.2892H89.8567Z" fill="black"/>
<path d="M80.308 14.2839L82.5097 3.46833C79.8669 1.77328 76.8698 0.846775 73.576 0.844849C72.6187 0.844849 71.6594 0.923823 70.6982 1.07599L74.5737 14.022C76.1571 13.7118 78.1372 13.6425 80.308 14.2839Z" fill="black"/>
<path d="M79.8682 26.681L70.973 45.7446C68.3939 45.812 66.3193 48.4432 66.3193 51.6792C66.3193 54.9152 68.4478 57.6176 71.0751 57.6176C73.7024 57.6176 75.8309 54.9595 75.8309 51.6792C75.8309 50.6294 75.6113 49.6432 75.228 48.786L79.8682 26.6791V26.681Z" fill="black"/>
</svg>
