<svg width="244" height="40" viewBox="0 0 244 40" fill="none" xmlns="http://www.w3.org/2000/svg">
<g clip-path="url(#clip0_1644_665)">
<path d="M10.3281 31.3386C15.4632 26.4297 26.0356 24.7933 32.5498 26.1527C42.5259 28.2355 46.9671 33.4186 49.8158 36.4567C47.9054 31.5831 42.5429 22.5932 28.9253 22.3686C17.8427 22.1849 12.0747 27.6096 9.12988 32.5058C9.51988 32.12 9.91837 31.73 10.3296 31.3386H10.3281Z" fill="black"/>
<path d="M19.7881 19.928C19.7881 19.928 35.6001 18.662 56.509 24.9825C67.0589 28.1718 79.9416 32.7204 79.9416 32.7204C79.9416 32.7204 34.0005 25.7823 19.7881 19.928Z" fill="black"/>
<path d="M77.1592 14.3748C77.1592 14.3748 86.4684 10.2035 94.5128 8.57568C94.5128 8.57568 86.3044 12.4573 84.6483 16.5255L77.1592 14.3748Z" fill="black"/>
<path d="M211.077 22.8317C197.449 19.3202 188.905 19.6396 179.13 20.1045C170.208 20.5298 148.467 4.80397 127.033 1.2445C109.305 -1.69888 90.2658 1.97363 68.9599 6.28767C47.6553 10.6045 0.391602 16.2115 0.391602 16.2115C0.391602 16.2115 46.4825 12.7312 72.3469 17.65C88.6168 20.7446 111.274 28.279 133.659 31.3721C146.635 30.4508 157.619 28.4754 157.619 28.4754C150.441 32.22 137.452 34.2322 129.31 35.1761C129.563 35.1846 129.814 35.193 130.066 35.2015L130.021 35.1436C143.596 35.4191 158.57 33.4055 165.207 32.3825C166.494 31.5149 168.058 30.4763 169.606 29.7556C176.49 26.5466 184.027 25.645 192.206 25.3215C215.601 24.3959 243.025 38.3738 243.025 38.3738C243.025 38.3738 228.115 27.222 211.077 22.8317ZM72.0601 11.8947C72.0601 11.8947 100.417 0.23982 124.443 4.41114C144.534 7.89997 162.422 23.2937 162.422 23.2937C142.561 26.7472 72.0601 11.8932 72.0601 11.8932V11.8947Z" fill="black"/>
<path d="M215.778 35.6836C214.76 33.1684 208.433 24.6802 196.173 24.2718C174.839 23.561 172.483 39.5384 172.483 39.5384C172.483 39.5384 177.255 27.9118 194.383 27.7253C206.825 27.5911 215.776 35.6836 215.776 35.6836H215.778Z" fill="black"/>
</g>
<defs>
<clipPath id="clip0_1644_665">
<rect width="242.635" height="39.3534" fill="white" transform="translate(0.391602 0.185059)"/>
</clipPath>
</defs>
</svg>
