<svg width="35" height="34" viewBox="0 0 35 34" fill="none" xmlns="http://www.w3.org/2000/svg">
<rect width="34" height="34" transform="translate(0.5)" fill="black"/>
<path d="M18.7308 18.8385L14.4538 17.8231C13.0385 17.4949 12.0436 16.9615 11.4692 16.2231C10.8949 15.4641 10.6077 14.3872 10.6077 12.9923C10.6077 10.9 11.1821 9.36154 12.3308 8.37692C13.4795 7.39231 15.2641 6.9 17.6846 6.9C18.6897 6.9 19.5821 6.95128 20.3615 7.05384C21.1615 7.1359 21.9 7.26923 22.5769 7.45384V10.7769C21.4077 10.5513 20.4744 10.4077 19.7769 10.3462C19.0795 10.2641 18.3615 10.2231 17.6231 10.2231C16.3923 10.2231 15.5205 10.4179 15.0077 10.8077C14.4949 11.1769 14.2385 11.8231 14.2385 12.7462C14.2385 13.2795 14.341 13.6897 14.5462 13.9769C14.7718 14.2436 15.141 14.4385 15.6538 14.5615L19.8077 15.5462C20.7718 15.7718 21.4897 16.0077 21.9615 16.2538C22.4333 16.4795 22.8231 16.7667 23.1308 17.1154C23.4385 17.5051 23.6641 17.9872 23.8077 18.5615C23.9718 19.1359 24.0538 19.8436 24.0538 20.6846C24.0538 22.859 23.4795 24.4179 22.3308 25.3615C21.1821 26.3051 19.3974 26.7769 16.9769 26.7769C15.7256 26.7769 14.5154 26.6949 13.3462 26.5308C12.1974 26.3667 11.2949 26.1615 10.6385 25.9154V22.4385C11.5205 22.7051 12.5154 22.9205 13.6231 23.0846C14.7513 23.2282 15.8692 23.3 16.9769 23.3C18.1872 23.3 19.0282 23.1359 19.5 22.8077C19.9923 22.459 20.2385 21.7923 20.2385 20.8077C20.2385 20.1923 20.1359 19.7513 19.9308 19.4846C19.7462 19.1974 19.3462 18.9821 18.7308 18.8385Z" fill="transparent"/>
</svg>
