<svg width="56" height="56" viewBox="0 0 56 56" fill="none" xmlns="http://www.w3.org/2000/svg">
<g clip-path="url(#clip0_2847_1634)">
<path d="M0 0V56H56V0H0ZM41.6854 39.5356C38.9588 39.5356 36.7566 37.3858 36.5468 34.6592H53.3783V39.5356H41.6854ZM34.3446 28.2097H27.5281C26.427 28.2097 25.4831 27.3184 25.4831 26.1648V25.4831C25.4831 24.382 26.1124 24.0674 27.4757 23.6479L33.2434 22.6517C35.7079 22.5993 37.4382 25.4307 37.4382 26.5843L37.3858 27.2659C37.4382 28.1573 35.4457 28.2097 34.3446 28.2097ZM34.3446 36.3371C34.3446 37.3858 33.5056 38.2247 32.4569 38.2247C31.4082 38.2247 30.5693 37.3858 30.5693 36.3371C30.5693 35.2884 31.4082 34.4494 32.4569 34.4494C33.5056 34.4494 34.3446 35.2884 34.3446 36.3371ZM53.3783 30.779H45.3034C43.8352 30.779 42.6292 29.6779 42 28.3146L41.4232 27.1086C40.4794 25.5356 40.4794 24.6442 42 24.6442H53.3783V30.779ZM53.3783 16.1498C45.2509 15.9925 37.8052 17.0936 32.824 18.1948C34.1348 14.9438 36.1273 10.2247 37.5955 9.70037C41.2659 8.28464 50.6517 7.55056 53.2734 7.44569H53.4307V16.1498H53.3783ZM2.62172 53.3783V2.62172H53.3783V5.19101H53.1685C50.2846 5.29588 39.7978 6.18727 35.7079 7.70786C34.1348 8.28464 31.9326 13.4757 30.4644 17.0936L29.7828 16.9363C29.4157 16.7266 29.3109 16.4644 29.2584 16.2547C29.206 15.1011 27.9476 14.367 26.5318 14.6292L23.7528 15.1011C22.809 15.2584 22.1273 16.0449 22.1273 16.8839V17.5131C22.1273 18.3521 22.809 19.0861 23.7528 19.1386L26.5318 19.2959C27.4232 19.3483 28.1573 19.4007 28.6816 18.824L29.6779 19.0337C27.9476 19.5056 26.794 19.9251 26.4794 20.1873C25.3258 21.0787 22.5468 23.0712 23.2809 29.3109C23.3858 30.2547 23.5955 31.5131 23.8052 32.8764C24.4869 37.0187 25.4307 42.2097 25.4307 42.2097C25.4307 42.2097 27.633 42.2097 28.1573 42.2097H35.4457H53.3783V53.4831H2.62172V53.3783Z" fill="#010202"/>
<path d="M24.1723 43.573C24.1723 43.573 23.2285 38.4344 22.5468 34.2397V48.5018C22.5468 49.3932 23.2809 50.1273 24.1723 50.1273H32.5618C33.4532 50.1273 34.1873 49.3932 34.1873 48.5018V43.573H26.8989C26.427 43.573 24.1723 43.573 24.1723 43.573Z" fill="#010202"/>
</g>
<defs>
<clipPath id="clip0_2847_1634">
<rect width="56" height="56" fill="white"/>
</clipPath>
</defs>
</svg>
