<svg width="56" height="56" viewBox="0 0 56 56" fill="none" xmlns="http://www.w3.org/2000/svg">
<path fill-rule="evenodd" clip-rule="evenodd" d="M47.784 8.21596C42.723 3.15493 35.6901 0 28 0C20.3099 0 13.277 3.15493 8.21596 8.21596C3.15493 13.277 0 20.2441 0 28C0 35.6901 3.15493 42.723 8.21596 47.784C13.277 52.8451 20.2441 56 28 56C35.6901 56 42.723 52.8451 47.784 47.784C52.8451 42.723 56 35.7559 56 28C55.9343 20.2441 52.8451 13.277 47.784 8.21596ZM46.7981 14.7887C42.9202 17.8122 38.8451 20.4413 34.3099 22.0845C34.2441 22.0188 34.1784 21.8873 34.1127 21.8216C33.3897 21.0986 32.6009 20.5728 31.6808 20.1127C31.8122 15.3146 33.1925 10.6479 34.9014 6.04695C38.4507 7.16432 41.6056 9.13615 44.169 11.6995C45.1549 12.6854 46.0094 13.6714 46.7981 14.7887ZM9.07043 40.8826C6.57277 37.2676 5.12676 32.8639 5.06103 28.1972C9.99061 27.8685 14.7887 28 19.4554 29.2488C19.5869 30.169 19.8498 31.0235 20.2441 31.8122C17.1549 35.493 13.277 38.3193 9.07043 40.8826ZM25.4366 30.5634C24.7793 29.9061 24.385 28.9859 24.385 28C24.385 27.0141 24.7793 26.0939 25.4366 25.4366C26.0939 24.7793 27.0141 24.385 28 24.385C28.9859 24.385 29.9061 24.7793 30.5634 25.4366C31.2207 26.0939 31.615 27.0141 31.615 28C31.615 28.9859 31.2207 29.9061 30.5634 30.5634C29.9061 31.2207 28.9859 31.615 28 31.615C27.0141 31.615 26.0939 31.2207 25.4366 30.5634ZM21.0329 6.04695C22.7418 10.6479 24.1221 15.3146 24.2535 20.1127C23.3333 20.507 22.5446 21.0986 21.8216 21.8216C21.7559 21.8873 21.6244 22.0188 21.5587 22.0845C17.0235 20.507 12.9484 17.8779 9.00469 14.8545C9.79343 13.7371 10.7136 12.6197 11.6995 11.6338C14.3286 9.13615 17.4836 7.16432 21.0329 6.04695ZM19.9812 49.4272C21.4272 44.7606 23.2676 40.2254 26.1596 36.3474C26.7512 36.4789 27.4085 36.5446 28.0657 36.5446C28.5915 36.5446 29.0516 36.4789 29.5775 36.4132C32.2066 40.4225 33.8498 45.0235 35.0986 49.7559C32.8639 50.4789 30.4977 50.8732 28.0657 50.8732C25.1737 50.8732 22.4789 50.4131 19.9812 49.4272ZM46.338 41.7371C42.2629 38.9765 38.4507 35.9531 35.5587 32.1409C36.0845 31.2207 36.4131 30.2347 36.5446 29.1174C41.2113 27.8685 46.0094 27.7371 50.939 28C50.939 33.1925 49.2301 37.9249 46.338 41.7371Z" fill="#010202"/>
</svg>
