<svg width="168" height="182" viewBox="0 0 168 182" fill="none" xmlns="http://www.w3.org/2000/svg">
<path fill-rule="evenodd" clip-rule="evenodd" d="M5.92834e-07 127.092L0 54.7354C9.84424 54.7354 19.2853 58.5465 26.2462 65.3303C33.2072 72.1142 37.1178 81.3151 37.1178 90.9089C37.1178 100.503 33.2072 109.704 26.2462 116.487C19.2853 123.271 9.84424 127.082 5.92756e-07 127.082L5.92834e-07 127.092Z" fill="#662FEB" fill-opacity="0.4"/>
<path fill-rule="evenodd" clip-rule="evenodd" d="M168 54.7338L168 127.091C158.156 127.091 148.715 123.279 141.754 116.496C134.793 109.712 130.882 100.511 130.882 90.9169C130.882 81.3231 134.793 72.1222 141.754 65.3384C148.715 58.5545 158.156 54.7433 168 54.7433L168 54.7338Z" fill="#662FEB" fill-opacity="0.4"/>
<path fill-rule="evenodd" clip-rule="evenodd" d="M10.6998 36.1783L73.2979 0C78.22 8.53418 79.6434 18.6244 77.2549 28.0509C74.8664 37.4774 68.8618 45.468 60.5618 50.2649C52.2619 55.0618 42.3466 56.2721 32.9972 53.6294C23.6478 50.9868 15.6301 44.7077 10.708 36.1735L10.6998 36.1783Z" fill="#662FEB" fill-opacity="0.4"/>
<path fill-rule="evenodd" clip-rule="evenodd" d="M158.157 145.822L95.5588 182C90.6367 173.466 89.2133 163.376 91.6018 153.949C93.9902 144.523 99.9949 136.532 108.295 131.735C116.595 126.938 126.51 125.728 135.859 128.371C145.209 131.013 153.227 137.292 158.149 145.826L158.157 145.822Z" fill="#662FEB" fill-opacity="0.4"/>
<path fill-rule="evenodd" clip-rule="evenodd" d="M94.7015 0.00118009L157.3 36.1795C152.377 44.7137 144.36 50.9927 135.01 53.6354C125.661 56.278 115.746 55.0677 107.446 50.2708C99.1459 45.4739 93.1412 37.4833 90.7527 28.0568C88.3643 18.6303 89.7877 8.54012 94.7098 0.00595597L94.7015 0.00118009Z" fill="#662FEB" fill-opacity="0.4"/>
<path fill-rule="evenodd" clip-rule="evenodd" d="M73.3002 181.829L10.7021 145.65C15.6243 137.116 23.6419 130.837 32.9913 128.194C42.3407 125.552 52.256 126.762 60.5559 131.559C68.8558 136.356 74.8605 144.346 77.249 153.773C79.6374 163.199 78.214 173.29 73.2919 181.824L73.3002 181.829Z" fill="#662FEB" fill-opacity="0.4"/>
</svg>
