<svg width="144" height="29" viewBox="0 0 144 29" fill="none" xmlns="http://www.w3.org/2000/svg">
<path fill-rule="evenodd" clip-rule="evenodd" d="M9.15359e-08 20.078L0 8.89528C1.51999 8.89528 2.97773 9.48429 4.05252 10.5327C5.12732 11.5812 5.73113 13.0032 5.73113 14.4859C5.73113 15.9687 5.12732 17.3907 4.05252 18.4391C2.97773 19.4876 1.51999 20.0766 9.15239e-08 20.0766L9.15359e-08 20.078Z" fill="#0E73E2"/>
<path fill-rule="evenodd" clip-rule="evenodd" d="M25.9398 8.89504L25.9398 20.0778C24.4198 20.0778 22.9621 19.4888 21.8873 18.4403C20.8125 17.3919 20.2087 15.9699 20.2087 14.4872C20.2087 13.0044 20.8125 11.5824 21.8873 10.534C22.9621 9.48553 24.4198 8.89652 25.9398 8.89652L25.9398 8.89504Z" fill="#E2078F"/>
<path fill-rule="evenodd" clip-rule="evenodd" d="M1.65211 6.02728L11.3175 0.435898C12.0775 1.75486 12.2973 3.31431 11.9285 4.77118C11.5597 6.22805 10.6326 7.46301 9.35101 8.20437C8.06947 8.94574 6.53851 9.13278 5.09493 8.72436C3.65134 8.31594 2.41338 7.3455 1.65339 6.02654L1.65211 6.02728Z" fill="#662FEB"/>
<path fill-rule="evenodd" clip-rule="evenodd" d="M24.42 22.9727L14.7546 28.5641C13.9946 27.2451 13.7749 25.6857 14.1437 24.2288C14.5124 22.772 15.4396 21.537 16.7211 20.7956C18.0027 20.0543 19.5336 19.8672 20.9772 20.2756C22.4208 20.6841 23.6588 21.6545 24.4188 22.9735L24.42 22.9727Z" fill="#E50545"/>
<path fill-rule="evenodd" clip-rule="evenodd" d="M14.6223 0.436079L24.2877 6.02746C23.5277 7.34642 22.2898 8.31685 20.8462 8.72528C19.4026 9.1337 17.8716 8.94665 16.5901 8.20528C15.3086 7.46392 14.3814 6.22896 14.0126 4.77209C13.6438 3.31522 13.8636 1.75578 14.6236 0.436817L14.6223 0.436079Z" fill="#7E11C6"/>
<path fill-rule="evenodd" clip-rule="evenodd" d="M11.3178 28.5376L1.65247 22.9462C2.41246 21.6273 3.65042 20.6568 5.094 20.2484C6.53759 19.84 8.06854 20.027 9.35008 20.7684C10.6316 21.5098 11.5588 22.7447 11.9276 24.2016C12.2963 25.6585 12.0766 27.2179 11.3166 28.5369L11.3178 28.5376Z" fill="#0CA8E5"/>
<path d="M40.2424 14.3384L36.4638 13.4435C35.4198 13.1949 34.6657 12.7723 34.2017 12.1757C33.7376 11.5625 33.5056 10.7173 33.5056 9.64006C33.5056 8.06565 33.9531 6.90557 34.848 6.1598C35.7595 5.41402 37.1682 5.04114 39.074 5.04114C39.8695 5.04114 40.5822 5.08257 41.2119 5.16543C41.8583 5.23172 42.4549 5.33945 43.0018 5.4886V7.40275C42.3057 7.23702 41.6428 7.12101 41.013 7.05472C40.3833 6.98843 39.7287 6.95528 39.0492 6.95528C37.7731 6.95528 36.8782 7.14587 36.3644 7.52704C35.8507 7.89164 35.5938 8.54626 35.5938 9.49091C35.5938 10.0875 35.7098 10.5433 35.9418 10.8582C36.1904 11.1565 36.5881 11.3719 37.135 11.5045L40.8887 12.3994C42.2146 12.7143 43.0929 13.1618 43.5238 13.7418C43.9713 14.3053 44.195 15.1836 44.195 16.3769C44.195 18.0838 43.7475 19.2937 42.8526 20.0063C41.9743 20.7189 40.5739 21.0752 38.6514 21.0752C37.6405 21.0752 36.6627 21.0089 35.7181 20.8763C34.79 20.7438 34.0525 20.5697 33.5056 20.3543V18.3656C34.2845 18.5976 35.1132 18.7799 35.9915 18.9125C36.8699 19.0285 37.7565 19.0865 38.6514 19.0865C39.8944 19.0865 40.7645 18.9042 41.2616 18.5396C41.7588 18.175 42.0074 17.4707 42.0074 16.4266C42.0074 15.7802 41.8831 15.3162 41.6345 15.0345C41.4025 14.7362 40.9385 14.5041 40.2424 14.3384Z" fill="#222222"/>
<path d="M48.6424 24.6549H46.604V8.59598H48.369L48.4933 9.68978H48.5679C49.0816 9.25889 49.6948 8.92743 50.4074 8.69542C51.1201 8.4634 51.8824 8.34739 52.6945 8.34739C54.3683 8.34739 55.5615 8.84457 56.2742 9.83893C57.0034 10.8333 57.368 12.4574 57.368 14.7113C57.368 16.9652 56.9288 18.5893 56.0504 19.5837C55.1721 20.578 53.7054 21.0752 51.6504 21.0752C51.0372 21.0752 50.4737 21.0338 49.96 20.9509C49.4628 20.8681 49.0236 20.7438 48.6424 20.578V24.6549ZM55.3295 14.7113C55.3295 13.0209 55.0892 11.8442 54.6086 11.1813C54.1446 10.5184 53.2662 10.187 51.9735 10.187C51.3604 10.187 50.772 10.2781 50.2086 10.4604C49.6617 10.6261 49.1396 10.8747 48.6424 11.2062V18.6887C49.0568 18.8545 49.4794 18.9788 49.9102 19.0616C50.3577 19.1445 50.8549 19.1859 51.4018 19.1859C52.9431 19.1859 53.9788 18.871 54.5092 18.2413C55.0561 17.595 55.3295 16.4183 55.3295 14.7113Z" fill="#222222"/>
<path d="M62.1661 6.4581H59.9785V4.34509H62.1661V6.4581ZM62.0916 20.8763H60.0531V8.59598H62.0916V20.8763Z" fill="#222222"/>
<path d="M73.4986 4.34509H75.537V20.8763H73.772L73.6229 19.7328H73.5731C73.0925 20.1803 72.5042 20.52 71.8081 20.752C71.1287 20.9675 70.3415 21.0752 69.4465 21.0752C67.7727 21.0752 66.5712 20.578 65.842 19.5837C65.1293 18.5893 64.773 16.9652 64.773 14.7113C64.773 12.4574 65.2122 10.8333 66.0906 9.83893C66.9689 8.84457 68.4356 8.34739 70.4906 8.34739C71.0707 8.34739 71.6093 8.39711 72.1065 8.49654C72.6202 8.57941 73.0842 8.7037 73.4986 8.86943V4.34509ZM70.7392 10.187C69.1979 10.187 68.1539 10.5101 67.607 11.1565C67.0766 11.8028 66.8115 12.9877 66.8115 14.7113C66.8115 16.3851 67.0435 17.5535 67.5075 18.2164C67.9881 18.8628 68.8748 19.1859 70.1674 19.1859C70.7806 19.1859 71.369 19.1114 71.9324 18.9622C72.4959 18.7965 73.018 18.5562 73.4986 18.2413V10.6841C73.1008 10.5184 72.6782 10.3941 72.2308 10.3113C71.7833 10.2284 71.2861 10.187 70.7392 10.187Z" fill="#222222"/>
<path d="M88.0415 18.4899V20.2051C87.6106 20.4372 86.9725 20.6443 86.1273 20.8266C85.2987 20.9924 84.4535 21.0752 83.5917 21.0752C81.6693 21.0752 80.2938 20.578 79.4651 19.5837C78.6365 18.5893 78.2222 16.9486 78.2222 14.6616C78.2222 12.4574 78.6531 10.8582 79.5148 9.86379C80.3766 8.85286 81.7521 8.34739 83.6414 8.34739C85.3981 8.34739 86.6577 8.74513 87.42 9.54062C88.1824 10.3195 88.5635 11.6288 88.5635 13.4684C88.5635 13.7998 88.5552 14.1064 88.5387 14.3881C88.5221 14.6699 88.4889 15.0096 88.4392 15.4074H80.2855C80.302 16.7663 80.5755 17.7358 81.1058 18.3159C81.6527 18.8959 82.5891 19.1859 83.9149 19.1859C84.6275 19.1859 85.3733 19.1196 86.1522 18.9871C86.9311 18.8545 87.5609 18.6887 88.0415 18.4899ZM86.6991 13.1949C86.6825 12.1011 86.4422 11.3305 85.9782 10.883C85.5141 10.419 84.7352 10.187 83.6414 10.187C82.4151 10.187 81.545 10.4521 81.0312 10.9824C80.5341 11.4962 80.2855 12.4077 80.2855 13.7169H86.6742C86.6742 13.6838 86.6742 13.6092 86.6742 13.4932C86.6908 13.3606 86.6991 13.2612 86.6991 13.1949Z" fill="#222222"/>
<path d="M93.2382 20.8763H91.1997V8.59598H93.0642L93.1636 9.64006H93.2631C93.9094 9.25889 94.5557 8.97715 95.2021 8.79485C95.8484 8.59598 96.4864 8.49654 97.1162 8.49654C97.3814 8.49654 97.5554 8.49654 97.6382 8.49654C97.7377 8.49654 97.8122 8.50483 97.862 8.5214V10.4853C97.746 10.4521 97.5968 10.4355 97.4145 10.4355C97.2488 10.419 96.9836 10.4107 96.619 10.4107C96.0224 10.4107 95.4341 10.4853 94.854 10.6344C94.2906 10.767 93.7519 10.9742 93.2382 11.2559V20.8763Z" fill="#222222"/>
<path d="M104.068 10.187C103.008 10.187 102.27 10.3113 101.856 10.5598C101.458 10.8084 101.259 11.3139 101.259 12.0762C101.259 12.474 101.35 12.7806 101.533 12.996C101.731 13.1949 102.038 13.3275 102.452 13.3938L105.609 13.8661C106.604 14.0152 107.3 14.3301 107.698 14.8107C108.095 15.2748 108.294 16.0123 108.294 17.0232C108.294 18.4484 107.954 19.4842 107.275 20.1306C106.596 20.7603 105.469 21.0752 103.894 21.0752C102.95 21.0752 102.071 21.0255 101.259 20.9261C100.447 20.8266 99.7759 20.694 99.2455 20.5283V18.6142C99.7759 18.7799 100.422 18.9208 101.185 19.0368C101.963 19.1362 102.759 19.1859 103.571 19.1859C104.599 19.1859 105.303 19.0368 105.684 18.7385C106.065 18.4402 106.256 17.9098 106.256 17.1475C106.256 16.6669 106.148 16.3189 105.933 16.1034C105.717 15.8714 105.328 15.7139 104.764 15.6311L101.607 15.1588C100.812 15.0428 100.215 14.7362 99.8173 14.239C99.4361 13.7418 99.2372 13.0209 99.2207 12.0762C99.2207 10.7836 99.6018 9.83893 100.364 9.24231C101.143 8.6457 102.336 8.34739 103.944 8.34739C104.607 8.34739 105.203 8.36396 105.734 8.39711C106.281 8.43025 106.852 8.49654 107.449 8.59598V10.4107C107.018 10.3444 106.513 10.2947 105.933 10.2615C105.353 10.2118 104.731 10.187 104.068 10.187Z" fill="#222222"/>
<path d="M112.805 20.8763H110.767V8.59598H112.532L112.631 9.78921H112.706C113.368 9.29203 114.056 8.92743 114.769 8.69542C115.498 8.4634 116.31 8.34739 117.205 8.34739C118.564 8.34739 119.591 8.68713 120.288 9.36661C121 10.0461 121.356 11.0487 121.356 12.3746V20.8763H119.318V12.6231C119.318 11.7945 119.086 11.1813 118.622 10.7836C118.158 10.3858 117.445 10.187 116.484 10.187C115.887 10.187 115.274 10.2864 114.645 10.4853C114.031 10.6676 113.418 10.941 112.805 11.3056V20.8763Z" fill="#222222"/>
<path d="M133.754 18.4899V20.2051C133.323 20.4372 132.685 20.6443 131.84 20.8266C131.011 20.9924 130.166 21.0752 129.304 21.0752C127.382 21.0752 126.006 20.578 125.178 19.5837C124.349 18.5893 123.935 16.9486 123.935 14.6616C123.935 12.4574 124.366 10.8582 125.227 9.86379C126.089 8.85286 127.465 8.34739 129.354 8.34739C131.111 8.34739 132.37 8.74513 133.132 9.54062C133.895 10.3195 134.276 11.6288 134.276 13.4684C134.276 13.7998 134.268 14.1064 134.251 14.3881C134.235 14.6699 134.201 15.0096 134.152 15.4074H125.998C126.015 16.7663 126.288 17.7358 126.818 18.3159C127.365 18.8959 128.302 19.1859 129.627 19.1859C130.34 19.1859 131.086 19.1196 131.865 18.9871C132.644 18.8545 133.273 18.6887 133.754 18.4899ZM132.412 13.1949C132.395 12.1011 132.155 11.3305 131.691 10.883C131.227 10.419 130.448 10.187 129.354 10.187C128.128 10.187 127.257 10.4521 126.744 10.9824C126.247 11.4962 125.998 12.4077 125.998 13.7169H132.387C132.387 13.6838 132.387 13.6092 132.387 13.4932C132.403 13.3606 132.412 13.2612 132.412 13.1949Z" fill="#222222"/>
<path d="M144 18.9622V20.6775C143.735 20.7935 143.37 20.8846 142.906 20.9509C142.459 21.0338 142.028 21.0752 141.613 21.0752C140.122 21.0752 139.053 20.7438 138.407 20.0809C137.777 19.4179 137.462 18.2744 137.462 16.6503V10.3361H135.622V8.59598H137.487L137.81 5.6129H139.5V8.59598H143.876V10.3361H139.5V16.5757C139.5 17.5867 139.683 18.2744 140.047 18.639C140.429 19.0036 141.091 19.1859 142.036 19.1859C142.334 19.1859 142.674 19.1611 143.055 19.1114C143.453 19.0616 143.768 19.0119 144 18.9622Z" fill="#222222"/>
</svg>
