<svg width="307" height="61" viewBox="0 0 307 61" fill="none" xmlns="http://www.w3.org/2000/svg">
<path fill-rule="evenodd" clip-rule="evenodd" d="M1.94807e-07 42.3712L0 18.572C3.23485 18.572 6.33721 19.8255 8.6246 22.0568C10.912 24.2882 12.197 27.3145 12.197 30.47C12.197 33.6256 10.912 36.6519 8.6246 38.8832C6.33721 41.1145 3.23485 42.3681 1.94782e-07 42.3681L1.94807e-07 42.3712Z" fill="#0E73E2"/>
<path fill-rule="evenodd" clip-rule="evenodd" d="M55.2053 18.5715L55.2053 42.3707C51.9705 42.3707 48.8681 41.1172 46.5807 38.8859C44.2933 36.6546 43.0083 33.6282 43.0083 30.4727C43.0083 27.3171 44.2933 24.2908 46.5807 22.0595C48.8681 19.8282 51.9705 18.5746 55.2053 18.5746L55.2053 18.5715Z" fill="#E2078F"/>
<path fill-rule="evenodd" clip-rule="evenodd" d="M3.516 12.4683L24.0859 0.568695C25.7034 3.37572 26.1711 6.69454 25.3862 9.79506C24.6014 12.8956 22.6282 15.5238 19.9008 17.1016C17.1735 18.6794 13.9153 19.0774 10.843 18.2082C7.77077 17.339 5.13614 15.2738 3.51872 12.4667L3.516 12.4683Z" fill="#662FEB"/>
<path fill-rule="evenodd" clip-rule="evenodd" d="M51.9708 48.5317L31.4009 60.4313C29.7835 57.6243 29.3157 54.3054 30.1006 51.2049C30.8854 48.1044 32.8586 45.4761 35.586 43.8984C38.3134 42.3206 41.5715 41.9225 44.6438 42.7917C47.716 43.6609 50.3507 45.7262 51.9681 48.5332L51.9708 48.5317Z" fill="#E50545"/>
<path fill-rule="evenodd" clip-rule="evenodd" d="M31.1193 0.569052L51.6892 12.4687C50.0718 15.2757 47.4372 17.341 44.3649 18.2102C41.2927 19.0794 38.0345 18.6813 35.3071 17.1035C32.5797 15.5257 30.6066 12.8975 29.8217 9.79698C29.0369 6.69646 29.5046 3.37764 31.122 0.570623L31.1193 0.569052Z" fill="#7E11C6"/>
<path fill-rule="evenodd" clip-rule="evenodd" d="M24.0868 60.3749L3.51685 48.4753C5.13427 45.6683 7.7689 43.603 10.8411 42.7338C13.9134 41.8646 17.1716 42.2626 19.899 43.8404C22.6263 45.4182 24.5995 48.0464 25.3843 51.147C26.1692 54.2475 25.7015 57.5663 24.084 60.3733L24.0868 60.3749Z" fill="#0CA8E5"/>
<path d="M85.6442 30.1561L77.6026 28.2515C75.3806 27.7225 73.7758 26.8231 72.7882 25.5534C71.8007 24.2484 71.3069 22.4496 71.3069 20.157C71.3069 16.8064 72.2592 14.3375 74.1638 12.7503C76.1036 11.1632 79.1016 10.3696 83.1576 10.3696C84.8506 10.3696 86.3672 10.4578 87.7075 10.6341C89.083 10.7752 90.3527 11.0044 91.5166 11.3219V15.3956C90.0353 15.0429 88.6245 14.796 87.2842 14.6549C85.944 14.5138 84.5508 14.4433 83.1047 14.4433C80.3889 14.4433 78.4843 14.8489 77.391 15.6601C76.2976 16.436 75.7509 17.8292 75.7509 19.8396C75.7509 21.1093 75.9978 22.0793 76.4916 22.7494C77.0206 23.3842 77.8671 23.8428 79.031 24.1249L87.0197 26.0295C89.8413 26.6996 91.7106 27.6519 92.6277 28.8864C93.5799 30.0856 94.0561 31.9549 94.0561 34.4943C94.0561 38.1271 93.1038 40.7019 91.1992 42.2185C89.3299 43.7351 86.3496 44.4934 82.2582 44.4934C80.1068 44.4934 78.0258 44.3523 76.0154 44.0702C74.0403 43.788 72.4708 43.4177 71.3069 42.9591V38.7267C72.9646 39.2205 74.7281 39.6085 76.5974 39.8906C78.4667 40.1375 80.3537 40.261 82.2582 40.261C84.9035 40.261 86.7552 39.873 87.8133 39.0971C88.8714 38.3211 89.4004 36.8221 89.4004 34.6001C89.4004 33.2246 89.1359 32.237 88.6069 31.6374C88.1131 31.0026 87.1255 30.5088 85.6442 30.1561Z" fill="white"/>
<path d="M103.521 52.1117H99.1829V17.935H102.939L103.204 20.2628H103.362C104.456 19.3458 105.761 18.6404 107.277 18.1466C108.794 17.6529 110.416 17.406 112.145 17.406C115.707 17.406 118.246 18.4641 119.763 20.5803C121.315 22.6965 122.091 26.153 122.091 30.9497C122.091 35.7464 121.156 39.2029 119.287 41.3191C117.418 43.4353 114.296 44.4934 109.923 44.4934C108.618 44.4934 107.418 44.4052 106.325 44.2289C105.267 44.0525 104.332 43.788 103.521 43.4353V52.1117ZM117.753 30.9497C117.753 27.3521 117.241 24.848 116.218 23.4372C115.231 22.0264 113.361 21.3209 110.61 21.3209C109.305 21.3209 108.053 21.5149 106.854 21.9029C105.69 22.2556 104.579 22.7847 103.521 23.4901V39.4145C104.403 39.7672 105.302 40.0317 106.219 40.2081C107.172 40.3844 108.23 40.4726 109.394 40.4726C112.674 40.4726 114.878 39.8025 116.007 38.4622C117.171 37.0867 117.753 34.5825 117.753 30.9497Z" fill="white"/>
<path d="M132.302 13.3852H127.647V8.88824H132.302V13.3852ZM132.144 44.0702H127.805V17.935H132.144V44.0702Z" fill="white"/>
<path d="M156.42 8.88824H160.758V44.0702H157.002L156.685 41.6365H156.579C155.556 42.5888 154.304 43.3118 152.823 43.8056C151.376 44.2641 149.701 44.4934 147.797 44.4934C144.234 44.4934 141.677 43.4353 140.125 41.3191C138.609 39.2029 137.85 35.7464 137.85 30.9497C137.85 26.153 138.785 22.6965 140.654 20.5803C142.524 18.4641 145.645 17.406 150.019 17.406C151.253 17.406 152.399 17.5118 153.457 17.7234C154.551 17.8998 155.538 18.1643 156.42 18.517V8.88824ZM150.548 21.3209C147.267 21.3209 145.045 22.0087 143.882 23.3842C142.753 24.7598 142.189 27.2816 142.189 30.9497C142.189 34.512 142.682 36.9985 143.67 38.4093C144.693 39.7848 146.58 40.4726 149.331 40.4726C150.636 40.4726 151.888 40.3139 153.087 39.9965C154.286 39.6438 155.397 39.1323 156.42 38.4622V22.3791C155.574 22.0264 154.674 21.7618 153.722 21.5855C152.77 21.4091 151.712 21.3209 150.548 21.3209Z" fill="white"/>
<path d="M187.37 38.9913V42.6417C186.453 43.1355 185.095 43.5764 183.297 43.9643C181.533 44.317 179.734 44.4934 177.9 44.4934C173.809 44.4934 170.882 43.4353 169.118 41.3191C167.355 39.2029 166.473 35.7111 166.473 30.8439C166.473 26.153 167.39 22.7494 169.224 20.6332C171.058 18.4817 173.985 17.406 178.006 17.406C181.745 17.406 184.425 18.2525 186.048 19.9454C187.67 21.6031 188.481 24.3894 188.481 28.3044C188.481 29.0098 188.464 29.6623 188.429 30.2619C188.393 30.8615 188.323 31.5845 188.217 32.431H170.864C170.899 35.3232 171.481 37.3865 172.61 38.6209C173.774 39.8554 175.767 40.4726 178.588 40.4726C180.105 40.4726 181.692 40.3315 183.35 40.0494C185.007 39.7672 186.348 39.4145 187.37 38.9913ZM184.514 27.7225C184.478 25.3946 183.967 23.7546 182.979 22.8023C181.992 21.8147 180.334 21.3209 178.006 21.3209C175.396 21.3209 173.545 21.8853 172.451 23.0139C171.393 24.1073 170.864 26.0471 170.864 28.8335H184.461C184.461 28.7629 184.461 28.6042 184.461 28.3573C184.496 28.0752 184.514 27.8636 184.514 27.7225Z" fill="white"/>
<path d="M198.43 44.0702H194.092V17.935H198.06L198.271 20.157H198.483C199.858 19.3458 201.234 18.7462 202.61 18.3583C203.985 17.935 205.343 17.7234 206.683 17.7234C207.248 17.7234 207.618 17.7234 207.794 17.7234C208.006 17.7234 208.165 17.741 208.27 17.7763V21.9558C208.024 21.8853 207.706 21.85 207.318 21.85C206.965 21.8147 206.401 21.7971 205.625 21.7971C204.355 21.7971 203.103 21.9558 201.869 22.2732C200.67 22.5554 199.523 22.9963 198.43 23.5959V44.0702Z" fill="white"/>
<path d="M221.479 21.3209C219.221 21.3209 217.652 21.5855 216.77 22.1145C215.923 22.6436 215.5 23.7193 215.5 25.3417C215.5 26.1882 215.694 26.8407 216.082 27.2992C216.505 27.7225 217.158 28.0046 218.04 28.1457L224.759 29.1509C226.875 29.4683 228.356 30.1385 229.203 31.1613C230.049 32.1489 230.472 33.7184 230.472 35.8699C230.472 38.9031 229.749 41.1075 228.303 42.483C226.857 43.8233 224.459 44.4934 221.108 44.4934C219.098 44.4934 217.228 44.3876 215.5 44.176C213.772 43.9643 212.344 43.6822 211.215 43.3295V39.2558C212.344 39.6085 213.719 39.9083 215.342 40.1552C216.999 40.3668 218.692 40.4726 220.42 40.4726C222.607 40.4726 224.106 40.1552 224.917 39.5203C225.729 38.8855 226.134 37.7568 226.134 36.1344C226.134 35.1116 225.905 34.3709 225.446 33.9124C224.988 33.4186 224.159 33.0835 222.96 32.9072L216.241 31.902C214.548 31.6551 213.278 31.0026 212.432 29.9445C211.621 28.8864 211.197 27.3521 211.162 25.3417C211.162 22.5907 211.973 20.5803 213.596 19.3106C215.253 18.0408 217.793 17.406 221.214 17.406C222.625 17.406 223.895 17.4412 225.023 17.5118C226.187 17.5823 227.404 17.7234 228.674 17.935V21.7971C227.757 21.656 226.681 21.5502 225.446 21.4797C224.212 21.3739 222.889 21.3209 221.479 21.3209Z" fill="white"/>
<path d="M240.072 44.0702H235.734V17.935H239.49L239.702 20.4745H239.861C241.271 19.4164 242.735 18.6404 244.252 18.1466C245.804 17.6529 247.532 17.406 249.436 17.406C252.329 17.406 254.515 18.129 255.997 19.5751C257.513 21.0212 258.272 23.155 258.272 25.9766V44.0702H253.933V26.5057C253.933 24.7421 253.44 23.4372 252.452 22.5907C251.464 21.7442 249.948 21.3209 247.902 21.3209C246.632 21.3209 245.327 21.5326 243.987 21.9558C242.682 22.3438 241.377 22.9257 240.072 23.7017V44.0702Z" fill="white"/>
<path d="M284.656 38.9913V42.6417C283.739 43.1355 282.381 43.5764 280.582 43.9643C278.819 44.317 277.02 44.4934 275.186 44.4934C271.095 44.4934 268.167 43.4353 266.404 41.3191C264.64 39.2029 263.758 35.7111 263.758 30.8439C263.758 26.153 264.675 22.7494 266.509 20.6332C268.343 18.4817 271.271 17.406 275.292 17.406C279.03 17.406 281.711 18.2525 283.333 19.9454C284.956 21.6031 285.767 24.3894 285.767 28.3044C285.767 29.0098 285.749 29.6623 285.714 30.2619C285.679 30.8615 285.608 31.5845 285.502 32.431H268.15C268.185 35.3232 268.767 37.3865 269.895 38.6209C271.059 39.8554 273.052 40.4726 275.874 40.4726C277.39 40.4726 278.977 40.3315 280.635 40.0494C282.293 39.7672 283.633 39.4145 284.656 38.9913ZM281.799 27.7225C281.764 25.3946 281.252 23.7546 280.265 22.8023C279.277 21.8147 277.62 21.3209 275.292 21.3209C272.682 21.3209 270.83 21.8853 269.737 23.0139C268.679 24.1073 268.15 26.0471 268.15 28.8335H281.746C281.746 28.7629 281.746 28.6042 281.746 28.3573C281.781 28.0752 281.799 27.8636 281.799 27.7225Z" fill="white"/>
<path d="M306.462 39.9965V43.6469C305.897 43.8938 305.121 44.0878 304.134 44.2289C303.181 44.4052 302.264 44.4934 301.383 44.4934C298.208 44.4934 295.933 43.788 294.558 42.3772C293.218 40.9664 292.547 38.5328 292.547 35.0763V21.6384H288.632V17.935H292.6L293.288 11.5864H296.886V17.935H306.197V21.6384H296.886V34.9176C296.886 37.069 297.274 38.5328 298.05 39.3087C298.861 40.0846 300.272 40.4726 302.282 40.4726C302.917 40.4726 303.64 40.4197 304.451 40.3139C305.298 40.2081 305.968 40.1023 306.462 39.9965Z" fill="white"/>
</svg>
